<svg height="512pt" viewBox="0 0 512 511" width="512pt" xmlns="http://www.w3.org/2000/svg"><path d="m25.601562 486.859375h145.066407c14.128906-.015625 25.582031-11.464844 25.597656-25.597656l-.011719-85.335938h17.078125v113.835938c-.09375 6.824219 3.863281 13.058593 10.078125 15.878906 20.785156 9.046875 44.394532 9.046875 65.179688 0 6.214844-2.820313 10.171875-9.054687 10.078125-15.878906v-2.902344h187.730469c14.132812-.015625 25.585937-11.464844 25.601562-25.597656v-409.601563c-.015625-14.132812-11.46875-25.582031-25.601562-25.597656h-187.730469v-2.902344c.09375-6.824218-3.863281-13.058594-10.078125-15.878906-20.785156-9.042969-44.394532-9.042969-65.179688 0-6.214844 2.820312-10.171875 9.054688-10.078125 15.878906v113.832032h-17.066406v-85.332032c-.015625-14.132812-11.46875-25.582031-25.597656-25.597656h-145.066407c-14.132812.015625-25.585937 11.464844-25.601562 25.597656v409.601563c.015625 14.132812 11.46875 25.582031 25.601562 25.597656zm273.066407-119.464844v-247.46875h17.066406v273.066407h-17.066406zm-17.144531 8.53125h-51.160157v-8.328125c0-.070312.039063-.132812.039063-.203125v-221.867187c0-.203125-.101563-.378906-.117188-.578125v-7.957031h51.296875zm-51.125 113.835938-.03125-96.769531h51.148437l-.023437 97.121093c-16.320313 7.085938-34.871094 6.957031-51.09375-.351562zm93.867187-446.632813h162.132813c4.710937.003906 8.527343 3.820313 8.535156 8.53125v409.601563c-.007813 4.710937-3.824219 8.527343-8.535156 8.53125h-187.730469v-59.730469h17.066406c9.421875-.011719 17.054687-7.648438 17.066406-17.070312v-273.066407c-.011719-9.421875-7.644531-17.054687-17.066406-17.066406h-17.066406v-59.730469zm-68.503906-25.539062c8.914062-.015625 17.722656 1.886718 25.839843 5.570312l-.023437 96.765625h-51.304687l-.03125-97.003906c8.046874-3.515625 16.738281-5.328125 25.519531-5.332031zm-238.695313 34.070312c.007813-4.710937 3.824219-8.527344 8.535156-8.53125h145.066407c4.710937.003906 8.527343 3.820313 8.53125 8.53125v85.332032c.011719 9.421874 7.644531 17.058593 17.066406 17.070312h17.066406v204.796875h-17.066406c-9.421875.011719-17.054687 7.644531-17.066406 17.066406v85.335938c-.003907 4.710937-3.820313 8.527343-8.53125 8.53125h-145.066407c-4.710937-.003907-8.527343-3.820313-8.535156-8.53125zm0 0"/><path d="m64 171.128906c12.078125 0 22.96875-7.277344 27.59375-18.4375 4.621094-11.160156 2.066406-24.007812-6.476562-32.550781-8.539063-8.539063-21.386719-11.097656-32.546876-6.472656-11.160156 4.621093-18.4375 15.511719-18.4375 27.59375.019532 16.484375 13.378907 29.847656 29.867188 29.867187zm0-42.667968c7.070312 0 12.800781 5.730468 12.800781 12.800781 0 7.066406-5.730469 12.800781-12.800781 12.800781s-12.800781-5.734375-12.800781-12.800781c.007812-7.066407 5.734375-12.792969 12.800781-12.800781zm0 0"/><path d="m448 171.128906c12.078125 0 22.96875-7.277344 27.59375-18.4375 4.621094-11.160156 2.066406-24.007812-6.476562-32.550781-8.539063-8.539063-21.386719-11.097656-32.546876-6.472656-11.160156 4.621093-18.4375 15.511719-18.4375 27.59375.019532 16.484375 13.378907 29.847656 29.867188 29.867187zm0-42.667968c7.070312 0 12.800781 5.730468 12.800781 12.800781 0 7.066406-5.730469 12.800781-12.800781 12.800781s-12.800781-5.734375-12.800781-12.800781c.007812-7.066407 5.734375-12.792969 12.800781-12.800781zm0 0"/><path d="m132.265625 119.925781c16.496094 0 29.867187-13.371093 29.867187-29.863281 0-16.496094-13.371093-29.867188-29.867187-29.867188-16.492187 0-29.867187 13.371094-29.867187 29.867188.019531 16.484375 13.382812 29.84375 29.867187 29.863281zm0-42.664062c7.070313 0 12.800781 5.730469 12.800781 12.800781 0 7.066406-5.730468 12.796875-12.800781 12.796875-7.066406 0-12.800781-5.730469-12.800781-12.796875.011718-7.066406 5.734375-12.792969 12.800781-12.800781zm0 0"/><path d="m64 401.527344c16.496094 0 29.867188-13.371094 29.867188-29.867188s-13.371094-29.867187-29.867188-29.867187-29.867188 13.371093-29.867188 29.867187c.019532 16.488282 13.378907 29.847656 29.867188 29.867188zm0-42.667969c7.070312 0 12.800781 5.730469 12.800781 12.800781 0 7.070313-5.730469 12.800782-12.800781 12.800782s-12.800781-5.730469-12.800781-12.800782c.007812-7.066406 5.734375-12.792968 12.800781-12.800781zm0 0"/><path d="m132.265625 290.59375c16.496094 0 29.867187-13.371094 29.867187-29.867188 0-16.492187-13.371093-29.867187-29.867187-29.867187-16.492187 0-29.867187 13.375-29.867187 29.867187.019531 16.488282 13.382812 29.847657 29.867187 29.867188zm0-42.667969c7.070313 0 12.800781 5.730469 12.800781 12.800781 0 7.070313-5.730468 12.800782-12.800781 12.800782-7.066406 0-12.800781-5.730469-12.800781-12.800782.011718-7.066406 5.734375-12.792968 12.800781-12.800781zm0 0"/><path d="m132.265625 452.726562c16.496094 0 29.867187-13.371093 29.867187-29.867187 0-16.492187-13.371093-29.867187-29.867187-29.867187-16.492187 0-29.867187 13.375-29.867187 29.867187.019531 16.488281 13.382812 29.847656 29.867187 29.867187zm0-42.664062c7.070313 0 12.800781 5.730469 12.800781 12.796875 0 7.070313-5.730468 12.800781-12.800781 12.800781-7.066406 0-12.800781-5.730468-12.800781-12.800781.011718-7.066406 5.734375-12.789063 12.800781-12.796875zm0 0"/><path d="m379.734375 119.925781c16.492187 0 29.867187-13.371093 29.867187-29.863281 0-16.496094-13.375-29.867188-29.867187-29.867188-16.496094 0-29.867187 13.371094-29.867187 29.867188.019531 16.484375 13.378906 29.84375 29.867187 29.863281zm0-42.664062c7.066406 0 12.800781 5.730469 12.800781 12.800781 0 7.066406-5.734375 12.796875-12.800781 12.796875-7.070313 0-12.800781-5.730469-12.800781-12.796875.007812-7.066406 5.734375-12.792969 12.800781-12.800781zm0 0"/><path d="m448 401.527344c16.496094 0 29.867188-13.371094 29.867188-29.867188s-13.371094-29.867187-29.867188-29.867187-29.867188 13.371093-29.867188 29.867187c.019532 16.488282 13.378907 29.847656 29.867188 29.867188zm0-42.667969c7.070312 0 12.800781 5.730469 12.800781 12.800781 0 7.070313-5.730469 12.800782-12.800781 12.800782s-12.800781-5.730469-12.800781-12.800782c.007812-7.066406 5.734375-12.792968 12.800781-12.800781zm0 0"/><path d="m379.734375 290.59375c16.492187 0 29.867187-13.371094 29.867187-29.867188 0-16.492187-13.375-29.867187-29.867187-29.867187-16.496094 0-29.867187 13.375-29.867187 29.867187.019531 16.488282 13.378906 29.847657 29.867187 29.867188zm0-42.667969c7.066406 0 12.800781 5.730469 12.800781 12.800781 0 7.070313-5.734375 12.800782-12.800781 12.800782-7.070313 0-12.800781-5.730469-12.800781-12.800782.007812-7.066406 5.734375-12.792968 12.800781-12.800781zm0 0"/><path d="m379.734375 452.726562c16.492187 0 29.867187-13.371093 29.867187-29.867187 0-16.492187-13.375-29.867187-29.867187-29.867187-16.496094 0-29.867187 13.375-29.867187 29.867187.019531 16.488281 13.378906 29.847656 29.867187 29.867187zm0-42.664062c7.066406 0 12.800781 5.730469 12.800781 12.796875 0 7.070313-5.734375 12.800781-12.800781 12.800781-7.070313 0-12.800781-5.730468-12.800781-12.800781.007812-7.066406 5.734375-12.789063 12.800781-12.796875zm0 0"/></svg>