<svg height="511pt" viewBox="-17 0 511 511.92484" width="511pt" xmlns="http://www.w3.org/2000/svg"><path d="m90.0625 127.960938c16.496094 0 29.867188-13.371094 29.867188-29.867188s-13.371094-29.867188-29.867188-29.867188-29.867188 13.371094-29.867188 29.867188c.019532 16.488281 13.378907 29.847656 29.867188 29.867188zm0-42.667969c7.070312 0 12.800781 5.730469 12.800781 12.800781s-5.730469 12.800781-12.800781 12.800781-12.800781-5.730469-12.800781-12.800781c.007812-7.066406 5.734375-12.792969 12.800781-12.800781zm0 0"/><path d="m90.0625 383.960938c-16.496094 0-29.867188 13.371093-29.867188 29.867187s13.371094 29.867187 29.867188 29.867187 29.867188-13.371093 29.867188-29.867187c-.019532-16.488281-13.378907-29.847656-29.867188-29.867187zm0 42.667968c-7.070312 0-12.800781-5.730468-12.800781-12.800781s5.730469-12.800781 12.800781-12.800781 12.800781 5.730468 12.800781 12.800781c-.007812 7.066406-5.734375 12.792969-12.800781 12.800781zm0 0"/><path d="m64.460938 281.5625c16.496093 0 29.867187-13.375 29.867187-29.867188 0-16.496093-13.371094-29.867187-29.867187-29.867187-16.492188 0-29.863282 13.371094-29.863282 29.867187.019532 16.484376 13.378906 29.84375 29.863282 29.867188zm0-42.667969c7.070312 0 12.800781 5.730469 12.800781 12.800781 0 7.066407-5.730469 12.796876-12.800781 12.796876-7.066407 0-12.796876-5.730469-12.796876-12.796876.007813-7.066406 5.734376-12.792968 12.796876-12.800781zm0 0"/><path d="m60.195312 477.828125h136.535157v11.433594c-.09375 6.824219 3.859375 13.058593 10.074219 15.878906 20.785156 9.046875 44.394531 9.046875 65.183593 0 6.214844-2.820313 10.167969-9.054687 10.074219-15.878906v-241.835938h17.066406v170.667969c.035156 32.976562 26.757813 59.695312 59.734375 59.734375h59.734375c32.972656-.039063 59.695313-26.757813 59.730469-59.734375v-324.265625c-.035156-32.976563-26.757813-59.699219-59.730469-59.734375h-136.535156v-11.433594c.09375-6.824218-3.863281-13.058594-10.074219-15.878906-20.789062-9.042969-44.398437-9.042969-65.183593 0-6.214844 2.820312-10.167969 9.054688-10.074219 15.878906v241.832032h-17.066407v-170.664063c-.039062-32.976563-26.761718-59.699219-59.734374-59.734375h-59.734376c-32.972656.035156-59.695312 26.757812-59.734374 59.734375v324.265625c.039062 32.976562 26.761718 59.695312 59.734374 59.734375zm204.742188-196.265625-.039062 179.199219h-51.101563v-179.199219zm.011719-51.203125h-51.238281l-.0625-179.199219h51.339843zm-51.238281 17.066406h51.230468v17.066407h-51.222656zm.085937 241.835938v-11.433594h51.101563v11.785156c-16.324219 7.085938-34.878907 6.960938-51.101563-.351562zm247.464844-395.433594v324.265625c-.027344 23.554688-19.113281 42.640625-42.664063 42.667969h-59.734375c-23.554687-.027344-42.640625-19.113281-42.667969-42.667969v-170.667969c-.007812-9.421875-7.644531-17.054687-17.066406-17.066406h-17.066406v-179.199219h136.535156c23.550782.027344 42.636719 19.113282 42.664063 42.667969zm-222.101563-76.738281c8.910156-.015625 17.722656 1.886718 25.835938 5.570312v11.433594h-51.355469v-11.671875c8.046875-3.515625 16.734375-5.328125 25.519531-5.332031zm-221.632812 76.738281c.03125-23.554687 19.117187-42.640625 42.667968-42.667969h59.734376c23.550781.027344 42.636718 19.113282 42.667968 42.667969v170.664063c.007813 9.421874 7.644532 17.058593 17.066406 17.070312h17.066407v179.199219h-136.535157c-23.550781-.027344-42.636718-19.113281-42.667968-42.667969zm0 0"/><path d="m388.730469 443.695312c16.492187 0 29.867187-13.371093 29.867187-29.867187s-13.375-29.867187-29.867187-29.867187c-16.496094 0-29.867188 13.371093-29.867188 29.867187.019531 16.484375 13.378907 29.847656 29.867188 29.867187zm0-42.667968c7.066406 0 12.796875 5.730468 12.796875 12.800781s-5.730469 12.800781-12.796875 12.800781c-7.070313 0-12.800781-5.730468-12.800781-12.800781.007812-7.066406 5.734374-12.792969 12.800781-12.800781zm0 0"/><path d="m388.730469 127.960938c16.492187 0 29.867187-13.371094 29.867187-29.867188s-13.375-29.867188-29.867187-29.867188c-16.496094 0-29.867188 13.371094-29.867188 29.867188.019531 16.488281 13.378907 29.847656 29.867188 29.867188zm0-42.667969c7.066406 0 12.796875 5.730469 12.796875 12.800781s-5.730469 12.800781-12.796875 12.800781c-7.070313 0-12.800781-5.730469-12.800781-12.800781.007812-7.066406 5.734374-12.792969 12.800781-12.800781zm0 0"/><path d="m384.460938 260.226562c0 16.496094 13.375 29.867188 29.867187 29.867188 16.496094 0 29.867187-13.371094 29.867187-29.867188 0-16.492187-13.371093-29.867187-29.867187-29.867187-16.484375.019531-29.847656 13.382813-29.867187 29.867187zm42.667968 0c0 7.070313-5.730468 12.800782-12.800781 12.800782-7.066406 0-12.800781-5.730469-12.800781-12.800782 0-7.070312 5.734375-12.800781 12.800781-12.800781 7.066406.007813 12.792969 5.734375 12.800781 12.800781zm0 0"/></svg>