<svg height="512pt" viewBox="-60 0 512 512" width="512pt" xmlns="http://www.w3.org/2000/svg"><path d="m64 102.398438c16.496094 0 29.867188-13.371094 29.867188-29.863282 0-16.496094-13.371094-29.867187-29.867188-29.867187s-29.867188 13.371093-29.867188 29.867187c.019532 16.484375 13.378907 29.84375 29.867188 29.863282zm0-42.664063c7.070312 0 12.800781 5.730469 12.800781 12.800781 0 7.066406-5.730469 12.796875-12.800781 12.796875s-12.800781-5.730469-12.800781-12.796875c.007812-7.066406 5.734375-12.792968 12.800781-12.800781zm0 0"/><path d="m64 221.867188c16.496094 0 29.867188-13.371094 29.867188-29.867188s-13.371094-29.867188-29.867188-29.867188-29.867188 13.371094-29.867188 29.867188c.019532 16.488281 13.378907 29.847656 29.867188 29.867188zm0-42.667969c7.070312 0 12.800781 5.730469 12.800781 12.800781s-5.730469 12.800781-12.800781 12.800781-12.800781-5.730469-12.800781-12.800781c.007812-7.066406 5.734375-12.792969 12.800781-12.800781zm0 0"/><path d="m64 349.867188c16.496094 0 29.867188-13.371094 29.867188-29.867188s-13.371094-29.867188-29.867188-29.867188-29.867188 13.371094-29.867188 29.867188c.019532 16.488281 13.378907 29.847656 29.867188 29.867188zm0-42.667969c7.070312 0 12.800781 5.730469 12.800781 12.800781s-5.730469 12.800781-12.800781 12.800781-12.800781-5.730469-12.800781-12.800781c.007812-7.066406 5.734375-12.792969 12.800781-12.800781zm0 0"/><path d="m93.867188 439.464844c0-16.492188-13.371094-29.863282-29.867188-29.863282s-29.867188 13.371094-29.867188 29.863282c0 16.496094 13.371094 29.867187 29.867188 29.867187 16.488281-.019531 29.847656-13.378906 29.867188-29.867187zm-42.667969 0c0-7.066406 5.730469-12.796875 12.800781-12.796875s12.800781 5.730469 12.800781 12.796875c0 7.070312-5.730469 12.800781-12.800781 12.800781-7.066406-.007813-12.792969-5.734375-12.800781-12.800781zm0 0"/><path d="m8.285156 487.671875 36.496094 21.894531c2.652344 1.59375 5.6875 2.433594 8.78125 2.433594h20.875c3.09375 0 6.128906-.839844 8.78125-2.433594l36.503906-21.898437c5.125-3.101563 8.261719-8.648438 8.277344-14.632813v-140.234375h25.601562v105.300781c-.09375 6.824219 3.859376 13.058594 10.074219 15.878907 20.785157 9.042969 44.394531 9.042969 65.183594 0 6.214844-2.820313 10.167969-9.054688 10.074219-15.878907v-28.5h25.601562v63.433594c.015625 5.988282 3.15625 11.535156 8.28125 14.636719l36.496094 21.894531c2.652344 1.59375 5.691406 2.433594 8.785156 2.433594h20.871094c3.09375 0 6.128906-.839844 8.78125-2.433594l36.507812-21.898437c5.121094-3.101563 8.257813-8.648438 8.277344-14.632813v-434.070312c-.019531-5.988282-3.160156-11.535156-8.285156-14.636719l-36.496094-21.894531c-2.652344-1.59375-5.6875-2.433594-8.785156-2.433594h-20.871094c-3.09375 0-6.128906.839844-8.78125 2.433594l-36.503906 21.898437c-5.125 3.101563-8.261719 8.648438-8.277344 14.632813v140.234375h-25.601562v-105.300781c.09375-6.824219-3.859375-13.058594-10.074219-15.878907-20.789063-9.042969-44.398437-9.042969-65.183594 0-6.214843 2.820313-10.167969 9.054688-10.074219 15.878907v28.5h-25.601562v-63.433594c-.019531-5.988282-3.15625-11.535156-8.285156-14.636719l-36.496094-21.894531c-2.652344-1.59375-5.6875-2.433594-8.78125-2.433594h-20.875c-3.09375 0-6.128906.839844-8.78125 2.433594l-36.503906 21.898437c-5.125 3.101563-8.261719 8.648438-8.277344 14.632813v434.070312c.0195312 5.988282 3.15625 11.535156 8.285156 14.636719zm162.382813-223.136719h51.144531l-.015625 59.730469h-51.128906zm68.265625-8.535156h25.601562v76.800781h-25.601562zm-17.117188-8.535156h-51.234375l-.027343-59.730469h51.277343zm-68.214844 8.535156h-25.601562v-76.800781h25.601562zm17.066407 182.101562-.042969-96.769531h51.164062l-.027343 97.121094c-16.320313 7.082031-34.871094 6.957031-51.09375-.351563zm93.867187-241.835937c9.421875-.007813 17.054688-7.644531 17.066406-17.066406v-140.238281l36.496094-21.894532h20.871094l36.496094 21.898438v434.074218l-36.496094 21.894532h-20.867188l-36.5-21.898438v-63.433594c-.011718-9.421874-7.644531-17.058593-17.066406-17.066406h-25.601562v-42.667968h25.601562c9.421875-.011719 17.054688-7.644532 17.066406-17.066407v-76.800781c-.011718-9.421875-7.644531-17.058594-17.066406-17.066406h-25.601562v-42.667969zm-68.503906-127.9375c8.910156-.011719 17.722656 1.886719 25.835938 5.570313l-.027344 96.769531h-51.171875v-59.734375c0-.25-.121094-.460938-.144531-.707032l-.015626-36.5625c8.050782-3.515624 16.738282-5.332031 25.523438-5.335937zm-178.964844-29.367187 36.496094-21.894532h20.871094l36.5 21.898438v63.433594c.007812 9.421874 7.644531 17.058593 17.066406 17.066406h25.601562v42.667968h-25.601562c-9.421875.011719-17.058594 7.644532-17.066406 17.066407v76.800781c.007812 9.421875 7.644531 17.058594 17.066406 17.066406h25.601562v42.667969h-25.601562c-9.421875.007813-17.058594 7.644531-17.066406 17.066406v140.238281l-36.496094 21.894532h-20.871094l-36.5-21.898438zm0 0"/><path d="m328.535156 469.332031c16.492188 0 29.863282-13.371093 29.863282-29.867187 0-16.492188-13.371094-29.863282-29.863282-29.863282-16.496094 0-29.867187 13.371094-29.867187 29.863282.019531 16.488281 13.378906 29.847656 29.867187 29.867187zm0-42.664062c7.066406 0 12.796875 5.730469 12.796875 12.796875 0 7.070312-5.730469 12.800781-12.796875 12.800781-7.070312 0-12.800781-5.730469-12.800781-12.800781.007813-7.0625 5.734375-12.789063 12.800781-12.796875zm0 0"/><path d="m328.535156 349.867188c16.492188 0 29.863282-13.371094 29.863282-29.867188s-13.371094-29.867188-29.863282-29.867188c-16.496094 0-29.867187 13.371094-29.867187 29.867188.019531 16.488281 13.378906 29.847656 29.867187 29.867188zm0-42.667969c7.066406 0 12.796875 5.730469 12.796875 12.800781s-5.730469 12.800781-12.796875 12.800781c-7.070312 0-12.800781-5.730469-12.800781-12.800781.007813-7.066406 5.734375-12.792969 12.800781-12.800781zm0 0"/><path d="m328.535156 221.867188c16.492188 0 29.863282-13.371094 29.863282-29.867188s-13.371094-29.867188-29.863282-29.867188c-16.496094 0-29.867187 13.371094-29.867187 29.867188.019531 16.488281 13.378906 29.847656 29.867187 29.867188zm0-42.667969c7.066406 0 12.796875 5.730469 12.796875 12.800781s-5.730469 12.800781-12.796875 12.800781c-7.070312 0-12.800781-5.730469-12.800781-12.800781.007813-7.066406 5.734375-12.792969 12.800781-12.800781zm0 0"/><path d="m328.535156 102.398438c16.492188 0 29.863282-13.371094 29.863282-29.863282 0-16.496094-13.371094-29.867187-29.863282-29.867187-16.496094 0-29.867187 13.371093-29.867187 29.867187.019531 16.484375 13.378906 29.84375 29.867187 29.863282zm0-42.664063c7.066406 0 12.796875 5.730469 12.796875 12.800781 0 7.066406-5.730469 12.796875-12.796875 12.796875-7.070312 0-12.800781-5.730469-12.800781-12.796875.007813-7.066406 5.734375-12.792968 12.800781-12.800781zm0 0"/></svg>