<svg height="511pt" viewBox="-42 0 511 511.92484" width="511pt" xmlns="http://www.w3.org/2000/svg"><path d="m307.664062 119.425781c14.136719 0 25.597657-11.460937 25.597657-25.597656 0-14.140625-11.460938-25.601563-25.597657-25.601563-14.140624 0-25.601562 11.460938-25.601562 25.601563.015625 14.132813 11.46875 25.582031 25.601562 25.597656zm0-34.132812c4.710938 0 8.53125 3.820312 8.53125 8.535156 0 4.710937-3.820312 8.53125-8.53125 8.53125-4.714843 0-8.535156-3.820313-8.535156-8.53125.007813-4.710937 3.824219-8.527344 8.535156-8.535156zm0 0"/><path d="m85.796875 196.226562c0-14.136718-11.460937-25.597656-25.601563-25.597656-14.136718 0-25.597656 11.460938-25.597656 25.597656 0 14.140626 11.460938 25.601563 25.597656 25.601563 14.132813-.015625 25.585938-11.46875 25.601563-25.601563zm-34.132813 0c0-4.710937 3.820313-8.53125 8.53125-8.53125 4.714844 0 8.535157 3.820313 8.535157 8.53125 0 4.714844-3.820313 8.535157-8.535157 8.535157-4.710937-.007813-8.527343-3.824219-8.53125-8.535157zm0 0"/><path d="m94.328125 230.359375c-14.136719 0-25.597656 11.460937-25.597656 25.601563 0 14.136718 11.460937 25.601562 25.597656 25.601562 14.140625 0 25.601563-11.464844 25.601563-25.601562-.015626-14.132813-11.46875-25.585938-25.601563-25.601563zm0 34.132813c-4.710937 0-8.53125-3.820313-8.53125-8.53125 0-4.714844 3.820313-8.535157 8.53125-8.535157 4.714844 0 8.535156 3.820313 8.535156 8.535157-.007812 4.710937-3.824219 8.527343-8.535156 8.53125zm0 0"/><path d="m60.195312 290.09375c-14.136718 0-25.597656 11.460938-25.597656 25.601562 0 14.136719 11.460938 25.597657 25.597656 25.597657 14.140626 0 25.601563-11.460938 25.601563-25.597657-.015625-14.132812-11.46875-25.585937-25.601563-25.601562zm0 34.132812c-4.710937 0-8.53125-3.820312-8.53125-8.53125 0-4.714843 3.820313-8.535156 8.53125-8.535156 4.714844 0 8.535157 3.820313 8.535157 8.535156-.007813 4.710938-3.824219 8.527344-8.535157 8.53125zm0 0"/><path d="m307.664062 392.492188c-14.140624 0-25.601562 11.464843-25.601562 25.601562 0 14.140625 11.460938 25.601562 25.601562 25.601562 14.136719 0 25.597657-11.460937 25.597657-25.601562-.015625-14.132812-11.46875-25.585938-25.597657-25.601562zm0 34.136718c-4.714843 0-8.535156-3.820312-8.535156-8.535156 0-4.710938 3.820313-8.53125 8.535156-8.53125 4.710938 0 8.53125 3.820312 8.53125 8.53125-.003906 4.710938-3.824218 8.527344-8.53125 8.535156zm0 0"/><path d="m17.527344 366.894531h110.933594v122.367188c-.09375 6.824219 3.863281 13.058593 10.078124 15.878906 20.785157 9.046875 44.394532 9.046875 65.179688 0 6.214844-2.820313 10.171875-9.054687 10.078125-15.878906v-19.96875h187.730469c14.132812-.015625 25.585937-11.46875 25.601562-25.597657v-375.46875c-.015625-14.132812-11.46875-25.582031-25.601562-25.597656h-187.730469v-19.96875c.09375-6.824218-3.863281-13.058594-10.078125-15.878906-20.785156-9.042969-44.394531-9.042969-65.179688 0-6.214843 2.820312-10.171874 9.054688-10.078124 15.878906v122.367188h-110.933594c-9.421875.007812-17.054688 7.644531-17.066406 17.066406v52.097656c.03125 8.164063 5.835937 15.171875 13.855468 16.71875 11.824219 2.515625 20.28125 12.960938 20.28125 25.050782 0 12.089843-8.457031 22.535156-20.28125 25.050781-8.019531 1.546875-13.824218 8.550781-13.855468 16.71875v52.097656c.011718 9.421875 7.644531 17.054687 17.066406 17.066406zm349.867187-69.164062v69.164062h-153.597656v-221.867187h153.597656v69.164062l-.300781.019532c-19.777344 4.179687-33.90625 21.667968-33.832031 41.882812s14.328125 37.601562 34.132812 41.636719zm-221.980469-144.734375-.003906-16.503906h51.292969l-.050781 238.933593h-51.160156l-.007813-16.847656c0-.074219.042969-.140625.042969-.21875v-204.796875c0-.203125-.097656-.371094-.113282-.566406zm.082032 239.496094h51.148437l-.015625 68.269531h-51.117187zm51.210937-273.066407h-51.304687l-.023438-68.265625h51.34375zm-51.179687 369.835938v-11.433594h51.105468v11.785156c-16.324218 7.085938-34.878906 6.960938-51.105468-.351562zm256-429.566407c4.710937.003907 8.53125 3.820313 8.535156 8.53125v375.46875c-.003906 4.710938-3.824219 8.527344-8.535156 8.53125h-187.730469v-68.265624h153.597656c9.421875-.011719 17.058594-7.644532 17.066407-17.066407v-69.164062c-.027344-8.167969-5.828126-15.175781-13.847657-16.722657-11.828125-2.515624-20.285156-12.960937-20.285156-25.050781 0-12.09375 8.457031-22.535156 20.285156-25.050781 8.015625-1.546875 13.816407-8.550781 13.847657-16.714844v-69.164062c-.007813-9.421875-7.644532-17.054688-17.066407-17.066406h-153.597656v-68.265626zm-230.636719-42.605468c8.914063-.015625 17.722656 1.886718 25.839844 5.570312v11.433594h-51.355469v-11.671875c8.046875-3.515625 16.734375-5.328125 25.515625-5.332031zm-153.058594 280.621094c19.785157-4.214844 33.902344-21.726563 33.828125-41.953126-.070312-20.226562-14.316406-37.632812-34.132812-41.707031v-51.957031h110.933594v187.734375h-110.933594zm0 0"/></svg>