<svg height="511pt" viewBox="-59 0 511 511.92777" width="511pt" xmlns="http://www.w3.org/2000/svg"><path d="m17.53125 469.296875h136.53125v19.96875c-.09375 6.824219 3.863281 13.054687 10.078125 15.878906 20.785156 9.042969 44.394531 9.042969 65.179687 0 6.21875-2.820312 10.171876-9.054687 10.078126-15.878906v-250.367187h136.53125c9.421874-.011719 17.058593-7.648438 17.066406-17.066407v-162.136719c-.007813-9.417968-7.644532-17.054687-17.066406-17.066406h-136.53125v-19.964844c.089843-6.824218-3.863282-13.058593-10.078126-15.878906-20.785156-9.046875-44.394531-9.046875-65.179687 0-6.21875 2.820313-10.171875 9.050782-10.078125 15.878906v250.367188h-136.53125c-9.421875.011719-17.054688 7.644531-17.066406 17.066406v162.132813c.011718 9.421875 7.644531 17.054687 17.066406 17.066406zm153.597656-187.734375h51.140625l-.039062 179.199219h-51.101563zm-.074218-17.066406-.007813-17.066406h51.226563v17.066406zm51.226562-34.132813h-51.234375l-.066406-179.199219h51.34375zm-51.152344 258.902344v-11.433594h51.097656v11.785157c-16.320312 7.082031-34.871093 6.953124-51.097656-.351563zm204.800782-429.570313v162.136719h-136.53125v-162.136719zm-179.433594-42.601562c8.910156-.015625 17.722656 1.886719 25.835937 5.570312v11.433594h-51.355469v-11.671875c8.050782-3.515625 16.738282-5.332031 25.519532-5.332031zm-178.964844 273.003906h136.53125v162.132813h-136.53125zm0 0"/><path d="m102.863281 298.628906c-14.136719 0-25.597656 11.464844-25.597656 25.601563s11.460937 25.601562 25.597656 25.601562c14.140625 0 25.601563-11.464843 25.601563-25.601562-.015625-14.132813-11.46875-25.585938-25.601563-25.601563zm0 34.132813c-4.710937 0-8.53125-3.820313-8.53125-8.53125 0-4.714844 3.820313-8.535157 8.53125-8.535157 4.714844 0 8.535157 3.820313 8.535157 8.535157-.003907 4.710937-3.824219 8.527343-8.535157 8.53125zm0 0"/><path d="m51.664062 341.296875c-14.136718 0-25.601562 11.460937-25.601562 25.601563 0 14.136718 11.464844 25.597656 25.601562 25.597656 14.136719 0 25.601563-11.460938 25.601563-25.597656-.015625-14.132813-11.46875-25.585938-25.601563-25.601563zm0 34.132813c-4.714843 0-8.535156-3.820313-8.535156-8.53125 0-4.714844 3.820313-8.535157 8.535156-8.535157 4.710938 0 8.53125 3.820313 8.53125 8.535157-.003906 4.710937-3.820312 8.527343-8.53125 8.53125zm0 0"/><path d="m102.863281 392.496094c-14.136719 0-25.597656 11.460937-25.597656 25.601562 0 14.136719 11.460937 25.597656 25.597656 25.597656 14.140625 0 25.601563-11.460937 25.601563-25.597656-.015625-14.132812-11.46875-25.585937-25.601563-25.601562zm0 34.132812c-4.710937 0-8.53125-3.820312-8.53125-8.53125 0-4.714844 3.820313-8.535156 8.53125-8.535156 4.714844 0 8.535157 3.820312 8.535157 8.535156-.003907 4.710938-3.824219 8.527344-8.535157 8.53125zm0 0"/><path d="m290.597656 213.296875c10.355469 0 19.6875-6.238281 23.652344-15.804687 3.960938-9.566407 1.769531-20.574219-5.550781-27.898438-7.320313-7.320312-18.332031-9.511719-27.898438-5.546875-9.566406 3.960937-15.804687 13.296875-15.804687 23.648437.015625 14.132813 11.46875 25.585938 25.601562 25.601563zm0-34.132813c4.710938 0 8.53125 3.820313 8.53125 8.53125 0 4.714844-3.820312 8.535157-8.53125 8.535157-4.714844 0-8.535156-3.820313-8.535156-8.535157.003906-4.710937 3.824219-8.527343 8.535156-8.53125zm0 0"/><path d="m341.796875 170.628906c14.140625 0 25.601563-11.460937 25.601563-25.597656 0-14.140625-11.460938-25.601562-25.601563-25.601562-14.136719 0-25.601563 11.460937-25.601563 25.601562.015626 14.132812 11.46875 25.582031 25.601563 25.597656zm0-34.132812c4.714844 0 8.535156 3.820312 8.535156 8.535156 0 4.710938-3.820312 8.53125-8.535156 8.53125-4.710937 0-8.53125-3.820312-8.53125-8.53125.003906-4.710938 3.820313-8.53125 8.53125-8.535156zm0 0"/><path d="m290.597656 119.429688c14.136719 0 25.597656-11.460938 25.597656-25.597657 0-14.140625-11.460937-25.601562-25.597656-25.601562-14.140625 0-25.601562 11.460937-25.601562 25.601562.015625 14.128907 11.46875 25.582031 25.601562 25.597657zm0-34.132813c4.710938 0 8.53125 3.820313 8.53125 8.535156 0 4.710938-3.820312 8.53125-8.53125 8.53125-4.714844 0-8.535156-3.820312-8.535156-8.53125.003906-4.710937 3.824219-8.53125 8.535156-8.535156zm0 0"/></svg>