<svg height="511pt" viewBox="-68 0 511 511.92777" width="511pt" xmlns="http://www.w3.org/2000/svg"><path d="m64.464844 85.296875c-16.496094 0-29.867188 13.371094-29.867188 29.867187 0 16.496094 13.371094 29.867188 29.867188 29.867188 16.492187 0 29.867187-13.371094 29.867187-29.867188-.019531-16.488281-13.382812-29.847656-29.867187-29.867187zm0 42.667969c-7.070313 0-12.800782-5.730469-12.800782-12.800782 0-7.070312 5.730469-12.800781 12.800782-12.800781 7.066406 0 12.800781 5.730469 12.800781 12.800781-.007813 7.066407-5.734375 12.792969-12.800781 12.800782zm0 0"/><path d="m64.464844 187.695312c-16.496094 0-29.867188 13.375-29.867188 29.867188 0 16.496094 13.371094 29.867188 29.867188 29.867188 16.492187 0 29.867187-13.371094 29.867187-29.867188-.019531-16.484375-13.382812-29.847656-29.867187-29.867188zm0 42.667969c-7.070313 0-12.800782-5.730469-12.800782-12.800781 0-7.066406 5.730469-12.800781 12.800782-12.800781 7.066406 0 12.800781 5.734375 12.800781 12.800781-.007813 7.066406-5.734375 12.792969-12.800781 12.800781zm0 0"/><path d="m64.464844 290.097656c-16.496094 0-29.867188 13.371094-29.867188 29.867188 0 16.492187 13.371094 29.867187 29.867188 29.867187 16.492187 0 29.867187-13.375 29.867187-29.867187-.019531-16.488282-13.382812-29.847656-29.867187-29.867188zm0 42.664063c-7.070313 0-12.800782-5.730469-12.800782-12.796875 0-7.070313 5.730469-12.800782 12.800782-12.800782 7.066406 0 12.800781 5.730469 12.800781 12.800782-.007813 7.066406-5.734375 12.789062-12.800781 12.796875zm0 0"/><path d="m64.464844 392.496094c-16.496094 0-29.867188 13.371094-29.867188 29.867187 0 16.496094 13.371094 29.867188 29.867188 29.867188 16.492187 0 29.867187-13.371094 29.867187-29.867188-.019531-16.488281-13.382812-29.847656-29.867187-29.867187zm0 42.667968c-7.070313 0-12.800782-5.730468-12.800782-12.800781 0-7.070312 5.730469-12.800781 12.800782-12.800781 7.066406 0 12.800781 5.730469 12.800781 12.800781-.007813 7.066407-5.734375 12.792969-12.800781 12.800781zm0 0"/><path d="m17.53125 486.363281h93.867188c9.421874-.011719 17.054687-7.644531 17.066406-17.066406v-8.535156h17.066406v28.503906c-.09375 6.824219 3.859375 13.054687 10.074219 15.878906 20.785156 9.042969 44.398437 9.042969 65.183593 0 6.214844-2.820312 10.171876-9.054687 10.074219-15.878906v-234.574219l17.066407 21.332032v167.671874c.011718 9.421876 7.644531 17.058594 17.066406 17.066407h93.867187c9.421875-.007813 17.054688-7.644531 17.066407-17.066407v-401.066406c-.011719-9.417968-7.644532-17.054687-17.066407-17.066406h-93.867187c-9.421875.011719-17.054688 7.648438-17.066406 17.066406v8.535156h-17.066407v-28.5c.09375-6.824218-3.859375-13.058593-10.074219-15.878906-20.785156-9.046875-44.398437-9.046875-65.183593 0-6.214844 2.820313-10.171875 9.050782-10.074219 15.878906v234.570313l-17.066406-21.332031v-167.671875c-.011719-9.421875-7.644532-17.054688-17.066406-17.066407h-93.867188c-9.421875.011719-17.054688 7.644532-17.066406 17.066407v401.066406c.011718 9.421875 7.644531 17.054687 17.066406 17.066406zm145.054688-34.070312.011718-.0625-.011718-.0625-.058594-169.601563c.011718-.09375-.007813-.1875 0-.28125v-.722656h51.210937l-.042969 179.199219h-51.109374zm-.066407-187.796875-.007812-17.066406h51.230469v17.066406zm51.230469-34.132813h-51.238281l-.0625-179.199219h51.339843zm-51.152344 258.902344v-11.433594h51.097656v11.785157c-16.324218 7.082031-34.875 6.953124-51.097656-.351563zm85.332032-421.035156c9.421874-.011719 17.058593-7.644531 17.066406-17.066407v-8.535156h93.867187v401.066406h-93.867187v-167.671874c-.003906-3.875-1.320313-7.628907-3.730469-10.660157l-30.402344-37.996093v-159.136719zm-59.964844-51.136719c8.910156-.015625 17.71875 1.886719 25.832031 5.570312v11.433594h-51.355469v-11.671875c8.050782-3.515625 16.738282-5.332031 25.523438-5.332031zm-170.433594 51.136719h93.867188v167.675781c.003906 3.871094 1.320312 7.628906 3.730468 10.65625l30.402344 37.996094v159.136718h-17.066406c-9.421875.011719-17.058594 7.648438-17.066406 17.066407v8.535156h-93.867188zm0 0"/><path d="m311.929688 426.628906c16.496093 0 29.867187-13.371094 29.867187-29.867187 0-16.492188-13.371094-29.863281-29.867187-29.863281-16.492188 0-29.867188 13.371093-29.867188 29.863281.019531 16.488281 13.382812 29.847656 29.867188 29.867187zm0-42.664062c7.070312 0 12.800781 5.730468 12.800781 12.796875 0 7.070312-5.730469 12.800781-12.800781 12.800781-7.070313 0-12.800782-5.730469-12.800782-12.800781.007813-7.0625 5.734375-12.789063 12.800782-12.796875zm0 0"/><path d="m311.929688 324.230469c16.496093 0 29.867187-13.371094 29.867187-29.867188 0-16.496093-13.371094-29.867187-29.867187-29.867187-16.492188 0-29.867188 13.371094-29.867188 29.867187.019531 16.488281 13.382812 29.847657 29.867188 29.867188zm0-42.667969c7.070312 0 12.800781 5.730469 12.800781 12.800781 0 7.070313-5.730469 12.800781-12.800781 12.800781-7.070313 0-12.800782-5.730468-12.800782-12.800781.007813-7.066406 5.734375-12.792969 12.800782-12.800781zm0 0"/><path d="m311.929688 221.832031c16.496093 0 29.867187-13.375 29.867187-29.867187 0-16.496094-13.371094-29.867188-29.867187-29.867188-16.492188 0-29.867188 13.371094-29.867188 29.867188.019531 16.484375 13.382812 29.847656 29.867188 29.867187zm0-42.667969c7.070312 0 12.800781 5.730469 12.800781 12.800782 0 7.066406-5.730469 12.796875-12.800781 12.796875-7.070313 0-12.800782-5.730469-12.800782-12.796875.007813-7.066406 5.734375-12.792969 12.800782-12.800782zm0 0"/><path d="m311.929688 119.429688c16.496093 0 29.867187-13.371094 29.867187-29.867188 0-16.492188-13.371094-29.867188-29.867187-29.867188-16.492188 0-29.867188 13.375-29.867188 29.867188.019531 16.488281 13.382812 29.847656 29.867188 29.867188zm0-42.667969c7.070312 0 12.800781 5.734375 12.800781 12.800781 0 7.070312-5.730469 12.800781-12.800781 12.800781-7.070313 0-12.800782-5.730469-12.800782-12.800781.007813-7.066406 5.734375-12.789062 12.800782-12.800781zm0 0"/></svg>