<svg height="512pt" viewBox="-119 0 512 512" width="512pt" xmlns="http://www.w3.org/2000/svg"><path d="m136.535156 102.398438c18.847656 0 34.132813-15.28125 34.132813-34.132813s-15.285157-34.132813-34.132813-34.132813c-18.851562 0-34.136718 15.28125-34.136718 34.132813.019531 18.84375 15.292968 34.113281 34.136718 34.132813zm0-51.199219c9.425782 0 17.066406 7.640625 17.066406 17.066406s-7.640624 17.066406-17.066406 17.066406c-9.425781 0-17.070312-7.640625-17.070312-17.066406.011718-9.421875 7.648437-17.054687 17.070312-17.066406zm0 0"/><path d="m102.398438 128c0-18.851562-15.28125-34.132812-34.132813-34.132812s-34.132813 15.28125-34.132813 34.132812 15.28125 34.132812 34.132813 34.132812c18.84375-.019531 34.113281-15.289062 34.132813-34.132812zm-51.199219 0c0-9.425781 7.640625-17.066406 17.066406-17.066406s17.066406 7.640625 17.066406 17.066406-7.640625 17.066406-17.066406 17.066406c-9.421875-.011718-17.054687-7.644531-17.066406-17.066406zm0 0"/><path d="m204.800781 162.132812c18.851563 0 34.132813-15.28125 34.132813-34.132812s-15.28125-34.132812-34.132813-34.132812c-18.851562 0-34.132812 15.28125-34.132812 34.132812.019531 18.84375 15.289062 34.113281 34.132812 34.132812zm0-51.199218c9.425781 0 17.066407 7.640625 17.066407 17.066406s-7.640626 17.066406-17.066407 17.066406-17.066406-7.640625-17.066406-17.066406c.011719-9.421875 7.644531-17.054688 17.066406-17.066406zm0 0"/><path d="m136.535156 512c75.359375-.105469 136.425782-61.171875 136.53125-136.535156v-85.332032c-.015625-14.132812-11.46875-25.582031-25.601562-25.597656h-34.132813v-17.070312h34.132813c14.132812-.015625 25.585937-11.464844 25.601562-25.597656v-85.332032c-.109375-75.363281-61.171875-136.425781-136.53125-136.535156-75.371094.0859375-136.4492185 61.164062-136.535156 136.535156v85.332032c.015625 14.132812 11.46875 25.582031 25.601562 25.597656h34.132813v17.070312h-34.132813c-14.132812.015625-25.585937 11.464844-25.601562 25.597656v85.332032c.0859375 75.371094 61.164062 136.449218 136.535156 136.535156zm59.738282-213.332031h-119.472657v-34.132813h119.472657v8.503906l-.007813.027344.007813.027344zm-119.472657-85.335938h119.464844v34.132813h-119.464844zm-51.199219 17.066407c-4.710937-.003907-8.53125-3.820313-8.535156-8.53125v-85.332032c.074219-65.949218 53.519532-119.394531 119.46875-119.46875 65.933594.109375 119.355469 53.535156 119.464844 119.46875v85.332032c-.003906 4.710937-3.820312 8.527343-8.535156 8.53125h-34.132813v-17.066407c-.007812-9.417969-7.644531-17.054687-17.066406-17.066406h-119.464844c-9.421875.011719-17.054687 7.648437-17.066406 17.066406v17.066407zm-8.535156 59.734374c.003906-4.710937 3.824219-8.527343 8.535156-8.53125h34.132813v17.066407c.011719 9.417969 7.644531 17.054687 17.066406 17.066406h119.464844c9.421875-.011719 17.058594-7.648437 17.066406-17.066406v-17.066407h34.132813c4.714844.003907 8.53125 3.820313 8.535156 8.53125v85.332032c-.109375 65.9375-53.53125 119.359375-119.464844 119.46875-65.949218-.074219-119.394531-53.519532-119.46875-119.46875zm0 0"/><path d="m136.535156 477.867188c18.847656 0 34.132813-15.28125 34.132813-34.132813s-15.285157-34.132813-34.132813-34.132813c-18.851562 0-34.136718 15.28125-34.136718 34.132813.019531 18.84375 15.292968 34.113281 34.136718 34.132813zm0-51.199219c9.425782 0 17.066406 7.640625 17.066406 17.066406s-7.640624 17.066406-17.066406 17.066406c-9.425781 0-17.070312-7.640625-17.070312-17.066406.011718-9.421875 7.648437-17.058594 17.070312-17.066406zm0 0"/><path d="m102.398438 384c0-18.851562-15.28125-34.132812-34.132813-34.132812s-34.132813 15.28125-34.132813 34.132812 15.28125 34.132812 34.132813 34.132812c18.84375-.019531 34.113281-15.289062 34.132813-34.132812zm-51.199219 0c0-9.425781 7.640625-17.066406 17.066406-17.066406s17.066406 7.640625 17.066406 17.066406-7.640625 17.066406-17.066406 17.066406c-9.421875-.011718-17.054687-7.644531-17.066406-17.066406zm0 0"/><path d="m204.800781 418.132812c18.851563 0 34.132813-15.28125 34.132813-34.132812s-15.28125-34.132812-34.132813-34.132812c-18.851562 0-34.132812 15.28125-34.132812 34.132812.019531 18.84375 15.289062 34.113281 34.132812 34.132812zm0-51.199218c9.425781 0 17.066407 7.640625 17.066407 17.066406s-7.640626 17.066406-17.066407 17.066406-17.066406-7.640625-17.066406-17.066406c.011719-9.421875 7.644531-17.054688 17.066406-17.066406zm0 0"/></svg>