<svg height="512pt" viewBox="-122 0 512 512" width="512pt" xmlns="http://www.w3.org/2000/svg"><path d="m57.636719 273.066406h-10.410157c-13.003906-.039062-23.945312 9.734375-25.375 22.660156l-21.675781 187.714844c-.855469 7.25 1.429688 14.515625 6.277344 19.972656 4.851563 5.457032 11.800781 8.582032 19.097656 8.585938h217.769531c7.296876-.003906 14.242188-3.125 19.089844-8.578125s7.136719-12.71875 6.285156-19.964844l-21.667968-187.679687c-1.410156-12.945313-12.359375-22.742188-25.378906-22.710938h-10.410157v-34.132812h10.410157c13.003906.039062 23.945312-9.734375 25.375-22.660156l21.675781-187.714844c.851562-7.25-1.433594-14.515625-6.28125-19.972656-4.847657-5.457032-11.796875-8.58203175-19.097657-8.585938h-217.769531c-7.296875.00390625-14.242187 3.125-19.089843 8.578125-4.847657 5.453125-7.132813 12.71875-6.285157 19.964844l21.667969 187.679687c1.410156 12.945313 12.359375 22.742188 25.382812 22.710938h10.410157zm17.066406-59.734375h119.46875v34.132813h-119.46875zm119.472656 68.234375-.003906.035156.003906.03125v17.035157h-119.472656v-34.132813h119.472656zm27.472657 8.566406c4.328124-.011718 7.964843 3.246094 8.425781 7.550782l21.671875 187.75c.285156 2.410156-.472656 4.824218-2.082032 6.640625-1.609374 1.8125-3.917968 2.855469-6.34375 2.859375h-217.769531c-2.429687-.003906-4.738281-1.050782-6.347656-2.867188-1.609375-1.820312-2.367187-4.238281-2.078125-6.648437l21.683594-187.789063c.480468-4.28125 4.109375-7.515625 8.417968-7.496094h10.410157v8.535157c.011719 9.417969 7.644531 17.054687 17.066406 17.066406h119.46875c9.417969-.011719 17.054687-7.648437 17.066406-17.066406v-8.535157zm-174.421876-68.265624c-4.328124.011718-7.964843-3.246094-8.425781-7.550782l-21.675781-187.75c-.285156-2.410156.472656-4.824218 2.082031-6.640625 1.609375-1.8125 3.917969-2.855469 6.34375-2.859375h217.769531c2.429688.003906 4.742188 1.050782 6.351563 2.867188 1.609375 1.820312 2.363281 4.238281 2.074219 6.648437l-21.683594 187.789063c-.476562 4.28125-4.105469 7.515625-8.414062 7.496094h-10.410157v-8.535157c-.011719-9.417969-7.648437-17.054687-17.066406-17.066406h-119.46875c-9.421875.011719-17.054687 7.648437-17.066406 17.066406v8.535157zm0 0"/><path d="m74.703125 409.601562c-18.851563 0-34.132813 15.28125-34.132813 34.132813s15.28125 34.132813 34.132813 34.132813 34.132813-15.28125 34.132813-34.132813c-.019532-18.84375-15.289063-34.113281-34.132813-34.132813zm0 51.199219c-9.425781 0-17.066406-7.640625-17.066406-17.066406s7.640625-17.066406 17.066406-17.066406 17.066406 7.640625 17.066406 17.066406c-.011719 9.421875-7.644531 17.054687-17.066406 17.066406zm0 0"/><path d="m134.4375 341.332031c-18.851562 0-34.132812 15.285157-34.132812 34.132813 0 18.851562 15.28125 34.136718 34.132812 34.136718s34.132812-15.285156 34.132812-34.136718c-.019531-18.839844-15.289062-34.113282-34.132812-34.132813zm0 51.203125c-9.425781 0-17.066406-7.644531-17.066406-17.070312 0-9.425782 7.640625-17.066406 17.066406-17.066406s17.066406 7.640624 17.066406 17.066406c-.011718 9.421875-7.644531 17.058594-17.066406 17.070312zm0 0"/><path d="m160.035156 443.734375c0 18.851563 15.285156 34.132813 34.136719 34.132813 18.847656 0 34.132813-15.28125 34.132813-34.132813s-15.285157-34.132813-34.132813-34.132813c-18.84375.019532-34.117187 15.289063-34.136719 34.132813zm51.203125 0c0 9.425781-7.644531 17.066406-17.066406 17.066406-9.425781 0-17.070313-7.640625-17.070313-17.066406s7.644532-17.066406 17.070313-17.066406c9.417969.007812 17.054687 7.644531 17.066406 17.066406zm0 0"/><path d="m108.835938 68.265625c0-18.851563-15.28125-34.132813-34.132813-34.132813s-34.132813 15.28125-34.132813 34.132813 15.28125 34.132813 34.132813 34.132813c18.84375-.019532 34.113281-15.289063 34.132813-34.132813zm-51.199219 0c0-9.425781 7.640625-17.066406 17.066406-17.066406s17.066406 7.640625 17.066406 17.066406-7.640625 17.066406-17.066406 17.066406c-9.421875-.007812-17.054687-7.644531-17.066406-17.066406zm0 0"/><path d="m134.4375 170.667969c18.851562 0 34.132812-15.285157 34.132812-34.132813 0-18.851562-15.28125-34.136718-34.132812-34.136718s-34.132812 15.285156-34.132812 34.136718c.019531 18.839844 15.289062 34.113282 34.132812 34.132813zm0-51.203125c9.425781 0 17.066406 7.644531 17.066406 17.070312 0 9.425782-7.640625 17.066406-17.066406 17.066406s-17.066406-7.640624-17.066406-17.066406c.007812-9.421875 7.644531-17.058594 17.066406-17.070312zm0 0"/><path d="m194.171875 102.398438c18.847656 0 34.132813-15.28125 34.132813-34.132813s-15.285157-34.132813-34.132813-34.132813c-18.851563 0-34.136719 15.28125-34.136719 34.132813.019532 18.84375 15.292969 34.113281 34.136719 34.132813zm0-51.199219c9.421875 0 17.066406 7.640625 17.066406 17.066406s-7.644531 17.066406-17.066406 17.066406c-9.425781 0-17.070313-7.640625-17.070313-17.066406.011719-9.421875 7.648438-17.054687 17.070313-17.066406zm0 0"/></svg>