<svg height="512pt" viewBox="-68 0 512 512.00001" width="512pt" xmlns="http://www.w3.org/2000/svg"><path d="m110.933594 265.15625c-9.75 1.59375-18.652344 6.5-25.199219 13.898438l-62.742187 71.71875c-24.535157 29.207031-29.921876 69.984374-13.804688 104.558593 16.113281 34.574219 50.804688 56.675781 88.945312 56.667969h179.203126c38.175781.007812 72.890624-22.128906 88.988281-56.75 16.09375-34.621094 10.640625-75.433594-13.972657-104.617188l-62.652343-71.609374c-6.539063-7.382813-15.429688-12.28125-25.164063-13.867188v-18.3125c9.75-1.59375 18.652344-6.5 25.199219-13.898438l62.742187-71.71875c24.535157-29.207031 29.921876-69.984374 13.808594-104.558593-16.113281-34.574219-50.804687-56.6757815-88.949218-56.667969h-179.203126c-38.175781-.0078125-72.890624 22.128906-88.984374 56.75-16.097657 34.621094-10.644532 75.433594 13.96875 104.617188l62.652343 71.609374c6.539063 7.382813 15.429688 12.28125 25.164063 13.867188zm136.542968 33.511719h-119.476562v-34.132813h119.472656v8.503906l-.003906.027344.003906.027344zm-.007812-59.722657v8.519532h-119.46875v-34.132813h119.46875zm29.414062 51.34375 62.523438 71.46875c20.269531 24.125 24.71875 57.8125 11.40625 86.371094s-41.96875 46.8125-73.476562 46.804688h-179.203126c-31.472656.007812-60.105468-18.210938-73.4375-46.722656-13.332031-28.511719-8.949218-62.164063 11.238282-86.3125l62.617187-71.578126c3.308594-3.6875 7.605469-6.34375 12.382813-7.648437v15.996094c.011718 9.417969 7.648437 17.054687 17.066406 17.066406h119.46875c9.421875-.011719 17.054688-7.648437 17.066406-17.066406v-15.996094c4.761719 1.296875 9.050782 3.941406 12.351563 7.617187zm-178.296874-68.578124-62.527344-71.46875c-20.265625-24.125-24.714844-57.8125-11.402344-86.371094s41.96875-46.8125 73.476562-46.804688h179.203126c31.472656-.007812 60.105468 18.210938 73.4375 46.722656 13.332031 28.511719 8.949218 62.164063-11.238282 86.3125l-62.617187 71.578126c-3.304688 3.6875-7.605469 6.34375-12.382813 7.648437v-15.996094c-.011718-9.417969-7.644531-17.054687-17.066406-17.066406h-119.46875c-9.417969.011719-17.054688 7.648437-17.066406 17.066406v15.996094c-4.761719-1.296875-9.050782-3.941406-12.347656-7.617187zm0 0"/><path d="m187.734375 85.332031c14.140625 0 25.601563-11.460937 25.601563-25.597656 0-14.140625-11.460938-25.601563-25.601563-25.601563-14.136719 0-25.601563 11.460938-25.601563 25.601563.015626 14.132813 11.46875 25.582031 25.601563 25.597656zm0-34.132812c4.714844 0 8.535156 3.820312 8.535156 8.535156 0 4.710937-3.820312 8.53125-8.535156 8.53125-4.710937 0-8.53125-3.820313-8.53125-8.53125.003906-4.710937 3.820313-8.53125 8.53125-8.535156zm0 0"/><path d="m307.203125 110.933594c14.136719 0 25.597656-11.460938 25.597656-25.601563 0-14.136719-11.460937-25.597656-25.597656-25.597656-14.140625 0-25.601563 11.460937-25.601563 25.597656.015626 14.132813 11.46875 25.585938 25.601563 25.601563zm0-34.132813c4.710937 0 8.53125 3.820313 8.53125 8.53125 0 4.714844-3.820313 8.535157-8.53125 8.535157-4.714844 0-8.535156-3.820313-8.535156-8.535157.003906-4.710937 3.820312-8.527343 8.535156-8.53125zm0 0"/><path d="m264.535156 179.199219c14.136719 0 25.597656-11.460938 25.597656-25.597657 0-14.140624-11.460937-25.601562-25.597656-25.601562-14.140625 0-25.601562 11.460938-25.601562 25.601562.015625 14.128907 11.46875 25.582032 25.601562 25.597657zm0-34.132813c4.710938 0 8.53125 3.820313 8.53125 8.535156 0 4.710938-3.820312 8.53125-8.53125 8.53125-4.714844 0-8.535156-3.820312-8.535156-8.53125.003906-4.710937 3.824219-8.53125 8.535156-8.535156zm0 0"/><path d="m93.867188 85.332031c0-14.136719-11.460938-25.597656-25.597657-25.597656-14.140625 0-25.601562 11.460937-25.601562 25.597656 0 14.140625 11.460937 25.601563 25.601562 25.601563 14.128907-.015625 25.582031-11.46875 25.597657-25.601563zm-25.597657 8.535157c-4.714843 0-8.535156-3.820313-8.535156-8.535157 0-4.710937 3.820313-8.53125 8.535156-8.53125 4.710938 0 8.53125 3.820313 8.53125 8.53125-.003906 4.710938-3.820312 8.53125-8.53125 8.535157zm0 0"/><path d="m136.535156 153.601562c0-14.140624-11.460937-25.601562-25.601562-25.601562-14.136719 0-25.597656 11.460938-25.597656 25.601562 0 14.136719 11.460937 25.597657 25.597656 25.597657 14.132812-.015625 25.585937-11.46875 25.601562-25.597657zm-34.132812 0c0-4.714843 3.820312-8.535156 8.53125-8.535156 4.714844 0 8.535156 3.820313 8.535156 8.535156 0 4.710938-3.820312 8.53125-8.535156 8.53125-4.710938-.003906-8.527344-3.820312-8.53125-8.53125zm0 0"/><path d="m187.734375 426.667969c-14.136719 0-25.601563 11.460937-25.601563 25.597656 0 14.140625 11.464844 25.601563 25.601563 25.601563 14.140625 0 25.601563-11.460938 25.601563-25.601563-.015626-14.132813-11.46875-25.582031-25.601563-25.597656zm0 34.132812c-4.710937 0-8.53125-3.820312-8.53125-8.535156 0-4.710937 3.820313-8.53125 8.53125-8.53125 4.714844 0 8.535156 3.820313 8.535156 8.53125-.003906 4.710937-3.824219 8.53125-8.535156 8.535156zm0 0"/><path d="m281.601562 426.667969c0 14.136719 11.460938 25.597656 25.601563 25.597656 14.136719 0 25.597656-11.460937 25.597656-25.597656 0-14.140625-11.460937-25.601563-25.597656-25.601563-14.132813.015625-25.585937 11.46875-25.601563 25.601563zm25.601563-8.535157c4.710937 0 8.53125 3.820313 8.53125 8.535157 0 4.710937-3.820313 8.53125-8.53125 8.53125-4.714844 0-8.535156-3.820313-8.535156-8.53125.003906-4.710938 3.820312-8.53125 8.535156-8.535157zm0 0"/><path d="m238.933594 358.398438c0 14.140624 11.460937 25.601562 25.601562 25.601562 14.136719 0 25.597656-11.460938 25.597656-25.601562 0-14.136719-11.460937-25.597657-25.597656-25.597657-14.132812.015625-25.585937 11.46875-25.601562 25.597657zm34.132812 0c0 4.714843-3.820312 8.535156-8.53125 8.535156-4.714844 0-8.535156-3.820313-8.535156-8.535156 0-4.710938 3.820312-8.53125 8.535156-8.53125 4.710938.003906 8.527344 3.820312 8.53125 8.53125zm0 0"/><path d="m68.269531 401.066406c-14.140625 0-25.601562 11.460938-25.601562 25.601563 0 14.136719 11.460937 25.597656 25.601562 25.597656 14.136719 0 25.597657-11.460937 25.597657-25.597656-.015626-14.132813-11.46875-25.585938-25.597657-25.601563zm0 34.132813c-4.714843 0-8.535156-3.820313-8.535156-8.53125 0-4.714844 3.820313-8.535157 8.535156-8.535157 4.710938 0 8.53125 3.820313 8.53125 8.535157-.003906 4.710937-3.820312 8.527343-8.53125 8.53125zm0 0"/><path d="m110.933594 332.800781c-14.136719 0-25.597656 11.460938-25.597656 25.597657 0 14.140624 11.460937 25.601562 25.597656 25.601562 14.140625 0 25.601562-11.460938 25.601562-25.601562-.015625-14.128907-11.46875-25.582032-25.601562-25.597657zm0 34.132813c-4.710938 0-8.53125-3.820313-8.53125-8.535156 0-4.710938 3.820312-8.53125 8.53125-8.53125 4.714844 0 8.535156 3.820312 8.535156 8.53125-.003906 4.710937-3.824219 8.53125-8.535156 8.535156zm0 0"/></svg>