<svg height="512pt" viewBox="-48 0 512 512.0004" width="512pt" xmlns="http://www.w3.org/2000/svg"><path d="m93.867188 128c14.136718 0 25.601562-11.460938 25.601562-25.601562 0-14.136719-11.464844-25.597657-25.601562-25.597657-14.140626 0-25.601563 11.460938-25.601563 25.597657.015625 14.132812 11.46875 25.585937 25.601563 25.601562zm0-34.132812c4.710937 0 8.53125 3.820312 8.53125 8.53125 0 4.714843-3.820313 8.535156-8.53125 8.535156-4.714844 0-8.535157-3.820313-8.535157-8.535156.007813-4.707032 3.824219-8.527344 8.535157-8.53125zm0 0"/><path d="m187.734375 128c14.136719 0 25.597656-11.460938 25.597656-25.601562 0-14.136719-11.460937-25.597657-25.597656-25.597657-14.140625 0-25.601563 11.460938-25.601563 25.597657.015626 14.132812 11.46875 25.585937 25.601563 25.601562zm0-34.132812c4.710937 0 8.53125 3.820312 8.53125 8.53125 0 4.714843-3.820313 8.535156-8.53125 8.535156-4.714844 0-8.535156-3.820313-8.535156-8.535156.007812-4.707032 3.824219-8.527344 8.535156-8.53125zm0 0"/><path d="m93.867188 384c-14.140626 0-25.601563 11.460938-25.601563 25.601562 0 14.136719 11.460937 25.597657 25.601563 25.597657 14.136718 0 25.601562-11.460938 25.601562-25.597657-.015625-14.132812-11.46875-25.585937-25.601562-25.601562zm0 34.132812c-4.714844 0-8.535157-3.820312-8.535157-8.53125 0-4.714843 3.820313-8.535156 8.535157-8.535156 4.710937 0 8.53125 3.820313 8.53125 8.535156-.003907 4.707032-3.820313 8.527344-8.53125 8.53125zm0 0"/><path d="m187.734375 384c-14.140625 0-25.601563 11.460938-25.601563 25.601562 0 14.136719 11.460938 25.597657 25.601563 25.597657 14.136719 0 25.597656-11.460938 25.597656-25.597657-.015625-14.132812-11.464843-25.585937-25.597656-25.601562zm0 34.132812c-4.714844 0-8.535156-3.820312-8.535156-8.53125 0-4.714843 3.820312-8.535156 8.535156-8.535156 4.710937 0 8.53125 3.820313 8.53125 8.535156-.003906 4.707032-3.820313 8.527344-8.53125 8.53125zm0 0"/><path d="m256 68.265625h-10.078125c-1.21875-3.566406-3.242187-6.800781-5.914063-9.457031-4.808593-4.875-11.375-7.617188-18.226562-7.609375-3.445312-.121094-6.527344-2.191407-7.9375-5.339844-13.523438-28.03125-41.894531-45.8476562-73.015625-45.859375s-59.503906 17.789062-73.050781 45.808594c-1.402344 3.171875-4.492188 5.261718-7.957032 5.390625-10.828124.035156-20.46875 6.863281-24.089843 17.066406h-10.128907c-14.132812.015625-25.585937 11.46875-25.601562 25.601563v324.265624c.015625 14.132813 11.46875 25.585938 25.601562 25.601563h10.113282c1.210937 3.558594 3.222656 6.796875 5.875 9.457031 4.8125 4.875 11.378906 7.617188 18.230468 7.609375 3.445313.121094 6.523438 2.191407 7.933594 5.339844 13.527344 28.03125 41.898438 45.847656 73.019532 45.859375 31.121093.011719 59.503906-17.789062 73.046874-45.808594 1.40625-3.171875 4.496094-5.261718 7.960938-5.390625 10.808594-.0625 20.421875-6.886719 24.046875-17.066406h10.171875c14.132812-.015625 25.585938-11.46875 25.601562-25.601563v-146.578124c2.714844 1.140624 5.433594 2.277343 8.234376 3.242187 13.132812 4.535156 26.929687 6.847656 40.824218 6.835937 9.730469-.007812 19.433594-1.117187 28.914063-3.308593 18.347656-3.050781 35.167969-12.082031 47.84375-25.691407 9.441406-11.335937 11.839843-26.964843 6.226562-40.609374-3.632812-10.589844-11.300781-19.3125-21.339843-24.265626-8.027344-3.800781-17.253907-4.160156-25.550782-.992187-9.679687 3.378906-17.339844 10.917969-20.875 20.546875-3.035156 8.714844-2.773437 18.242188.734375 26.777344-17.136719.644531-34.042969-4.089844-48.351562-13.542969-5.757813-3.53125-11.320313-7.371094-16.660157-11.503906v-115.175781c-.015624-14.132813-11.46875-25.585938-25.601562-25.601563zm8.535156 25.601563v101.492187c-5.105468-4.191406-10.214844-8.382813-15.445312-12.390625-.507813-.386719-1.09375-.8125-1.621094-1.207031v-96.429688h8.53125c4.710938.007813 8.527344 3.824219 8.535156 8.535157zm-247.46875 324.265624v-324.265624c.007813-4.710938 3.824219-8.527344 8.535156-8.535157h8.53125v341.335938h-8.53125c-4.710937-.007813-8.527343-3.824219-8.535156-8.535157zm204.714844 25.601563c-9.996094.101563-19.046875 5.917969-23.296875 14.964844-10.679687 22.160156-33.113281 36.246093-57.714844 36.234375-24.601562-.011719-47.023437-14.113282-57.683593-36.285156-4.253907-9.023438-13.292969-14.816407-23.265626-14.914063-2.324218.003906-4.546874-.9375-6.160156-2.609375-1.59375-1.59375-2.476562-3.757812-2.460937-6.011719v-358.226562c.007812-4.757813 3.863281-8.613281 8.621093-8.621094 9.992188-.101563 19.046876-5.917969 23.292969-14.964844 10.683594-22.160156 33.117188-36.246093 57.71875-36.234375 24.601563.011719 47.019531 14.113282 57.683594 36.285156 4.253906 9.023438 13.292969 14.816407 23.265625 14.914063 2.324219-.003906 4.546875.9375 6.160156 2.609375 1.589844 1.558594 2.480469 3.699219 2.457032 5.925781v93.300781c-12.625-7.964843-26.757813-13.25-41.515626-15.523437-16.1875-1.675781-32.546874.148437-47.96875 5.351563-11.703124 3.105468-22.597656 8.699218-31.933593 16.402343-10.519531 8.816407-16.289063 22.0625-15.574219 35.769531 1.296875 12.09375 8.105469 22.910157 18.453125 29.304688 9.789063 5.996094 21.390625 8.304688 32.726563 6.515625 8.324218-1.507813 16.421874-4.0625 24.105468-7.597656 6.457032-3.003907 13.261719-5.191407 20.257813-6.507813 12.632812-.90625 25.25 1.914063 36.296875 8.105469 1.722656.820313 3.433594 1.777344 5.152344 2.65625v190.546875c.011718 2.289062-.894532 4.484375-2.511719 6.101562-1.621094 1.617188-3.816407 2.519532-6.105469 2.507813zm42.753906-25.601563c-.007812 4.710938-3.824218 8.527344-8.535156 8.535157h-8.53125v-172.800781c.59375.339843 1.21875.683593 1.820312 1.023437 4.984376 2.855469 10.074219 5.707031 15.246094 8.46875zm90.839844-168.09375c5.1875-.507812 9.484375-4.246093 10.707031-9.3125.578125-3.285156-.132812-6.667968-1.984375-9.4375-3.359375-5.4375-4.15625-12.074218-2.175781-18.152343 1.820313-4.902344 5.773437-8.710938 10.738281-10.355469 4.035156-1.566406 8.539063-1.398438 12.449219.457031 5.894531 3.066407 10.367187 8.300781 12.484375 14.597657 3.59375 7.992187 2.269531 17.335937-3.40625 24.011718-10.324219 10.613282-23.816406 17.578125-38.449219 19.847656-20 4.613282-40.886719 3.570313-60.324219-3.015624-6.488281-2.304688-12.808593-5.058594-18.910156-8.25l-.175781-.089844c-6.160156-3.164063-12.28125-6.65625-18.574219-10.261719-5.03125-2.878906-10.21875-5.761719-15.476562-8.570313l-.039063-.019531c-3.195312-1.707031-6.390625-3.414062-9.671875-4.976562-11.789062-6.179688-24.816406-9.640625-38.121094-10.128907-2.613281 0-5.222656.175782-7.816406.53125-8.441406 1.480469-16.65625 4.046876-24.441406 7.636719-6.386719 2.96875-13.109375 5.140625-20.023438 6.476563-7.316406 1.175781-14.8125-.257813-21.183593-4.042969-5.835938-3.578125-9.730469-9.617187-10.582031-16.410156-.167969-8.308594 3.492187-16.234375 9.925781-21.496094 7.484375-6.085937 16.214843-10.464844 25.570312-12.824219 13.101563-4.46875 27.011719-6.085937 40.789063-4.746094 19.183594 3.785157 37.085937 12.394532 52.015625 25.011719 5.386719 4.121094 10.632812 8.433594 15.882812 12.742188 10.976563 9.449219 22.617188 18.101562 34.832031 25.890625 19.410157 12.902344 42.890626 18.203125 65.960938 14.886718zm0 0"/><path d="m162.132812 327.882812c.183594-2.773437 1.222657-5.425781 2.972657-7.585937 8.855469-12.402344 6.957031-29.480469-4.40625-39.632813-11.363281-10.152343-28.546875-10.121093-39.875.070313s-13.167969 27.277344-4.265625 39.648437c1.714844 2.101563 2.730468 4.683594 2.910156 7.386719v22.097657c.007812 9.421874 7.644531 17.058593 17.066406 17.066406h8.53125c9.421875-.007813 17.058594-7.644532 17.066406-17.066406zm-10.894531-17.53125c-3.867187 5.039063-6.027343 11.179688-6.171875 17.53125v21.984376h-8.53125v-22.097657c-.144531-6.296875-2.292968-12.386719-6.140625-17.378906-1.566406-2.167969-2.40625-4.78125-2.394531-7.457031 0-3.699219 1.605469-7.21875 4.394531-9.652344 2.324219-2.039062 5.3125-3.160156 8.40625-3.148438.617188 0 1.234375.042969 1.84375.125 5.648438.878907 10.054688 5.347657 10.851563 11.007813v.007813c.429687 3.203124-.378906 6.449218-2.257813 9.078124zm0 0"/></svg>