<svg height="512pt" viewBox="-111 0 512 512" width="512pt" xmlns="http://www.w3.org/2000/svg"><path d="m14.355469 469.828125c14.21875 2.464844 25.355469 13.601563 27.816406 27.820313 1.34375 8.246093 8.449219 14.3125 16.804687 14.351562h172.183594c8.355469-.039062 15.460938-6.105469 16.800782-14.355469 2.464843-14.21875 13.601562-25.355469 27.820312-27.816406 8.246094-1.34375 14.3125-8.449219 14.351562-16.804687v-394.046876c-.035156-8.359374-6.105468-15.464843-14.351562-16.804687-6.945312-1.1875-13.347656-4.507813-18.320312-9.5-4.992188-4.972656-8.3125-11.375-9.5-18.316406-1.339844-8.25-8.445313-14.3164065-16.800782-14.355469h-172.183594c-8.359374.0390625-15.464843 6.105469-16.804687 14.355469-1.1875 6.941406-4.507813 13.34375-9.5 18.316406-4.972656 4.992187-11.375 8.3125-18.316406 9.5-8.25 1.339844-14.3164065 8.445313-14.355469 16.804687v394.046876c.0390625 8.359374 6.105469 15.464843 14.355469 16.804687zm2.882812-410.832031c21.410157-3.683594 38.152344-20.503906 41.738281-41.929688l172.160157.171875c1.78125 10.425781 6.761719 20.039063 14.257812 27.5 7.5 7.535157 17.183594 12.515625 27.671875 14.238281l-.171875 394.027344c-21.347656 3.691406-38.066406 20.410156-41.757812 41.757813l.023437.171875-172.164062-.171875c-3.683594-21.410157-20.503906-38.152344-41.929688-41.738281zm0 0"/><path d="m69.71875 473.125c1.4375 2.90625 4.402344 4.742188 7.644531 4.742188h135.40625c3.242188 0 6.207031-1.835938 7.648438-4.742188 6.660156-13.355469 17.484375-24.179688 30.839843-30.84375 2.90625-1.4375 4.742188-4.402344 4.742188-7.644531v-357.273438c0-3.242187-1.835938-6.207031-4.742188-7.648437-6.640624-3.296875-12.695312-7.65625-17.929687-12.90625-5.25-5.234375-9.613281-11.292969-12.914063-17.933594-1.4375-2.90625-4.402343-4.742188-7.644531-4.742188h-135.40625c-3.242187 0-6.207031 1.835938-7.648437 4.742188-3.296875 6.640625-7.65625 12.695312-12.90625 17.929688-5.234375 5.25-11.292969 9.613281-17.933594 12.914062-2.90625 1.4375-4.742188 4.402344-4.742188 7.644531v357.273438c0 3.242187 1.835938 6.207031 4.742188 7.648437 13.355469 6.660156 24.179688 17.484375 30.84375 30.839844zm-18.519531-390.65625c12.96875-7.519531 23.75-18.300781 31.269531-31.269531h125.199219c7.519531 12.96875 18.296875 23.75 31.265625 31.269531v347.0625c-12.96875 7.519531-23.746094 18.300781-31.265625 31.269531h-125.199219c-7.519531-12.96875-18.300781-23.75-31.269531-31.269531zm0 0"/><path d="m93.867188 349.867188c-14.140626 0-25.601563 11.460937-25.601563 25.597656 0 14.140625 11.460937 25.601562 25.601563 25.601562h8.53125v8.535156c.015624 14.128907 11.46875 25.582032 25.601562 25.597657h34.132812c14.132813-.015625 25.585938-11.46875 25.601563-25.597657v-8.535156h8.53125c14.140625 0 25.601563-11.460937 25.601563-25.601562 0-14.136719-11.460938-25.597656-25.601563-25.597656h-8.53125v-187.734376h8.53125c14.140625 0 25.601563-11.460937 25.601563-25.597656 0-14.140625-11.460938-25.601562-25.601563-25.601562h-8.53125v-8.535156c-.015625-14.128907-11.46875-25.582032-25.601563-25.597657h-34.132812c-14.132812.015625-25.585938 11.46875-25.601562 25.597657v8.535156h-8.53125c-14.140626 0-25.601563 11.460937-25.601563 25.601562 0 14.136719 11.460937 25.597656 25.601563 25.597656h8.53125v187.734376zm0 34.132812c-4.714844 0-8.535157-3.820312-8.535157-8.535156 0-4.710938 3.820313-8.53125 8.535157-8.53125h8.53125v17.066406zm102.398437-17.066406c4.714844 0 8.535156 3.820312 8.535156 8.53125 0 4.714844-3.820312 8.535156-8.535156 8.535156h-8.53125v-17.066406zm0-238.933594c4.714844 0 8.535156 3.820312 8.535156 8.535156 0 4.710938-3.820312 8.53125-8.535156 8.53125h-8.53125v-17.066406zm-76.800781-25.601562c.007812-4.707032 3.824218-8.527344 8.535156-8.53125h34.132812c4.710938.003906 8.527344 3.824218 8.535157 8.53125v307.203124c-.007813 4.707032-3.824219 8.527344-8.535157 8.53125h-34.132812c-4.710938-.003906-8.527344-3.824218-8.535156-8.53125zm-25.597656 42.667968c-4.714844 0-8.535157-3.820312-8.535157-8.53125 0-4.714844 3.820313-8.535156 8.535157-8.535156h8.53125v17.066406zm0 0"/><path d="m145.066406 136.535156c4.714844 0 8.535156-3.824218 8.535156-8.535156v-8.535156c0-4.710938-3.820312-8.53125-8.535156-8.53125-4.710937 0-8.53125 3.820312-8.53125 8.53125v8.535156c0 4.710938 3.820313 8.535156 8.53125 8.535156zm0 0"/><path d="m145.066406 247.464844c4.714844 0 8.535156-3.820313 8.535156-8.53125v-76.800782c0-4.710937-3.820312-8.53125-8.535156-8.53125-4.710937 0-8.53125 3.820313-8.53125 8.53125v76.800782c0 4.710937 3.820313 8.53125 8.53125 8.53125zm0 0"/></svg>