<svg height="511pt" viewBox="-63 0 511 511.99664" width="511pt" xmlns="http://www.w3.org/2000/svg"><path d="m162.15625 326.996094c-3.003906-17.476563-18.890625-29.742188-36.558594-28.230469-17.667968 1.511719-31.238281 16.300781-31.230468 34.03125-.027344 8.316406 3.011718 16.351563 8.53125 22.570313v28.632812c0 14.136719 11.464843 25.597656 25.601562 25.597656s25.601562-11.460937 25.601562-25.597656v-28.621094c6.859376-7.742187 9.824219-18.183594 8.054688-28.375zm-22.195312 18.394531c-1.859376 1.621094-2.929688 3.96875-2.925782 6.4375v32.171875c0 4.710938-3.824218 8.53125-8.535156 8.53125s-8.535156-3.820312-8.535156-8.53125v-32.171875c.003906-2.46875-1.066406-4.8125-2.925782-6.433594-3.601562-3.191406-5.644531-7.785156-5.605468-12.597656-.011719-5.0625 2.234375-9.871094 6.125-13.113281 3.058594-2.570313 6.929687-3.972656 10.925781-3.953125 1.117187.003906 2.234375.105469 3.332031.304687 6.882813 1.382813 12.226563 6.816406 13.5 13.71875 1.058594 5.789063-.96875 11.714844-5.355468 15.640625zm0 0"/><path d="m350.367188 128h-93.867188v-82.433594c.121094-10.382812-6.125-19.78125-15.742188-23.691406-71.984374-29.160156-152.488281-29.167969-224.480468-.015625-9.632813 3.902344-15.894532 13.3125-15.777344 23.707031v420.863282c-.121094 10.382812 6.125 19.78125 15.742188 23.691406 71.984374 29.160156 152.488281 29.167968 224.480468.015625 9.632813-3.902344 15.894532-13.3125 15.777344-23.707031v-270.164063h93.867188c18.851562 0 34.132812-15.28125 34.132812-34.132813 0-18.851562-15.28125-34.132812-34.132812-34.132812zm-110.933594 338.429688c.089844 3.421874-1.929688 6.546874-5.082032 7.875-67.902343 27.507812-143.84375 27.5-211.738281-.015626-3.136719-1.332031-5.140625-4.453124-5.046875-7.859374v-420.863282c-.089844-3.421875 1.929688-6.546875 5.082032-7.875 67.902343-27.503906 143.84375-27.5 211.738281.015625 3.136719 1.335938 5.140625 4.453125 5.046875 7.859375v82.433594h-52.03125c-12.023438-21.1875-34.542969-34.238281-58.902344-34.136719-37.703125 0-68.265625 30.566407-68.265625 68.269531 0 37.703126 30.5625 68.265626 68.265625 68.265626 24.359375.101562 46.878906-12.949219 58.902344-34.132813h52.03125zm-110.933594-270.164063h38.207031c-9.679687 10.929687-23.605469 17.148437-38.207031 17.066406-28.277344 0-51.199219-22.921875-51.199219-51.199219 0-28.277343 22.921875-51.199218 51.199219-51.199218 14.601562-.085938 28.527344 6.136718 38.207031 17.066406h-38.207031c-18.851562 0-34.132812 15.28125-34.132812 34.132812 0 18.851563 15.28125 34.132813 34.132812 34.132813zm233.925781-22.074219c-3.191406 3.210938-7.53125 5.015625-12.058593 5.007813h-221.867188c-9.425781 0-17.066406-7.640625-17.066406-17.066407 0-9.425781 7.640625-17.066406 17.066406-17.066406h221.867188c6.902343-.007812 13.128906 4.148438 15.769531 10.527344s1.175781 13.71875-3.710938 18.597656zm0 0"/><path d="m51.699219 59.730469c0 4.714843-3.820313 8.535156-8.53125 8.535156-4.714844 0-8.535157-3.820313-8.535157-8.535156 0-4.710938 3.820313-8.53125 8.535157-8.53125 4.710937 0 8.53125 3.820312 8.53125 8.53125zm0 0"/><path d="m77.300781 59.734375c.917969 0 1.828125-.148437 2.699219-.441406 15.710938-4.960938 32.039062-7.683594 48.507812-8.09375 4.714844-.003907 8.53125-3.824219 8.53125-8.539063-.003906-4.710937-3.828124-8.53125-8.539062-8.527344-18.304688.378907-36.457031 3.398438-53.898438 8.96875-3.980468 1.320313-6.410156 5.332032-5.738281 9.46875.671875 4.136719 4.246094 7.171876 8.4375 7.164063zm0 0"/></svg>