<svg height="512pt" viewBox="-26 0 512 512.00912" width="512pt" xmlns="http://www.w3.org/2000/svg"><path d="m136.539062 512.007812c75.367188-.085937 136.445313-61.164062 136.53125-136.53125v-177.324218c3.148438-2.835938 5.542969-6.414063 6.960938-10.410156h131.144531c4.132813 11.75 16.144531 18.804687 28.417969 16.695312 12.277344-2.109375 21.242188-12.769531 21.210938-25.226562v-51.203126c.03125-12.457031-8.933594-23.117187-21.210938-25.226562-12.273438-2.113281-24.285156 4.941406-28.417969 16.695312h-131.144531c-1.90625-5.382812-5.554688-9.972656-10.367188-13.039062-15.324218-67.832031-79.1875-113.300781-148.300781-105.585938-69.109375 7.714844-121.3710935 66.152344-121.35937475 135.691407v238.933593c.08593755 75.367188 61.16406275 136.445313 136.53515575 136.53125zm0-341.332031c-9.425781 0-17.066406-7.640625-17.066406-17.066406s7.640625-17.066406 17.066406-17.066406h93.867188v34.132812zm0-51.199219c-18.851562 0-34.132812 15.28125-34.132812 34.132813s15.28125 34.132813 34.132812 34.132813h38.207032c-9.679688 10.929687-23.609375 17.152343-38.207032 17.066406-28.277343 0-51.199218-22.921875-51.199218-51.199219s22.921875-51.199219 51.199218-51.199219c14.601563-.085937 28.527344 6.136719 38.207032 17.066406zm110.933594 8.53125c0-4.710937 3.820313-8.53125 8.53125-8.53125 4.714844 0 8.535156 3.820313 8.535156 8.53125v51.203126c0 4.710937-3.820312 8.53125-8.535156 8.53125-4.710937 0-8.53125-3.820313-8.53125-8.53125zm162.132813 42.667969h-128v-34.132812h128zm25.597656-51.199219c4.710937.003907 8.527344 3.824219 8.535156 8.53125v51.203126c0 4.710937-3.820312 8.53125-8.535156 8.53125-4.710937 0-8.53125-3.820313-8.53125-8.53125v-51.203126c.003906-4.707031 3.824219-8.527343 8.53125-8.53125zm-418.132813 17.066407c.074219-65.949219 53.519532-119.394531 119.46875-119.46875 52.984376.097656 99.605469 35.007812 114.613282 85.824219-8.871094 1.75-16.164063 8.050781-19.175782 16.578124h-36.535156c-12.023437-21.1875-34.542968-34.234374-58.902344-34.132812-37.703124 0-68.269531 30.5625-68.269531 68.265625s30.566407 68.265625 68.269531 68.265625c24.359376.101562 46.878907-12.945312 58.902344-34.132812h36.535156c3.59375 10.199218 13.214844 17.035156 24.027344 17.066406v170.667968c0 65.980469-53.488281 119.464844-119.464844 119.464844-65.980468 0-119.46875-53.484375-119.46875-119.464844zm0 0"/><path d="m110.9375 375.476562c-.050781 6.757813 2.636719 13.246094 7.453125 17.988282 4.777344 4.890625 11.332031 7.636718 18.167969 7.609375.734375 0 1.472656-.027344 2.207031-.089844 13.441406-1.492187 23.554687-12.945313 23.371094-26.46875l.066406-19.210937c6.804687-7.738282 9.742187-18.136719 7.992187-28.292969-3.003906-17.472657-18.886718-29.738281-36.554687-28.230469-17.667969 1.511719-31.242187 16.296875-31.234375 34.027344-.105469 8.199218 2.949219 16.125 8.53125 22.128906zm14.660156-55.785156c3.058594-2.566406 6.929688-3.96875 10.921875-3.949218 1.121094 0 2.234375.101562 3.335938.304687 5.972656 1.171875 10.867187 5.441406 12.84375 11.199219 1.976562 5.753906.738281 12.128906-3.253907 16.726562-2.773437 2.992188-4.332031 6.914063-4.375 10.996094v19.546875c.171876 4.65625-3.144531 8.707031-7.742187 9.460937-2.382813.1875-4.738281-.617187-6.503906-2.226562-1.769531-1.613281-2.789063-3.882812-2.820313-6.273438v-20.539062c-.042968-4.066406-1.597656-7.972656-4.367187-10.953125-2.710938-3.085937-4.195313-7.066406-4.164063-11.175781-.011718-5.066406 2.234375-9.871094 6.125-13.117188zm0 0"/><path d="m55.347656 92.660156c4.039063 2.425782 9.28125 1.113282 11.707032-2.925781 22.480468-37.46875 51.113281-38.5 52.480468-38.523437 4.710938-.019532 8.519532-3.855469 8.5-8.566407-.015625-4.714843-3.851562-8.519531-8.5625-8.503906-1.59375 0-39.285156.535156-67.050781 46.8125-2.425781 4.039063-1.117187 9.28125 2.925781 11.707031zm0 0"/><path d="m51.203125 110.941406c0 4.714844-3.820313 8.535156-8.53125 8.535156-4.714844 0-8.535156-3.820312-8.535156-8.535156 0-4.710937 3.820312-8.53125 8.535156-8.53125 4.710937 0 8.53125 3.820313 8.53125 8.53125zm0 0"/></svg>