<svg height="512pt" viewBox="-52 0 512 512.0001" width="512pt" xmlns="http://www.w3.org/2000/svg"><path d="m248.46875 57.199219-49.664062-49.664063c-4.804688-4.835937-11.339844-7.5468748-18.152344-7.535156h-105.304688c-6.8125-.0117188-13.347656 2.699219-18.148437 7.535156l-49.664063 49.664063c-4.835937 4.800781-7.5468748 11.335937-7.535156 18.148437v361.304688c-.0117188 6.8125 2.699219 13.347656 7.535156 18.148437l49.664063 49.664063c4.800781 4.835937 11.335937 7.546875 18.148437 7.535156h105.304688c6.8125.011719 13.347656-2.699219 18.148437-7.53125l49.664063-49.664062c4.835937-4.804688 7.550781-11.339844 7.535156-18.152344v-131.210938c8.308594 4.609375 16.976562 8.546875 25.914062 11.773438 13.132813 4.535156 26.929688 6.839844 40.824219 6.828125 9.730469-.003907 19.429688-1.113281 28.910157-3.308594 18.34375-3.050781 35.160156-12.082031 47.835937-25.683594 9.445313-11.335937 11.84375-26.96875 6.230469-40.613281-3.636719-10.585938-11.308594-19.308594-21.34375-24.261719-8.023438-3.796875-17.246094-4.152343-25.539063-.992187-9.6875 3.375-17.351562 10.914062-20.882812 20.546875-3.035157 8.710937-2.777344 18.238281.730469 26.773437-17.132813.648438-34.042969-4.085937-48.347657-13.542968-11.511719-7.363282-22.480469-15.539063-32.828125-24.464844-.496094-.410156-1.007812-.800782-1.507812-1.210938v-161.9375c.015625-6.8125-2.695313-13.347656-7.527344-18.148437zm-12.070312 385.535156-49.664063 49.664063c-1.605469 1.625-3.796875 2.535156-6.082031 2.535156h-105.304688c-2.28125 0-4.472656-.910156-6.082031-2.535156l-49.664063-49.664063c-1.625-1.605469-2.535156-3.796875-2.535156-6.082031v-361.304688c0-2.28125.910156-4.472656 2.535156-6.082031l49.664063-49.664063c1.605469-1.625 3.796875-2.535156 6.082031-2.535156h105.304688c2.28125 0 4.472656.910156 6.082031 2.535156l49.664063 49.664063c1.625 1.605469 2.535156 3.796875 2.535156 6.082031v148.367188c-5.476563-4.152344-11.175782-8.007813-17.066406-11.550782v-129.730468c0-2.265625-.898438-4.433594-2.5-6.035156l-39.765626-39.765626c-1.601562-1.601562-3.769531-2.5-6.035156-2.5h-91.132812c-2.265625 0-4.433594.898438-6.035156 2.5l-39.765626 39.765626c-1.601562 1.601562-2.5 3.769531-2.5 6.035156v347.132812c0 2.265625.898438 4.433594 2.5 6.035156l39.765626 39.765626c1.601562 1.601562 3.769531 2.5 6.035156 2.5h91.132812c2.265625 0 4.433594-.898438 6.035156-2.5l39.765626-39.765626c1.601562-1.601562 2.5-3.769531 2.5-6.035156v-142.890625c5.753906 2.925781 11.464843 6.058594 17.066406 9.253907v140.722656c0 2.28125-.910156 4.472656-2.535156 6.082031zm-150.921876-188.226563c1.304688 12.09375 8.117188 22.90625 18.460938 29.304688 9.792969 5.980469 21.390625 8.289062 32.726562 6.507812 8.324219-1.503906 16.421876-4.058593 24.105469-7.59375 6.453125-3.003906 13.261719-5.191406 20.257813-6.507812 8.058594-.804688 16.191406.253906 23.773437 3.09375v146.722656l-34.765625 34.765625h-84.070312l-34.765625-34.765625v-340.070312l34.765625-34.765625h84.070312l34.765625 34.765625v117.632812c-7.621093-3.242187-15.640625-5.464844-23.84375-6.613281-16.1875-1.675781-32.546875.148437-47.96875 5.347656-11.703125 3.105469-22.597656 8.699219-31.933593 16.40625-10.519532 8.816407-16.289063 22.0625-15.578126 35.769531zm196.019532 23.046876c19.390625 12.921874 42.875 18.222656 65.9375 14.886718 5.171875-.519531 9.460937-4.238281 10.710937-9.28125.601563-3.292968-.105469-6.6875-1.964843-9.46875-3.359376-5.4375-4.15625-12.078125-2.171876-18.152344 1.820313-4.902343 5.769532-8.710937 10.730469-10.355468 4.039063-1.566406 8.542969-1.402344 12.453125.457031 5.894532 3.0625 10.367188 8.292969 12.480469 14.59375 3.601563 7.988281 2.277344 17.335937-3.398437 24.011719-10.328126 10.609375-23.824219 17.578125-38.453126 19.855468-20 4.597657-40.886718 3.554688-60.328124-3.019531-13.105469-5.015625-25.71875-11.242187-37.667969-18.601562-8.101563-4.636719-16.484375-9.429688-25.179688-13.566407-2.402343-1.144531-5.074219-2.351562-7.960937-3.523437l-.066406-.023437c-9.550782-4.097657-19.792969-6.328126-30.179688-6.570313-2.582031-.003906-5.164062.167969-7.726562.515625-8.441407 1.480469-16.660157 4.050781-24.441407 7.636719-6.386719 2.96875-13.113281 5.144531-20.03125 6.480469-7.3125 1.167968-14.804687-.261719-21.175781-4.039063-5.835938-3.582031-9.726562-9.621094-10.585938-16.414063-.164062-8.308593 3.5-16.234374 9.933594-21.492187 7.484375-6.09375 16.210938-10.472656 25.570313-12.828125 13.097656-4.484375 27.007812-6.105469 40.785156-4.746094 19.183594 3.78125 37.085937 12.390625 52.019531 25.015625 5.390625 4.125 10.644532 8.441407 15.894532 12.753907 10.976562 9.441406 22.609374 18.089843 34.816406 25.875zm0 0"/><path d="m119.464844 93.867188c0-14.140626-11.460938-25.601563-25.597656-25.601563-14.140626 0-25.601563 11.460937-25.601563 25.601563 0 14.136718 11.460937 25.597656 25.601563 25.597656 14.132812-.011719 25.585937-11.464844 25.597656-25.597656zm-25.597656 8.53125c-4.714844 0-8.535157-3.820313-8.535157-8.53125 0-4.714844 3.820313-8.535157 8.535157-8.535157 4.710937 0 8.53125 3.820313 8.53125 8.535157-.003907 4.710937-3.820313 8.527343-8.53125 8.53125zm0 0"/><path d="m162.132812 119.464844c14.140626 0 25.601563-11.460938 25.601563-25.597656 0-14.140626-11.460937-25.601563-25.601563-25.601563-14.136718 0-25.597656 11.460937-25.597656 25.601563.015625 14.132812 11.464844 25.585937 25.597656 25.597656zm0-34.132813c4.714844 0 8.535157 3.820313 8.535157 8.535157 0 4.710937-3.820313 8.53125-8.535157 8.53125-4.710937 0-8.53125-3.820313-8.53125-8.53125.003907-4.710938 3.820313-8.527344 8.53125-8.535157zm0 0"/><path d="m68.265625 418.132812c0 14.140626 11.460937 25.601563 25.601563 25.601563 14.136718 0 25.597656-11.460937 25.597656-25.601563 0-14.136718-11.460938-25.597656-25.597656-25.597656-14.132813.015625-25.585938 11.464844-25.601563 25.597656zm25.601563-8.53125c4.710937 0 8.53125 3.820313 8.53125 8.53125 0 4.714844-3.820313 8.535157-8.53125 8.535157-4.714844 0-8.535157-3.820313-8.535157-8.535157.007813-4.710937 3.824219-8.527343 8.535157-8.53125zm0 0"/><path d="m162.132812 443.734375c14.140626 0 25.601563-11.460937 25.601563-25.601563 0-14.136718-11.460937-25.597656-25.601563-25.597656-14.136718 0-25.597656 11.460938-25.597656 25.597656.015625 14.132813 11.464844 25.585938 25.597656 25.601563zm0-34.132813c4.714844 0 8.535157 3.820313 8.535157 8.53125 0 4.714844-3.820313 8.535157-8.535157 8.535157-4.710937 0-8.53125-3.820313-8.53125-8.535157.003907-4.710937 3.820313-8.527343 8.53125-8.53125zm0 0"/></svg>