<svg height="512pt" viewBox="-47 0 512 512" width="512pt" xmlns="http://www.w3.org/2000/svg"><path d="m273.066406 34.132812c-.019531-18.84375-15.289062-34.1132808-34.132812-34.132812h-204.800782c-18.84375.0195312-34.1132808 15.289062-34.132812 34.132812v341.332032c0 75.40625 61.128906 136.535156 136.535156 136.535156 75.402344 0 136.53125-61.128906 136.53125-136.535156v-153.597656h119.46875c14.128906-.015626 25.582032-11.46875 25.597656-25.601563v-25.597656c-.015624-14.132813-11.46875-25.585938-25.597656-25.601563h-119.46875zm-17.066406 341.332032c0 65.980468-53.488281 119.46875-119.464844 119.46875-65.980468 0-119.46875-53.488282-119.46875-119.46875v-341.332032c.011719-9.421874 7.644532-17.054687 17.066406-17.066406h204.800782c9.421875.011719 17.054687 7.644532 17.066406 17.066406v110.933594h-53.964844c-17.132812-27.457031-50.390625-40.242187-81.507812-31.328125-31.113282 8.910157-52.558594 37.359375-52.558594 69.726563 0 32.367187 21.445312 60.820312 52.558594 69.730468 31.117187 8.914063 64.375-3.871093 81.507812-31.328124h53.964844zm-128-153.597656h52.746094c-15.679688 16.339843-39.710938 21.507812-60.71875 13.0625-21.011719-8.449219-34.773438-28.820313-34.773438-51.464844 0-22.640625 13.761719-43.011719 34.773438-51.460938 21.007812-8.445312 45.039062-3.277344 60.71875 13.0625h-52.746094c-14.132812.015625-25.585938 11.46875-25.601562 25.601563v25.597656c.015624 14.132813 11.46875 25.585937 25.601562 25.601563zm273.066406-51.199219v25.597656c-.003906 4.710937-3.820312 8.53125-8.53125 8.535156h-264.535156c-4.710938-.003906-8.527344-3.824219-8.535156-8.535156v-25.597656c.007812-4.710938 3.824218-8.53125 8.535156-8.535157h264.535156c4.710938.003907 8.527344 3.824219 8.53125 8.535157zm0 0"/><path d="m76.800781 324.265625h-25.601562c-9.421875.011719-17.054688 7.648437-17.066407 17.066406v17.066407c.011719 9.421874 7.644532 17.058593 17.066407 17.066406h170.667969c9.421874-.007813 17.054687-7.644532 17.066406-17.066406v-17.066407c-.011719-9.417969-7.644532-17.054687-17.066406-17.066406zm-25.601562 17.066406h17.066406v17.066407h-17.066406zm34.132812 17.066407v-17.066407h136.535157l.007812 17.066407zm0 0"/><path d="m42.667969 51.199219h17.066406c4.710937 0 8.53125-3.820313 8.53125-8.53125 0-4.714844-3.820313-8.535157-8.53125-8.535157h-17.066406c-4.714844 0-8.535157 3.820313-8.535157 8.535157 0 4.710937 3.820313 8.53125 8.535157 8.53125zm0 0"/><path d="m93.867188 51.199219h85.332031c4.714843 0 8.535156-3.820313 8.535156-8.53125 0-4.714844-3.820313-8.535157-8.535156-8.535157h-85.332031c-4.714844 0-8.535157 3.820313-8.535157 8.535157 0 4.710937 3.820313 8.53125 8.535157 8.53125zm0 0"/></svg>