<svg height="512pt" viewBox="-64 0 512 512" width="512pt" xmlns="http://www.w3.org/2000/svg"><path d="m76.800781 59.734375h17.066407c4.710937 0 8.53125-3.820313 8.53125-8.535156 0-4.710938-3.820313-8.53125-8.53125-8.53125h-17.066407c-4.714843 0-8.535156 3.820312-8.535156 8.53125 0 4.714843 3.820313 8.535156 8.535156 8.535156zm0 0"/><path d="m119.464844 59.734375h17.070312c4.710938 0 8.53125-3.820313 8.53125-8.535156 0-4.710938-3.820312-8.53125-8.53125-8.53125h-17.070312c-4.710938 0-8.53125 3.820312-8.53125 8.53125 0 4.714843 3.820312 8.535156 8.53125 8.535156zm0 0"/><path d="m162.132812 59.734375h17.066407c4.714843 0 8.535156-3.820313 8.535156-8.535156 0-4.710938-3.820313-8.53125-8.535156-8.53125h-17.066407c-4.710937 0-8.53125 3.820312-8.53125 8.53125 0 4.714843 3.820313 8.535156 8.53125 8.535156zm0 0"/><path d="m76.800781 93.867188h17.066407c4.710937 0 8.53125-3.820313 8.53125-8.535157 0-4.710937-3.820313-8.53125-8.53125-8.53125h-17.066407c-4.714843 0-8.535156 3.820313-8.535156 8.53125 0 4.714844 3.820313 8.535157 8.535156 8.535157zm0 0"/><path d="m119.464844 93.867188h17.070312c4.710938 0 8.53125-3.820313 8.53125-8.535157 0-4.710937-3.820312-8.53125-8.53125-8.53125h-17.070312c-4.710938 0-8.53125 3.820313-8.53125 8.53125 0 4.714844 3.820312 8.535157 8.53125 8.535157zm0 0"/><path d="m162.132812 93.867188h17.066407c4.714843 0 8.535156-3.820313 8.535156-8.535157 0-4.710937-3.820313-8.53125-8.535156-8.53125h-17.066407c-4.710937 0-8.53125 3.820313-8.53125 8.53125 0 4.714844 3.820313 8.535157 8.53125 8.535157zm0 0"/><path d="m76.800781 128h17.066407c4.710937 0 8.53125-3.820312 8.53125-8.535156 0-4.710938-3.820313-8.53125-8.53125-8.53125h-17.066407c-4.714843 0-8.535156 3.820312-8.535156 8.53125 0 4.714844 3.820313 8.535156 8.535156 8.535156zm0 0"/><path d="m119.464844 128h17.070312c4.710938 0 8.53125-3.820312 8.53125-8.535156 0-4.710938-3.820312-8.53125-8.53125-8.53125h-17.070312c-4.710938 0-8.53125 3.820312-8.53125 8.53125 0 4.714844 3.820312 8.535156 8.53125 8.535156zm0 0"/><path d="m162.132812 128h17.066407c4.714843 0 8.535156-3.820312 8.535156-8.535156 0-4.710938-3.820313-8.53125-8.535156-8.53125h-17.066407c-4.710937 0-8.53125 3.820312-8.53125 8.53125 0 4.714844 3.820313 8.535156 8.53125 8.535156zm0 0"/><path d="m76.800781 162.132812h17.066407c4.710937 0 8.53125-3.820312 8.53125-8.53125 0-4.714843-3.820313-8.535156-8.53125-8.535156h-17.066407c-4.714843 0-8.535156 3.820313-8.535156 8.535156 0 4.710938 3.820313 8.53125 8.535156 8.53125zm0 0"/><path d="m119.464844 162.132812h17.070312c4.710938 0 8.53125-3.820312 8.53125-8.53125 0-4.714843-3.820312-8.535156-8.53125-8.535156h-17.070312c-4.710938 0-8.53125 3.820313-8.53125 8.535156 0 4.710938 3.820312 8.53125 8.53125 8.53125zm0 0"/><path d="m162.132812 162.132812h17.066407c4.714843 0 8.535156-3.820312 8.535156-8.53125 0-4.714843-3.820313-8.535156-8.535156-8.535156h-17.066407c-4.710937 0-8.53125 3.820313-8.53125 8.535156 0 4.710938 3.820313 8.53125 8.53125 8.53125zm0 0"/><path d="m341.332031 332.800781h-85.332031v-264.535156c-.019531-18.84375-15.289062-34.113281-34.132812-34.132813v-8.53125c-.015626-14.132812-11.46875-25.585937-25.601563-25.601562h-136.53125c-14.132813.015625-25.585937 11.46875-25.601563 25.601562v8.53125c-18.84375.019532-34.1132808 15.289063-34.132812 34.132813v409.601563c.0195312 18.84375 15.289062 34.113281 34.132812 34.132812h187.734376c18.84375-.019531 34.113281-15.289062 34.132812-34.132812v-59.734376h85.332031c23.566407 0 42.667969-19.101562 42.667969-42.667968 0-23.5625-19.101562-42.664063-42.667969-42.664063zm-290.132812-307.199219c.003906-4.710937 3.824219-8.53125 8.535156-8.535156h136.53125c4.710937.003906 8.53125 3.824219 8.535156 8.535156v136.53125c0 42.414063-34.386719 76.800782-76.800781 76.800782s-76.800781-34.386719-76.800781-76.800782zm187.734375 452.265626c-.011719 9.421874-7.644532 17.054687-17.066406 17.066406h-187.734376c-9.421874-.011719-17.054687-7.644532-17.066406-17.066406v-409.601563c.011719-9.421875 7.644532-17.054687 17.066406-17.066406v110.933593c0 51.839844 42.027344 93.867188 93.867188 93.867188s93.867188-42.027344 93.867188-93.867188v-110.933593c9.421874.011719 17.054687 7.644531 17.066406 17.066406v264.535156h-47.339844c-18.792969-28.128906-53.777344-40.648437-86.148438-30.828125-32.375 9.820313-54.507812 39.664063-54.507812 73.492188 0 33.832031 22.132812 63.675781 54.507812 73.496094 32.371094 9.820312 67.355469-2.699219 86.148438-30.828126h47.339844zm-110.933594-59.734376h41.722656c-23.453125 22.976563-61.050781 22.722657-84.1875-.570312-23.136718-23.296875-23.136718-60.894531 0-84.191406 23.136719-23.292969 60.734375-23.546875 84.1875-.570313h-41.722656c-23.5625 0-42.667969 19.101563-42.667969 42.664063 0 23.566406 19.105469 42.667968 42.667969 42.667968zm213.332031-17.066406h-213.332031c-14.136719 0-25.601562-11.460937-25.601562-25.601562 0-14.136719 11.464843-25.597656 25.601562-25.597656h213.332031c14.140625 0 25.601563 11.460937 25.601563 25.597656 0 14.140625-11.460938 25.601562-25.601563 25.601562zm0 0"/><path d="m153.601562 366.933594h-25.601562c-4.710938 0-8.535156 3.820312-8.535156 8.53125 0 4.714844 3.824218 8.535156 8.535156 8.535156h25.601562c4.710938 0 8.53125-3.820312 8.53125-8.535156 0-4.710938-3.820312-8.53125-8.53125-8.53125zm0 0"/></svg>