<svg height="511pt" viewBox="-43 1 511 511.99971" width="511pt" xmlns="http://www.w3.org/2000/svg"><path d="m50.875 443.902344v8.363281c.007812 9.421875 7.644531 17.058594 17.066406 17.066406h4.949219c1.765625-.03125 3.410156.910157 4.273437 2.457031 13.417969 24.757813 39.308594 40.191407 67.46875 40.210938 28.164063.019531 54.078126-15.375 67.527344-40.117188.882813-1.574218 2.542969-2.546874 4.34375-2.550781h5.035156c9.421876-.007812 17.058594-7.644531 17.066407-17.066406l.25-8.53125c9.054687.09375 16.585937-6.933594 17.117187-15.972656l11.597656-117.09375c10.203126 5.964843 20.917969 11.007812 32.015626 15.074219 13.199218 4.511718 27.058593 6.796874 41.007812 6.761718 9.667969.007813 19.308594-1.082031 28.734375-3.242187 18.339844-3.050781 35.15625-12.082031 47.832031-25.6875 9.445313-11.332031 11.84375-26.964844 6.230469-40.609375-3.632813-10.585938-11.300781-19.308594-21.335937-24.261719-8.027344-3.800781-17.257813-4.15625-25.558594-.996094-9.683594 3.378907-17.34375 10.917969-20.875 20.546875-3.03125 8.714844-2.769532 18.242188.734375 26.777344-17.132813.640625-34.035157-4.09375-48.339844-13.542969-11.519531-7.363281-22.496094-15.542969-32.84375-24.476562-.414063-.339844-.84375-.667969-1.257813-1.007813l14.910157-150.421875c.472656-4.804687-1.109375-9.585937-4.351563-13.164062-3.242187-3.574219-7.84375-5.617188-12.671875-5.617188h-16.128906v-17.066406c-.007813-9.421875-7.644531-17.058594-17.066406-17.066406h-17.066407v-12.460938c-.011718-5.734375-2.878906-11.085937-7.648437-14.269531l-19.714844-13.121094c-2.800781-1.828125-6.070312-2.8046872-9.414062-2.816406h-80.128907c-3.382812.015625-6.683593 1.015625-9.507812 2.878906l-19.679688 13.101563c-4.710937 3.199219-7.523437 8.53125-7.503906 14.226562v12.460938h-17.066406c-9.421875.007812-17.058594 7.644531-17.066406 17.066406v17.066406h-16.214844c-4.773438.007813-9.328125 2.007813-12.558594 5.519531-3.277344 3.59375-4.898437 8.398438-4.464844 13.242188l32.824219 331.835938c.578125 9.242187 8.21875 16.457031 17.480469 16.503906zm248.292969-157.816406c19.398437 12.914062 42.878906 18.214843 65.941406 14.890624 5.191406-.53125 9.488281-4.273437 10.726563-9.34375.566406-3.273437-.140626-6.640624-1.984376-9.40625-3.359374-5.4375-4.15625-12.078124-2.175781-18.15625 1.820313-4.898437 5.765625-8.707031 10.726563-10.347656 4.039062-1.578125 8.546875-1.414062 12.457031.453125 5.898437 3.0625 10.371094 8.292969 12.484375 14.589844 3.601562 7.988281 2.277344 17.335937-3.398438 24.011719-10.328124 10.609375-23.820312 17.578125-38.449218 19.855468-20 4.609376-40.886719 3.566407-60.328125-3.015624-13.109375-5.015626-25.71875-11.242188-37.667969-18.601563-.996094-.570313-2.035156-1.140625-3.039062-1.707031l-.027344-.015625c-7.160156-4.085938-14.496094-8.214844-22.117188-11.839844-11.839844-6.136719-24.882812-9.589844-38.207031-10.117187-2.585937-.003907-5.164063.167968-7.726563.515624-8.441406 1.480469-16.65625 4.046876-24.441406 7.636719-6.390625 2.96875-13.117187 5.144531-20.03125 6.480469-7.316406 1.164062-14.804687-.261719-21.175781-4.039062-5.835937-3.582032-9.730469-9.621094-10.582031-16.414063-.164063-8.308594 3.492187-16.230469 9.925781-21.492187 7.488281-6.097657 16.222656-10.476563 25.585937-12.835938 13.09375-4.476562 27-6.09375 40.773438-4.746094 19.183594 3.785156 37.089844 12.394532 52.027344 25.015625 5.382812 4.125 10.632812 8.4375 15.890625 12.746094 10.972656 9.445313 22.609375 18.097656 34.8125 25.882813zm-73.457031-72.617188c-8.589844-3.960938-17.710938-6.640625-27.074219-7.953125-16.1875-1.679687-32.546875.144531-47.96875 5.347656-11.707031 3.101563-22.601563 8.699219-31.941407 16.410157-10.519531 8.816406-16.285156 22.058593-15.574218 35.765624 1.304687 12.089844 8.109375 22.902344 18.449218 29.304688 9.792969 5.988281 21.394532 8.296875 32.734376 6.507812 8.324218-1.507812 16.421874-4.058593 24.109374-7.59375 6.453126-3.007812 13.257813-5.191406 20.257813-6.507812 6.660156-.707031 13.394531-.054688 19.796875 1.910156l-11.566406 116.921875c-6.835938 5.40625-12.203125 12.445313-15.601563 20.472657-10.203125 5.121093-18.59375 13.242187-24.050781 23.269531-4.464844 8.300781-13.128906 13.476562-22.554688 13.472656-9.425781-.003906-18.085937-5.183594-22.546874-13.488281-5.503907-10.019532-13.917969-18.132813-24.132813-23.265625-3.394531-8.023438-8.753906-15.058594-15.589844-20.460938l-27.65625-280.128906c13.429688-6.105469 23.609375-17.667969 27.957031-31.769531 18.535157-5.730469 32.289063-21.371094 35.601563-40.484375h52.675781c3.3125 19.125 17.078125 34.769531 35.625 40.492187 4.375 14.074219 14.53125 25.625 27.9375 31.757813zm-191.902344-119.601562c9.417968-.011719 17.054687-7.644532 17.066406-17.066407v-17.066406h17.066406c9.421875-.011719 17.054688-7.648437 17.066406-17.066406l-.058593-12.523438 19.683593-13.078125 80.183594.019532 19.65625 13.121093v12.460938c.011719 9.417969 7.648438 17.054687 17.066406 17.066406h17.066407v17.066406c.011719 9.421875 7.648437 17.054688 17.066406 17.066407l16.167969.011718-13.8125 139.421875c-4.605469-3.5-10-7.351562-16.03125-11.09375l10.222656-103.613281c.402344-4.089844-2.164062-7.882812-6.109375-9.03125-12.328125-3.652344-21.59375-13.867188-24.03125-26.488281-.648437-3.453125-3.347656-6.160157-6.800781-6.8125-15.78125-3.003907-27.363282-16.554688-27.871094-32.613281-.070312-2.773438-1.488281-5.34375-3.800781-6.882813l-1.789063-1.195313c-1.402344-.9375-3.050781-1.4375-4.734375-1.4375h-64.683593c-1.621094 0-3.207032.460938-4.574219 1.328126l-1.882813 1.195312c-2.402344 1.527344-3.886718 4.148438-3.960937 6.992188-.503907 16.054687-12.082031 29.609374-27.863281 32.613281-3.46875.65625-6.171876 3.382812-6.804688 6.855469-2.410156 12.625-11.6875 22.839843-24.027344 26.445312-3.945312 1.152344-6.507812 4.945312-6.109375 9.03125l28.671875 290.476562c.25 2.554688 1.636719 4.859376 3.777344 6.273438 6.367188 4.238281 11.148438 10.464844 13.597656 17.710938.785156 2.332031 2.539063 4.210937 4.808594 5.15625 8.144531 3.425781 14.894531 9.503906 19.152344 17.246093 7.445312 13.804688 21.863281 22.410157 37.546875 22.410157 15.683593.003906 30.101562-8.597657 37.550781-22.402344 4.222656-7.753906 10.957031-13.84375 19.101562-17.261719 2.257813-.953125 4-2.828125 4.78125-5.148437 2.449219-7.246094 7.234376-13.476563 13.601563-17.710938 2.136719-1.417969 3.519531-3.71875 3.773437-6.269531l11.492188-116.1875c5.476562 2.605469 10.90625 5.574219 16.285156 8.597656l-12.539062 125.183594c-9.515625.007812-17.226563 7.71875-17.238282 17.234375v8.363281h-5.035156c-8.015625.023437-15.394531 4.378906-19.285156 11.394531-10.441406 19.273438-30.601562 31.277344-52.523438 31.277344-21.921874-.003906-42.082031-12.011719-52.519531-31.289062-3.847656-7.046876-11.25-11.417969-19.28125-11.382813h-4.953125v-8.363281c-.203125-9.648438-7.898437-17.464844-17.542968-17.824219l-32.804688-332.210937zm0 0"/><path d="m145.59375 76.800781c-14.136719 0-25.601562 11.460938-25.601562 25.597657 0 14.140624 11.464843 25.601562 25.601562 25.601562s25.601562-11.460938 25.601562-25.601562c-.015624-14.128907-11.46875-25.582032-25.601562-25.597657zm0 34.132813c-4.714844 0-8.535156-3.820313-8.535156-8.535156 0-4.710938 3.820312-8.53125 8.535156-8.53125 4.710938 0 8.535156 3.820312 8.535156 8.53125-.007812 4.710937-3.824218 8.53125-8.535156 8.535156zm0 0"/><path d="m145.59375 426.667969c10.355469 0 19.6875-6.238281 23.652344-15.804688 3.960937-9.566406 1.769531-20.578125-5.550782-27.898437-7.320312-7.320313-18.332031-9.511719-27.898437-5.550782-9.566406 3.964844-15.804687 13.296876-15.804687 23.652344.015624 14.132813 11.46875 25.585938 25.601562 25.601563zm0-34.132813c4.710938 0 8.535156 3.820313 8.535156 8.53125 0 4.714844-3.824218 8.535156-8.535156 8.535156-4.714844 0-8.535156-3.820312-8.535156-8.535156.007812-4.710937 3.824218-8.527344 8.535156-8.53125zm0 0"/></svg>