<svg height="511pt" viewBox="-93 0 511 511.71935" width="511pt" xmlns="http://www.w3.org/2000/svg"><path d="m5.039062 394.957031c-.257812.304688-.5.625-.714843.960938-4.953125 7.617187-5.289063 17.347656-.867188 25.285156 4.769531 8.53125 13.816407 13.785156 23.589844 13.699219h8.976563l-7.917969 15.417968c-2.390625 4.523438-2.816407 9.832032-1.171875 14.675782 1.800781 5.1875 5.628906 9.421875 10.605468 11.738281 12.699219 7.375 23.972657 16.96875 33.28125 28.324219 3.769532 4.234375 9.167969 6.65625 14.839844 6.660156 5.667969.003906 11.070313-2.414062 14.84375-6.644531 9.304688-11.351563 20.570313-20.941407 33.257813-28.320313 4.996093-2.316406 8.835937-6.558594 10.648437-11.757812 1.644532-4.824219 1.230469-10.109375-1.136718-14.621094l-7.949219-15.472656h8.972656c9.777344.085937 18.820313-5.167969 23.59375-13.699219 4.417969-7.9375 4.085937-17.667969-.867187-25.285156-.21875-.335938-.457032-.65625-.71875-.960938l-12.363282-14.410156v-139.382813l127.765625 4.722657c.523438.015625 1.050781.027343 1.574219.027343 10.972656-.007812 21.492188-4.375 29.242188-12.144531 7.75-7.765625 12.097656-18.292969 12.082031-29.265625-.027344-22.847656-18.539063-41.359375-41.386719-41.386718l-129.277344 4.742187v-37l12.363282-14.410156c.261718-.304688.5-.625.71875-.964844 4.953124-7.613281 5.285156-17.34375.867187-25.28125-4.773437-8.535156-13.816406-13.785156-23.59375-13.699219h-8.972656l7.914062-15.417968c2.394531-4.523438 2.820313-9.832032 1.175781-14.675782-1.804687-5.1875-5.632812-9.417968-10.609374-11.738281-12.699219-7.375-23.972657-16.96875-33.285157-28.328125-3.871093-4.046875-9.230469-6.33984375-14.835937-6.34375-5.605469-.00390625-10.964844 2.28125-14.84375 6.328125-9.304688 11.351563-20.570313 20.945313-33.257813 28.320313-4.996093 2.316406-8.839843 6.558593-10.652343 11.757812-1.640626 4.824219-1.226563 10.113281 1.144531 14.625l7.949219 15.472656h-8.976563c-9.773437-.085937-18.820313 5.167969-23.589844 13.699219-4.421875 7.9375-4.085937 17.667969.867188 25.285156.21875.335938.457031.65625.714843.960938l12.367188 14.410156v249.6875zm278.179688-214.773437c8.800781-.003906 16.914062 4.746094 21.222656 12.417968 4.308594 7.675782 4.136719 17.074219-.445312 24.585938-4.585938 7.511719-12.867188 11.960938-21.660156 11.640625l-196.351563-7.253906c-.058594 0-.109375.027343-.171875.027343-.058594 0-.085938-.03125-.140625-.03125-9.425781 0-17.066406-7.640624-17.066406-17.066406 0-9.425781 7.640625-17.066406 17.066406-17.066406.054687 0 .097656-.03125.148437-.03125.050782 0 .109376.03125.171876.027344l196.03125-7.25zm-250.804688-58.039063-13.964843-16.285156c-1.34375-2.304687-1.351563-5.152344-.019531-7.464844 1.757812-3.078125 5.074218-4.9375 8.617187-4.824219h22.957031c2.972656 0 5.734375-1.546874 7.285156-4.085937 1.550782-2.539063 1.667969-5.703125.308594-8.347656l-14.375-27.957031c-.230468-.40625-.273437-.890626-.117187-1.328126.332031-.808593.972656-1.449218 1.785156-1.78125 14.769531-8.375 27.894531-19.363281 38.734375-32.433593.433594-.722657 1.21875-1.164063 2.0625-1.160157.84375.003907 1.625.449219 2.054688 1.175782 10.84375 13.078125 23.976562 24.066406 38.757812 32.4375.792969.332031 1.417969.96875 1.742188 1.761718.160156.460938.105468.96875-.152344 1.378907l-14.34375 27.90625c-1.359375 2.644531-1.242188 5.808593.308594 8.347656 1.550781 2.539063 4.3125 4.085937 7.289062 4.085937h22.953125c3.546875-.113281 6.863281 1.746094 8.617187 4.828126 1.332032 2.3125 1.328126 5.15625-.015624 7.460937l-13.964844 16.285156c-1.328125 1.546875-2.058594 3.519531-2.0625 5.558594v40.78125l-51.515625 1.890625c-.070313 0-.128907.042969-.199219.046875-18.632812.265625-33.601562 15.445313-33.601562 34.082031 0 18.636719 14.96875 33.816406 33.601562 34.082032.070312 0 .128906.042968.199219.046874l51.515625 1.902344v143.167969c.003906 2.039063.734375 4.011719 2.058594 5.558594l13.96875 16.285156c1.339843 2.304687 1.347656 5.152344.015624 7.464844-1.757812 3.078125-5.074218 4.9375-8.617187 4.824219h-22.953125c-2.976562 0-5.738281 1.546874-7.289062 4.085937-1.550782 2.539063-1.667969 5.703125-.308594 8.347656l14.375 27.957031c.234375.40625.277344.890626.117187 1.328126-.332031.808593-.972656 1.449218-1.78125 1.78125-14.773437 8.375-27.898437 19.363281-38.734375 32.433593-.4375.722657-1.21875 1.164063-2.066406 1.160157-.84375-.003907-1.621094-.449219-2.050781-1.175782-10.84375-13.074218-23.976563-24.066406-38.757813-32.4375-.792968-.332031-1.421875-.964844-1.742187-1.761718-.160157-.460938-.105469-.964844.148437-1.378907l14.34375-27.90625c1.359375-2.644531 1.242188-5.808593-.308594-8.347656-1.550781-2.539063-4.3125-4.085937-7.285156-4.085937h-22.957031c-3.542969.113281-6.859375-1.746094-8.617187-4.828126-1.332032-2.3125-1.324219-5.15625.015624-7.460937l13.96875-16.285156c1.328126-1.546875 2.054688-3.519531 2.058594-5.558594v-256c-.003906-2.039063-.730468-4.011719-2.058594-5.558594zm0 0"/><path d="m94.175781 451.96875c0 4.714844-3.820312 8.535156-8.535156 8.535156-4.710937 0-8.53125-3.820312-8.53125-8.535156 0-4.710938 3.820313-8.53125 8.53125-8.53125 4.714844 0 8.535156 3.820312 8.535156 8.53125zm0 0"/><path d="m94.175781 59.4375c0 4.710938-3.820312 8.53125-8.535156 8.53125-4.710937 0-8.53125-3.820312-8.53125-8.53125 0-4.714844 3.820313-8.535156 8.53125-8.535156 4.714844 0 8.535156 3.820312 8.535156 8.535156zm0 0"/><path d="m60.074219 341.035156c0 14.140625 11.460937 25.601563 25.597656 25.601563 14.140625 0 25.601563-11.460938 25.601563-25.601563l.066406-11.632812c8.082031-9.207032 10.609375-22.042969 6.621094-33.628906-3.988282-11.585938-13.882813-20.144532-25.921876-22.425782-9.992187-1.894531-20.308593.761719-28.144531 7.25-7.832031 6.492188-12.359375 16.132813-12.355469 26.304688-.105468 8.199218 2.949219 16.125 8.535157 22.128906zm14.65625-47.253906c3.0625-2.566406 6.929687-3.964844 10.925781-3.945312 1.117188.003906 2.234375.105468 3.332031.304687 6.878907 1.382813 12.222657 6.8125 13.492188 13.710937l.007812.015626c.914063 5.074218-.515625 10.285156-3.890625 14.1875-2.785156 2.992187-4.351562 6.917968-4.390625 11.007812v11.972656c0 4.714844-3.820312 8.535156-8.535156 8.535156-4.710937 0-8.53125-3.820312-8.53125-8.535156v-12.003906c-.046875-4.066406-1.601563-7.972656-4.367187-10.957031-2.710938-3.085938-4.195313-7.0625-4.167969-11.171875-.007813-5.066406 2.234375-9.875 6.125-13.121094zm0 0"/></svg>