<svg height="512pt" viewBox="-56 0 512 512.02702" width="512pt" xmlns="http://www.w3.org/2000/svg"><path d="m68.304688 93.878906c14.136718 0 25.601562-11.460937 25.601562-25.597656 0-14.140625-11.464844-25.601562-25.601562-25.601562-14.136719 0-25.601563 11.460937-25.601563 25.601562.015625 14.132812 11.46875 25.582031 25.601563 25.597656zm0-34.132812c4.714843 0 8.535156 3.820312 8.535156 8.535156 0 4.710938-3.820313 8.53125-8.535156 8.53125-4.710938 0-8.535157-3.820312-8.535157-8.53125.007813-4.710938 3.824219-8.53125 8.535157-8.535156zm0 0"/><path d="m196.304688 93.878906c14.136718 0 25.601562-11.460937 25.601562-25.597656 0-14.140625-11.464844-25.601562-25.601562-25.601562-14.136719 0-25.601563 11.460937-25.601563 25.601562.015625 14.132812 11.46875 25.582031 25.601563 25.597656zm0-34.132812c4.714843 0 8.535156 3.820312 8.535156 8.535156 0 4.710938-3.820313 8.53125-8.535156 8.53125-4.710938 0-8.535157-3.820312-8.535157-8.53125.007813-4.710938 3.824219-8.53125 8.535157-8.535156zm0 0"/><path d="m68.304688 418.148438c-14.136719 0-25.601563 11.460937-25.601563 25.597656 0 14.140625 11.464844 25.601562 25.601563 25.601562 14.136718 0 25.601562-11.460937 25.601562-25.601562-.015625-14.132813-11.46875-25.582032-25.601562-25.597656zm0 34.132812c-4.710938 0-8.535157-3.820312-8.535157-8.535156 0-4.710938 3.824219-8.53125 8.535157-8.53125 4.714843 0 8.535156 3.820312 8.535156 8.53125-.007813 4.710937-3.824219 8.53125-8.535156 8.535156zm0 0"/><path d="m196.304688 418.148438c-14.136719 0-25.601563 11.460937-25.601563 25.597656 0 14.140625 11.464844 25.601562 25.601563 25.601562 14.136718 0 25.601562-11.460937 25.601562-25.601562-.015625-14.132813-11.46875-25.582032-25.601562-25.597656zm0 34.132812c-4.710938 0-8.535157-3.820312-8.535157-8.535156 0-4.710938 3.824219-8.53125 8.535157-8.53125 4.714843 0 8.535156 3.820312 8.535156 8.53125-.007813 4.710937-3.824219 8.53125-8.535156 8.535156zm0 0"/><path d="m351.296875 229.1875c-9.683594 3.378906-17.34375 10.917969-20.875 20.546875-3.035156 8.714844-2.773437 18.238281.734375 26.773437-17.136719.652344-34.039062-4.085937-48.34375-13.539062-11.519531-7.363281-22.492188-15.542969-32.839844-24.476562l-.15625-.121094c.671875-64.285156 5.484375-128.460938 14.40625-192.128906 1.484375-8.984376-1.539062-18.125-8.09375-24.449219-9.132812-8.183594-21.617187-11.523438-33.617187-8.996094-1.859375.328125-3.75.476563-5.640625.441406-5.753906.207031-11.394532-1.628906-15.925782-5.183593-7.417968-5.445313-16.433593-8.277344-25.632812-8.0429692-9.363281-.1445308-18.539062 2.6210932-26.265625 7.9140622-4.875 3.570313-10.789063 5.4375-16.828125 5.3125-6.023438.128907-11.917969-1.734375-16.773438-5.304687-7.707031-5.304688-16.878906-8.074219-26.234374-7.9218752-9.203126-.2343748-18.222657 2.5976562-25.640626 8.0468752-4.53125 3.550781-10.167968 5.386718-15.917968 5.179687-1.878906.023438-3.753906-.105469-5.613282-.382812-11.964843-2.523438-24.414062.792969-33.539062 8.929687-6.558594 6.296875-9.59375 15.417969-8.121094 24.386719 19.574219 139.1875 19.578125 280.425781.007813 419.613281-1.492188 8.992188 1.542969 18.140625 8.117187 24.457032 9.074219 8.128906 21.476563 11.453124 33.402344 8.949218 1.902344-.285156 3.824219-.421875 5.746094-.40625 5.75-.203125 11.390625 1.632813 15.917968 5.179688 7.417969 5.453125 16.4375 8.28125 25.640626 8.046875 9.355468.152343 18.527343-2.613281 26.234374-7.917969 10.082032-7.078125 23.519532-7.074219 33.597657.007812 7.726562 5.292969 16.90625 8.058594 26.269531 7.910157 9.199219.234375 18.214844-2.59375 25.632812-8.039063 4.53125-3.554687 10.171876-5.390625 15.925782-5.1875 1.949218-.03125 3.898437.128906 5.816406.476563 11.945312 2.460937 24.355469-.890625 33.441406-9.027344 6.539063-6.304687 9.566406-15.417969 8.097656-24.382813-7.382812-52.800781-11.925781-105.960937-13.613281-159.25 7.640625 4.136719 15.585938 7.6875 23.765625 10.617188 13.199219 4.511719 27.058594 6.796875 41.007813 6.761719 9.667969.007812 19.308593-1.078125 28.734375-3.242188 18.339844-3.046875 35.15625-12.078125 47.832031-25.683593 9.445313-11.335938 11.84375-26.96875 6.230469-40.613282-3.632813-10.585937-11.300782-19.304687-21.335938-24.261718-8.027344-3.796876-17.253906-4.152344-25.550781-.992188zm-107.109375 248.851562c-5.144531 4.234376-11.949219 5.871094-18.457031 4.4375-2.921875-.539062-5.890625-.789062-8.859375-.757812-9.074219-.214844-17.960938 2.589844-25.269532 7.96875-4.636718 3.625-10.40625 5.488281-16.289062 5.257812-6.238281.136719-12.351562-1.769531-17.40625-5.425781-15.535156-10.398437-35.8125-10.394531-51.34375.007813-5.035156 3.652344-11.128906 5.558594-17.351562 5.417968-5.882813.230469-11.660157-1.632812-16.296876-5.261718-7.308593-5.375-16.191406-8.175782-25.261718-7.960938-2.859375-.015625-5.71875.195313-8.546875.632813-6.5625 1.546875-13.472657-.054688-18.683594-4.328125-2.648437-2.519532-3.832031-6.210938-3.144531-9.796875 19.796875-140.808594 19.792968-283.695313 0-424.503907-.671875-3.566406.515625-7.230468 3.148437-9.726562 5.25-4.269531 12.179688-5.863281 18.765625-4.316406 2.800782.433594 5.628906.644531 8.460938.625 9.070312.210937 17.953125-2.589844 25.261718-7.964844 4.636719-3.628906 10.414063-5.492188 16.296876-5.261719 6.222656-.140625 12.316406 1.765625 17.351562 5.417969 7.535156 5.203125 16.5 7.929688 25.65625 7.808594 9.164062.117187 18.136719-2.605469 25.6875-7.796875 5.054688-3.65625 11.167969-5.566407 17.40625-5.429688 5.882812-.230469 11.652344 1.632813 16.292969 5.257813 7.304687 5.378906 16.191406 8.179687 25.265625 7.96875 2.910156.035156 5.816406-.203125 8.683594-.71875 6.554687-1.492188 13.433593.132812 18.632812 4.398437 2.644531 2.523438 3.832031 6.21875 3.148438 9.808594-8.371094 60.054687-13.128907 120.554687-14.253907 181.179687-17.148437-14.296874-37.691406-23.933593-59.648437-27.980468-16.1875-1.675782-32.542969.148437-47.964844 5.351562-11.707031 3.101563-22.601562 8.699219-31.941406 16.40625-10.519532 8.816406-16.289063 22.0625-15.578125 35.769532 1.300781 12.089843 8.109375 22.902343 18.449219 29.304687 9.792968 5.984375 21.394531 8.289063 32.730468 6.507813 8.324219-1.507813 16.425782-4.058594 24.109375-7.597657 6.457031-3.003906 13.261719-5.191406 20.257813-6.507812 12.628906-.90625 25.242187 1.914062 36.285156 8.109375 7.898438 3.753906 15.769531 8.238281 23.398438 12.601562 1.457031 57.339844 6.1875 114.554688 14.164062 171.355469.667969 3.570313-.519531 7.238281-3.15625 9.742187zm137.949219-217.789062c3.601562 7.988281 2.277343 17.335938-3.398438 24.011719-10.328125 10.609375-23.820312 17.574219-38.449219 19.851562-20 4.613281-40.886718 3.570313-60.324218-3.015625-13.109375-5.015625-25.71875-11.246094-37.667969-18.601562-8.109375-4.632813-16.484375-9.429688-25.183594-13.570313-11.839843-6.136719-24.882812-9.589843-38.207031-10.117187-2.585938-.003906-5.167969.167968-7.726562.519531-8.441407 1.476563-16.65625 4.046875-24.441407 7.636719-6.390625 2.964844-13.117187 5.140625-20.03125 6.476562-7.316406 1.167969-14.804687-.261718-21.175781-4.035156-5.835938-3.585938-9.730469-9.625-10.582031-16.417969-.167969-8.308593 3.492187-16.230469 9.925781-21.492187 7.488281-6.09375 16.21875-10.472656 25.582031-12.828125 13.09375-4.480469 27-6.097657 40.773438-4.746094 19.1875 3.785156 37.089843 12.394531 52.027343 25.015625 5.382813 4.125 10.632813 8.4375 15.890626 12.746094 10.972656 9.445312 22.609374 18.097656 34.816406 25.882812 19.394531 12.921875 42.875 18.222656 65.941406 14.890625 5.191406-.53125 9.488281-4.273437 10.726562-9.34375.566407-3.273437-.144531-6.640625-1.984374-9.410156-3.363282-5.433594-4.15625-12.074219-2.175782-18.152344 1.820313-4.898437 5.765625-8.707031 10.726563-10.351562 4.035156-1.574219 8.542969-1.410157 12.457031.457031 5.894531 3.0625 10.371094 8.296875 12.480469 14.59375zm0 0"/></svg>