<svg height="512pt" viewBox="-51 0 512 512.00011" width="512pt" xmlns="http://www.w3.org/2000/svg"><path d="m17.074219 290.132812c.09375 78.949219 49.488281 149.429688 123.664062 176.464844 9.554688 27.199219 35.242188 45.402344 64.070313 45.402344 28.832031 0 54.519531-18.203125 64.070312-45.402344 63.835938-23.144531 110.179688-78.96875 121.183594-145.96875s-15.054688-134.71875-68.132812-177.058594c.738281-1.152343 1.511718-2.234374 2.242187-3.421874.933594-1.550782 1.871094-3.191407 2.832031-4.871094 7.378906-12.855469 13.34375-22 22.925782-22.472656 1.882812-.136719 3.5625 1.421874 6.925781 4.621093 1.316406 1.253907 2.636719 2.5 3.992187 3.609375 10.957032 8.976563 29.171875 4.660156 38.648438-4.820312 6.875-6.488282 10.558594-15.667969 10.078125-25.109375-1.757813-14.238281-9.335938-27.113281-20.925781-35.566407-14.574219-11.53125-33.703126-15.582031-51.699219-10.949218-20.828125 5.71875-32.152344 23.359375-42.140625 38.921875l-2.554688 3.96875c-3.332031 5.210937-6.957031 10.417969-10.792968 15.589843-1.53125-54.386718-37.324219-103.070312-76.652344-103.070312-39.4375 0-75.332032 48.960938-76.671875 103.535156-3.816407-5.148437-7.4375-10.347656-10.792969-15.582031l-2.425781-3.78125c-10.011719-15.667969-21.359375-33.429687-42.230469-39.0625-18-4.710937-37.167969-.683594-51.75 10.878906-11.578125 8.488281-19.136719 21.378907-20.8984375 35.628907-.4570315 9.40625 3.2226565 18.542968 10.0664065 25.007812 9.492187 9.5 27.710937 13.804688 38.652343 4.847656 1.363282-1.109375 2.675782-2.351562 3.988282-3.601562 3.347656-3.175782 5.105468-4.6875 6.957031-4.558594 9.585937.433594 15.546875 9.558594 22.914063 22.398438.960937 1.675781 1.902343 3.308593 2.851562 4.902343.648438 1.066407 1.359375 2.066407 2.023438 3.117188-44.5 35.5625-70.414063 89.4375-70.417969 146.402343zm187.734375 204.800782c-16.695313-.023438-32.332032-8.175782-41.910156-21.84375 27.578124 6.363281 56.242187 6.363281 83.820312 0-9.578125 13.667968-25.214844 21.820312-41.910156 21.84375zm101.789062-398.207032 2.574219-3.996093c8.742187-13.617188 17.773437-27.695313 32.269531-31.671875 12.738282-3.25 26.261719-.359375 36.554688 7.8125 7.742187 5.46875 12.976562 13.804687 14.539062 23.152344.207032 4.597656-1.660156 9.042968-5.089844 12.109374-3.824218 3.824219-12.472656 6.410157-15.785156 3.691407-1.042968-.851563-2.035156-1.808594-3.039062-2.761719-4.820313-5.816406-11.957032-9.214844-19.511719-9.300781-19.667969.976562-29.628906 18.347656-36.90625 31.023437-.910156 1.589844-1.789063 3.132813-2.617187 4.511719-.464844.753906-.980469 1.460937-1.453126 2.207031-6.394531-4.230468-13.042968-8.066406-19.90625-11.484375 6.554688-8.109375 12.683594-16.554687 18.371094-25.292969zm-101.789062-79.660156c27.625 0 59.734375 39.136719 59.734375 89.601563 0 1.789062-.097657 3.632812-.179688 5.472656-38.644531-12.988281-80.476562-12.988281-119.125 0-.070312-1.800781-.167969-3.574219-.167969-5.476563.003907-50.460937 32.113282-89.597656 59.738282-89.597656zm-104.722656 114.742188c-.871094-1.46875-1.761719-3.007813-2.667969-4.59375-7.28125-12.6875-17.253907-30.058594-36.84375-30.949219-7.550781.128906-14.683594 3.492187-19.589844 9.238281-1 .949219-1.988281 1.898438-3.039063 2.753906-3.269531 2.691407-11.945312.125-15.789062-3.714843-3.40625-3.050781-5.269531-7.464844-5.078125-12.03125 1.570313-9.359375 6.800781-17.710938 14.535156-23.207031 10.292969-8.1875 23.84375-11.054688 36.570313-7.734376 14.550781 3.925782 23.601562 18.089844 32.351562 31.792969l2.457032 3.832031c5.621093 8.621094 11.667968 16.949219 18.125 24.960938-6.839844 3.417969-13.46875 7.253906-19.84375 11.480469-.382813-.617188-.808594-1.207031-1.1875-1.828125zm104.722656-12.34375c94.257812 0 170.667968 76.410156 170.667968 170.667968 0 94.257813-76.410156 170.667969-170.667968 170.667969-94.257813 0-170.667969-76.410156-170.667969-170.667969.109375-94.210937 76.457031-170.558593 170.667969-170.667968zm0 0"/><path d="m153.25 417.027344c.429688.203125.878906.367187 1.335938.492187 32.449218 12.222657 68.246093 12.195313 100.671874-.085937.6875-.15625 1.347657-.398438 1.96875-.722656 48.851563-18.835938 83.714844-62.589844 91.171876-114.414063 7.457031-51.820313-13.65625-103.628906-55.214844-135.476563-.058594-.074218-.070313-.171874-.132813-.242187-.871093-.988281-1.960937-1.757813-3.1875-2.242187-50.792969-37.183594-119.851562-37.0625-170.511719.300781-1.160156.492187-2.191406 1.234375-3.023437 2.179687-.035156.039063-.042969.097656-.078125.140625-41.605469 31.984375-62.628906 83.988281-54.949219 135.902344 7.679688 51.914063 42.863281 95.597656 91.949219 114.167969zm18.097656-12.015625c19.207032-16.636719 47.714844-16.636719 66.921875 0-21.886719 6.117187-45.035156 6.117187-66.921875 0zm100.300782-232.363281c-10.550782 7.253906-22.636719 11.976562-35.3125 13.800781-2.464844.335937-4.660157 1.734375-6.011719 3.828125-1.351563 2.089844-1.71875 4.667968-1.011719 7.054687.722656 2.425781 1.089844 4.9375 1.097656 7.46875 0 14.136719-11.460937 25.597657-25.601562 25.597657-14.136719 0-25.601563-11.460938-25.601563-25.597657-.019531-2.335937.304688-4.664062.972657-6.90625.757812-2.398437.417968-5.011719-.929688-7.136719s-3.5625-3.546874-6.058594-3.882812c-12.789062-1.835938-24.972656-6.632812-35.582031-14.007812 40.988281-25.609376 92.96875-25.695313 134.042969-.222657zm-148.652344 10.621093c11.574218 9.039063 24.949218 15.496094 39.222656 18.933594-.050781.855469-.078125 1.722656-.078125 2.597656 0 23.5625 19.105469 42.664063 42.667969 42.664063s42.667968-19.101563 42.667968-42.664063c0-1.015625-.039062-2.03125-.109374-3.042969 14.167968-3.425781 27.449218-9.816406 38.96875-18.75 34.28125 28.289063 51.40625 72.351563 45.234374 116.367188-6.175781 44.015625-34.761718 81.664062-75.5 99.433594-12.90625-14.828125-31.601562-23.34375-51.261718-23.34375s-38.355469 8.515625-51.261719 23.34375c-40.675781-17.738282-69.242187-55.300782-75.472656-99.238282-6.226563-43.9375 10.777343-87.960937 44.925781-116.304687zm0 0"/><path d="m179.207031 85.332031c4.714844 0 8.535157-3.820312 8.535157-8.53125.699218-11.902343 8.527343-22.199219 19.8125-26.054687 4.464843-1.503906 6.867187-6.34375 5.363281-10.808594-1.503907-4.46875-6.34375-6.871094-10.808594-5.367188-1.285156.429688-31.433594 10.84375-31.433594 42.230469 0 4.710938 3.820313 8.53125 8.53125 8.53125zm0 0"/></svg>