<svg height="511pt" viewBox="-102 0 511 511.98411" width="511pt" xmlns="http://www.w3.org/2000/svg"><path d="m295.621094 185.148438c-3.398438-10.898438-7.867188-21.429688-13.347656-31.441407-2.136719-3.929687-5.070313-7.371093-8.609376-10.105469v-58.277343c-.015624-14.132813-11.46875-25.582031-25.601562-25.597657l-26.082031.132813c-4.234375-34.164063-33.246094-59.8242188-67.667969-59.859375s-63.484375 25.570312-67.785156 59.726562h-26.199219c-14.128906.015626-25.582031 11.464844-25.597656 25.597657v58.265625c-3.527344 2.714844-6.445313 6.136718-8.570313 10.042968-5.496094 10.035157-9.980468 20.589844-13.386718 31.507813-8.746094 29.78125-12.851563 60.730469-12.175782 91.757813-1.386718 32.265624 11.027344 63.597656 34.132813 86.164062v63.597656c.015625 14.128906 11.46875 25.582032 25.597656 25.597656l26.085937-.132812c4.234376 34.164062 33.242188 59.824219 67.667969 59.859375 34.421875.035156 63.484375-25.570313 67.785157-59.726563h26.195312c14.132812-.015624 25.585938-11.46875 25.601562-25.597656v-63.597656c23.105469-22.5625 35.515626-53.894531 34.132813-86.164062.675781-31.027344-3.429687-61.972657-12.175781-91.75zm-243.824219-99.824219c.003906-4.710938 3.824219-8.527344 8.53125-8.53125h26.199219c8.546875-.003907 15.757812-6.367188 16.828125-14.847657 3.203125-25.644531 25-44.886718 50.839843-44.886718 25.84375 0 47.640626 19.242187 50.84375 44.886718 1.066407 8.480469 8.277344 14.84375 16.828126 14.847657h26.195312c4.710938.003906 8.527344 3.820312 8.535156 8.53125v51.457031c-1.304687-.160156-2.613281-.242188-3.925781-.257812h-23.246094c-3.59375-10.195313-13.214843-17.03125-24.027343-17.066407h-15.324219c-22.710938-10.75-49.042969-10.75-71.753907 0h-15.324218c-10.8125.035157-20.433594 6.871094-24.027344 17.066407h-23.246094c-1.3125.015624-2.625.097656-3.925781.257812zm27.171875 110.933593c3.59375 10.199219 13.214844 17.035157 24.027344 17.066407h15.324218c22.679688 10.882812 49.074219 10.882812 71.753907 0h15.324219c10.835937-.03125 20.472656-6.898438 24.046874-17.132813l12.851563-.121094c9.140625 25.929688 13.269531 53.359376 12.167969 80.828126 0 29.394531-17.398438 64.425781-100.269532 64.425781-82.871093 0-100.265624-35.03125-100.265624-64.425781-1.109376-27.40625 3-54.769532 12.117187-80.640626zm32.5625 0h-8.535156c-4.710938-.003906-8.527344-3.820312-8.53125-8.53125v-42.667968c.003906-4.710938 3.820312-8.527344 8.53125-8.535156h8.535156zm68.265625 3.078126c-16.390625 6.792968-34.808594 6.792968-51.199219 0v-65.890626c16.390625-6.789062 34.808594-6.789062 51.199219 0zm34.132813-11.609376c-.007813 4.710938-3.824219 8.527344-8.53125 8.53125h-8.535157v-59.734374h8.535157c4.707031.007812 8.523437 3.824218 8.53125 8.535156zm42.667968 238.933594c-.007812 4.707032-3.824218 8.527344-8.535156 8.53125h-26.195312c-8.550782.003906-15.761719 6.367188-16.832032 14.847656-3.203125 25.640626-25 44.878907-50.839844 44.878907-25.839843 0-47.632812-19.238281-50.839843-44.878907-1.070313-8.480468-8.28125-14.84375-16.828125-14.847656h-26.199219c-4.707031-.003906-8.527344-3.824218-8.53125-8.53125v-50.269531c25.515625 16.113281 60.015625 24.667969 102.398437 24.667969 42.382813 0 76.886719-8.554688 102.402344-24.667969zm3.574219-74.34375c-.554687.394532-1.0625.851563-1.507813 1.367188-20.289062 17.621094-52.820312 30.308594-104.46875 30.308594-51.644531 0-84.175781-12.6875-104.46875-30.3125-.441406-.515626-.949218-.972657-1.503906-1.363282-20.472656-19.636718-31.589844-47.070312-30.558594-75.417968-.605468-29.273438 3.230469-58.46875 11.375-86.597657 3.074219-9.863281 7.125-19.398437 12.089844-28.457031 2.984375-5.21875 8.585938-8.382812 14.59375-8.25h21.675782v25.597656h-11.351563c-6.886719-.070312-13.125 4.058594-15.75 10.429688-10.003906 27.96875-14.5625 57.59375-13.433594 87.277344 0 51.789062 42.765625 81.492187 117.332031 81.492187 74.566407 0 117.335938-29.703125 117.335938-81.492187 1.128906-29.675782-3.429688-59.292969-13.425781-87.257813-2.621094-6.378906-8.863281-10.519531-15.757813-10.449219h-11.351562v-25.597656h21.675781c6.039063-.128906 11.660156 3.066406 14.636719 8.324219 4.945312 9.039062 8.980468 18.550781 12.046875 28.390625 8.140625 28.125 11.976562 57.316406 11.375 86.589844 1.027343 28.347656-10.089844 55.785156-30.558594 75.417968zm0 0"/><path d="m154.195312 85.324219c14.140626 0 25.601563-11.460938 25.601563-25.597657 0-14.140624-11.460937-25.601562-25.601563-25.601562-14.136718 0-25.597656 11.460938-25.597656 25.601562.015625 14.132813 11.46875 25.582032 25.597656 25.597657zm0-34.132813c4.714844 0 8.535157 3.820313 8.535157 8.535156 0 4.710938-3.820313 8.53125-8.535157 8.53125-4.710937 0-8.53125-3.820312-8.53125-8.53125.003907-4.710937 3.820313-8.527343 8.53125-8.535156zm0 0"/><path d="m128.597656 452.257812c0 14.140626 11.460938 25.601563 25.597656 25.601563 14.140626 0 25.601563-11.460937 25.601563-25.601563 0-14.136718-11.460937-25.597656-25.601563-25.597656-14.128906.015625-25.582031 11.464844-25.597656 25.597656zm34.132813 0c0 4.714844-3.820313 8.535157-8.535157 8.535157-4.710937 0-8.53125-3.820313-8.53125-8.535157 0-4.710937 3.820313-8.53125 8.53125-8.53125 4.710938.003907 8.527344 3.820313 8.535157 8.53125zm0 0"/></svg>