<svg height="511pt" viewBox="-68 1 511 511.99993" width="511pt" xmlns="http://www.w3.org/2000/svg"><path d="m188.261719 435.199219c-6.847657-.199219-13.476563 2.433593-18.324219 7.277343-4.84375 4.84375-7.476562 11.472657-7.273438 18.324219 0 4.710938 3.820313 8.53125 8.53125 8.53125 4.714844 0 8.535157-3.820312 8.535157-8.53125-.222657-2.339843.617187-4.65625 2.285156-6.308593 1.671875-1.65625 3.996094-2.472657 6.332031-2.226563 4.714844-.023437 8.515625-3.863281 8.492188-8.574219-.023438-4.714844-3.863282-8.515625-8.578125-8.492187zm0 0"/><path d="m119.996094 144.5625c-52.953125 26.273438-88.644532 78.746094-104.554688 120.054688-8.414062 21.597656-13.324218 44.398437-14.542968 67.542968-.34375 4.503906-.460938 9.203125-.367188 14.371094-.121094 28.492188 7.34375 56.5 21.632812 81.152344 17.144532 27.402344 43.757813 47.558594 74.78125 56.636718 16.953126 4.921876 34.378907 8.007813 51.988282 9.210938 9.710937 11.699219 24.125 18.46875 39.328125 18.46875 15.207031 0 29.621093-6.769531 39.328125-18.46875 17.617187-1.203125 35.054687-4.292969 52.015625-9.214844 31.015625-9.082031 57.621093-29.238281 74.761719-56.636718 14.285156-24.652344 21.75-52.664063 21.628906-81.15625.089844-5.160157-.023438-9.859376-.355469-14.148438-1.203125-23.214844-6.117187-46.089844-14.550781-67.753906-15.914063-41.3125-51.605469-93.785156-104.558594-120.058594v-33.628906c0-.113282-.0625-.207032-.066406-.320313-.023438-1-.222656-1.988281-.589844-2.921875-.054688-.132812-.152344-.242187-.214844-.371094-.246094-.570312-.554687-1.113281-.921875-1.617187-8.511719-11.007813-9.238281-26.160156-1.824219-37.933594 17.703126-2.542969 30.425782-18.339843 29.132813-36.179687-1.296875-17.835938-16.167969-31.6328128-34.050781-31.589844h-119.464844c-17.886719-.0429688-32.753906 13.753906-34.050781 31.589844-1.292969 17.839844 11.425781 33.636718 29.128906 36.179687 7.417969 11.773438 6.691406 26.925781-1.820313 37.933594-.367187.503906-.675781 1.046875-.925781 1.617187-.0625.128907-.15625.238282-.210937.371094-.367188.933594-.570313 1.921875-.589844 2.921875 0 .113281-.066406.207031-.066406.320313zm22.855468-76.296875h90.824219c-3.972656 11.03125-3.972656 23.105469 0 34.132813h-90.824219c3.972657-11.027344 3.972657-23.101563 0-34.132813zm72.421876 349.121094c-16.511719-10.382813-37.507813-10.382813-54.019532 0-14.980468-.464844-29.847656-2.703125-44.296875-6.667969-16.011719-4.300781-29.878906-14.351562-38.949219-28.230469-8.910156-15.472656-13.480468-33.066406-13.226562-50.921875-.074219-3.195312.003906-6.390625.164062-9.488281.925782-16.824219 4.613282-33.382813 10.921876-49.007813 9.804687-24.332031 24.875-46.1875 44.128906-64.003906v48.507813c-11.75 4.132812-18.804688 16.140625-16.695313 28.417969 2.113281 12.277343 12.773438 21.238281 25.230469 21.207031h119.464844c12.457031.03125 23.117187-8.929688 25.230468-21.207031 2.109376-12.277344-4.945312-24.285157-16.695312-28.417969v-48.507813c19.257812 17.816406 34.328125 39.679688 44.132812 64.015625 6.296876 15.519531 9.957032 31.976563 10.835938 48.699219.238281 3.46875.316406 6.621094.238281 9.742188.269531 17.875-4.328125 35.484374-13.304687 50.945312-9.042969 13.914062-22.898438 24-38.917969 28.324219-14.441406 3.910156-29.289063 6.121093-44.242187 6.59375zm41.257812-135.785157c-.007812 4.707032-3.824219 8.527344-8.535156 8.53125h-119.464844c-4.714844 0-8.535156-3.820312-8.535156-8.53125 0-4.714843 3.820312-8.535156 8.535156-8.535156h119.464844c4.710937.007813 8.527344 3.824219 8.535156 8.535156zm-17.066406-162.136718v136.535156h-102.402344v-136.535156zm-137.527344 348.539062c-27.015625-7.855468-50.207031-25.351562-65.179688-49.171875-12.714843-22.078125-19.328124-47.144531-19.160156-72.625-.085937-4.621093.015625-8.800781.328125-12.980469 1.121094-21.40625 5.65625-42.492187 13.4375-62.464843 13.964844-36.265625 44.214844-81.75 88.632813-106.914063v23.089844c-26.804688 20.71875-47.527344 48.285156-59.972656 79.796875-7.003907 17.359375-11.097657 35.757813-12.117188 54.449219-.183594 3.542968-.273438 7.167968-.183594 10.757812-.207031 20.929688 5.257813 41.523438 15.820313 59.59375 11.257812 17.425782 28.554687 30.085938 48.570312 35.546875 10.808594 3.066407 21.875 5.132813 33.0625 6.175781-8.078125 12.527344-10.25 27.964844-5.9375 42.234376-12.632812-1.382813-25.113281-3.886719-37.300781-7.488282zm86.324219 26.929688c-18.851563 0-34.132813-15.28125-34.132813-34.132813 0-18.851562 15.28125-34.132812 34.132813-34.132812 18.851562 0 34.136719 15.28125 34.136719 34.132812-.023438 18.84375-15.292969 34.113281-34.136719 34.132813zm156.90625-224.167969c7.796875 20.042969 12.335937 41.199219 13.445312 62.675781.300781 3.964844.40625 8.144532.316407 12.761719.167968 25.476563-6.445313 50.539063-19.15625 72.621094-14.96875 23.816406-38.152344 41.3125-65.160157 49.167969-12.191406 3.605468-24.683593 6.113281-37.324219 7.496093 4.3125-14.265625 2.144532-29.703125-5.929687-42.226562 11.15625-1.039063 22.199219-3.082031 32.992187-6.101563 20.027344-5.484375 37.320313-18.179687 48.554688-35.644531 10.628906-18.054687 16.125-38.664063 15.902344-59.613281.089844-3.582032 0-7.25-.269532-11.128906-.980468-18.550782-5.046874-36.8125-12.03125-54.027344-12.445312-31.515625-33.167968-59.085938-59.976562-79.808594v-23.089844c44.417969 25.164063 74.664062 70.648438 88.636719 106.917969zm-233.703125-236.632813c.007812-9.421874 7.644531-17.058593 17.066406-17.066406h119.464844c9.425781 0 17.066406 7.640625 17.066406 17.066406 0 9.425782-7.640625 17.066407-17.066406 17.066407h-119.464844c-9.421875-.007813-17.058594-7.644531-17.066406-17.066407zm0 0"/><path d="m162.664062 153.601562c3.449219-.015624 6.554688-2.097656 7.878907-5.285156 1.320312-3.183594.605469-6.855468-1.820313-9.308594-.816406-.769531-1.773437-1.378906-2.816406-1.792968-3.183594-1.285156-6.824219-.582032-9.300781 1.792968-2.460938 2.441407-3.203125 6.128907-1.871094 9.332032 1.328125 3.199218 4.460937 5.28125 7.929687 5.261718zm0 0"/><path d="m162.664062 238.933594c4.710938 0 8.53125-3.820313 8.53125-8.535156v-51.199219c0-4.710938-3.820312-8.53125-8.53125-8.53125-4.714843 0-8.535156 3.820312-8.535156 8.53125v51.199219c0 4.714843 3.820313 8.535156 8.535156 8.535156zm0 0"/></svg>