<svg height="511pt" viewBox="-68 0 511 511.95531" width="511pt" xmlns="http://www.w3.org/2000/svg"><path d="m15.421875 264.574219c-8.417969 21.59375-13.328125 44.394531-14.546875 67.542969-.34375 4.503906-.457031 9.203124-.367188 14.371093-.121093 28.488281 7.347657 56.5 21.632813 81.148438 17.148437 27.40625 43.757813 47.558593 74.785156 56.640625 16.949219 4.917968 34.378907 8.007812 51.988281 9.210937 9.707032 11.699219 24.125 18.46875 39.328126 18.46875 15.203124 0 29.617187-6.769531 39.328124-18.46875 17.617188-1.203125 35.054688-4.292969 52.011719-9.214843 31.019531-9.085938 57.621094-29.238282 74.761719-56.640626 14.285156-24.648437 21.753906-52.660156 21.628906-81.152343.09375-5.164063-.023437-9.863281-.351562-14.148438-1.207032-23.21875-6.121094-46.09375-14.554688-67.757812-13.113281-33.601563-33.546875-63.867188-59.816406-88.589844 15.398438-10.519531 28.550781-24 38.691406-39.652344 2.828125-4.496093 2.410156-10.3125-1.039062-14.359375-3.445313-4.042968-9.121094-5.382812-14.011719-3.304687-25.230469 10.898437-32.183594 7.960937-41.808594 3.894531-3.324219-1.46875-6.730469-2.746094-10.203125-3.820312 18.675782-30.871094 13.707032-68.890626 10.46875-84.644532-1.179687-5.195312-5.609375-9.019531-10.921875-9.429687-5.316406-.410157-10.277343 2.6875-12.246093 7.640625-10.089844 25.480468-17.101563 28.335937-26.8125 32.289062-3.378907 1.316406-6.675782 2.824219-9.882813 4.511719-8.652344-35.308594-39.042969-58.5-52.464844-67.253906-4.515625-2.828125-10.347656-2.390625-14.394531 1.078125s-5.371094 9.167968-3.269531 14.0625c10.894531 25.167968 7.960937 32.105468 3.898437 41.710937-1.480468 3.34375-2.761718 6.773438-3.839844 10.265625-31.023437-18.851562-68.941406-13.75-84.433593-10.484375-5.246094 1.085938-9.152344 5.488281-9.609375 10.824219-.457032 5.335938 2.644531 10.339844 7.628906 12.300781 25.484375 10.089844 28.335938 17.101563 32.292969 26.8125 1.308593 3.378907 2.8125 6.679688 4.503906 9.886719-35.308594 8.65625-58.503906 39.046875-67.253906 52.464844-2.351563 3.746094-2.484375 8.476562-.34375 12.347656 2.140625 3.875 6.21875 6.277344 10.640625 6.28125 1.664062-.007812 3.3125-.335938 4.851562-.972656 5.460938-2.445313 11.109375-4.453125 16.890625-5.996094-23.089843 23.503906-41.175781 51.445312-53.160156 82.136719zm86.492187 203.386719c-27.011718-7.855469-50.207031-25.351563-65.175781-49.171876-12.71875-22.082031-19.332031-47.144531-19.164062-72.625-.085938-4.621093.015625-8.800781.328125-12.984374 1.121094-21.402344 5.65625-42.492188 13.4375-62.464844 16.347656-43.046875 46.023437-79.746094 84.695312-104.746094 11.851563-7.21875 24.671875-12.71875 38.074219-16.324219v18.558594c-12.945313 4.621094-25.054687 11.3125-35.851563 19.816406-8.015624 6.277344-15.453124 13.265625-22.21875 20.875-.117187.109375-.28125.15625-.394531.269531-.335937.363282-.636719.753907-.90625 1.171876-14.699219 16.671874-26.445312 35.730468-34.738281 56.351562-7.003906 17.363281-11.097656 35.757812-12.117188 54.453125-.183593 3.539063-.273437 7.167969-.183593 10.757813-.207031 20.925781 5.261719 41.519531 15.820312 59.589843 11.257813 17.429688 28.554688 30.085938 48.570313 35.550781 10.808594 3.0625 21.875 5.132813 33.0625 6.175782-8.078125 12.523437-10.246094 27.964844-5.933594 42.230468-12.632812-1.378906-25.117188-3.882812-37.304688-7.484374zm86.328126-382.671876c33.964843.058594 62.726562 25.0625 67.511718 58.6875-10.785156-5.261718-22.132812-9.273437-33.832031-11.953124-2.15625-16.960938-16.585937-29.671876-33.679687-29.671876-17.097657 0-31.527344 12.710938-33.683594 29.671876-11.695313 2.691406-23.046875 6.707031-33.835938 11.972656 4.78125-33.636719 33.546875-58.648438 67.519532-58.707032zm27.011718 332.050782c-16.511718-10.378906-37.511718-10.378906-54.023437 0-14.976563-.464844-29.847657-2.703125-44.296875-6.667969-16.011719-4.296875-29.878906-14.347656-38.945313-28.226563-8.914062-15.472656-13.484375-33.066406-13.226562-50.921874-.078125-3.195313.003906-6.390626.160156-9.492188.925781-16.828125 4.621094-33.390625 10.933594-49.019531 3.894531-9.699219 8.644531-19.03125 14.195312-27.886719.207031 9.304688 1.253907 18.574219 3.128907 27.691406 1.085937 5.246094 5.488281 9.152344 10.824218 9.609375 5.335938.457031 10.335938-2.644531 12.300782-7.628906 10.089843-25.5 17.109374-28.339844 26.824218-32.269531 3.378906-1.304688 6.675782-2.804688 9.878906-4.492188 8.667969 35.289063 39.042969 58.46875 52.453126 67.214844 4.5 2.832031 10.316406 2.410156 14.359374-1.035156 4.046876-3.445313 5.386719-9.121094 3.304688-14.011719-10.902344-25.253906-7.949219-32.207031-3.859375-41.824219 1.480469-3.324218 2.765625-6.726562 3.851563-10.199218 20.417968 11.21875 43.835937 15.769531 66.96875 13.011718 4.023437 7.027344 7.550781 14.328125 10.558593 21.847656 6.292969 15.515626 9.957031 31.976563 10.835938 48.699219.238281 3.464844.316406 6.621094.238281 9.742188.269531 17.871093-4.328125 35.484375-13.304688 50.941406-9.042968 13.914063-22.902343 24-38.917968 28.328125-14.441406 3.910156-29.289063 6.121094-44.242188 6.589844zm-93.3125-210.179688c5.515625 6.835938 12.066406 12.769532 19.414063 17.585938-1.539063.679687-3.0625 1.328125-4.621094 1.960937-12.964844 4.363281-23.542969 13.894531-29.234375 26.328125-1.042969-11.222656-.382812-22.539062 1.957031-33.566406 3.929688-4.328125 8.097657-8.4375 12.484375-12.308594zm79.582032 73.945313c-14.445313-11.429688-25.277344-26.792969-31.183594-44.238281 11.554687 2.652343 23.558594 2.695312 35.132812.128906-.609375 1.585937-1.246094 3.136718-1.910156 4.707031-6.109375 12.285156-6.84375 26.550781-2.039062 39.402344zm33.132812-56.0625c7.535156-4.867188 14.246094-10.90625 19.882812-17.882813 9.3125 8.222656 17.675782 17.464844 24.925782 27.550782-15.515625.65625-30.941406-2.671876-44.808594-9.667969zm-46.414062-3.222657c-20.5.058594-39.921876-9.167968-52.824219-25.09375 6.871093-4.71875 14.261719-8.621093 22.03125-11.632812 5.5625 11.992188 17.582031 19.664062 30.800781 19.660156 13.21875 0 25.234375-7.675781 30.796875-19.667968 7.761719 3.015624 15.152344 6.925781 22.015625 11.648437-12.90625 15.921875-32.324219 25.148437-52.820312 25.085937zm17.066406-51.199218c0 9.425781-7.640625 17.066406-17.066406 17.066406-9.425782 0-17.066407-7.640625-17.066407-17.066406v-34.132813c0-9.425781 7.640625-17.066406 17.066407-17.066406 9.425781 0 17.066406 7.640625 17.066406 17.066406zm-17.066406 324.269531c-18.851563 0-34.132813-15.285156-34.132813-34.136719 0-18.851562 15.28125-34.132812 34.132813-34.132812 18.851562 0 34.132812 15.28125 34.132812 34.132812-.023438 18.84375-15.292969 34.113282-34.132812 34.136719zm156.902343-224.167969c7.800781 20.039063 12.339844 41.199219 13.445313 62.675782.300781 3.964843.40625 8.144531.316406 12.761718.167969 25.476563-6.445312 50.539063-19.15625 72.617188-14.964844 23.816406-38.152344 41.3125-65.160156 49.171875-12.191406 3.605469-24.683594 6.113281-37.320313 7.496093 4.308594-14.265624 2.140625-29.703124-5.933593-42.230468 11.160156-1.035156 22.199218-3.078125 32.992187-6.097656 20.027344-5.488282 37.320313-18.183594 48.554687-35.648438 10.628907-18.050781 16.128907-38.660156 15.902344-59.609375.09375-3.582031 0-7.253906-.265625-11.128906-.980469-18.546875-5.042969-36.804688-12.023437-54.015625-3.984375-9.902344-8.789063-19.457032-14.363282-28.5625-.117187-.222656-.242187-.425782-.378906-.632813-11.414062-18.96875-26.152344-35.730469-43.503906-49.480469-10.804688-8.511718-22.921875-15.210937-35.875-19.835937v-18.5625c13.40625 3.585937 26.230469 9.085937 38.070312 16.332031 38.675782 24.996094 68.351563 61.699219 84.699219 104.75zm-68.707031-132.441406c12.277344 6.0625 26.515625 6.785156 39.34375 1.992188-7.976562 9.535156-17.527344 17.640624-28.238281 23.957031-4.574219-3.582031-9.238281-6.910157-13.996094-9.980469 0-.234375.023437-.46875.023437-.703125.003907-5.75-.574218-11.488281-1.726562-17.121094 1.550781.59375 3.0625 1.210938 4.59375 1.855469zm-7.4375-84.234375c2.058594 18.242187-1.128906 36.695313-9.191406 53.183594-6.414063-9.882813-14.789063-18.34375-24.609375-24.855469 1.527343-.683594 3.050781-1.332031 4.605469-1.964844 12.941406-4.394531 23.503906-13.929687 29.195312-26.359375zm-94.0625-28.066406c14.449219 11.398437 25.292969 26.738281 31.207031 44.164062-11.535156-2.5-23.460937-2.566406-35.023437-.195312.589844-1.550781 1.207031-3.066407 1.851562-4.597657 6.078125-12.285156 6.789063-26.539062 1.964844-39.371093zm-86.175781 46.828125c18.222656-2.097656 36.660156 1.097656 53.109375 9.210937-9.863282 6.40625-18.308594 14.773438-24.808594 24.574219-.6875-1.527344-1.332031-3.050781-1.960938-4.605469-4.394531-12.933593-13.921874-23.488281-26.339843-29.179687zm-28.09375 94.058594c11.40625-14.429688 26.738281-25.261719 44.15625-31.1875-1.269531 5.875-1.910157 11.867187-1.917969 17.875 0 .234374.023438.464843.023438.699218-5 3.234375-9.894532 6.753906-14.6875 10.554688-9.210938-1.820313-18.738282-1.109375-27.574219 2.058594zm0 0"/><path d="m188.242188 435.15625c-6.851563-.203125-13.480469 2.429688-18.324219 7.273438-4.847657 4.847656-7.480469 11.476562-7.277344 18.324218 0 4.714844 3.820313 8.535156 8.535156 8.535156 4.710938 0 8.53125-3.820312 8.53125-8.535156-.222656-2.339844.617188-4.652344 2.289063-6.308594 1.667968-1.652343 3.992187-2.46875 6.332031-2.222656 4.710937-.023437 8.511719-3.863281 8.488281-8.578125-.023437-4.710937-3.863281-8.511719-8.574218-8.488281zm0 0"/></svg>