<svg height="511pt" viewBox="-21 0 511 511.82324" width="511pt" xmlns="http://www.w3.org/2000/svg"><path d="m51.613281 323.070312v46.332032c0 37.441406 18.910157 72.574218 53.28125 98.945312 22.804688 17.367188 62.769531 28.359375 80.746094 32.65625 7.722656 6.929688 17.726563 10.78125 28.105469 10.820313h34.132812c10.378906-.039063 20.378906-3.890625 28.105469-10.820313 17.972656-4.296875 57.941406-15.285156 80.769531-32.671875 34.339844-26.355469 53.257813-61.488281 53.257813-98.929687v-46.753906c2.234375.292968 4.488281.460937 6.742187.503906 13.773438.667968 27.222656-4.324219 37.230469-13.8125 10.003906-9.492188 15.699219-22.660156 15.761719-36.449219.011718-8.835937-4.550782-17.050781-12.058594-21.707031-7.695312-4.910156-17.433594-5.316406-25.511719-1.058594-8.074219 4.257812-13.242187 12.519531-13.539062 21.644531-.621094.125-1.25.183594-1.882813.183594-1.804687.066406-3.574218-.5-5-1.601563-1.324218-1.703124-1.949218-3.847656-1.742187-5.996093 0-14.085938 4.976562-15.835938 7.015625-16.554688 16.121094-5.199219 27.066406-20.179687 27.117187-37.117187v-1.109375c-.023437-21.574219-17.507812-39.058594-39.082031-39.085938h-56.355469c-2.578125-7.226562-8.265625-12.914062-15.496093-15.492187v-48.078125c.03125-6.957031-2.773438-13.625-7.765626-18.46875l-12.664062-12.410157c-4.558594-4.285156-10.644531-6.574218-16.902344-6.351562-6.253906.21875-12.164062 2.933594-16.410156 7.53125l-1.1875 1.480469c-3.296875 3.300781-8.113281 4.578125-12.613281 3.347656-4.039063-1.636719-7.214844-4.878906-8.769531-8.953125-1.144532-4.035156-.308594-8.371094 2.253906-11.691406 2.390625-3.144532 6.109375-4.996094 10.058594-5.003906.863281-.019532 1.722656.074218 2.5625.285156 3.722656 1.039062 7.679687-.554688 9.644531-3.882813 1.964843-3.332031 1.445312-7.566406-1.265625-10.324219l-37.175782-37.519531c-6.742187-6.589843-17.507812-6.613281-24.28125-.050781l-37.226562 37.570312c-2.710938 2.757813-3.234375 6.992188-1.269531 10.324219 1.96875 3.332031 5.929687 4.925781 9.652343 3.882813.835938-.210938 1.699219-.304688 2.558594-.285156 3.953125.007812 7.671875 1.859374 10.058594 5.003906 2.570312 3.332031 3.402344 7.6875 2.242188 11.734375-1.542969 4.027343-4.679688 7.242187-8.664063 8.886719-4.277344 1.234374-8.890625.183593-12.210937-2.785157l-1.402344-1.667969c-4.128906-4.835937-10.066406-7.75-16.414063-8.0625-6.394531-.261718-12.617187 2.109376-17.210937 6.566407l-12.617188 12.363281c-5 4.84375-7.808594 11.515625-7.78125 18.480469v53.160156c-3.148437 2.839844-5.539062 6.417969-6.960937 10.410156h-56.355469c-2.121094.011719-4.242188.191407-6.335938.539063-18.910156 3.050781-32.792968 19.394531-32.746093 38.546875v1.109375c.042969 16.910156 10.953125 31.875 27.039062 37.089844 2.121094.75 7.09375 2.503906 7.09375 16.582031.207031 2.171875-.4375 4.335937-1.792969 6.042969-1.417968 1.074218-3.167968 1.625-4.949218 1.554687-.632813 0-1.269532-.0625-1.890625-.1875-.296875-9.121094-5.464844-17.382813-13.539063-21.640625-8.070312-4.257812-17.808594-3.851562-25.503906 1.058594-7.507812 4.65625-12.070312 12.871094-12.058594 21.707031.046875 13.472656 5.488282 26.367187 15.109375 35.796875 9.621094 9.429688 22.621094 14.609375 36.09375 14.382812zm17.066407 46.332032v-48.300782c6.054687-1.523437 11.820312-4.03125 17.066406-7.421874v46.507812c0 32.53125 24.574218 55.039062 39.234375 65.5625 15.574219 10.773438 32.921875 18.734375 51.246093 23.519531-5.242187 9.3125-6.546874 20.332031-3.617187 30.609375-20.378906-5.113281-39.761719-13.589844-57.347656-25.085937-30.042969-23.054688-46.582031-53.378907-46.582031-85.390625zm52.769531-147.710938c1.421875 3.992188 3.8125 7.570313 6.960937 10.410156v61.695313c-.027344 6.953125 2.777344 13.621094 7.765625 18.464844l12.65625 12.402343c4.5625 4.46875 10.777344 6.839844 17.160157 6.542969 6.378906-.296875 12.347656-3.234375 16.476562-8.109375l.871094-1.085937c3.300781-3.292969 8.113281-4.570313 12.617187-3.347657 4.039063 1.636719 7.214844 4.882813 8.765625 8.953126 1.144532 4.035156.308594 8.371093-2.253906 11.691406-2.386719 3.144531-6.105469 4.996094-10.058594 5.003906-.859375.023438-1.722656-.074219-2.558594-.28125-3.722656-1.042969-7.683593.550781-9.648437 3.882812-1.964844 3.328126-1.441406 7.566407 1.269531 10.320313l5.886719 5.972656.097656.066407 31.191407 31.480468c3.1875 3.273438 7.5625 5.125 12.132812 5.132813 4.566406.011719 8.949219-1.820313 12.148438-5.082031l37.226562-37.570313c2.714844-2.757813 3.230469-6.992187 1.265625-10.324219-1.964844-3.332031-5.925781-4.921875-9.648437-3.878906-.839844.210938-1.699219.304688-2.5625.285156-3.949219-.007812-7.667969-1.859375-10.058594-5.003906-2.566406-3.335938-3.398438-7.691406-2.242188-11.734375 1.546875-4.027344 4.679688-7.242187 8.667969-8.886719 4.265625-1.234375 8.863281-.195312 12.183594 2.753906l2.058593 2.445313c8.988282 9.125 23.601563 9.457031 32.996094.75l12.617188-12.363281c4.996094-4.847656 7.804687-11.519532 7.777344-18.480469v-56.613281c7.230468-2.578125 12.917968-8.265625 15.496093-15.492188h22.101563c-8.339844 12.625-12.535156 27.542969-11.996094 42.664063 0 .257812.035156.503906.035156.757812 0 .066407-.035156.117188-.035156.179688v94.894531c0 24.886719-20.179688 43.125-32.183594 51.765625-16.148437 11.117187-34.335937 18.925781-53.515625 22.984375-7.28125-5.460938-16.132812-8.421875-25.234375-8.449219h-34.132812c-9.101563.027344-17.953125 2.992188-25.234375 8.449219-19.214844-4.070312-37.429688-11.90625-53.589844-23.0625-11.988281-8.605469-32.109375-26.773438-32.109375-51.6875v-64.449219c5.652344-9.488281 8.601562-20.339843 8.53125-31.382812.539062-15.121094-3.652344-30.035157-11.992188-42.664063zm15.496093-8.535156v-34.132812c.003907-4.710938 3.824219-8.527344 8.53125-8.535157h8.535157c4.710937.007813 8.527343 3.824219 8.535156 8.535157v34.132812c-.007813 4.710938-3.824219 8.527344-8.535156 8.535156h-8.535157c-4.707031-.007812-8.527343-3.824218-8.53125-8.535156zm187.734376-42.667969c4.707031.007813 8.527343 3.824219 8.53125 8.535157v34.132812c-.003907 4.710938-3.824219 8.527344-8.53125 8.535156h-8.535157c-4.710937-.007812-8.527343-3.824218-8.53125-8.535156v-34.132812c.003907-4.710938 3.820313-8.527344 8.53125-8.535157zm-110.933594 324.269531c-14.140625 0-25.601563-11.460937-25.601563-25.601562 0-14.136719 11.460938-25.601562 25.601563-25.601562h34.132812c14.136719 0 25.597656 11.464843 25.597656 25.601562 0 14.140625-11.460937 25.601562-25.597656 25.601562zm132.640625-39.984374c-17.59375 11.503906-36.988281 19.992187-57.378907 25.105468 2.929688-10.277344 1.628907-21.296875-3.617187-30.609375 18.300781-4.769531 35.621094-12.707031 51.179687-23.449219 14.683594-10.5625 39.308594-33.136718 39.308594-65.632812v-53.410156c.578125.570312 1.109375 1.179687 1.714844 1.726562 4.542969 4.082032 9.730469 7.382813 15.351562 9.769532v51.128906c0 32.011718-16.542968 62.335937-46.558593 85.371094zm80.691406-245.199219v1.109375c-.089844 9.652344-6.410156 18.140625-15.632813 20.992187-12.269531 4.3125-18.5 15.3125-18.5 32.679688-.402343 7.023437 2.3125 13.867187 7.414063 18.707031 4.554687 3.917969 10.386719 6.035156 16.394531 5.957031 4.476563.570313 8.996094-.6875 12.535156-3.488281 3.539063-2.800781 5.800782-6.910156 6.273438-11.402344.117188-1.621094.757812-7.042968 4.117188-8.671875 2.800781-1.546875 6.214843-1.476562 8.949218.191407 2.511719 1.546874 4.046875 4.289062 4.050782 7.242187-.171876 9.230469-4.101563 17.996094-10.882813 24.261719s-15.828125 9.492187-25.042969 8.933594c-4.339844.011718-8.652344-.640626-12.792968-1.933594-5.535157-1.640625-10.640626-4.488282-14.949219-8.335938-8.679688-8.121094-13.464844-19.574218-13.132813-31.460937-1.445312-17.265625 6.308594-34.015625 20.40625-44.082031 3.140625-2.078126 4.550782-5.96875 3.464844-9.574219s-4.40625-6.074219-8.171875-6.074219h-41.300781v-17.070312h54.785156c12.152344.015624 22.003906 9.863281 22.015625 22.019531zm-281.601563-102.65625c-.007812-2.367188.949219-4.632813 2.648438-6.277344l12.601562-12.347656c1.199219-1.171875 2.828126-1.800781 4.5-1.734375 1.621094.070312 3.136719.808594 4.1875 2.042968l1.863282 2.164063c7.667968 7.585937 18.78125 10.53125 29.199218 7.742187 9.9375-3.234374 17.679688-11.101562 20.757813-21.085937 2.476563-9.152344.535156-18.933594-5.25-26.441406-2.777344-3.621094-6.34375-6.558594-10.429687-8.589844l25.257812-25.46875 25.257812 25.46875c-4.085937 2.03125-7.652343 4.96875-10.429687 8.585937-5.777344 7.496094-7.722656 17.261719-5.261719 26.402344 3.085938 10.027344 10.871094 17.925782 20.859375 21.152344 10.65625 2.761719 21.976563-.421875 29.632813-8.335938l1.359375-1.65625c.996093-1.363281 2.566406-2.191406 4.253906-2.246093 1.6875-.054688 3.308594.675781 4.390625 1.972656l12.640625 12.386719c1.691406 1.644531 2.640625 3.90625 2.628906 6.265625v46.503906c-14.132812.015625-25.585937 11.46875-25.597656 25.601563v34.132812c.011719 14.132812 11.464844 25.585938 25.597656 25.601562v55.039063c.007813 2.363281-.945312 4.628906-2.644531 6.273437l-12.59375 12.34375c-1.132812 1.09375-2.644531 1.699219-4.21875 1.691407-1.519531.042969-2.996094-.507813-4.113281-1.535157l-2.226563-2.621093c-7.671875-7.578125-18.785156-10.523438-29.203125-7.742188-9.933593 3.234375-17.679687 11.101563-20.757812 21.085938-2.476563 9.152343-.535157 18.933593 5.25 26.441406 2.777343 3.621094 6.347656 6.558594 10.433593 8.589844l-25.257812 25.464843-25.257812-25.464843.101562-.070313c1.761719-.898437 3.425781-1.976562 4.96875-3.210937.378906-.296875.742188-.601563 1.109375-.917969 8.9375-7.507812 12.660156-19.550781 9.511719-30.789062-3.085938-10.03125-10.871094-17.925782-20.855469-21.15625-10.648437-2.765626-21.957031.410156-29.613281 8.308593l-1.328125 1.582031c-1.054688 1.253907-2.585938 2.011719-4.222657 2.085938-1.667968.101562-3.300781-.519531-4.476562-1.707031l-12.640625-12.386719c-1.691406-1.644531-2.644531-3.90625-2.632813-6.265625v-55.039063h8.535157c14.132812-.015624 25.585937-11.46875 25.601562-25.601562v-34.132812c-.015625-14.132813-11.46875-25.585938-25.601562-25.601563h-8.535157zm-123.949218 158.730469c2.734375-1.667969 6.148437-1.742188 8.949218-.191407 3.359376 1.628907 3.996094 7.050781 4.109376 8.675781.476562 4.488282 2.738281 8.597657 6.28125 11.398438 3.539062 2.800781 8.058593 4.058594 12.535156 3.488281 5.984375.082031 11.796875-2.023437 16.34375-5.914062 5.132812-4.839844 7.863281-11.703125 7.464844-18.75 0-17.363281-6.21875-28.355469-18.753907-32.765625-9.113281-2.90625-15.320312-11.34375-15.378906-20.90625v-1.109375c.082031-10.726563 7.824219-19.855469 18.386719-21.699219 1.199218-.199219 2.414062-.304688 3.628906-.320312h54.785156v17.070312h-41.300781c-3.765625 0-7.089844 2.464844-8.171875 6.074219-1.085938 3.605469.320312 7.496093 3.460938 9.574219 14.101562 10.066406 21.855468 26.816406 20.410156 44.082031.136718 8.714843-2.359375 17.265625-7.15625 24.539062-1.675782 2.53125-3.664063 4.84375-5.921875 6.875-6.261719 5.515625-14.066407 8.972657-22.355469 9.902344-1.800781.277344-3.621094.414063-5.441406.414063-9.214844.558593-18.261719-2.667969-25.042969-8.933594s-10.710937-15.03125-10.882813-24.261719c.003907-2.953125 1.535157-5.695313 4.050782-7.242187zm0 0"/><path d="m171.078125 136.355469h8.535156c4.710938 0 8.53125-3.820313 8.53125-8.53125 0-4.714844-3.820312-8.535157-8.53125-8.535157h-8.535156c-4.710937 0-8.53125 3.820313-8.53125 8.535157 0 4.710937 3.820313 8.53125 8.53125 8.53125zm0 0"/><path d="m213.746094 136.355469h76.800781c4.710937 0 8.53125-3.820313 8.53125-8.53125 0-4.714844-3.820313-8.535157-8.53125-8.535157h-76.800781c-4.714844 0-8.535156 3.820313-8.535156 8.535157 0 4.710937 3.820312 8.53125 8.535156 8.53125zm0 0"/></svg>