<svg height="512pt" viewBox="-94 0 512 512" width="512pt" xmlns="http://www.w3.org/2000/svg"><path d="m162.1875 512c32.972656-.039062 59.695312-26.757812 59.730469-59.734375v-19.386719c63.128906-24.308594 104.136719-85.710937 102.402343-153.335937v-100.34375c0-14.136719-11.460937-25.597657-25.601562-25.597657-14.136719 0-25.597656 11.460938-25.597656 25.597657h-19.148438c-2.753906-4.890625-7.925781-7.921875-13.535156-7.933594h-9.484375l-17.566406-28.617187v-40.25c.160156-6.855469-2.480469-13.484376-7.308594-18.355469-4.828125-4.875-11.433594-7.570313-18.292969-7.472657l.007813-10.511718c15.566406-5.277344 34.125-15.097656 34.125-31.925782 0-33.175781-53.613281-34.132812-59.730469-34.132812s-59.734375.957031-59.734375 34.132812c0 16.828126 18.558594 26.648438 34.132813 31.921876v10.746093c-6.847657-.203125-13.476563 2.429688-18.324219 7.273438-4.84375 4.847656-7.476563 11.476562-7.277344 18.324219v40.25l-17.566406 28.617187h-9.480469c-5.613281.011719-10.785156 3.042969-13.539062 7.933594h-19.144532c0-14.136719-11.460937-25.597657-25.601562-25.597657-14.136719 0-25.5976565 11.460938-25.5976565 25.597657v100.34375c-1.7343755 67.625 39.2695315 129.027343 102.3984375 153.335937v19.386719c.039063 32.976563 26.757813 59.695313 59.734375 59.734375zm42.664062-59.734375c0 23.566406-19.101562 42.667969-42.664062 42.667969-23.566406 0-42.667969-19.101563-42.667969-42.667969v-14.019531c27.972657 7.316406 57.359375 7.316406 85.332031 0zm-42.664062-68.265625c-2.882812 0-5.710938-.214844-8.535156-.433594v-25.167968h17.066406v25.167968c-2.824219.21875-5.652344.433594-8.53125.433594zm-110.933594-110.933594v-42.667968h17.066406v18.945312c.066407 34.902344 19.980469 66.726562 51.339844 82.046875-.023437.476563-.140625.925781-.140625 1.410156.035157 10.8125 6.867188 20.433594 17.066407 24.027344v24.070313c-49.957032-11.890626-85.242188-56.480469-85.332032-107.832032zm136.53125 59.734375c-.003906 4.710938-3.820312 8.527344-8.53125 8.53125h-34.132812c-4.710938-.003906-8.53125-3.820312-8.535156-8.53125.007812-1.089843.226562-2.164062.640624-3.167969l.011719-.015624c.015625-.046876.007813-.097657.023438-.144532 1.339843-3.152344 4.433593-5.203125 7.859375-5.207031h34.132812c3.414063.007813 6.496094 2.042969 7.835938 5.183594v.011719l.027344.035156c.441406 1.046875.667968 2.167968.667968 3.304687zm-8.53125-25.601562h-34.132812c-7.117188.015625-13.902344 3.007812-18.710938 8.253906-25.035156-12.554687-40.890625-38.105469-41.023437-66.109375v-10.410156h153.597656v7.679687c-.21875 28.664063-16.035156 54.933594-41.269531 68.539063-4.804688-5.070313-11.480469-7.945313-18.460938-7.953125zm8.53125 49.628906c10.199219-3.59375 17.035156-13.214844 17.066406-24.027344 0-.613281-.136718-1.195312-.179687-1.792969 31.402344-16.480468 51.160156-48.929687 51.382813-84.394531v-16.214843h17.066406v42.667968c-.089844 51.351563-35.378906 95.941406-85.335938 107.832032zm85.335938-143.496094h-17.066406v-17.066406h17.066406zm-145.066406-93.867187h68.265624v17.070312h-68.265624zm8.53125-25.597656c9.101562-.007813 16.601562-7.140626 17.066406-16.230469v-11.582031c0-7.316407-4.664063-13.816407-11.589844-16.164063-13.277344-4.492187-22.542969-10.972656-22.542969-15.757813 0-12.835937 28.75-17.042968 42.65625-17.066406 13.925781.023438 42.675781 4.230469 42.675781 17.066406 0 4.785157-9.265624 11.265626-22.539062 15.761719-6.929688 2.34375-11.59375 8.84375-11.59375 16.160157v11.582031c.464844 9.089843 7.964844 16.222656 17.066406 16.230469 2.328125-.230469 4.632813.597656 6.285156 2.25 1.652344 1.652343 2.476563 3.957031 2.25 6.28125h-68.257812c-.230469-2.324219.59375-4.625 2.246094-6.277344 1.648437-1.652344 3.953125-2.480469 6.277344-2.253906zm-42.410157 94.464843c5.414063-.027343 10.441407-2.8125 13.332031-7.394531l16.789063-27.335938h75.777344l16.832031 27.402344c2.890625 4.550782 7.902344 7.3125 13.289062 7.328125h8.789063v33.535157h-153.597656v-33.535157zm-25.855469 7.933594v17.066406h-17.066406v-17.066406zm-51.199218 83.277344v-100.34375c0-4.710938 3.820312-8.53125 8.53125-8.53125 4.714844 0 8.535156 3.820312 8.535156 8.53125v93.867187c.109375 63.414063 46.605469 117.199219 109.335938 126.480469.519531.164063 1.054687.269531 1.597656.324219.078125 0 .140625-.042969.21875-.042969 11.171875 1.652344 22.523437 1.652344 33.691406 0 .078125 0 .144531.042969.222656.042969.542969-.054688 1.078125-.160156 1.597656-.320313 62.730469-9.285156 109.222657-63.070312 109.335938-126.484375v-93.867187c0-4.710938 3.820312-8.53125 8.53125-8.53125 4.714844 0 8.535156 3.820312 8.535156 8.53125v100.34375c1.675782 62.644531-37.605468 119.09375-96.933594 139.292969-.128906.050781-.253906.085937-.382812.136718-31.007812 10.257813-64.492188 10.257813-95.5 0-.128906-.054687-.257812-.085937-.386719-.136718-59.324219-20.199219-98.605469-76.648438-96.929687-139.292969zm0 0"/></svg>