<svg height="505pt" viewBox="-93 0 505 505.06267" width="505pt" xmlns="http://www.w3.org/2000/svg"><path d="m50.03125 28.355469c-6.664062.597656-11.652344 6.375-11.273438 13.054687-24.582031-.945312-31.101562 4.925782-33.4375 7.039063-3.390624 2.964843-5.32421825 7.257812-5.289062 11.761719 0 3.570312.0585938 14.167968 21.601562 45.3125-10.085937 19.242187-14.738281 40.871093-13.453124 62.558593.121093 4.015625 2.148437 7.730469 5.464843 10 3.3125 2.273438 7.507813 2.824219 11.296875 1.492188 2.027344-.738281 4.113282-1.316407 6.230469-1.726563-5.605469 17.152344-7.699219 35.257813-6.15625 53.238282.59375 4.816406 3.902344 8.863281 8.507813 10.40625 4.601562 1.539062 9.683593.300781 13.058593-3.1875.957031-.984376 1.941407-1.910157 2.917969-2.773438-.089844 3.953125.09375 7.902344.550781 11.828125-7.003906 2.695313-12.839843 7.769531-16.476562 14.332031-5.410157 9.871094-9.824219 20.253906-13.171875 30.996094-8.601563 29.292969-12.640625 59.730469-11.976563 90.253906 0 68.113282 41.601563 105.960938 123.535157 112.617188 16.179687 12.671875 38.914062 12.671875 55.09375 0 81.929687-6.652344 123.535156-44.5 123.535156-112.617188.660156-30.519531-3.378906-60.960937-11.976563-90.25-3.339843-10.71875-7.738281-21.078125-13.128906-30.921875-3.644531-6.59375-9.492187-11.695312-16.519531-14.410156.457031-3.925781.640625-7.878906.550781-11.832031.976563.855468 1.941406 1.769531 2.894531 2.746094 3.386719 3.535156 8.523438 4.78125 13.15625 3.1875 4.582032-1.511719 7.867188-5.542969 8.425782-10.335938 1.546874-17.996094-.546876-36.117188-6.15625-53.285156 2.125.414062 4.21875.992187 6.253906 1.734375 3.765625 1.324219 7.9375.78125 11.238281-1.464844 3.335937-2.285156 5.382813-6.023437 5.515625-10.0625 1.273438-21.679687-3.378906-43.292969-13.464844-62.527344 21.546875-31.140625 21.605469-41.738281 21.605469-45.308593.03125-4.503907-1.898437-8.796876-5.289063-11.761719-2.34375-2.105469-8.859374-7.96875-33.417968-7.035157.132812-2.652343-.578125-5.28125-2.03125-7.503906-2.070313-3.160156-5.464844-5.199218-9.222656-5.550781-15.609376-.363281-31.175782 1.792969-46.097657 6.386719 2.703125-4.578125 6.175781-8.648438 10.269531-12.039063 3.738282-3.277343 5.191407-8.449219 3.707032-13.191406-1.539063-4.851563-5.808594-8.332031-10.871094-8.859375-38.015625-3.636719-57.207031 8.589844-66.515625 18.949219-9.304687-10.367188-28.527344-22.605469-66.679687-18.933594-5.007813.566406-9.210938 4.035156-10.722657 8.84375-1.484375 4.753906-.023437 9.9375 3.730469 13.21875 4.085938 3.386719 7.5625 7.449219 10.269531 12.015625-14.917969-4.585938-30.476562-6.746094-46.082031-6.394531zm-6.703125 30.164062c1.78125 6.355469 2.90625 12.878907 3.355469 19.460938-5.460938 3.617187-10.410156 7.949219-14.71875 12.878906-14.300782-21.539063-15.183594-29.125-15.445313-29.910156 1.160157-1.242188 8.273438-3.773438 26.808594-2.429688zm-18.117187 324.421875c-.59375-28.796875 3.179687-57.515625 11.191406-85.179687 3.019531-9.703125 7-19.082031 11.882812-27.996094 2.433594-4.378906 6.832032-7.320313 11.8125-7.886719.210938-.019531.425782-.042968.640625-.074218.628907-.101563 1.269531-.148438 1.910157-.148438h55.589843c.78125 5.773438 2.328125 11.417969 4.597657 16.785156h-50.03125c-.289063 0-.550782.109375-.835938.125-.15625.023438-.304688.039063-.460938.070313-6.378906.417969-11.9375 4.496093-14.253906 10.453125-9.816406 28.976562-14.277344 59.5-13.15625 90.074218 0 58.15625 47.289063 70.621094 76.605469 73.847657-2.070313 4.480469-3.148437 9.351562-3.164063 14.28125.054688 3.398437.621094 6.769531 1.679688 10-63.15625-8.699219-94.007812-39.640625-94.007812-94.351563zm129.042968-274.214844c.207032.167969.460938.207032.679688.351563 2.78125 1.8125 6.371094 1.8125 9.15625 0 .214844-.144531.464844-.183594.671875-.347656 17.933593-14.394531 38.753906-18.640625 55.695312-11.359375 16.621094 6.894531 28.4375 21.964844 31.179688 39.746094.589843 7.472656-.703125 14.972656-3.761719 21.8125-4.664062 10.488281-10.203125 20.5625-16.5625 30.117187-9.296875-14.660156-22.578125-26.371094-38.285156-33.761719-.550782-.78125-1.027344-1.613281-1.644532-2.332031-5.238281-6.035156-11.910156-10.660156-19.402343-13.445313-8.003907-3.25-16.957031-3.246093-24.957031.003907-7.457032 2.765625-14.097657 7.359375-19.320313 13.355469-.617187.777343-1.191406 1.585937-1.722656 2.421874-15.703125 7.390626-28.984375 19.089844-38.296875 33.742188-6.34375-9.539062-11.875-19.597656-16.539063-30.0625-3.058593-6.84375-4.355469-14.351562-3.769531-21.828125 2.726562-17.78125 14.535156-32.847656 31.148438-39.753906 16.941406-7.28125 37.785156-3.058594 55.730468 11.339843zm103.875 270.4375c0 36.976563-22.746094 54.929688-73.492187 58.066407-15.175781-10.277344-35.082031-10.277344-50.257813 0-50.75-3.136719-73.496094-21.089844-73.496094-58.066407-.933593-27.046874 2.71875-54.054687 10.796876-79.878906 7.832031 10.242188 16.835937 19.527344 26.835937 27.664063 3.695313 2.992187 8.753906 3.65625 13.097656 1.722656 1.253907-.542969 2.601563-.839844 3.96875-.875 9.652344 15.585937 24.144531 27.578125 41.261719 34.144531l.046875.007813c1.699219.574219 3.535156.574219 5.230469 0l.050781-.007813c17.128906-6.570312 31.632813-18.574218 41.285156-34.175781 1.351563.054687 2.679688.359375 3.917969.898437 4.382812 1.945313 9.488281 1.257813 13.199219-1.777343 10.035156-8.171875 19.066406-17.503907 26.902343-27.804688 7.945313 25.921875 11.542969 52.980469 10.652344 80.082031zm-46.367187-66.785156c-4.113281-1.433594-8.527344-1.789062-12.820313-1.03125-3.652344.582032-6.859375 2.753906-8.753906 5.929688-7.261719 12.042968-17.941406 21.648437-30.679688 27.601562-12.839843-6.019531-23.589843-15.734375-30.871093-27.90625-1.804688-2.933594-4.777344-4.957031-8.171875-5.558594-4.410156-.8125-8.957032-.476562-13.203125.964844-6.207031-5.246094-11.984375-10.980468-17.277344-17.152344h44.847656l.132813-.023437c14.46875 11.226563 34.703125 11.226563 49.171875 0l.132812.023437 44.804688-.050781c-5.300781 6.191407-11.089844 11.945313-17.3125 17.203125zm-115.207031-100.59375c3.675781-14.132812 12.496093-26.386718 24.738281-34.351562.285156 1.035156.664062 2.042968 1.125 3.015625 5.179687 9.328125 17.65625 14.058593 37.089843 14.058593 19.433594 0 31.910157-4.730468 37.089844-14.058593.460938-.96875.835938-1.976563 1.125-3.015625 12.273438 8.011718 21.109375 20.324218 24.761719 34.515625.847656 4.867187-.179687 9.871093-2.875 14.007812-4.519531 6.980469-13.390625 10.515625-26.359375 10.515625-.421875 0-.839844-.035156-1.261719-.039062-9.644531-6.207032-21.035156-9.136719-32.480469-8.351563-11.453124-.785156-22.851562 2.152344-32.5 8.371094-.167968 0-.335937.019531-.507812.019531-13.148438-.113281-22.484375-3.40625-27.074219-10.492187-2.726562-4.195313-3.753906-9.269531-2.871093-14.195313zm83.863281-45.320312c1.210937 1.945312 2.246093 4.496094 1.5 5.839844-1.117188 2.007812-7.089844 5.414062-22.410157 5.414062-15.320312 0-21.296874-3.40625-22.410156-5.414062-.746094-1.339844.285156-3.894532 1.570313-5.964844.542969-.929688 1.160156-1.808594 1.847656-2.632813 3.484375-3.890625 7.882813-6.859375 12.796875-8.632812 3.96875-1.609375 8.414062-1.609375 12.382812 0 4.953126 1.792969 9.378907 4.792969 12.878907 8.726562.6875.835938 1.300781 1.726563 1.84375 2.664063zm-20.910157 120.371094c-20.933593 0-24.515624-22.738282-25.117187-31.792969l1.191406-3.757813c6.867188-5.105468 15.421875-7.402344 23.925781-6.417968 8.511719-.992188 17.082032 1.3125 23.949219 6.441406l1.179688 3.632812c-.382813 7.585938-3.324219 31.894532-25.128907 31.894532zm-25.179687 180.457031c1.273437-12.6875 12.46875-22.019531 25.179687-20.984375 12.707032-1.035156 23.90625 8.296875 25.179688 20.984375-1.273438 12.6875-12.472656 22.019531-25.179688 20.984375-12.710937 1.035156-23.90625-8.296875-25.179687-20.984375zm148.285156-169.527344c8.011719 27.664063 11.78125 56.378906 11.1875 85.175781 0 54.707032-30.851562 85.652344-94.003906 94.351563 1.058594-3.230469 1.621094-6.601563 1.675781-10-.011718-4.929688-1.089844-9.800781-3.160156-14.28125 29.316406-3.226563 76.605469-15.691407 76.605469-73.847657 1.121093-30.570312-3.335938-61.089843-13.15625-90.0625-2.3125-5.878906-7.78125-9.917968-14.078125-10.398437-.300782-.0625-.605469-.105469-.914063-.132813-.304687-.015624-.582031-.128906-.894531-.128906h-49.683594c2.269532-5.371094 3.820313-11.011718 4.617188-16.785156h55.558594c.640624 0 1.277343.050781 1.910156.148438.179687.03125.386718.050781.582031.066406 5.03125.566406 9.46875 3.539062 11.910156 7.972656 4.867188 8.890625 8.832031 18.246094 11.84375 27.921875zm19.582031-237.554687c0 1.4375-.851562 9.097656-15.148437 30.648437-4.308594-4.917969-9.25-9.242187-14.703125-12.851563.445312-6.597656 1.566406-13.125 3.34375-19.492187 8.851562-1.4375 17.914062-.859375 26.507812 1.695313zm-203.277343-7.238282c4.042969 1.21875 8.425781.34375 11.695312-2.328125 3.226563-2.621093 4.921875-6.679687 4.523438-10.8125-1.34375-8.664062-5.332031-16.703125-11.414063-23.019531 39.460938-.976562 47.484375 19.894531 47.78125 20.722656.078125.253906.265625.433594.367188.671875.191406.4375.421875.855469.683594 1.253907.34375.554687.75 1.066406 1.214843 1.527343.238281.214844.492188.414063.753907.601563.625.484375 1.320312.875 2.058593 1.160156.117188.042969.195313.140625.316407.179688.15625.050781.316406.015624.472656.058593.773437.210938 1.574218.308594 2.371094.289063.332031-.015625.660156-.046875.988281-.101563.433593-.007812.863281-.054687 1.289062-.132812.296875-.136719.582031-.296875.859375-.46875.949219-.46875 1.820313-1.074219 2.589844-1.800781.253906-.273438.484375-.566407.699219-.871094.398437-.523438.730469-1.089844.992187-1.691406.085938-.199219.246094-.335938.320313-.542969.328125-.933594 7.785156-20.902344 45.242187-20.902344.84375 0 1.710938.015625 2.597656.035156-6.117187 6.367188-10.117187 14.464844-11.453124 23.191407-.351563 4.085937 1.351562 8.074218 4.542968 10.648437 3.246094 2.664063 7.601563 3.542969 11.628906 2.351563 13.636719-4.371094 27.75-7.085938 42.035157-8.085938-.308594 1.007812-.625 2.105469-.945313 3.234375l-.035156.125-.101562.355469c-.035157.101562-.230469.765625-.261719.875-3.253907 10.195312-4.996094 20.8125-5.171875 31.511718.203125 4.265626 2.578125 8.128907 6.292968 10.238282 7.511719 4.636718 13.851563 10.945312 18.519532 18.433594 9.496094 15.785156 14.265625 33.960937 13.746094 52.375-4.464844-1.199219-9.097657-1.648438-13.710938-1.332032-3.808594.367188-7.226562 2.503906-9.222656 5.769532-2.042969 3.269531-2.472656 7.296874-1.15625 10.921874 5 13.890626 7.65625 28.515626 7.863281 43.273438-2.429687-1.910156-5.039063-3.578125-7.789063-4.984375-4.191406-2.09375-9.199218-1.675781-12.988281 1.078125-3.785156 2.757812-5.726562 7.390625-5.027343 12.023438.746093 5.324218.855468 10.714843.316406 16.0625h-28.234375c3.785156-2.628907 7.027343-5.964844 9.550781-9.820313 4.90625-7.566406 6.820312-16.6875 5.363281-25.585937-.058593-.398438-.167969-.796876-.234375-1.199219l.109375-.167969c9.410157-13.457031 17.574219-27.742188 24.402344-42.675781 4.175781-9.492188 5.878906-19.886719 4.953125-30.214844-3.472656-23.734375-19.097656-43.929687-41.199219-53.246094-22.722656-8.726562-48.351562-4.964843-67.605469 9.925781-19.273437-14.878906-44.90625-18.636718-67.640624-9.914062-22.089844 9.328125-37.703126 29.523438-41.164063 53.253906-.921875 10.335938.785156 20.734375 4.960937 30.230469 6.828126 14.917969 14.992188 29.191406 24.394532 42.640625l.101562.15625c-.058594.347656-.152344.695312-.199218 1.042969-1.496094 8.960937.410156 18.15625 5.347656 25.78125 2.519531 3.84375 5.757812 7.171875 9.53125 9.792969h-28.234375c-.535157-5.34375-.429688-10.734376.320312-16.054688.703125-4.636719-1.238281-9.277344-5.03125-12.035156-3.792969-2.757813-8.808593-3.171875-13.003906-1.070313-2.746094 1.402344-5.347656 3.070313-7.769531 4.984375.199218-14.695312 2.835937-29.257812 7.796875-43.09375 1.378906-3.671875.976562-7.773437-1.09375-11.105468-2-3.277344-5.429688-5.414063-9.253907-5.773438-4.597656-.316406-9.21875.132812-13.671874 1.328125-.519532-18.394531 4.238281-36.558594 13.714843-52.335937 4.628907-7.425782 10.894531-13.699219 18.320313-18.335938 3.910156-2.160156 6.398437-6.21875 6.550781-10.683594-.195313-10.402344-1.898437-20.71875-5.046875-30.636718-.105469-.503907-.246094-.964844-.46875-1.691407l-.046875-.152343-.003906-.019532c-.320313-1.136718-.648438-2.246094-.960938-3.285156 14.261719.996094 28.347657 3.703125 41.960938 8.066406zm0 0"/><path d="m84.402344 124.703125c-1.46875 4.398437.90625 9.152344 5.300781 10.617187l25.179687 8.394532c4.398438 1.46875 9.152344-.910156 10.621094-5.304688 1.464844-4.398437-.910156-9.152344-5.308594-10.621094l-25.179687-8.390624c-2.113281-.714844-4.417969-.554688-6.410156.445312-1.992188.996094-3.507813 2.746094-4.203125 4.859375zm0 0"/><path d="m201.472656 144.152344c.90625-.003906 1.800782-.148438 2.65625-.4375l25.179688-8.394532c4.398437-1.464843 6.777344-6.21875 5.308594-10.617187-1.464844-4.398437-6.21875-6.773437-10.617188-5.304687l-25.179688 8.390624c-3.914062 1.296876-6.304687 5.242188-5.644531 9.3125.660157 4.070313 4.175781 7.054688 8.296875 7.050782zm0 0"/></svg>