<svg height="512pt" viewBox="-56 0 512 512.02219" width="512pt" xmlns="http://www.w3.org/2000/svg"><path d="m133.714844 508.433594c.675781.132812 2.042968.296875 3.941406.480468l3.242188.328126c19.699218 1.855468 39.535156 2.78125 59.394531 2.78125 19.882812 0 39.78125-.929688 59.574219-2.792969l3.125-.316407c1.898437-.183593 3.265624-.347656 3.839843-.464843 69.902344-13.0625 118.84375-53.570313 130.925781-108.339844 5.609376-26.664063 2.976563-54.40625-7.542968-79.542969-6.578125-14.328125-14.8125-27.839844-24.539063-40.25-7.355469-9.585937-13.929687-19.742187-19.667969-30.378906-5.175781-10.203125-9.632812-20.757812-13.339843-31.582031 23.4375-15.949219 34.542969-44.746094 27.882812-72.300781-6.660156-27.554688-29.695312-48.101563-57.828125-51.582032v-17.664062c-.007812-9.421875-7.644531-17.054688-17.066406-17.066406l-17.558594.042968c-4.269531-34.148437-33.289062-59.7734372-67.703125-59.785156-34.410156-.0117188-63.449219 25.597656-67.738281 59.742188h-17.664062c-9.421876.011718-17.058594 7.644531-17.066407 17.066406l.039063 17.558594c-28.148438 3.523437-51.183594 24.097656-57.855469 51.671874-6.671875 27.574219 4.414063 56.402344 27.84375 72.402344-3.703125 10.796875-8.152344 21.320313-13.3125 31.496094-5.738281 10.632812-12.316406 20.789062-19.667969 30.375-9.734375 12.417969-17.976562 25.9375-24.558594 40.277344-10.507812 25.125-13.132812 52.851562-7.523437 79.5 12.082031 54.789062 61.023437 95.296875 130.824219 108.34375zm-44.324219-346.289063c0-9.425781 7.640625-17.070312 17.066406-17.070312s17.066407 7.644531 17.066407 17.070312-7.640626 17.066407-17.066407 17.066407c-9.421875-.011719-17.054687-7.648438-17.066406-17.066407zm171.878906 8.53125h-19.140625c1.148438-5.628906 1.148438-11.4375 0-17.066406h19.140625c-1.617187 5.574219-1.617187 11.492187 0 17.066406zm-35.34375-8.53125c0 14.136719-11.464843 25.597657-25.601562 25.597657-14.140625 0-25.601563-11.460938-25.601563-25.597657 0-14.140625 11.460938-25.601562 25.601563-25.601562 14.132812.015625 25.585937 11.46875 25.601562 25.601562zm-67.40625 8.53125h-19.140625c1.617188-5.574219 1.617188-11.492187 0-17.066406h19.140625c-1.148437 5.628906-1.148437 11.4375 0 17.066406zm-47.503906 107.863281c1.589844-4.550781 2.953125-9.277343 4.324219-13.996093l17.207031-.042969c4.269531 34.148438 33.292969 59.777344 67.707031 59.785156 34.410156.011719 63.449219-25.597656 67.738282-59.742187h17.324218c1.375 4.730469 2.742188 9.472656 4.339844 14.042969 4.632812 13.144531 10.289062 25.902343 16.925781 38.160156 6.371094 11.726562 14.398438 29.289062 10.53125 46.332031-4.070312 15.605469-13.40625 29.328125-26.433593 38.84375-23.375 18.09375-37.167969 20.960937-65.535157 25.644531-1.660156.128906-21.300781 1.125-24.34375 1.171875-.316406-.015625-.632812-.015625-.949219 0-3.039062-.046875-22.664062-1.039062-23.742187-1.09375-28.964844-4.761719-42.757813-7.628906-66.148437-25.734375-13.015626-9.507812-22.34375-23.222656-26.410157-38.816406-3.875-17.058594 4.152344-34.621094 10.519531-46.332031 6.640626-12.277344 12.308594-25.058594 16.945313-38.222657zm162.882813-79c1.074218 16.140626 3.429687 32.167969 7.042968 47.9375h-12.949218c-8.570313-.003906-15.792969 6.394532-16.824219 14.902344-3.234375 25.605469-25.007813 44.8125-50.816407 44.824219-25.808593.011719-47.601562-19.175781-50.859374-44.777344-1.015626-8.527343-8.25-14.949219-16.835938-14.949219l-12.972656.066407c3.628906-15.8125 5.992187-31.886719 7.066406-48.074219.1875-3.433594.238281-6.867188.300781-10.292969.597657-.457031 1.171875-.9375 1.738281-1.433593h37.613282c7.96875 10.738281 20.546875 17.066406 33.914062 17.066406 13.371094 0 25.949219-6.328125 33.917969-17.066406h37.613281c.566406.496093 1.140625.980468 1.738282 1.4375.070312 3.4375.125 6.871093.3125 10.359374zm3.226562-37.394531c0-9.425781 7.640625-17.070312 17.066406-17.070312 9.425782 0 17.066406 7.644531 17.066406 17.070312s-7.640624 17.066407-17.066406 17.066407c-9.421875-.011719-17.058594-7.648438-17.066406-17.066407zm-221.867188 0c.007813-25.800781 19.1875-47.574219 44.78125-50.835937 8.527344-1.019532 14.949219-8.25 14.953126-16.835938v-17.664062h17.664062c8.570312.003906 15.792969-6.394532 16.824219-14.902344 3.238281-25.605469 25.007812-44.8125 50.820312-44.824219 25.808594-.011719 47.597657 19.175781 50.855469 44.777344 1.019531 8.527344 8.25 14.949219 16.835938 14.949219h17.664062v17.664062c0 8.574219 6.398438 15.800782 14.910156 16.832032 19.398438 2.445312 35.714844 15.722656 42.054688 34.21875 6.339844 18.5 1.597656 38.992187-12.222656 52.824218-.898438.902344-1.914063 1.660156-2.875 2.484375-1.125-4.4375-2.175782-8.882812-3-13.320312-.164063-.910157-.300782-1.867188-.433594-2.855469-.21875-1.535156-.476563-3.1875-.820313-4.882812 3.28125-5.296876 5.027344-11.398438 5.054688-17.628907.066406-13.394531-7.742188-25.574219-19.941407-31.101562-12.195312-5.53125-26.503906-3.375-36.53125 5.5h-37.613281c-7.964843-10.738281-20.546875-17.066407-33.914062-17.066407-13.371094 0-25.949219 6.328126-33.914063 17.066407h-37.613281c-12.601563-11.167969-31.484375-11.417969-44.371094-.582031-12.886719 10.835937-15.886719 29.480468-7.050781 43.8125-.339844 1.695312-.601562 3.347656-.816406 4.882812-.132813.988281-.269532 1.945312-.429688 2.816406-.828125 4.476563-1.890625 8.957032-3.023437 13.441406-11.316407-9.707031-17.835938-23.863281-17.847657-38.769531zm-29.074218 164.988281c6.082031-13.101562 13.671875-25.453124 22.605468-36.804687 7.886719-10.316406 14.9375-21.246094 21.085938-32.683594 10.398438-20.378906 17.957031-42.082031 22.464844-64.511719 4.421875 2.054688 9.238281 3.125 14.117187 3.144532 1.117188-.058594 2.230469-.171875 3.332031-.34375-.039062.84375-.03125 1.699218-.074218 2.535156-1.5625 25.347656-6.539063 50.371094-14.800782 74.386719-4.328124 12.3125-9.625 24.261719-15.839843 35.738281-7.691407 14.148438-17.316407 35.582031-12.167969 58.285156 4.949219 19.460938 16.472656 36.605469 32.617188 48.539063 26.550781 20.542969 43.566406 24.089843 73.8125 29.0625 6.625.863281 13.292968 1.34375 19.96875 1.441406 2.34375.023437 4.691406-.101563 7.019531-.375 9.007812.535156 18.046875.179687 26.984375-1.0625 30.25-4.972656 47.265625-8.519531 73.796875-29.050781 16.160156-11.9375 27.691406-29.097656 32.644531-48.566406 5.140625-22.683594-4.484375-44.117188-12.183594-58.289063-6.203125-11.453125-11.492187-23.378906-15.816406-35.667969-8.261719-24.007812-13.246094-49.023437-14.808594-74.367187-.046875-.867188-.039062-1.730469-.078125-2.601563 1.109375.109375 2.1875.335938 3.328125.335938 4.875-.015625 9.691406-1.089844 14.117188-3.144532 4.503906 22.429688 12.0625 44.136719 22.464844 64.511719 6.144531 11.441407 13.195312 22.367188 21.082031 32.683594 8.933593 11.34375 16.515625 23.683594 22.59375 36.777344 9.195312 21.898437 11.511719 46.074219 6.640625 69.316406-10.558594 47.878906-54.441406 83.488281-117.390625 95.257813-.476563.074218-1.292969.144531-2.367188.25l-3.183593.324218c-38.425782 3.601563-77.105469 3.605469-115.53125.011719l-3.300782-.335937c-1.074218-.105469-1.894531-.175782-2.367187-.25-62.949219-11.769532-106.832031-47.378907-117.390625-95.269532-4.871094-23.230468-2.558594-47.390625 6.625-69.277344zm0 0"/><path d="m200.324219 85.34375c14.136719 0 25.601562-11.460938 25.601562-25.601562 0-14.136719-11.464843-25.597657-25.601562-25.597657-14.140625 0-25.601563 11.460938-25.601563 25.597657.015625 14.132812 11.46875 25.585937 25.601563 25.601562zm0-34.132812c4.710937 0 8.53125 3.820312 8.53125 8.53125 0 4.714843-3.820313 8.535156-8.53125 8.535156-4.714844 0-8.535157-3.820313-8.535157-8.535156.003907-4.710938 3.824219-8.527344 8.535157-8.53125zm0 0"/><path d="m200.324219 238.941406c-14.140625 0-25.601563 11.460938-25.601563 25.601563 0 14.136719 11.460938 25.601562 25.601563 25.601562 14.136719 0 25.601562-11.464843 25.601562-25.601562-.015625-14.132813-11.46875-25.585938-25.601562-25.601563zm0 34.132813c-4.714844 0-8.535157-3.820313-8.535157-8.53125 0-4.714844 3.820313-8.535157 8.535157-8.535157 4.710937 0 8.53125 3.820313 8.53125 8.535157-.003907 4.710937-3.820313 8.527343-8.53125 8.53125zm0 0"/></svg>