<svg height="512pt" viewBox="-68 0 512 512.05218" width="512pt" xmlns="http://www.w3.org/2000/svg"><path d="m3.566406 211.71875c2.230469 1.597656 5.089844 2.03125 7.695313 1.175781l15.765625-5.257812c4.878906 21.742187 13.476562 42.476562 25.417968 61.285156 1.351563 2.253906 3.664063 3.757813 6.273438 4.082031 2.609375.339844 5.226562-.5625 7.074219-2.4375l11.972656-11.976562c10.183594 9.253906 18.421875 20.445312 24.234375 32.917968-5.726562 3.988282-11.242188 8.273438-16.523438 12.835938-15.738281 12.996094-28.617187 29.109375-37.820312 47.324219-3.878906 8.003906-6.554688 16.539062-7.941406 25.324219-7.558594 49.375 27.375 94.164062 65.792968 112.894531 20.503907 9.039062 42.703126 13.605469 65.109376 13.390625l5.605468 4.796875c.140625.117187.28125.234375.425782.339843 3.160156 2.371094 7.007812 3.644532 10.957031 3.636719 4.226562-.019531 8.328125-1.414062 11.683593-3.976562l5.601563-4.800781c22.410156.21875 44.609375-4.347657 65.117187-13.386719 38.414063-18.730469 73.351563-63.523438 65.785157-112.96875-1.386719-8.734375-4.050781-17.222657-7.902344-25.1875-9.203125-18.234375-22.085937-34.363281-37.832031-47.371094-5.289063-4.566406-10.808594-8.855469-16.539063-12.851563 5.816407-12.46875 14.050781-23.660156 24.226563-32.921874l11.980468 11.980468c1.855469 1.859375 4.46875 2.757813 7.074219 2.4375 2.609375-.320312 4.925781-1.828125 6.277344-4.082031 11.9375-18.808594 20.535156-39.542969 25.414063-61.285156l15.769531 5.257812c2.601562.867188 5.460937.433594 7.6875-1.171875 2.226562-1.605468 3.542969-4.179687 3.542969-6.921875 0-41.839843-21.660157-83.359375-41.042969-112.160156l40.144531-80.292969c1.433594-2.867187 1.136719-6.300781-.769531-8.882812-1.90625-2.582032-5.097657-3.875-8.265625-3.347656l-100.375 16.722656c-27.082032-8.210938-75.332032-8.308594-77.421875-8.308594-2.09375 0-50.34375.097656-77.425781 8.3125l-100.375-16.726562c-3.167969-.527344-6.359376.765624-8.265626 3.347656-1.90625 2.582031-2.203124 6.015625-.769531 8.882812l40.148438 80.300782c-19.378907 28.78125-41.0468752 70.304687-41.0468752 112.152343 0 2.742188 1.3164062 5.316407 3.5390622 6.917969zm184.195313 172.28125c57.207031 0 67.597656-38.9375 68.066406-40.84375.550781-2.519531 1.148437-4.910156 1.746094-7.304688 11.832031 9.261719 20.050781 22.375 23.21875 37.066407 2.242187 16.800781-3.378907 33.703125-15.242188 45.8125-15.523437 15.558593-35.875 25.378906-57.714843 27.855469l-8.96875-7.667969c-6.769532-4.96875-16.019532-4.832031-22.640626.339843l-8.582031 7.355469c-21.808593-2.480469-42.132812-12.296875-57.632812-27.84375-11.882813-12.109375-17.523438-29.015625-15.292969-45.832031 3.171875-14.695312 11.386719-27.816406 23.226562-37.085938.613282 2.457032 1.226563 4.910157 1.804688 7.554688.410156 1.65625 10.800781 40.59375 68.011719 40.59375zm-131.183594-4.351562c1.125-7.132813 3.296875-14.058594 6.449219-20.554688 8.21875-16.132812 19.679687-30.390625 33.664062-41.886719 3.976563-3.476562 8.132813-6.804687 12.433594-9.953125 1.351562 3.402344 2.617188 6.90625 3.816406 10.542969-17.980468 12.304687-30.539062 31.058594-35.066406 52.371094-3.074219 22.066406 4.199219 44.320312 19.71875 60.308593 14.617188 15.070313 33.28125 25.59375 53.738281 30.304688-3.425781 3.414062-5.359375 8.046875-5.375 12.886719.003907 3.980469 1.289063 7.851562 3.667969 11.042969-12.695312-1.316407-25.078125-4.753907-36.636719-10.164063-32.804687-15.992187-62.710937-53.75-56.410156-94.898437zm130.449219 115.199218-23.417969-20.023437c-.367187-.269531-.585937-.699219-.582031-1.160157 0-.328124.109375-.796874 1.007812-1.5l22.871094-19.597656c.378906-.253906.832031-.375 1.289062-.339844l11.644532 9.957032.140625.121094 11.929687 10.203124c.367188.269532.585938.699219.582032 1.15625 0 .332032-.109376.800782-1.007813 1.5l-22.871094 19.601563c-.464843.34375-1.089843.375-1.585937.082031zm125.5-135.695312c3.125 6.457031 5.28125 13.335937 6.40625 20.417968 6.308594 41.222657-23.597656 78.980469-56.402344 94.972657-11.585938 5.421875-24 8.863281-36.722656 10.179687 5.558594-7.257812 4.875-17.507812-1.589844-23.960937 20.429688-4.773438 39.074219-15.285157 53.726562-30.300781 15.515626-15.996094 22.78125-38.25 19.691407-60.316407-4.519531-21.308593-17.078125-40.054687-35.054688-52.351562 1.199219-3.636719 2.464844-7.140625 3.8125-10.542969 4.300781 3.152344 8.46875 6.480469 12.453125 9.96875 13.996094 11.507812 25.460938 25.785156 33.679688 41.933594zm-256.050782-258.773438c1.375-1.054687 2.382813-2.511718 2.890626-4.167968 9.699218-13.765626 20.402343-26.796876 32.027343-38.980469 2.214844-2.140625 3.105469-5.3125 2.324219-8.296875s-3.109375-5.3125-6.09375-6.09375-6.15625.109375-8.296875 2.328125c-9.652344 10.027343-18.675781 20.644531-27.015625 31.789062l-28.628906-57.253906 85.875 14.3125c1.375.234375 2.78125.125 4.101562-.320313 23.976563-7.992187 73.601563-8.097656 74.101563-8.097656s50.121093.105469 74.097656 8.097656c1.316406.449219 2.726563.558594 4.097656.320313l85.878907-14.3125-28.628907 57.253906c-8.339843-11.144531-17.363281-21.761719-27.015625-31.789062-3.347656-3.234375-8.667968-3.1875-11.960937.101562-3.292969 3.292969-3.335938 8.613281-.105469 11.960938 11.625 12.183593 22.328125 25.210937 32.023438 38.976562.511718 1.660157 1.527343 3.121094 2.902343 4.179688 16.414063 24.023437 35.007813 57.894531 38.722657 92.355469l-13.710938-4.570313c-2.589844-.847656-5.433594-.414063-7.652344 1.171875s-3.550781 4.136719-3.582031 6.863281c0 .21875-.511719 20.480469-18.933594 54.398438l-9.167969-9.171875c-2.605468-2.597656-6.578124-3.238282-9.867187-1.59375-.890625.449218-22.058594 11.433594-39.898437 50.851562l-.007813.015625-.03125.074219-.011719.023438v.007812c-4.160156 8.984375-7.660156 18.261719-10.472656 27.757812-.121094.488282-.195312.988282-.226562 1.488282-1.824219 5.996094-3.527344 12.496094-4.972657 19.117187-.3125 1.132813-8.101562 27.757813-51.476562 27.757813s-51.167969-26.625-51.402344-27.425782c-1.519531-6.941406-3.226563-13.453124-5.050781-19.445312-.027344-.503906-.105469-1.003906-.222656-1.492188-2.816407-9.496093-6.316407-18.773437-10.472657-27.757812v-.007812l-.011719-.023438-.03125-.074219-.011718-.015625c-17.839844-39.414062-39.007813-50.402344-39.898438-50.851562-3.285156-1.65625-7.265625-1.015625-9.863281 1.59375l-9.167969 9.171875c-18.417968-33.914063-18.9375-54.175781-18.9375-54.339844.003906-2.742187-1.316406-5.320313-3.542968-6.921875-2.226563-1.605469-5.085938-2.042969-7.6875-1.171875l-13.710938 4.570313c3.714844-34.472657 22.316406-68.355469 38.726562-92.363282zm0 0"/><path d="m77.0625 154.300781c6.320312 10.347657 14.839844 19.179688 24.957031 25.867188 10.203125 6.503906 22.070313 9.917969 34.171875 9.832031 6.582032-.039062 13.128906-.886719 19.5-2.523438.363282-.140624.71875-.308593 1.054688-.5.535156-.1875 1.050781-.433593 1.535156-.730468.445312-.3125.859375-.667969 1.234375-1.0625.824219-.710938 1.449219-1.621094 1.8125-2.644532.507813-.980468.746094-2.074218.683594-3.175781.0625-.394531.09375-.792969.097656-1.195312-.042969-.328125-.152344-.605469-.195313-.929688-.011718-.039062.003907-.078125-.007812-.117187l-.03125-.070313c-1.148438-12.078125-7.410156-23.089843-17.199219-30.257812-15.8125-11.179688-38.375-10.40625-56.429687-7.109375-5.1875-9.59375-9.078125-19.828125-11.578125-30.441406-.929688-4.621094-5.425781-7.613282-10.046875-6.6875-4.621094.929687-7.617188 5.425781-6.6875 10.046874 3.324218 14.625 9.046875 28.601563 16.929687 41.363282.066407.113281.121094.230468.199219.335937zm57.753906 6.4375c3.992188 2.898438 6.957032 6.992188 8.464844 11.6875-11.144531 1.699219-22.527344-.65625-32.078125-6.640625-4.5-2.902344-8.570313-6.421875-12.089844-10.453125 12.167969-2.378906 24.785157-.472656 35.703125 5.40625zm0 0"/><path d="m175.425781 189.167969c-1.882812-1.257813-4.1875-1.714844-6.40625-1.273438-2.21875.445313-4.171875 1.753907-5.425781 3.636719l-34.132812 51.203125c-1.726563 2.535156-1.957032 5.800781-.605469 8.554687 1.351562 2.753907 4.074219 4.570313 7.136719 4.757813 3.0625.191406 5.988281-1.28125 7.667968-3.847656l34.132813-51.199219c1.257812-1.882812 1.714843-4.1875 1.269531-6.40625-.445312-2.222656-1.75-4.171875-3.636719-5.425781zm0 0"/><path d="m92.953125 110.878906c67.128906 7.460938 69.152344 41.171875 69.207031 42.828125.03125 4.714844 3.875 8.507813 8.585938 8.480469 4.714844-.03125 8.511718-3.875 8.480468-8.589844 0-2.050781-.957031-50.410156-84.394531-59.679687-3.0625-.398438-6.101562.886719-7.945312 3.363281-1.847657 2.476562-2.210938 5.753906-.953125 8.574219 1.257812 2.820312 3.9375 4.742187 7.015625 5.023437zm0 0"/><path d="m230.851562 146.800781c-9.789062 7.164063-16.046874 18.175781-17.199218 30.257813l-.03125.070312c-.011719.039063.003906.074219-.007813.117188-.042969.324218-.152343.59375-.195312.929687.003906.398438.035156.792969.097656 1.1875-.0625 1.101563.171875 2.195313.683594 3.171875.363281 1.027344.988281 1.9375 1.8125 2.648438.375.394531.789062.75 1.234375 1.0625.480468.296875.996094.539062 1.527344.730468.339843.191407.695312.359376 1.058593.5 6.371094 1.636719 12.921875 2.484376 19.5 2.523438 12.101563.085938 23.96875-3.328125 34.175781-9.832031 10.109376-6.683594 18.625-15.507813 24.941407-25.847657.09375-.125.15625-.261718.242187-.390624 7.871094-12.75 13.585938-26.710938 16.90625-41.320313.878906-4.601563-2.117187-9.046875-6.707031-9.964844-4.589844-.921875-9.0625 2.03125-10.027344 6.613281-2.472656 10.613282-6.355469 20.851563-11.539062 30.4375-18.070313-3.300781-40.648438-4.082031-56.472657 7.105469zm33.527344 18.941407c-9.5625 6.019531-20.972656 8.394531-32.140625 6.683593 1.507813-4.695312 4.472657-8.789062 8.464844-11.6875 10.921875-5.878906 23.546875-7.789062 35.71875-5.40625-3.515625 4.011719-7.566406 7.515625-12.046875 10.414063zm0 0"/><path d="m211.925781 191.53125c-1.675781-2.566406-4.605469-4.035156-7.667969-3.847656-3.058593.1875-5.785156 2.003906-7.136718 4.757812-1.351563 2.753906-1.117188 6.023438.605468 8.558594l34.132813 51.199219c1.679687 2.566406 4.605469 4.039062 7.667969 3.847656 3.0625-.1875 5.785156-2.003906 7.136718-4.757813 1.351563-2.753906 1.121094-6.019531-.605468-8.554687zm0 0"/><path d="m204.703125 162.066406h.125c4.625-.03125 8.394531-3.71875 8.53125-8.34375.042969-1.441406 1.84375-35.355468 69.207031-42.84375 3.074219-.28125 5.757813-2.203125 7.015625-5.023437 1.257813-2.820313.890625-6.097657-.953125-8.574219-1.847656-2.476562-4.886718-3.761719-7.949218-3.363281-83.429688 9.269531-84.386719 57.628906-84.386719 59.679687.003906 4.652344 3.757812 8.429688 8.410156 8.46875zm0 0"/><path d="m146.652344 323.488281c-2.304688 4.480469-2.066406 9.847657.625 14.109375 7.03125 11.074219 30.65625 12.269532 40.484375 12.269532 9.824219 0 33.449219-1.195313 40.480469-12.269532 2.691406-4.261718 2.929687-9.628906.625-14.109375-6.972657-14.859375-15.648438-33.355469-41.105469-33.355469-25.460938 0-34.136719 18.496094-41.109375 33.355469zm41.109375-16.289062c13.394531 0 18.230469 7.867187 24.882812 21.890625-8.03125 2.632812-16.445312 3.886718-24.894531 3.710937-8.441406.1875-16.851562-1.066406-24.875-3.710937 6.644531-14.007813 11.46875-21.890625 24.886719-21.890625zm0 0"/></svg>