<svg height="511pt" viewBox="-102 0 511 511.70317" width="511pt" xmlns="http://www.w3.org/2000/svg"><path d="m153.953125 511.703125c32.972656-.039063 59.695313-26.757813 59.730469-59.734375v-15.503906c60.289062-15.417969 93.867187-56.1875 93.867187-117.1875 0-18.617188-1.183593-65.652344-12.175781-100.28125-3.394531-10.898438-7.867188-21.429688-13.347656-31.441406-5.964844-10.730469-17.328125-17.328126-29.601563-17.183594h-21.964843c-2.558594-1.902344-5.324219-3.503906-8.242188-4.78125v-34.730469l12.367188-14.410156c.257812-.304688.5-.625.714843-.964844 4.953125-7.613281 5.289063-17.34375.867188-25.28125-4.769531-8.535156-13.816407-13.785156-23.59375-13.699219h-8.972657l7.917969-15.417968c2.390625-4.523438 2.816407-9.832032 1.171875-14.675782-1.800781-5.1875-5.628906-9.417968-10.605468-11.738281-12.703126-7.375-23.976563-16.96875-33.285157-28.328125-3.875-4.046875-9.234375-6.33984375-14.839843-6.34375-5.601563-.00390625-10.964844 2.28125-14.84375 6.328125-9.304688 11.351563-20.566407 20.945313-33.257813 28.320313-4.996094 2.316406-8.835937 6.558593-10.648437 11.757812-1.640626 4.824219-1.230469 10.113281 1.140624 14.625l7.949219 15.472656h-8.972656c-9.777344-.085937-18.820313 5.167969-23.59375 13.699219-4.417969 7.9375-4.085937 17.667969.867187 25.285156.21875.335938.457032.65625.71875.960938l12.363282 14.410156v34.730469c-2.914063 1.277344-5.679688 2.882812-8.234375 4.78125h-21.972657c-12.246093-.152344-23.589843 6.414062-29.558593 17.105468-5.5 10.035157-9.984375 20.589844-13.390625 31.515626-10.992188 34.632812-12.175782 81.667968-12.175782 100.285156 0 60.996094 33.582032 101.769531 93.867188 117.1875v15.503906c.039062 32.976562 26.757812 59.695312 59.734375 59.734375zm42.664063-59.734375c0 23.566406-19.101563 42.667969-42.664063 42.667969-23.566406 0-42.667969-19.101563-42.667969-42.667969v-11.953125c28.261719 4.5625 57.070313 4.5625 85.332032 0zm-42.664063-68.265625c-2.988281 0-5.714844-.140625-8.535156-.230469v-16.835937h17.066406v16.835937c-2.820313.089844-5.546875.230469-8.53125.230469zm-100.269531-64.425781c0-37.277344 4.550781-70.683594 12.117187-89.175782h2.886719c4.414062 5.867188 10.269531 10.496094 16.996094 13.4375v37.765626c.070312 24.351562 13.105468 46.820312 34.210937 58.972656-.007812.253906-.078125.5-.078125.757812.019532 7.242188 3.125 14.132813 8.535156 18.945313v22.382812c-60.882812-6.578125-74.667968-37.023437-74.667968-63.085937zm168.363281-133.964844c9.6875 8.378906 11.65625 22.640625 4.601563 33.332031-7.050782 10.691407-20.941407 14.492188-32.457032 8.882813 10.820313-13.652344 13.871094-31.902344 8.085938-48.328125 7.148437-.742188 14.289062 1.464843 19.769531 6.113281zm-85.160156 155.722656c.003906-4.710937 3.820312-8.527344 8.53125-8.53125h17.066406c4.714844 0 8.535156 3.820313 8.535156 8.53125 0 4.714844-3.820312 8.535156-8.535156 8.535156h-17.066406c-4.710938-.003906-8.527344-3.824218-8.53125-8.535156zm44.824219-16.71875c-4.8125-5.613281-11.832032-8.855468-19.226563-8.878906h-17.066406c-7.394531.023438-14.414063 3.265625-19.226563 8.878906-14.59375-9.441406-23.417968-25.632812-23.441406-43.011718v-34.136719c8.703125-.019531 17.1875-2.710938 24.308594-7.710938 16.453125 10.285157 37.332031 10.285157 53.785156 0 7.121094 5 15.605469 7.691407 24.308594 7.710938v34.136719c-.023438 17.378906-8.847656 33.570312-23.441406 43.011718zm6.375-128.347656c0 18.851562-15.28125 34.132812-34.132813 34.132812s-34.136719-15.28125-34.136719-34.132812 15.285156-34.132812 34.136719-34.132812c18.839844.019531 34.113281 15.289062 34.132813 34.132812zm-74.371094 31.558594c-11.5 5.515625-25.308594 1.699218-32.339844-8.945313-7.027344-10.644531-5.121094-24.84375 4.46875-33.253906 5.484375-4.65625 12.632812-6.871094 19.785156-6.132813-5.785156 16.429688-2.730468 34.679688 8.085938 48.332032zm65.835937 132.453125c5.410157-4.8125 8.515625-11.703125 8.535157-18.945313 0-.257812-.070313-.5-.078126-.757812 21.105469-12.152344 34.140626-34.621094 34.210938-58.972656v-37.765626c6.769531-2.960937 12.65625-7.632812 17.074219-13.554687l2.757812-.074219c7.617188 18.683594 12.167969 52.09375 12.167969 89.367188 0 26.0625-13.785156 56.507812-74.667969 63.082031zm-78.859375-237.835938-13.964844-16.277343c-1.34375-2.308594-1.347656-5.15625-.015624-7.46875 1.753906-3.082032 5.070312-4.941407 8.617187-4.828126h22.953125c2.976562 0 5.738281-1.546874 7.289062-4.085937 1.550782-2.539063 1.667969-5.703125.304688-8.347656l-14.375-27.957031c-.230469-.40625-.273438-.890626-.117188-1.328126.332032-.808593.976563-1.449218 1.785157-1.78125 14.773437-8.375 27.898437-19.363281 38.734375-32.433593.4375-.722657 1.21875-1.164063 2.0625-1.160157.847656.003907 1.625.449219 2.054687 1.175782 10.84375 13.078125 23.976563 24.066406 38.757813 32.4375.792968.332031 1.421875.96875 1.742187 1.761718.160157.460938.105469.96875-.148437 1.378907l-14.34375 27.90625c-1.359375 2.644531-1.242188 5.808593.308594 8.347656 1.550781 2.539063 4.308593 4.085937 7.285156 4.085937h22.953125c3.546875-.113281 6.863281 1.746094 8.621093 4.828126 1.332032 2.3125 1.324219 5.160156-.019531 7.46875l-13.964843 16.277343c-1.328126 1.546875-2.058594 3.519531-2.058594 5.558594v34.335937c-3.917969-.03125-7.820313.480469-11.597656 1.527344-9.707032-11.894531-24.25-18.796875-39.605469-18.796875-15.351563 0-29.894531 6.902344-39.601563 18.796875-3.777344-1.042968-7.679687-1.558594-11.597656-1.523437v-34.339844c0-2.039063-.730469-4.011719-2.058594-5.558594zm-83.273437 197.132813c-.492188-32.078125 3.332031-64.078125 11.375-95.132813 3.070312-9.867187 7.117187-19.398437 12.082031-28.460937 2.988281-5.21875 8.589844-8.382813 14.601562-8.246094h8.214844c-3.707031 8.242188-4.585937 17.480469-2.5 26.273438-5.035156 1.335937-9.15625 4.945312-11.140625 9.757812-8.40625 20.621094-13.433593 56.4375-13.433593 95.808594 0 47.613281 36.242187 76.496094 100.035156 80.847656.085937 0 .148437.046875.234375.046875l.097656-.019531c5.480469.367187 11.085937.617187 16.96875.617187 5.878906 0 11.484375-.25 16.964844-.617187l.101562.019531c.085938 0 .148438-.042969.230469-.046875 63.796875-4.351562 100.035156-33.230469 100.035156-80.847656 0-39.371094-5.027344-75.1875-13.425781-95.800782-1.988281-4.820312-6.113281-8.429687-11.152344-9.765624 2.089844-8.792969 1.210938-18.03125-2.496093-26.273438h8.214843c6.039063-.128906 11.664063 3.066406 14.644531 8.324219 4.945313 9.039062 8.980469 18.546875 12.039063 28.386719 8.042969 31.054687 11.867187 63.050781 11.375 95.128906 0 33.300781-12.355469 85.355468-85.039063 101.859375-.105468 0-.191406-.058594-.292968-.058594-1.300782.019531-2.578125.34375-3.730469.945313-15.640625 3.027343-31.542969 4.484374-47.46875 4.347656-15.929687.136718-31.832031-1.320313-47.46875-4.347656-1.15625-.601563-2.433594-.921876-3.734375-.945313-.101562 0-.1875.054687-.292969.058594-72.683593-16.503907-85.039062-68.558594-85.039062-101.859375zm0 0"/><path d="m153.953125 136.238281c14.136719 0 25.597656-11.464843 25.597656-25.601562 0-14.140625-11.460937-25.601563-25.597656-25.601563-14.140625 0-25.601563 11.460938-25.601563 25.601563.015626 14.132812 11.46875 25.585937 25.601563 25.601562zm0-34.136719c4.710937 0 8.53125 3.820313 8.53125 8.535157 0 4.710937-3.820313 8.53125-8.53125 8.53125-4.714844 0-8.535156-3.820313-8.535156-8.53125.003906-4.710938 3.824219-8.53125 8.535156-8.535157zm0 0"/><path d="m153.953125 255.703125c-14.140625 0-25.601563 11.460937-25.601563 25.601563 0 14.136718 11.460938 25.597656 25.601563 25.597656 14.136719 0 25.597656-11.460938 25.597656-25.597656-.015625-14.132813-11.46875-25.585938-25.597656-25.601563zm0 34.132813c-4.714844 0-8.535156-3.820313-8.535156-8.53125 0-4.714844 3.820312-8.535157 8.535156-8.535157 4.710937 0 8.53125 3.820313 8.53125 8.535157-.003906 4.710937-3.820313 8.527343-8.53125 8.53125zm0 0"/></svg>