<svg height="512pt" viewBox="0 -57 512 512" width="512pt" xmlns="http://www.w3.org/2000/svg"><path d="m512 81.066406c0-35.347656-28.652344-64-64-64s-64 28.652344-64 64v102.398438c0 35.347656 28.652344 64 64 64s64-28.652344 64-64zm-17.066406 102.398438c0 25.921875-21.011719 46.933594-46.933594 46.933594s-46.933594-21.011719-46.933594-46.933594v-102.398438c0-25.921875 21.011719-46.933594 46.933594-46.933594s46.933594 21.011719 46.933594 46.933594zm0 0"/><path d="m470.035156 101.050781c10.902344-11.914062 10.359375-30.332031-1.226562-41.585937-11.582032-11.25-30.011719-11.257813-41.601563-.011719-11.589843 11.242187-12.148437 29.660156-1.257812 41.582031-10.238281 7.101563-16.351563 18.773438-16.351563 31.234375-.003906 12.464844 6.101563 24.136719 16.34375 31.242188-10.882812 11.925781-10.320312 30.339843 1.269532 41.574219 11.589843 11.238281 30.011718 11.234374 41.59375-.011719 11.582031-11.246094 12.132812-29.660157 1.246093-41.578125 11.195313-7.828125 17.367188-21.03125 16.199219-34.644532-1.042969-11.203124-6.976562-21.375-16.214844-27.800781zm-20.136718 52.464844c-11.6875.964844-21.957032-7.683594-23.003907-19.359375-1.042969-11.679688 7.53125-22.011719 19.203125-23.136719.628906-.054687 1.253906-.085937 1.875-.085937h.054688c11.425781-.011719 20.828125 8.980468 21.332031 20.394531s-8.074219 21.195313-19.453125 22.191406zm-1.898438-85.25c7.070312 0 12.800781 5.730469 12.800781 12.800781 0 7.070313-5.730469 12.800782-12.800781 12.800782s-12.800781-5.730469-12.800781-12.800782c.007812-7.066406 5.734375-12.792968 12.800781-12.800781zm0 128c-7.070312.011719-12.808594-5.714844-12.816406-12.78125-.007813-7.070313 5.714844-12.808594 12.78125-12.816406h.054687c7.070313.003906 12.796875 5.738281 12.789063 12.808593-.003906 7.070313-5.738282 12.796876-12.808594 12.789063zm0 0"/><path d="m51.199219 256h111.703125c4.710937 0 8.53125-3.820312 8.53125-8.535156 0-4.710938-3.820313-8.53125-8.53125-8.53125h-111.703125c-18.839844-.019532-34.113281-15.292969-34.132813-34.132813v-17.066406h141.054688c4.714844 0 8.535156-3.820313 8.535156-8.535156 0-4.710938-3.820312-8.53125-8.535156-8.53125h-141.054688v-93.867188h324.265625v93.867188h-62.460937c-4.714844 0-8.535156 3.820312-8.535156 8.53125 0 4.714843 3.820312 8.535156 8.535156 8.535156h62.460937v17.066406c-.019531 18.839844-15.289062 34.113281-34.132812 34.132813h-17.152344c-4.710937 0-8.53125 3.820312-8.53125 8.53125 0 4.714844 3.820313 8.535156 8.53125 8.535156h17.152344c28.265625-.03125 51.167969-22.9375 51.199219-51.199219v-153.601562c-.03125-28.261719-22.933594-51.167969-51.199219-51.199219h-256c-28.261719.03125-51.167969 22.9375-51.199219 51.199219v153.601562c.03125 28.261719 22.9375 51.167969 51.199219 51.199219zm0-238.933594h256c18.84375.019532 34.113281 15.292969 34.132812 34.132813v8.535156h-324.265625v-8.535156c.019532-18.839844 15.292969-34.113281 34.132813-34.132813zm0 0"/><path d="m51.199219 42.667969c0 4.710937-3.820313 8.53125-8.53125 8.53125-4.714844 0-8.535157-3.820313-8.535157-8.53125 0-4.714844 3.820313-8.535157 8.535157-8.535157 4.710937 0 8.53125 3.820313 8.53125 8.535157zm0 0"/><path d="m324.265625 42.667969c0 4.710937-3.820313 8.53125-8.53125 8.53125-4.714844 0-8.535156-3.820313-8.535156-8.53125 0-4.714844 3.820312-8.535157 8.535156-8.535157 4.710937 0 8.53125 3.820313 8.53125 8.535157zm0 0"/><path d="m324.265625 213.332031c0 4.714844-3.820313 8.535157-8.53125 8.535157-4.714844 0-8.535156-3.820313-8.535156-8.535157 0-4.710937 3.820312-8.53125 8.535156-8.53125 4.710937 0 8.53125 3.820313 8.53125 8.53125zm0 0"/><path d="m51.199219 213.332031c0 4.714844-3.820313 8.535157-8.53125 8.535157-4.714844 0-8.535157-3.820313-8.535157-8.535157 0-4.710937 3.820313-8.53125 8.535157-8.53125 4.710937 0 8.53125 3.820313 8.53125 8.53125zm0 0"/><path d="m287.636719 393.886719 21 3.753906c2.261719.40625 4.554687.613281 6.851562.613281 15.117188.003906 28.804688-8.9375 34.867188-22.789062h28.511719c7.707031 17.375 26.996093 26.46875 45.304687 21.359375l20.523437-5.703125c5.375-1.449219 10.359376-4.082032 14.585938-7.707032 1.910156.34375 3.84375.539063 5.785156.585938 21.207032 0 38.398438-17.191406 38.398438-38.398438 0-21.210937-17.191406-38.402343-38.398438-38.402343-8.960937.039062-17.621094 3.242187-24.453125 9.046875-5.496093-.890625-11.121093-.578125-16.484375.910156l-20.546875 5.710938c-16.136719 4.371093-27.492187 18.816406-27.925781 35.53125h-21.917969c-.691406-18.019532-13.820312-33.140626-31.566406-36.351563l-21-3.761719c-10.386719-1.84375-21.070313.6875-29.527344 6.988282l-12.230469-12.910157c9.429688-9.726562 13.019532-23.714843 9.433594-36.78125l-5.707031-20.554687c-4.214844-15.085938-17.171875-26.101563-32.742187-27.835938v-18.03125c16.414062-5.175781 27.28125-20.765625 26.453124-37.957031l-.707031-17.601563h38.253907c7.929687.027344 15.542968-3.113281 21.140624-8.730468 5.171876-5.183594 8.269532-12.078125 8.714844-19.386719.414063-8.027344-2.523437-15.867187-8.117187-21.644531-6.011719-6.34375-14.359375-9.949219-23.101563-9.972656h-51.597656c-13.851562-11.375-33.808594-11.378907-47.664062-.007813l-97.488282-.265625c-16.613281-13.128906-40.71875-10.304688-53.851562 6.300781-8.308594 10.457031-10.585938 24.480469-6.007813 37.027344s15.347657 21.8125 28.4375 24.460937c2.503907.484376 5.046875.730469 7.597657.734376 8.777343-.027344 17.289062-3.027344 24.136718-8.515626h82.632813l.917969 20.832032c.839843 18.523437 14.808593 33.792968 33.183593 36.277344v18.578124c-18.953125 6.699219-29.511719 26.902344-24.191406 46.289063l5.707031 20.550781c2.71875 9.816406 9.230469 18.148438 18.097656 23.164063 8.867188 5.011719 19.359376 6.296875 29.175782 3.570312.960937-.265625 1.800781-.726562 2.722656-1.0625l15.695312 16.570313c-1.867187 3.425781-3.195312 7.121094-3.933593 10.953125-3.707031 20.871093 10.171875 40.800781 31.03125 44.5625zm16.105469-278.316407c2.335937 2.359376 3.59375 5.582032 3.476562 8.898438-.195312 3.144531-1.527344 6.105469-3.746094 8.335938-2.40625 2.402343-5.671875 3.746093-9.074218 3.730468h-38.617188c-.058594-3.742187-.109375-6.734375-.160156-9.070312.191406-1.238282.316406-2.480469.378906-3.730469-.042969-4.371094-.839844-8.703125-2.359375-12.800781h39.394531c4.050782.015625 7.921875 1.691406 10.707032 4.636718zm-71.378907-7.175781.144531.121094c2.878907 2.824219 4.894532 6.414063 5.8125 10.339844-.058593.570312-.054687 1.144531.011719 1.714843.074219.8125.152344 3.542969.222657 6.921876-1.828126 10.378906-10.992188 17.847656-21.527344 17.546874-10.535156-.296874-19.257813-8.273437-20.496094-18.742187.058594-2.210937.125-3.875.195312-4.476563.277344-1.035156.351563-2.113281.222657-3.179687.9375-3.84375 2.929687-7.351563 5.75-10.128906l.144531-.121094c8.21875-7.992187 21.300781-7.992187 29.519531 0zm-146.640625 32.074219c-4.972656 3.890625-11.398437 5.410156-17.585937 4.164062-7.992188-1.613281-14.339844-7.683593-16.308594-15.59375-1.636719-6.464843-.164063-13.320312 3.984375-18.542968 7.410156-8.972656 20.570312-10.527344 29.867188-3.527344 3.058593 2.507812 6.875 3.90625 10.832031 3.964844h85.046875c-1.519532 4.097656-2.316406 8.429687-2.359375 12.800781 0 1.039063.226562 2.015625.308593 3.035156-.109374 3.027344-.183593 6.421875-.230468 9.765625h-82.679688c-3.96875.042969-7.800781 1.429688-10.875 3.933594zm111.472656 33.246094-.792968-18.003906c12.960937 8.644531 29.863281 8.5625 42.738281-.210938l.65625 16.421875c.277344 5.636719-1.726563 11.152344-5.558594 15.300781-1.148437 1.222656-2.4375 2.308594-3.839843 3.234375v-2.722656c0-4.714844-3.820313-8.535156-8.53125-8.535156-4.714844 0-8.535157 3.820312-8.535157 8.535156v5.648437c-9.144531-2.253906-15.710937-10.257812-16.136719-19.667968zm14.09375 117.847656-5.707031-20.554688c-2.386719-8.511718.761719-17.609374 7.894531-22.832031.351563 4.550781 4.246094 8.003907 8.804688 7.8125 4.558594-.191406 8.148438-3.957031 8.117188-8.523437v-3.011719c7.847656 1.589844 14.140624 7.4375 16.300781 15.144531l5.703125 20.550782c1.925781 6.992187.167968 14.484374-4.671875 19.882812l-6.515625-6.875c-2.085938-2.253906-5.222656-3.210938-8.210938-2.507812-2.992187.699218-5.375 2.957031-6.238281 5.902343-.863281 2.949219-.078125 6.132813 2.058594 8.339844l2.066406 2.179687c-9.199219-.390624-17.105469-6.648437-19.605469-15.507812zm275.109376 54.039062c.046874 9.585938-6.3125 18.023438-15.539063 20.628907-9.226563 2.601562-19.058594-1.269531-24.03125-9.464844s-3.867187-18.703125 2.699219-25.6875l.066406-.074219c5.972656-6.382812 15.246094-8.464844 23.375-5.238281 8.128906 3.222656 13.457031 11.089844 13.429688 19.835937zm-78.269532-6.289062 20.535156-5.703125.113282-.015625c-5.191406 14.726562-.613282 31.128906 11.453125 41.042969l-.058594.027343-20.570313 5.714844c-7.101562 1.957032-14.707031.097656-20.105468-4.914062h2.992187c4.710938 0 8.53125-3.820313 8.53125-8.53125 0-4.714844-3.820312-8.535156-8.53125-8.535156h-9.789062c.480469-9.027344 6.703125-16.722657 15.429687-19.085938zm-128.105468 19.621094c2.089843 2.253906 5.226562 3.210937 8.214843 2.507812s5.371094-2.957031 6.234375-5.902344c.867188-2.949218.082032-6.132812-2.054687-8.339843l-8.914063-9.40625c3.289063-1.980469 7.054688-3.035157 10.894532-3.042969 1.265624.003906 2.523437.117188 3.769531.339844l21 3.765625c9.640625 1.683593 16.863281 9.773437 17.453125 19.542969h-10.222656c-4.710938 0-8.53125 3.820312-8.53125 8.535156 0 4.710937 3.820312 8.53125 8.53125 8.53125h3.414062c-.695312.679687-1.4375 1.3125-2.21875 1.890625-4.632812 3.25-10.378906 4.507812-15.949219 3.492187l-21-3.757812c-11.585937-2.089844-19.296875-13.167969-17.238281-24.757813.019531-.105469.0625-.195312.085938-.300781zm0 0"/></svg>