<svg height="512pt" viewBox="-128 0 512 512" width="512pt" xmlns="http://www.w3.org/2000/svg"><path d="m187.734375 0h-119.46875c-37.683594.0429688-68.2226562 30.582031-68.265625 68.265625v375.46875c.0429688 37.683594 30.582031 68.222656 68.265625 68.265625h119.46875c37.683594-.042969 68.222656-30.582031 68.265625-68.265625v-375.46875c-.042969-37.683594-30.582031-68.2226562-68.265625-68.265625zm51.199219 443.734375c-.03125 28.261719-22.9375 51.167969-51.199219 51.199219h-119.46875c-28.261719-.03125-51.167969-22.9375-51.199219-51.199219v-375.46875c.03125-28.261719 22.9375-51.167969 51.199219-51.199219h119.46875c28.261719.03125 51.167969 22.9375 51.199219 51.199219zm0 0"/><path d="m187.734375 34.132812h-119.46875c-18.839844.023438-34.109375 15.292969-34.132813 34.132813v375.46875c.023438 18.839844 15.292969 34.109375 34.132813 34.132813h119.46875c18.839844-.023438 34.109375-15.292969 34.132813-34.132813v-375.46875c-.023438-18.839844-15.292969-34.109375-34.132813-34.132813zm17.066406 409.601563c-.011719 9.421875-7.644531 17.054687-17.066406 17.066406h-119.46875c-9.421875-.011719-17.054687-7.644531-17.066406-17.066406v-375.46875c.011719-9.421875 7.644531-17.054687 17.066406-17.066406h119.46875c9.421875.011719 17.054687 7.644531 17.066406 17.066406zm0 0"/><path d="m85.332031 102.398438h25.601563c4.710937 0 8.53125-3.820313 8.53125-8.53125 0-4.714844-3.820313-8.535157-8.53125-8.535157h-25.601563c-4.710937 0-8.53125 3.820313-8.53125 8.535157 0 4.710937 3.820313 8.53125 8.53125 8.53125zm0 0"/><path d="m145.066406 102.398438h25.601563c4.710937 0 8.53125-3.820313 8.53125-8.53125 0-4.714844-3.820313-8.535157-8.53125-8.535157h-25.601563c-4.710937 0-8.53125 3.820313-8.53125 8.535157 0 4.710937 3.820313 8.53125 8.53125 8.53125zm0 0"/><path d="m85.332031 136.535156h25.601563c4.710937 0 8.53125-3.824218 8.53125-8.535156s-3.820313-8.535156-8.53125-8.535156h-25.601563c-4.710937 0-8.53125 3.824218-8.53125 8.535156s3.820313 8.535156 8.53125 8.535156zm0 0"/><path d="m145.066406 136.535156h25.601563c4.710937 0 8.53125-3.824218 8.53125-8.535156s-3.820313-8.535156-8.53125-8.535156h-25.601563c-4.710937 0-8.53125 3.824218-8.53125 8.535156s3.820313 8.535156 8.53125 8.535156zm0 0"/><path d="m85.332031 170.667969h25.601563c4.710937 0 8.53125-3.820313 8.53125-8.535157 0-4.710937-3.820313-8.53125-8.53125-8.53125h-25.601563c-4.710937 0-8.53125 3.820313-8.53125 8.53125 0 4.714844 3.820313 8.535157 8.53125 8.535157zm0 0"/><path d="m145.066406 170.667969h25.601563c4.710937 0 8.53125-3.820313 8.53125-8.535157 0-4.710937-3.820313-8.53125-8.53125-8.53125h-25.601563c-4.710937 0-8.53125 3.820313-8.53125 8.53125 0 4.714844 3.820313 8.535157 8.53125 8.535157zm0 0"/><path d="m85.332031 204.800781h25.601563c4.710937 0 8.53125-3.820312 8.53125-8.535156 0-4.710937-3.820313-8.53125-8.53125-8.53125h-25.601563c-4.710937 0-8.53125 3.820313-8.53125 8.53125 0 4.714844 3.820313 8.535156 8.53125 8.535156zm0 0"/><path d="m145.066406 204.800781h25.601563c4.710937 0 8.53125-3.820312 8.53125-8.535156 0-4.710937-3.820313-8.53125-8.53125-8.53125h-25.601563c-4.710937 0-8.53125 3.820313-8.53125 8.53125 0 4.714844 3.820313 8.535156 8.53125 8.535156zm0 0"/><path d="m85.332031 238.933594h25.601563c4.710937 0 8.53125-3.820313 8.53125-8.535156 0-4.710938-3.820313-8.53125-8.53125-8.53125h-25.601563c-4.710937 0-8.53125 3.820312-8.53125 8.53125 0 4.714843 3.820313 8.535156 8.53125 8.535156zm0 0"/><path d="m145.066406 238.933594h25.601563c4.710937 0 8.53125-3.820313 8.53125-8.535156 0-4.710938-3.820313-8.53125-8.53125-8.53125h-25.601563c-4.710937 0-8.53125 3.820312-8.53125 8.53125 0 4.714843 3.820313 8.535156 8.53125 8.535156zm0 0"/><path d="m85.332031 273.066406h25.601563c4.710937 0 8.53125-3.820312 8.53125-8.53125 0-4.714844-3.820313-8.535156-8.53125-8.535156h-25.601563c-4.710937 0-8.53125 3.820312-8.53125 8.535156 0 4.710938 3.820313 8.53125 8.53125 8.53125zm0 0"/><path d="m145.066406 273.066406h25.601563c4.710937 0 8.53125-3.820312 8.53125-8.53125 0-4.714844-3.820313-8.535156-8.53125-8.535156h-25.601563c-4.710937 0-8.53125 3.820312-8.53125 8.535156 0 4.710938 3.820313 8.53125 8.53125 8.53125zm0 0"/><path d="m128 298.667969c-37.703125 0-68.265625 30.5625-68.265625 68.265625s30.5625 68.265625 68.265625 68.265625 68.265625-30.5625 68.265625-68.265625c-.042969-37.683594-30.582031-68.222656-68.265625-68.265625zm0 119.464843c-28.277344 0-51.199219-22.921874-51.199219-51.199218s22.921875-51.199219 51.199219-51.199219 51.199219 22.921875 51.199219 51.199219c-.03125 28.265625-22.933594 51.167968-51.199219 51.199218zm0 0"/><path d="m128 332.800781c-11.804688 0-34.132812 8.914063-34.132812 42.664063 0 4.714844 3.820312 8.535156 8.53125 8.535156 4.714843 0 8.535156-3.820312 8.535156-8.535156 0-23.835938 14.25-25.507813 17.167968-25.597656 4.710938-.027344 8.507813-3.871094 8.480469-8.582032-.027343-4.714844-3.871093-8.511718-8.582031-8.484375zm0 0"/></svg>