<svg height="511pt" viewBox="0 -85 511.96829 511" width="511pt" xmlns="http://www.w3.org/2000/svg"><path d="m170.667969 341.816406h196.265625c15.519531-.046875 29.050781-10.566406 32.921875-25.597656h89.957031c6.789062.070312 12.953125-3.945312 15.628906-10.179688 8.699219-20.785156 8.703125-44.1875.003906-64.972656-2.679687-6.234375-8.84375-10.253906-15.632812-10.183594h-88.746094v-17.066406h88.746094c6.789062.070313 12.953125-3.941406 15.628906-10.179687 8.699219-20.78125 8.703125-44.183594.003906-64.96875-2.679687-6.238281-8.84375-10.253907-15.632812-10.183594h-88.746094v-17.066406h88.746094c6.789062.070312 12.953125-3.945313 15.628906-10.179688 8.699219-20.78125 8.703125-44.1875.003906-64.96875-2.679687-6.238281-8.84375-10.253906-15.632812-10.183593h-89.957031c-3.871094-15.03125-17.402344-25.554688-32.921875-25.601563h-196.265625c-94.257813 0-170.667969 76.410156-170.667969 170.667969 0 94.253906 76.410156 170.664062 170.667969 170.664062zm213.332031-59.722656-192.394531.175781c20.871093-33.222656 31.40625-71.898437 30.261719-111.117187 1.160156-39.15625-9.347657-77.769532-30.1875-110.933594h192.320312zm105.71875-34.40625c6.902344 16.453125 6.9375 34.984375.09375 51.464844h-88.746094v-51.222656zm0-102.398438c6.902344 16.453126 6.9375 34.984376.09375 51.460938h-88.746094v-51.222656zm.09375-50.9375h-88.746094v-51.222656l88.652344-.242187c6.902344 16.453125 6.9375 34.984375.09375 51.464843zm-319.144531-76.800781h196.265625c9.421875.007813 17.058594 7.644531 17.066406 17.066407v8.535156h-192.320312c-6.363282-.007813-12.199219 3.519531-15.152344 9.15625-2.925782 5.53125-2.539063 12.234375 1.011718 17.390625 18.917969 30.378906 28.402344 65.683593 27.261719 101.453125 1.140625 35.765625-8.34375 71.066406-27.257812 101.445312-3.550781 5.15625-3.941407 11.859375-1.015625 17.394532 2.953125 5.636718 8.789062 9.167968 15.152344 9.160156h192.320312v8.53125c-.007812 9.421875-7.644531 17.058594-17.066406 17.066406h-196.265625c-84.832031 0-153.601563-68.769531-153.601563-153.597656 0-84.832032 68.769532-153.601563 153.601563-153.601563zm0 0"/><path d="m119.464844 290.617188c38.28125 0 68.269531-52.472657 68.269531-119.464844 0-66.992188-29.988281-119.46875-68.269531-119.46875-38.277344 0-68.265625 52.476562-68.265625 119.46875 0 66.992187 29.988281 119.464844 68.265625 119.464844zm0-221.867188c27.753906 0 51.203125 46.890625 51.203125 102.402344 0 55.507812-23.449219 102.398437-51.203125 102.398437s-51.199219-46.890625-51.199219-102.398437c0-55.511719 23.445313-102.402344 51.199219-102.402344zm0 0"/><path d="m110.933594 213.816406h17.066406c9.421875-.007812 17.058594-7.644531 17.066406-17.066406l.066406-28.703125c6.804688-7.738281 9.742188-18.136719 7.992188-28.292969-3.007812-17.476562-18.890625-29.742187-36.558594-28.230468-17.667968 1.511718-31.238281 16.296874-31.234375 34.027343-.101562 8.199219 2.953125 16.125 8.535157 22.128907v29.070312c.007812 9.421875 7.644531 17.058594 17.066406 17.066406zm-2.410156-81.382812c3.058593-2.570313 6.933593-3.96875 10.925781-3.949219 1.117187 0 2.234375.101563 3.335937.304687 5.972656 1.171876 10.867188 5.441407 12.84375 11.195313 1.976563 5.757813.738282 12.132813-3.253906 16.730469-2.773438 2.992187-4.332031 6.914062-4.375 10.996094v29.039062h-17.066406v-29.070312c-.042969-4.066407-1.597656-7.972657-4.367188-10.953126-2.714844-3.085937-4.195312-7.066406-4.167968-11.175781-.007813-5.066406 2.238281-9.871093 6.125-13.117187zm0 0"/><path d="m238.933594 94.351562h17.066406c4.710938 0 8.535156-3.820312 8.535156-8.535156 0-4.710937-3.824218-8.53125-8.535156-8.53125h-17.066406c-4.714844 0-8.535156 3.820313-8.535156 8.53125 0 4.714844 3.820312 8.535156 8.535156 8.535156zm0 0"/><path d="m290.132812 94.351562h68.265626c4.714843 0 8.535156-3.820312 8.535156-8.535156 0-4.710937-3.820313-8.53125-8.535156-8.53125h-68.265626c-4.710937 0-8.53125 3.820313-8.53125 8.53125 0 4.714844 3.820313 8.535156 8.53125 8.535156zm0 0"/></svg>