<svg height="512pt" viewBox="0 0 512 512.10463" width="512pt" xmlns="http://www.w3.org/2000/svg"><path d="m110.984375 102.460938c18.851563 0 34.136719-15.28125 34.136719-34.132813s-15.285156-34.132813-34.136719-34.132813-34.132813 15.28125-34.132813 34.132813c.023438 18.84375 15.292969 34.113281 34.132813 34.132813zm0-51.199219c9.425781 0 17.066406 7.640625 17.066406 17.066406s-7.640625 17.066406-17.066406 17.066406-17.066406-7.640625-17.066406-17.066406c.011719-9.421875 7.644531-17.054687 17.066406-17.066406zm0 0"/><path d="m281.652344 34.195312c-18.851563 0-34.132813 15.28125-34.132813 34.132813s15.28125 34.132813 34.132813 34.132813c18.851562 0 34.132812-15.28125 34.132812-34.132813-.019531-18.839844-15.289062-34.109375-34.132812-34.132813zm0 51.199219c-9.425782 0-17.066406-7.640625-17.066406-17.066406s7.640624-17.066406 17.066406-17.066406c9.425781 0 17.066406 7.640625 17.066406 17.066406-.007812 9.421875-7.644531 17.058594-17.066406 17.066406zm0 0"/><path d="m110.984375 409.664062c-18.851563 0-34.132813 15.28125-34.132813 34.132813s15.28125 34.132813 34.132813 34.132813 34.136719-15.28125 34.136719-34.132813c-.023438-18.84375-15.292969-34.113281-34.136719-34.132813zm0 51.199219c-9.425781 0-17.066406-7.640625-17.066406-17.066406s7.640625-17.066406 17.066406-17.066406 17.066406 7.640625 17.066406 17.066406c-.007812 9.421875-7.644531 17.054687-17.066406 17.066406zm0 0"/><path d="m281.652344 477.929688c18.851562 0 34.132812-15.28125 34.132812-34.132813s-15.28125-34.132813-34.132812-34.132813c-18.851563 0-34.132813 15.28125-34.132813 34.132813.019531 18.839844 15.289063 34.113281 34.132813 34.132813zm0-51.199219c9.425781 0 17.066406 7.640625 17.066406 17.066406s-7.640625 17.066406-17.066406 17.066406c-9.425782 0-17.066406-7.640625-17.066406-17.066406.007812-9.421875 7.644531-17.058594 17.066406-17.066406zm0 0"/><path d="m.0507812 362.730469c.0039063 7.792969 3.0703128 15.277343 8.5351568 20.835937v69.871094c.09375 19.550781 13.378906 36.574219 32.320312 41.414062l84.683594 15.726563c3.636718.976563 7.386718 1.472656 11.15625 1.476563 23.5-.082032 42.507812-19.15625 42.507812-42.660157v-85.828125c8.820313-8.886718 11.042969-22.390625 5.535156-33.636718h28.597657v119.464843c.027343 23.503907 19.015625 42.578125 42.515625 42.710938 3.542968.003906 7.074218-.460938 10.496094-1.382813l85.988281-16.019531c18.660156-5.027344 31.636719-21.9375 31.664062-41.265625v-103.507812h34.136719c51.839844 0 93.863281-42.027344 93.863281-93.867188s-42.023437-93.867188-93.863281-93.867188h-34.136719v-99.496093c-.074219-18.652344-12.191406-35.117188-29.976562-40.738281l-84.554688-19.660157c-13-4.363281-27.308593-2.199219-38.4375 5.816407-11.128906 8.015624-17.714843 20.898437-17.695312 34.613281v119.464843h-28.597657c5.507813-11.246093 3.285157-24.746093-5.535156-33.636718v-85.828125c.078125-13.75-6.542968-26.679688-17.75-34.644531-10.828125-7.964844-24.835937-10.203126-37.605468-6.011719l-86.109376 20.105469c-17.4375 5.816406-29.199218 22.136718-29.203124 40.519531v65.863281c-11.378907 11.558594-11.378907 30.109375 0 41.671875v171.660156c-5.464844 5.558594-8.5312505 13.039063-8.5351568 20.835938zm170.6679688-213.335938c-.007812 7.066407-5.734375 12.792969-12.800781 12.800781h-128c-7.066407 0-12.796875-5.730468-12.796875-12.800781 0-7.066406 5.730468-12.796875 12.796875-12.796875h128c7.066406.007813 12.792969 5.734375 12.800781 12.796875zm-140.800781 29.867188h43.121093c-2.527343 6.675781-1.992187 14.125 1.464844 20.371093-24.121094 8.261719-40.324218 30.9375-40.324218 56.429688 0 25.496094 16.203124 48.167969 40.324218 56.429688-3.457031 6.246093-3.992187 13.695312-1.464844 20.371093h-43.121093c-1.429688.039063-2.855469.179688-4.265625.425781v-154.453124c1.410156.246093 2.835937.386718 4.265625.425781zm183.46875 34.132812v17.066407h-34.132813v-17.066407zm153.597656 0v85.335938h-136.53125v-17.066407h93.867187c14.109376-.066406 25.53125-11.488281 25.597657-25.601562-.015625-14.132812-11.464844-25.585938-25.597657-25.601562h-93.867187v-17.066407zm51.203125 0c23.5625 0 42.664062 19.105469 42.664062 42.667969s-19.101562 42.667969-42.664062 42.667969h-34.136719v-85.335938zm-238.933594 85.335938v-17.066407h34.132813v17.066407zm-43.605468 0c5.023437-4.929688 9.140624-10.707031 12.164062-17.066407h14.375v17.066407zm188.671874-51.199219c4.710938.003906 8.527344 3.820312 8.53125 8.53125.007813 2.296875-.9375 4.496094-2.609374 6.074219-1.554688 1.59375-3.695313 2.480469-5.921876 2.460937h-171.351562c.910156-5.652344.910156-11.414062 0-17.066406zm-230.402343-34.136719c23.566406 0 42.667969 19.105469 42.667969 42.667969s-19.101563 42.667969-42.667969 42.667969c-23.5625 0-42.664063-19.105469-42.664063-42.667969.027344-23.550781 19.113282-42.636719 42.664063-42.667969zm68.269531 17.066407h-14.378906c-3.019532-6.355469-7.136719-12.132813-12.160156-17.066407h26.539062zm8.53125 132.269531c-.007812 7.066406-5.734375 12.789062-12.800781 12.800781h-128c-7.066407 0-12.796875-5.734375-12.796875-12.800781 0-7.070313 5.730468-12.800781 12.796875-12.800781h128c7.066406.007812 12.792969 5.734374 12.800781 12.800781zm-18.523438 126.957031c-6.515624 4.941406-14.980468 6.519531-22.839843 4.257812l-84.671875-15.722656c-11.210938-3.019531-19.011719-13.175781-19.03125-24.785156v-61.269531c1.410156.246093 2.835937.390625 4.265625.429687h128c1.433593-.039062 2.859375-.183594 4.269531-.429687v77.226562c.03125 7.957031-3.667969 15.46875-9.992188 20.292969zm214.789063-36.25c.039063 11.386719-7.449219 21.425781-18.367187 24.640625l-85.984376 16.011719c-7.679687 2.066406-15.878906.4375-22.1875-4.402344-6.308593-4.839844-10-12.339844-9.992187-20.292969v-119.464843h136.53125zm128-197.375c-.046875 42.394531-34.402344 76.753906-76.796875 76.800781h-321.121094c-4.714844 0-8.535156-3.820312-8.535156-8.535156 0-4.710937 3.820312-8.53125 8.535156-8.53125h321.121094c32.988281 0 59.730469-26.746094 59.730469-59.734375s-26.742188-59.734375-59.730469-59.734375h-321.121094c-4.714844 0-8.535156-3.820313-8.535156-8.53125 0-4.714844 3.820312-8.535156 8.535156-8.535156h321.121094c42.394531.046875 76.75 34.40625 76.796875 76.800781zm-264.53125-213.332031c-.050781-8.253907 3.921875-16.011719 10.644531-20.796875 6.902344-4.9375 15.796875-6.148438 23.765625-3.234375l84.558594 19.664062c10.480469 3.488281 17.554687 13.289063 17.5625 24.335938v99.496093h-136.53125zm-188.011719-4.148438 86.109375-20.105469c7.796875-2.617187 16.375-1.3125 23.042969 3.496094s10.609375 12.535156 10.59375 20.757813v77.230469c-1.410156-.246094-2.835938-.386719-4.269531-.425782h-128c-1.429688.039063-2.855469.179688-4.265625.425782v-57.261719c-.058594-10.777344 6.660156-20.429688 16.789062-24.117188zm0 0"/><path d="m76.851562 264.597656c4.714844 0 8.535157-3.820312 8.535157-8.535156-.222657-2.339844.617187-4.65625 2.285156-6.308594 1.671875-1.652344 3.996094-2.46875 6.332031-2.222656 4.714844-.023438 8.515625-3.863281 8.492188-8.578125-.023438-4.710937-3.863282-8.515625-8.578125-8.492187-6.847657-.199219-13.476563 2.433593-18.324219 7.277343-4.84375 4.847657-7.476562 11.476563-7.273438 18.324219 0 4.714844 3.820313 8.535156 8.53125 8.535156zm0 0"/></svg>