<svg height="512pt" viewBox="0 -85 512.00304 512" width="512pt" xmlns="http://www.w3.org/2000/svg"><path d="m290.136719 273.066406h85.332031c28.828125-.042968 56.308594-12.210937 75.71875-33.523437 19.558594-21.304688 29.09375-49.945313 26.214844-78.726563-6.171875-53.035156-51.289063-92.921875-104.683594-92.546875h-82.582031c-14.132813.015625-25.585938 11.464844-25.601563 25.597657v153.601562c.015625 14.132812 11.46875 25.582031 25.601563 25.597656zm-8.535157-179.199218c.007813-4.710938 3.824219-8.527344 8.535157-8.53125h82.582031c44.617188-.4375 82.40625 32.78125 87.699219 77.082031 2.398437 23.992187-5.546875 47.867187-21.847657 65.632812-16.175781 17.765625-39.074218 27.90625-63.101562 27.949219h-85.332031c-4.710938-.003906-8.527344-3.820312-8.535157-8.53125zm0 0"/><path d="m145.070312 256v34.136719c.007813 9.417969 7.644532 17.054687 17.066407 17.066406h213.332031c75.363281-.105469 136.429688-61.171875 136.535156-136.535156-.085937-75.371094-61.164062-136.445313-136.535156-136.53125h-213.332031c-9.421875.007812-17.058594 7.644531-17.066407 17.066406v34.132813c.019532 6.070312 3.269532 11.667968 8.53125 14.691406v38.878906c-5.261718 3.027344-8.511718 8.625-8.53125 14.695312v34.132813c.019532 6.070313 3.269532 11.667969 8.53125 14.695313v38.878906c-5.261718 3.023437-8.511718 8.625-8.53125 14.691406zm17.066407-204.796875h213.332031c65.949219.074219 119.394531 53.515625 119.46875 119.464844-.109375 65.933593-53.53125 119.359375-119.46875 119.46875h-213.332031v-34.136719h76.800781c4.710938 0 8.53125-3.820312 8.53125-8.53125v-51.199219c0-4.714843-3.820312-8.535156-8.53125-8.535156h-76.800781v-34.132813h76.800781c4.710938 0 8.53125-3.820312 8.53125-8.535156v-51.199218c0-4.710938-3.820312-8.53125-8.53125-8.53125h-76.800781zm8.53125 153.597656h25.601562v34.132813h-25.601562zm59.734375 0v34.132813h-17.066406v-34.132813zm-59.734375-102.398437h25.601562v34.132812h-25.601562zm59.734375 0v34.132812h-17.066406v-34.132812zm0 0"/><path d="m365.066406 206.671875c4.875 4.71875 11.457032 7.253906 18.238282 7.019531 3.714843-.03125 7.40625-.570312 10.976562-1.59375 11.433594-3.539062 21.78125-9.914062 30.089844-18.523437 20.300781-20.304688 26.046875-46.355469 13.097656-59.308594-7.984375-7.074219-19.222656-9.160156-29.214844-5.421875-22.996094 7.578125-41.03125 25.617188-48.613281 48.609375-3.742187 9.992187-1.65625 21.234375 5.425781 29.21875zm11.019532-24.65625c2.777343-8.578125 7.636718-16.335937 14.144531-22.578125 7.457031-8.421875 17.769531-13.785156 28.949219-15.050781 2.246093-.179688 4.476562.515625 6.222656 1.945312 4.5 4.5 1.632812 20.4375-13.097656 35.171875-6.242188 6.507813-14.003907 11.371094-22.585938 14.148438-4.109375 1.761718-8.824219 1.371094-12.585938-1.046875-2.417968-3.761719-2.8125-8.480469-1.046874-12.589844zm0 0"/><path d="m.00390625 221.867188c.01953125 7.242187 3.12109375 14.132812 8.53124975 18.945312v74.921875c.015625 14.132813 11.46875 25.585937 25.601563 25.601563h59.734375c14.128906-.015626 25.582031-11.46875 25.597656-25.601563v-74.921875c5.429688-4.800781 8.539062-11.699219 8.539062-18.945312 0-7.246094-3.109374-14.144532-8.539062-18.941407v-64.511719c5.429688-4.800781 8.539062-11.699218 8.539062-18.945312s-3.109374-14.144531-8.539062-18.945312v-74.921876c-.015625-14.132812-11.46875-25.585937-25.597656-25.601562h-59.734375c-14.132813.015625-25.585938 11.46875-25.601563 25.601562v74.921876c-5.425781 4.800781-8.535156 11.699218-8.535156 18.945312s3.109375 14.144531 8.535156 18.945312v64.511719c-5.410156 4.8125-8.5117185 11.699219-8.53124975 18.941407zm110.93359375 0c-.007812 4.710937-3.824219 8.527343-8.535156 8.535156h-76.800782c-4.710937 0-8.53125-3.820313-8.53125-8.535156 0-4.710938 3.820313-8.53125 8.53125-8.53125h76.800782c4.710937.003906 8.527344 3.820312 8.535156 8.53125zm-8.535156 93.867187c-.003906 4.710937-3.824219 8.527344-8.53125 8.535156h-59.734375c-4.710938-.007812-8.527344-3.824219-8.535157-8.535156v-68.265625h76.800782zm-85.332032-196.265625c.003907-4.710938 3.824219-8.527344 8.53125-8.535156h76.800782c4.714844 0 8.535156 3.820312 8.535156 8.535156 0 4.710938-3.820312 8.53125-8.535156 8.53125h-76.800782c-4.707031-.003906-8.527343-3.820312-8.53125-8.53125zm8.53125-93.867188c.007813-4.710937 3.824219-8.527343 8.535157-8.535156h59.734375c4.707031.007813 8.527344 3.824219 8.53125 8.535156v68.265626h-76.800782zm0 119.464844h76.800782v51.203125h-76.800782zm0 0"/><path d="m64.003906 25.601562c-16.496094 0-29.867187 13.371094-29.867187 29.867188s13.371093 29.867188 29.867187 29.867188c16.492188 0 29.867188-13.371094 29.867188-29.867188-.019532-16.488281-13.382813-29.847656-29.867188-29.867188zm0 42.667969c-7.070312 0-12.800781-5.730469-12.800781-12.800781s5.730469-12.800781 12.800781-12.800781c7.070313 0 12.800782 5.730469 12.800782 12.800781-.007813 7.066406-5.734376 12.792969-12.800782 12.800781zm0 0"/><path d="m64.003906 315.734375c16.492188 0 29.867188-13.371094 29.867188-29.867187 0-16.492188-13.375-29.867188-29.867188-29.867188-16.496094 0-29.867187 13.375-29.867187 29.867188.019531 16.488281 13.378906 29.847656 29.867187 29.867187zm0-42.667969c7.070313 0 12.800782 5.734375 12.800782 12.800782 0 7.070312-5.730469 12.800781-12.800782 12.800781-7.070312 0-12.800781-5.730469-12.800781-12.800781.007813-7.066407 5.734375-12.789063 12.800781-12.800782zm0 0"/><path d="m315.738281 110.933594c0 4.714844-3.824219 8.535156-8.535156 8.535156-4.714844 0-8.535156-3.820312-8.535156-8.535156 0-4.710938 3.820312-8.53125 8.535156-8.53125 4.710937 0 8.535156 3.820312 8.535156 8.53125zm0 0"/><path d="m315.738281 230.402344c0 4.710937-3.824219 8.53125-8.535156 8.53125-4.714844 0-8.535156-3.820313-8.535156-8.53125 0-4.714844 3.820312-8.535156 8.535156-8.535156 4.710937 0 8.535156 3.820312 8.535156 8.535156zm0 0"/><path d="m366.9375 230.402344c0 4.710937-3.820312 8.53125-8.535156 8.53125-4.710938 0-8.53125-3.820313-8.53125-8.53125 0-4.714844 3.820312-8.535156 8.53125-8.535156 4.714844 0 8.535156 3.820312 8.535156 8.535156zm0 0"/><path d="m366.9375 110.933594c0 4.714844-3.820312 8.535156-8.535156 8.535156-4.710938 0-8.53125-3.820312-8.53125-8.535156 0-4.710938 3.820312-8.53125 8.53125-8.53125 4.714844 0 8.535156 3.820312 8.535156 8.53125zm0 0"/></svg>