<svg height="511pt" viewBox="0 -85 511.68661 511" width="511pt" xmlns="http://www.w3.org/2000/svg"><path d="m153.285156 68.609375c-61.265625 0-110.933594 49.667969-110.933594 110.933594s49.667969 110.933593 110.933594 110.933593c61.269532 0 110.933594-49.667968 110.933594-110.933593-.066406-61.238281-49.695312-110.863281-110.933594-110.933594zm0 204.800781c-51.839844 0-93.863281-42.027344-93.863281-93.867187 0-51.839844 42.023437-93.867188 93.863281-93.867188 51.84375 0 93.867188 42.027344 93.867188 93.867188-.058594 51.816406-42.050782 93.808593-93.867188 93.867187zm0 0"/><path d="m153.285156 153.941406c-28.277344 0-51.199218 22.925782-51.199218 51.203125 0 28.277344 22.921874 51.199219 51.199218 51.199219s51.203125-22.921875 51.203125-51.199219c-.03125-28.265625-22.9375-51.171875-51.203125-51.203125zm8.535156 84.125v-41.457031c0-4.710937-3.820312-8.53125-8.535156-8.53125-4.710937 0-8.53125 3.820313-8.53125 8.53125v41.457031c-16.644531-4.296875-27.496094-20.300781-25.328125-37.351562 2.164063-17.050782 16.671875-29.832032 33.859375-29.832032 17.191406 0 31.695313 12.78125 33.863282 29.832032 2.164062 17.050781-8.6875 33.054687-25.328126 37.351562zm0 0"/><path d="m486.085938 111.277344h-34.132813v-34.132813h17.066406v8.53125c0 4.714844 3.820313 8.535157 8.535157 8.535157 4.710937 0 8.53125-3.820313 8.53125-8.535157v-68.265625c0-4.714844-3.820313-8.535156-8.53125-8.535156-4.714844 0-8.535157 3.820312-8.535157 8.535156v8.53125h-17.066406v-8.53125c-.011719-9.421875-7.644531-17.054687-17.066406-17.066406h-17.066407c-9.421874.011719-17.054687 7.644531-17.066406 17.066406v8.53125h-22.066406c-4.523438.015625-8.859375 1.8125-12.066406 5l-8.535156 8.535156c-6.65625 6.667969-6.65625 17.46875 0 24.132813l8.535156 8.535156c3.207031 3.191407 7.542968 4.988281 12.066406 5h22.066406v25.597657h-114.648437c-35.730469-61.574219-109.125-90.480469-177.246094-69.804688s-113.070313 85.496094-108.546875 156.542969 57.328125 129.648437 127.523438 141.515625c70.191406 11.871094 139.328124-26.109375 166.960937-91.71875h105.957031v25.597656h-22.066406c-4.523438.015625-8.859375 1.808594-12.066406 5l-8.535156 8.535156c-6.65625 6.667969-6.65625 17.464844 0 24.132813l8.535156 8.535156c3.207031 3.191406 7.542968 4.984375 12.066406 5h22.066406v8.53125c.011719 9.421875 7.644532 17.054687 17.066406 17.066406h17.066407c9.421875-.011719 17.054687-7.644531 17.066406-17.066406v-8.53125h17.066406v8.53125c0 4.714844 3.820313 8.535156 8.535157 8.535156 4.710937 0 8.53125-3.820312 8.53125-8.535156v-68.265625c0-4.714844-3.820313-8.535156-8.53125-8.535156-4.714844 0-8.535157 3.820312-8.535157 8.535156v8.53125h-17.066406v-34.132812h34.132813c14.132812-.015626 25.585937-11.46875 25.601562-25.597657v-68.269531c-.015625-14.128906-11.46875-25.582031-25.601562-25.597656zm-17.066407-68.265625v17.066406h-17.066406v-17.066406zm-90.332031 17.066406-8.535156-8.535156 8.535156-8.53125h22.066406v17.066406zm-225.402344 256c-75.402344 0-136.53125-61.128906-136.53125-136.535156s61.128906-136.53125 136.53125-136.53125c75.40625 0 136.535156 61.125 136.535156 136.53125-.085937 75.371093-61.164062 136.449219-136.535156 136.535156zm147.445313-93.867187c9.90625-33.796876 7.808593-69.976563-5.933594-102.402344h105.957031v102.402344zm77.957031 76.800781-8.535156-8.535157 8.535156-8.535156h22.066406v17.070313zm56.199219 25.597656h-17.066407v-307.199219h17.066407zm34.132812-42.667969v17.070313h-17.066406v-17.070313zm25.601563-76.796875c-.003906 4.710938-3.824219 8.527344-8.535156 8.53125h-34.132813v-85.332031h34.132813c4.710937.003906 8.53125 3.820312 8.535156 8.53125zm0 0"/><path d="m137.925781 119.640625c4.546875-1.003906 7.453125-5.464844 6.527344-10.027344-.921875-4.5625-5.332031-7.542969-9.910156-6.699219-31.234375 8.128907-54.257813 34.628907-57.941407 66.695313-.539062 3.023437.589844 6.101563 2.953126 8.0625 2.363281 1.960937 5.597656 2.503906 8.46875 1.414063 2.871093-1.085938 4.9375-3.632813 5.410156-6.667969 2.617187-25.046875 20.25-45.964844 44.492187-52.777344zm0 0"/></svg>