<svg height="512pt" viewBox="0 -73 512 512" width="512pt" xmlns="http://www.w3.org/2000/svg"><path d="m494.933594 76.800781h-59.734375v-42.667969c-.019531-18.84375-15.289063-34.1132808-34.132813-34.132812h-298.667968c-18.839844.0195312-34.113282 15.289062-34.132813 34.132812v85.332032h-42.664063c-14.132812.015625-25.585937 11.46875-25.601562 25.601562v76.800782c.015625 14.132812 11.46875 25.582031 25.601562 25.597656h42.664063v85.335937c.019531 18.84375 15.292969 34.113281 34.132813 34.132813h298.667968c18.84375-.019532 34.113282-15.289063 34.132813-34.132813v-8.535156h34.132812c9.421875-.011719 17.058594-7.644531 17.066407-17.066406v-17.066407c-.007813-9.421874-7.644532-17.054687-17.066407-17.066406h-34.132812v-17.066406h59.734375c9.421875-.011719 17.054687-7.644531 17.066406-17.066406v-145.066406c-.011719-9.421876-7.644531-17.054688-17.066406-17.066407zm-392.535156-59.734375h298.667968c9.421875.011719 17.054688 7.644532 17.066406 17.066406v17.066407h-332.800781v-17.066407c.011719-9.421874 7.648438-17.054687 17.066407-17.066406zm-85.332032 204.800782v-76.800782c.003906-4.710937 3.824219-8.527344 8.535156-8.53125h71.222657c48.71875.011719 97.367187 3.730469 145.523437 11.128906 17.671875 2.71875 30.714844 17.921876 30.714844 35.800782 0 17.882812-13.042969 33.085937-30.714844 35.804687-48.15625 7.398438-96.804687 11.117188-145.523437 11.128907h-71.222657c-4.710937-.003907-8.53125-3.820313-8.535156-8.53125zm79.757813 25.597656c49.59375-.011719 99.109375-3.796875 148.125-11.328125 25.996093-4 45.183593-26.367188 45.183593-52.671875 0-26.300782-19.1875-48.667969-45.183593-52.667969-49.015625-7.53125-98.53125-11.316406-148.125-11.332031h-11.492188v-51.199219h332.800781v230.402344h-332.800781v-51.203125zm321.308593 85.335937c-.011718 9.421875-7.644531 17.054688-17.066406 17.066407h-298.667968c-9.417969-.011719-17.054688-7.644532-17.066407-17.066407v-17.066406h332.800781zm51.199219-42.667969.011719 17.066407h-34.144531v-17.066407zm-34.132812-51.199218v-145.066406h59.734375l.007812 145.066406zm0 0"/><path d="m354.132812 230.398438c25.921876 0 46.933594-21.011719 46.933594-46.933594 0-25.917969-21.011718-46.929688-46.933594-46.929688-25.921874 0-46.933593 21.011719-46.933593 46.929688.03125 25.910156 21.027343 46.902344 46.933593 46.933594zm0-76.796876c16.496094 0 29.867188 13.371094 29.867188 29.863282 0 16.496094-13.371094 29.867187-29.867188 29.867187-16.496093 0-29.867187-13.371093-29.867187-29.867187.019531-16.484375 13.382813-29.84375 29.867187-29.863282zm0 0"/><path d="m51.199219 153.601562h-8.53125c-4.714844 0-8.535157 3.820313-8.535157 8.53125 0 4.714844 3.820313 8.535157 8.535157 8.535157h8.53125c4.714843 0 8.535156-3.820313 8.535156-8.535157 0-4.710937-3.820313-8.53125-8.535156-8.53125zm0 0"/><path d="m85.332031 170.667969h68.269531c4.710938 0 8.53125-3.820313 8.53125-8.535157 0-4.710937-3.820312-8.53125-8.53125-8.53125h-68.269531c-4.710937 0-8.53125 3.820313-8.53125 8.53125 0 4.714844 3.820313 8.535157 8.53125 8.535157zm0 0"/><path d="m264.535156 281.601562h8.53125c4.714844 0 8.535156-3.820312 8.535156-8.535156 0-4.710937-3.820312-8.53125-8.535156-8.53125h-8.53125c-4.714844 0-8.535156 3.820313-8.535156 8.53125 0 4.714844 3.820312 8.535156 8.535156 8.535156zm0 0"/><path d="m307.199219 281.601562h85.335937c4.710938 0 8.53125-3.820312 8.53125-8.535156 0-4.710937-3.820312-8.53125-8.53125-8.53125h-85.335937c-4.710938 0-8.53125 3.820313-8.53125 8.53125 0 4.714844 3.820312 8.535156 8.53125 8.535156zm0 0"/><path d="m119.464844 85.332031h-8.53125c-4.714844 0-8.535156 3.820313-8.535156 8.535157 0 4.710937 3.820312 8.53125 8.535156 8.53125h8.53125c4.714844 0 8.535156-3.820313 8.535156-8.53125 0-4.714844-3.820312-8.535157-8.535156-8.535157zm0 0"/><path d="m238.933594 85.332031h-85.332032c-4.714843 0-8.535156 3.820313-8.535156 8.535157 0 4.710937 3.820313 8.53125 8.535156 8.53125h85.332032c4.710937 0 8.53125-3.820313 8.53125-8.53125 0-4.714844-3.820313-8.535157-8.53125-8.535157zm0 0"/></svg>