<svg height="512pt" viewBox="0 -111 512 512" width="512pt" xmlns="http://www.w3.org/2000/svg"><path d="m25.601562 281.601562h221.863282c0 4.710938 3.824218 8.53125 8.535156 8.53125s8.535156-3.820312 8.535156-8.53125v-76.800781h42.664063c4.714843 0 8.535156-3.820312 8.535156-8.535156v-102.398437c0-4.714844-3.820313-8.535157-8.535156-8.535157h-42.664063v-76.796875c0-4.714844-3.824218-8.535156-8.535156-8.535156s-8.535156 3.820312-8.535156 8.535156h-221.863282c-14.132812.015625-25.585937 11.464844-25.601562 25.597656v221.867188c.015625 14.132812 11.46875 25.585938 25.601562 25.601562zm221.863282-187.734374v128h-187.730469c-4.710937-.003907-8.53125-3.824219-8.535156-8.535157v-136.53125c.003906-4.710937 3.824219-8.53125 8.535156-8.535156h187.730469zm51.203125 8.53125v85.335937h-34.132813v-85.335937zm-281.601563-68.265626c.003906-4.710937 3.824219-8.527343 8.535156-8.53125h221.863282v25.597657h-187.730469c-14.132813.015625-25.585937 11.46875-25.601563 25.601562v136.53125c.015626 14.132813 11.46875 25.585938 25.601563 25.601563h187.730469v25.601562h-221.863282c-4.710937-.007812-8.53125-3.824218-8.535156-8.535156zm0 0"/><path d="m486.398438 8.535156h-128c0-4.714844-3.820313-8.535156-8.53125-8.535156-4.714844 0-8.535157 3.820312-8.535157 8.535156v273.066406c0 4.710938 3.820313 8.53125 8.535157 8.53125 4.710937 0 8.53125-3.820312 8.53125-8.53125h128c14.132812-.015624 25.585937-11.46875 25.601562-25.601562v-221.867188c-.015625-14.132812-11.46875-25.582031-25.601562-25.597656zm-128 59.730469h93.867187c4.710937.003906 8.53125 3.824219 8.535156 8.535156v136.53125c-.003906 4.710938-3.824219 8.53125-8.535156 8.535157h-93.867187zm136.535156 187.734375c-.003906 4.710938-3.824219 8.527344-8.535156 8.535156h-128v-25.601562h93.867187c14.132813-.015625 25.585937-11.46875 25.601563-25.601563v-136.53125c-.015626-14.132812-11.46875-25.585937-25.601563-25.601562h-93.867187v-25.597657h128c4.710937.003907 8.53125 3.820313 8.535156 8.53125zm0 0"/><path d="m115.199219 213.332031c26.316406 0 46.933593-29.988281 46.933593-68.265625s-20.617187-68.265625-46.933593-68.265625c-26.316407 0-46.933594 29.988281-46.933594 68.265625s20.617187 68.265625 46.933594 68.265625zm0-119.464843c16.191406 0 29.867187 23.445312 29.867187 51.199218s-13.675781 51.199219-29.867187 51.199219c-16.191407 0-29.867188-23.445313-29.867188-51.199219s13.675781-51.199218 29.867188-51.199218zm0 0"/><path d="m204.800781 170.667969c14.136719 0 25.597657-11.460938 25.597657-25.601563 0-14.136718-11.460938-25.601562-25.597657-25.601562-14.140625 0-25.601562 11.464844-25.601562 25.601562.015625 14.132813 11.46875 25.585938 25.601562 25.601563zm0-34.132813c4.710938 0 8.53125 3.820313 8.53125 8.53125 0 4.714844-3.820312 8.535156-8.53125 8.535156-4.714843 0-8.535156-3.820312-8.535156-8.535156.003906-4.710937 3.824219-8.527344 8.535156-8.53125zm0 0"/><path d="m384 85.332031c-4.710938 0-8.535156 3.820313-8.535156 8.535157v8.53125c0 4.714843 3.824218 8.535156 8.535156 8.535156s8.535156-3.820313 8.535156-8.535156v-8.53125c0-4.714844-3.824218-8.535157-8.535156-8.535157zm0 0"/><path d="m384 128c-4.710938 0-8.535156 3.820312-8.535156 8.535156v59.730469c0 4.714844 3.824218 8.535156 8.535156 8.535156s8.535156-3.820312 8.535156-8.535156v-59.730469c0-4.714844-3.824218-8.535156-8.535156-8.535156zm0 0"/></svg>