<svg height="512pt" viewBox="-68 0 512 512.01352" width="512pt" xmlns="http://www.w3.org/2000/svg"><path d="m31.605469 504.480469c4.800781 4.835937 11.335937 7.546875 18.152343 7.53125h258.898438c6.816406.015625 13.351562-2.695313 18.152344-7.53125l24.0625-24.0625c4.835937-4.804688 7.550781-11.339844 7.535156-18.152344v-9.984375c9.421875-.011719 17.054688-7.648438 17.066406-17.066406v-25.601563c-.011718-9.421875-7.644531-17.054687-17.066406-17.066406v-17.066406c9.421875-.011719 17.054688-7.644531 17.066406-17.066407v-25.601562c-.011718-9.421875-7.644531-17.054688-17.066406-17.066406v-17.066406c9.421875-.011719 17.054688-7.644532 17.066406-17.066407v-25.601562c-.011718-9.417969-7.644531-17.054688-17.066406-17.066407v-9.984374c.015625-6.8125-2.699219-13.347657-7.53125-18.148438l-24.066406-24.0625c-.800782-.75-1.644532-1.445312-2.535156-2.085938v-43.851562c-1.285157-78.894531-66.167969-141.871094-145.066407-140.8007812-78.898437-1.0703128-143.78125 61.9062502-145.066406 140.8007812v43.851562c-.886719.640626-1.734375 1.335938-2.535156 2.082032l-24.0625 24.066406c-4.835938 4.800781-7.5507815 11.335938-7.5351565 18.148438v233.304687c-.015625 6.8125 2.6992185 13.347656 7.5312495 18.148437zm267.066406-69.265625v-25.601563h25.601563v25.601563zm-34.132813 0v-25.601563h17.066407v25.601563zm93.875 0h-17.074218v-25.601563h17.066406zm-59.742187-76.800782v-25.601562h25.601563v25.601562zm-34.132813 0v-25.601562h17.066407v25.601562zm93.875 0h-17.074218v-25.601562h17.066406zm-59.742187-76.800781v-25.601562h25.601563v25.601562zm-34.132813 0v-25.601562h17.066407v25.601562zm93.875 0h-17.074218v-25.601562h17.066406zm-179.207031-264.53125c69.476563-1.082031 126.722657 54.257813 128 123.730469v38.402344h-25.601562v-38.402344c-1.261719-55.335938-47.058594-99.222656-102.398438-98.132812-55.34375-1.089844-101.136719 42.796874-102.398437 98.132812v38.402344h-25.601563v-38.402344c1.273438-69.472656 58.523438-124.8125 128-123.730469zm-85.332031 162.132813v-38.402344c1.257812-45.914062 39.414062-82.160156 85.332031-81.066406 45.917969-1.09375 84.074219 35.152344 85.332031 81.066406v38.402344zm-76.800781 49.746094c-.003907-2.28125.910156-4.472657 2.53125-6.082032l24.066406-24.0625c1.605469-1.625 3.796875-2.539062 6.085937-2.535156h258.898438c2.285156-.003906 4.476562.910156 6.085938 2.53125l24.0625 24.066406c1.625 1.605469 2.535156 3.796875 2.535156 6.082032v9.984374h-76.800782c-9.421874.011719-17.054687 7.648438-17.066406 17.066407v25.601562c.011719 9.421875 7.644532 17.054688 17.066406 17.066407h76.800782v17.066406h-76.800782c-9.421874.011718-17.054687 7.644531-17.066406 17.066406v25.601562c.011719 9.421876 7.644532 17.054688 17.066406 17.066407h76.800782v17.066406h-76.800782c-9.421874.011719-17.054687 7.644531-17.066406 17.066406v25.601563c.011719 9.417968 7.644532 17.054687 17.066406 17.066406h76.800782v9.984375c0 2.285156-.910156 4.472656-2.535156 6.082031l-24.0625 24.0625c-1.609376 1.625-3.800782 2.539063-6.085938 2.535156h-258.898438c-2.285156.003907-4.476562-.910156-6.085937-2.53125l-24.0625-24.066406c-1.625-1.605468-2.539063-3.796875-2.535156-6.082031zm0 0"/><path d="m76.808594 247.480469c0 4.710937-3.824219 8.53125-8.535156 8.53125-4.710938 0-8.535157-3.820313-8.535157-8.53125 0-4.714844 3.824219-8.535157 8.535157-8.535157 4.710937 0 8.535156 3.820313 8.535156 8.535157zm0 0"/><path d="m110.941406 247.480469c0 4.710937-3.820312 8.53125-8.535156 8.53125-4.710938 0-8.53125-3.820313-8.53125-8.53125 0-4.714844 3.820312-8.535157 8.53125-8.535157 4.714844 0 8.535156 3.820313 8.535156 8.535157zm0 0"/><path d="m145.074219 247.480469c0 4.710937-3.820313 8.53125-8.535157 8.53125-4.710937 0-8.53125-3.820313-8.53125-8.53125 0-4.714844 3.820313-8.535157 8.53125-8.535157 4.714844 0 8.535157 3.820313 8.535157 8.535157zm0 0"/><path d="m179.207031 247.480469c0 4.710937-3.820312 8.53125-8.535156 8.53125-4.710937 0-8.53125-3.820313-8.53125-8.53125 0-4.714844 3.820313-8.535157 8.53125-8.535157 4.714844 0 8.535156 3.820313 8.535156 8.535157zm0 0"/><path d="m213.339844 247.480469c0 4.710937-3.820313 8.53125-8.53125 8.53125-4.714844 0-8.535156-3.820313-8.535156-8.53125 0-4.714844 3.820312-8.535157 8.535156-8.535157 4.710937 0 8.53125 3.820313 8.53125 8.535157zm0 0"/><path d="m76.808594 281.613281c0 4.714844-3.824219 8.535157-8.535156 8.535157-4.710938 0-8.535157-3.820313-8.535157-8.535157 0-4.710937 3.824219-8.53125 8.535157-8.53125 4.710937 0 8.535156 3.820313 8.535156 8.53125zm0 0"/><path d="m110.941406 281.613281c0 4.714844-3.820312 8.535157-8.535156 8.535157-4.710938 0-8.53125-3.820313-8.53125-8.535157 0-4.710937 3.820312-8.53125 8.53125-8.53125 4.714844 0 8.535156 3.820313 8.535156 8.53125zm0 0"/><path d="m145.074219 281.613281c0 4.714844-3.820313 8.535157-8.535157 8.535157-4.710937 0-8.53125-3.820313-8.53125-8.535157 0-4.710937 3.820313-8.53125 8.53125-8.53125 4.714844 0 8.535157 3.820313 8.535157 8.53125zm0 0"/><path d="m179.207031 281.613281c0 4.714844-3.820312 8.535157-8.535156 8.535157-4.710937 0-8.53125-3.820313-8.53125-8.535157 0-4.710937 3.820313-8.53125 8.53125-8.53125 4.714844 0 8.535156 3.820313 8.535156 8.53125zm0 0"/><path d="m213.339844 281.613281c0 4.714844-3.820313 8.535157-8.53125 8.535157-4.714844 0-8.535156-3.820313-8.535156-8.535157 0-4.710937 3.820312-8.53125 8.535156-8.53125 4.710937 0 8.53125 3.820313 8.53125 8.53125zm0 0"/><path d="m76.808594 315.746094c0 4.714844-3.824219 8.535156-8.535156 8.535156-4.710938 0-8.535157-3.820312-8.535157-8.535156 0-4.710938 3.824219-8.53125 8.535157-8.53125 4.710937 0 8.535156 3.820312 8.535156 8.53125zm0 0"/><path d="m110.941406 315.746094c0 4.714844-3.820312 8.535156-8.535156 8.535156-4.710938 0-8.53125-3.820312-8.53125-8.535156 0-4.710938 3.820312-8.53125 8.53125-8.53125 4.714844 0 8.535156 3.820312 8.535156 8.53125zm0 0"/><path d="m145.074219 315.746094c0 4.714844-3.820313 8.535156-8.535157 8.535156-4.710937 0-8.53125-3.820312-8.53125-8.535156 0-4.710938 3.820313-8.53125 8.53125-8.53125 4.714844 0 8.535157 3.820312 8.535157 8.53125zm0 0"/><path d="m179.207031 315.746094c0 4.714844-3.820312 8.535156-8.535156 8.535156-4.710937 0-8.53125-3.820312-8.53125-8.535156 0-4.710938 3.820313-8.53125 8.53125-8.53125 4.714844 0 8.535156 3.820312 8.535156 8.53125zm0 0"/><path d="m213.339844 315.746094c0 4.714844-3.820313 8.535156-8.53125 8.535156-4.714844 0-8.535156-3.820312-8.535156-8.535156 0-4.710938 3.820312-8.53125 8.535156-8.53125 4.710937 0 8.53125 3.820312 8.53125 8.53125zm0 0"/><path d="m76.808594 349.878906c0 4.714844-3.824219 8.535156-8.535156 8.535156-4.710938 0-8.535157-3.820312-8.535157-8.535156 0-4.710937 3.824219-8.53125 8.535157-8.53125 4.710937 0 8.535156 3.820313 8.535156 8.53125zm0 0"/><path d="m110.941406 349.878906c0 4.714844-3.820312 8.535156-8.535156 8.535156-4.710938 0-8.53125-3.820312-8.53125-8.535156 0-4.710937 3.820312-8.53125 8.53125-8.53125 4.714844 0 8.535156 3.820313 8.535156 8.53125zm0 0"/><path d="m145.074219 349.878906c0 4.714844-3.820313 8.535156-8.535157 8.535156-4.710937 0-8.53125-3.820312-8.53125-8.535156 0-4.710937 3.820313-8.53125 8.53125-8.53125 4.714844 0 8.535157 3.820313 8.535157 8.53125zm0 0"/><path d="m179.207031 349.878906c0 4.714844-3.820312 8.535156-8.535156 8.535156-4.710937 0-8.53125-3.820312-8.53125-8.535156 0-4.710937 3.820313-8.53125 8.53125-8.53125 4.714844 0 8.535156 3.820313 8.535156 8.53125zm0 0"/><path d="m213.339844 349.878906c0 4.714844-3.820313 8.535156-8.53125 8.535156-4.714844 0-8.535156-3.820312-8.535156-8.535156 0-4.710937 3.820312-8.53125 8.535156-8.53125 4.710937 0 8.53125 3.820313 8.53125 8.53125zm0 0"/><path d="m76.808594 384.011719c0 4.714843-3.824219 8.535156-8.535156 8.535156-4.710938 0-8.535157-3.820313-8.535157-8.535156 0-4.710938 3.824219-8.53125 8.535157-8.53125 4.710937 0 8.535156 3.820312 8.535156 8.53125zm0 0"/><path d="m110.941406 384.011719c0 4.714843-3.820312 8.535156-8.535156 8.535156-4.710938 0-8.53125-3.820313-8.53125-8.535156 0-4.710938 3.820312-8.53125 8.53125-8.53125 4.714844 0 8.535156 3.820312 8.535156 8.53125zm0 0"/><path d="m145.074219 384.011719c0 4.714843-3.820313 8.535156-8.535157 8.535156-4.710937 0-8.53125-3.820313-8.53125-8.535156 0-4.710938 3.820313-8.53125 8.53125-8.53125 4.714844 0 8.535157 3.820312 8.535157 8.53125zm0 0"/><path d="m179.207031 384.011719c0 4.714843-3.820312 8.535156-8.535156 8.535156-4.710937 0-8.53125-3.820313-8.53125-8.535156 0-4.710938 3.820313-8.53125 8.53125-8.53125 4.714844 0 8.535156 3.820312 8.535156 8.53125zm0 0"/><path d="m213.339844 384.011719c0 4.714843-3.820313 8.535156-8.53125 8.535156-4.714844 0-8.535156-3.820313-8.535156-8.535156 0-4.710938 3.820312-8.53125 8.535156-8.53125 4.710937 0 8.53125 3.820312 8.53125 8.53125zm0 0"/><path d="m76.808594 418.148438c0 4.710937-3.824219 8.53125-8.535156 8.53125-4.710938 0-8.535157-3.820313-8.535157-8.53125 0-4.714844 3.824219-8.535157 8.535157-8.535157 4.710937 0 8.535156 3.820313 8.535156 8.535157zm0 0"/><path d="m110.941406 418.148438c0 4.710937-3.820312 8.53125-8.535156 8.53125-4.710938 0-8.53125-3.820313-8.53125-8.53125 0-4.714844 3.820312-8.535157 8.53125-8.535157 4.714844 0 8.535156 3.820313 8.535156 8.535157zm0 0"/><path d="m145.074219 418.148438c0 4.710937-3.820313 8.53125-8.535157 8.53125-4.710937 0-8.53125-3.820313-8.53125-8.53125 0-4.714844 3.820313-8.535157 8.53125-8.535157 4.714844 0 8.535157 3.820313 8.535157 8.535157zm0 0"/><path d="m179.207031 418.148438c0 4.710937-3.820312 8.53125-8.535156 8.53125-4.710937 0-8.53125-3.820313-8.53125-8.53125 0-4.714844 3.820313-8.535157 8.53125-8.535157 4.714844 0 8.535156 3.820313 8.535156 8.535157zm0 0"/><path d="m213.339844 418.148438c0 4.710937-3.820313 8.53125-8.53125 8.53125-4.714844 0-8.535156-3.820313-8.535156-8.53125 0-4.714844 3.820312-8.535157 8.535156-8.535157 4.710937 0 8.53125 3.820313 8.53125 8.535157zm0 0"/><path d="m76.808594 452.28125c0 4.710938-3.824219 8.53125-8.535156 8.53125-4.710938 0-8.535157-3.820312-8.535157-8.53125 0-4.714844 3.824219-8.535156 8.535157-8.535156 4.710937 0 8.535156 3.820312 8.535156 8.535156zm0 0"/><path d="m110.941406 452.28125c0 4.710938-3.820312 8.53125-8.535156 8.53125-4.710938 0-8.53125-3.820312-8.53125-8.53125 0-4.714844 3.820312-8.535156 8.53125-8.535156 4.714844 0 8.535156 3.820312 8.535156 8.535156zm0 0"/><path d="m145.074219 452.28125c0 4.710938-3.820313 8.53125-8.535157 8.53125-4.710937 0-8.53125-3.820312-8.53125-8.53125 0-4.714844 3.820313-8.535156 8.53125-8.535156 4.714844 0 8.535157 3.820312 8.535157 8.535156zm0 0"/><path d="m179.207031 452.28125c0 4.710938-3.820312 8.53125-8.535156 8.53125-4.710937 0-8.53125-3.820312-8.53125-8.53125 0-4.714844 3.820313-8.535156 8.53125-8.535156 4.714844 0 8.535156 3.820312 8.535156 8.535156zm0 0"/><path d="m213.339844 452.28125c0 4.710938-3.820313 8.53125-8.53125 8.53125-4.714844 0-8.535156-3.820312-8.535156-8.53125 0-4.714844 3.820312-8.535156 8.535156-8.535156 4.710937 0 8.53125 3.820312 8.53125 8.535156zm0 0"/></svg>