<svg height="512pt" viewBox="0 0 512 512.00072" width="512pt" xmlns="http://www.w3.org/2000/svg"><path d="m25.601562 204.800781h76.796876v12.800781c0 1.621094.011718 3.253907.09375 4.703126 2.515624 49.9375 43.726562 89.144531 93.730468 89.167968 50 .023438 91.25-39.144531 93.8125-89.082031.089844-1.535156.097656-3.164063.097656-4.789063v-8.53125c-.039062-1.429687-.179687-2.855468-.425781-4.265624h68.691407c14.132812-.015626 25.585937-11.46875 25.601562-25.601563v-34.136719h25.601562v51.199219c.015626 14.132813 11.464844 25.585937 25.597657 25.601563h51.199219c14.132812-.015626 25.585937-11.46875 25.601562-25.601563v-170.664063c-.015625-14.132812-11.46875-25.585937-25.601562-25.601562h-51.199219c-14.132813.015625-25.582031 11.46875-25.597657 25.601562v51.199219h-25.601562v-34.132812c-.015625-14.132813-11.46875-25.585938-25.601562-25.601563h-112.503907c-3.5625-10.21875-13.203125-17.066406-24.027343-17.066406-10.824219 0-20.464844 6.847656-24.027344 17.066406h-172.238282c-14.132812.015625-25.585937 11.46875-25.601562 25.601563v136.53125c.015625 14.132812 11.46875 25.585937 25.601562 25.601562zm136.53125 0h35.707032c3.59375 10.199219 13.214844 17.035157 24.027344 17.066407 2.851562-.03125 5.679687-.542969 8.363281-1.519532-.027344.238282-.011719.425782-.042969.683594-1.746094 17.476562-16.480469 30.765625-34.042969 30.699219-17.5625-.0625-32.199219-13.457031-33.816406-30.945313-.132813-1.054687-.199219-2.121094-.195313-3.183594zm34.132813-17.066406h-34.132813v-42.667969h34.132813zm0-59.734375h-93.867187c-4.710938-.003906-8.527344-3.820312-8.53125-8.53125v-17.066406c.003906-4.710938 3.820312-8.53125 8.53125-8.535156h93.867187zm76.800781 89.601562c0 1.273438.007813 2.542969-.074218 3.828126-2.054688 40.894531-35.824219 72.992187-76.769532 72.96875-40.945312-.023438-74.679687-32.15625-76.6875-73.054688-.078125-1.199219-.066406-2.46875-.066406-3.742188l-.003906-72.535156h25.601562v72.535156c-.003906 1.703126.09375 3.410157.300782 5.101563 2.59375 26.117187 24.53125 46.03125 50.777343 46.09375 26.242188.0625 48.277344-19.742187 50.996094-45.847656.21875-1.773438.328125-3.558594.328125-5.347657v-8.535156c0-7.066406 5.730469-12.800781 12.796875-12.800781 7.070313 0 12.800781 5.734375 12.800781 12.800781zm93.867188-38.402343c-.003906 4.710937-3.820313 8.53125-8.535156 8.535156h-77.296876c-8.886718-8.824219-22.386718-11.046875-33.632812-5.539063v-37.128906h119.464844zm59.734375-153.597657c.003906-4.710937 3.820312-8.53125 8.53125-8.535156h51.199219c4.714843.003906 8.53125 3.824219 8.535156 8.535156v170.664063c-.003906 4.710937-3.820313 8.53125-8.535156 8.535156h-51.199219c-4.710938-.003906-8.527344-3.824219-8.53125-8.535156zm-17.066407 102.398438h-162.132812v-34.132812h162.132812zm-42.667968-85.332031v34.132812h-119.464844v-42.667969h110.929688c4.714843.003907 8.53125 3.824219 8.535156 8.535157zm-145.066406-25.601563c4.710937.003906 8.527343 3.824219 8.53125 8.535156v170.664063c0 4.714844-3.820313 8.535156-8.53125 8.535156-4.714844 0-8.535157-3.820312-8.535157-8.535156v-170.664063c.007813-4.710937 3.824219-8.53125 8.535157-8.535156zm-204.800782 25.601563c.003906-4.710938 3.824219-8.53125 8.535156-8.535157h170.664063v42.667969h-93.867187c-14.128907.015625-25.582032 11.46875-25.597657 25.601563v17.066406c.015625 14.128906 11.46875 25.582031 25.597657 25.597656v42.667969h-76.796876c-4.710937-.003906-8.53125-3.824219-8.535156-8.535156v-34.132813h17.066406c9.421876-.011718 17.058594-7.644531 17.066407-17.066406v-34.132812c-.007813-9.421876-7.644531-17.054688-17.066407-17.066407h-17.066406zm0 51.199219h17.066406l.007813 34.132812h-17.074219zm0 0"/><path d="m460.800781 196.265625c14.136719 0 25.597657-11.460937 25.597657-25.597656 0-14.140625-11.460938-25.601563-25.597657-25.601563-14.140625 0-25.601562 11.460938-25.601562 25.601563.015625 14.132812 11.46875 25.582031 25.601562 25.597656zm0-34.132813c4.710938 0 8.53125 3.820313 8.53125 8.535157 0 4.710937-3.820312 8.53125-8.53125 8.53125-4.714843 0-8.535156-3.820313-8.535156-8.53125.003906-4.710938 3.824219-8.53125 8.535156-8.535157zm0 0"/><path d="m460.800781 76.800781c14.136719 0 25.597657-11.460937 25.597657-25.601562 0-14.136719-11.460938-25.597657-25.597657-25.597657-14.140625 0-25.601562 11.460938-25.601562 25.597657.015625 14.132812 11.46875 25.585937 25.601562 25.601562zm0-34.132812c4.710938 0 8.53125 3.820312 8.53125 8.53125 0 4.714843-3.820312 8.535156-8.53125 8.535156-4.714843 0-8.535156-3.820313-8.535156-8.535156.003906-4.710938 3.824219-8.527344 8.535156-8.53125zm0 0"/><path d="m51.199219 59.734375c0 4.710937-3.820313 8.53125-8.53125 8.53125-4.714844 0-8.535157-3.820313-8.535157-8.53125 0-4.714844 3.820313-8.535156 8.535157-8.535156 4.710937 0 8.53125 3.820312 8.53125 8.535156zm0 0"/><path d="m51.199219 162.132812c0 4.714844-3.820313 8.535157-8.53125 8.535157-4.714844 0-8.535157-3.820313-8.535157-8.535157 0-4.710937 3.820313-8.53125 8.535157-8.53125 4.710937 0 8.53125 3.820313 8.53125 8.53125zm0 0"/><path d="m349.867188 59.734375c0 4.710937-3.820313 8.53125-8.535157 8.53125-4.710937 0-8.53125-3.820313-8.53125-8.53125 0-4.714844 3.820313-8.535156 8.53125-8.535156 4.714844 0 8.535157 3.820312 8.535157 8.535156zm0 0"/><path d="m349.867188 162.132812c0 4.714844-3.820313 8.535157-8.535157 8.535157-4.710937 0-8.53125-3.820313-8.53125-8.535157 0-4.710937 3.820313-8.53125 8.53125-8.53125 4.714844 0 8.535157 3.820313 8.535157 8.53125zm0 0"/><path d="m290.132812 59.734375c0 4.710937-3.820312 8.53125-8.53125 8.53125-4.714843 0-8.535156-3.820313-8.535156-8.53125 0-4.714844 3.820313-8.535156 8.535156-8.535156 4.710938 0 8.53125 3.820312 8.53125 8.535156zm0 0"/><path d="m290.132812 162.132812c0 4.714844-3.820312 8.535157-8.53125 8.535157-4.714843 0-8.535156-3.820313-8.535156-8.535157 0-4.710937 3.820313-8.53125 8.535156-8.53125 4.710938 0 8.53125 3.820313 8.53125 8.53125zm0 0"/><path d="m298.667969 358.402344c-14.132813.015625-25.585938 11.464844-25.601563 25.597656v102.402344c.015625 14.128906 11.46875 25.582031 25.601563 25.597656h162.132812c14.132813-.015625 25.585938-11.46875 25.597657-25.597656v-102.402344c-.03125-10.8125-6.867188-20.433594-17.066407-24.027344v-45.660156c.664063-47.890625-35.792969-88.15625-83.515625-92.246094-24.789062-1.757812-49.179687 6.9375-67.265625 23.980469-18.085937 16.957031-28.367187 40.628906-28.417969 65.421875v4.265625c0 14.136719 11.460938 25.601563 25.601563 25.601563 14.136719 0 25.597656-11.464844 25.597656-25.601563v-4.265625c.027344-10.84375 4.621094-21.171875 12.660157-28.453125 8.03125-7.332031 18.816406-10.882813 29.632812-9.757813 20.070312 2.746094 34.90625 20.089844 34.507812 40.34375v44.800782zm170.664062 128c-.003906 4.710937-3.820312 8.527344-8.53125 8.53125h-162.132812c-4.710938-.003906-8.53125-3.820313-8.535157-8.53125v-102.402344c.003907-4.710938 3.824219-8.527344 8.535157-8.53125h162.132812c4.710938.003906 8.527344 3.820312 8.53125 8.53125zm-84.023437-230.125c-15.597656-1.550782-31.121094 3.558594-42.75 14.070312-11.625 10.511719-18.269532 25.445313-18.292969 41.121094v4.265625c0 4.710937-3.820313 8.53125-8.53125 8.53125-4.714844 0-8.535156-3.820313-8.535156-8.53125v-4.265625c.046875-20.070312 8.375-39.234375 23.019531-52.960938 14.640625-13.800781 34.394531-20.839843 54.464844-19.410156 38.765625 3.472656 68.261718 36.300782 67.582031 75.214844v44.089844h-17.066406v-44.800782c.332031-29.003906-21.121094-53.652343-49.890625-57.324218zm0 0"/><path d="m324.265625 392.535156h-8.53125c-4.714844 0-8.535156 3.820313-8.535156 8.53125 0 4.714844 3.820312 8.535156 8.535156 8.535156h8.53125c4.714844 0 8.535156-3.820312 8.535156-8.535156 0-4.710937-3.820312-8.53125-8.535156-8.53125zm0 0"/><path d="m443.734375 392.535156h-85.335937c-4.710938 0-8.53125 3.820313-8.53125 8.53125 0 4.714844 3.820312 8.535156 8.53125 8.535156h85.335937c4.710937 0 8.53125-3.820312 8.53125-8.535156 0-4.710937-3.820313-8.53125-8.53125-8.53125zm0 0"/></svg>