<svg height="512pt" viewBox="0 -85 512.01528 512" width="512pt" xmlns="http://www.w3.org/2000/svg"><path d="m170.683594 341.347656c58.976562.175782 113.816406-30.277344 144.84375-80.433594 8.136718-5.75 44.757812-30.5 73.523437-30.5 16.429688.929688 32.03125 7.527344 44.144531 18.664063 4.515626 23.246094 12.101563 43.148437 24.921876 47.421875 4.175781 1.414062 8.554687 2.144531 12.960937 2.15625 15.992187-.886719 30.628906-9.253906 39.503906-22.582031.933594-1.402344 1.433594-3.050781 1.433594-4.734375v-201.316406c0-1.683594-.5-3.332032-1.433594-4.734376-7.152343-10.722656-27.300781-28.808593-52.464843-20.421874-12.824219 4.273437-20.40625 24.171874-24.925782 47.417968-12.113281 11.140625-27.710937 17.734375-44.140625 18.664063-28.546875 0-64.796875-24.347657-73.523437-30.503907-43.414063-69.683593-130.292969-98.578124-206.792969-68.777343-76.503906 29.796875-120.945313 109.847656-105.78125 190.535156 15.160156 80.691406 85.628906 139.148437 167.730469 139.144531zm292.832031-280.300781c15.648437-5.214844 27.460937 6.945313 31.433594 11.820313v195.625c-7.03125 10.054687-19.519531 14.75-31.433594 11.824218-10.410156-3.476562-19.570313-54.5-19.761719-109.675781.191406-55.140625 9.34375-106.113281 19.761719-109.59375zm-33.855469 54.761719c-2.289062 20.433594-2.867187 40.433594-2.960937 52.617187l-.007813.171875v.144532l-.007812.097656v3.585937c0 .167969.003906.347657.015625.515625.09375 12.179688.671875 32.179688 2.960937 52.617188-12.171875-7.699219-26.214844-11.921875-40.609375-12.210938-28.457031 0-60.914062 18.726563-76.480469 28.933594-4.175781-23.625-5.972656-47.613281-5.355468-71.597656-.613282-23.988282 1.175781-47.980469 5.34375-71.609375 15.769531 10.332031 48.113281 28.941406 76.492187 28.941406 14.394531-.289063 28.4375-4.511719 40.609375-12.207031zm-258.976562-98.726563c51.421875-.144531 99.460937 25.601563 127.8125 68.503907-2.90625 8.636718-8.347656 31.871093-8.347656 85.097656 0 53.222656 5.441406 76.457031 8.347656 85.09375-40.625 61.015625-118.707032 84.816406-186.460938 56.835937-67.75-27.984375-106.285156-99.945312-92.015625-171.847656 14.265625-71.898437 77.359375-123.695313 150.664063-123.683594zm0 0"/><path d="m139.5625 59.199219c4.410156-1.660157 6.640625-6.582031 4.980469-10.992188-1.65625-4.410156-6.578125-6.640625-10.992188-4.984375-46.78125 20.214844-82.765625 59.371094-98.964843 107.691406-1.492188 4.472657.925781 9.304688 5.394531 10.796876 4.472656 1.492187 9.304687-.925782 10.796875-5.394532 14.863281-43.273437 47.015625-78.441406 88.785156-97.117187zm0 0"/><path d="m179.214844 42.683594c0 4.710937-3.820313 8.53125-8.53125 8.53125-4.714844 0-8.535156-3.820313-8.535156-8.53125 0-4.714844 3.820312-8.535156 8.535156-8.535156 4.710937 0 8.53125 3.820312 8.53125 8.535156zm0 0"/></svg>