<svg height="512pt" viewBox="0 -102 512 512" width="512pt" xmlns="http://www.w3.org/2000/svg"><path d="m51.199219 213.332031c1.519531-.019531 3.03125-.246093 4.492187-.675781 6.8125 32.4375 22.746094 70.425781 59.253906 93.242188l.097657.042968c.496093.285156 1.019531.519532 1.566406.699219.910156.347656 1.875.539063 2.847656.558594h.007813c10.972656 0 21.542968-.253907 31.449218-.78125 11.007813-.609375 21.425782-1.484375 30.976563-2.601563 98.5-11.429687 126.660156-49.316406 132.371094-59.089844 4.425781-3.210937 44.074219-31.394531 74.773437-31.394531 16.429688.929688 32.03125 7.527344 44.144532 18.664063 4.515624 23.246094 12.101562 43.148437 24.921874 47.421875 4.175782 1.414062 8.554688 2.144531 12.960938 2.15625 15.992188-.886719 30.628906-9.253907 39.503906-22.582031.933594-1.402344 1.433594-3.050782 1.433594-4.734376v-201.316406c0-1.683594-.5-3.332031-1.433594-4.734375-7.148437-10.722656-27.308594-28.808593-52.464844-20.421875-12.820312 4.273438-20.40625 24.171875-24.925781 47.417969-12.113281 11.140625-27.710937 17.734375-44.140625 18.664063-30.257812 0-69.148437-27.339844-74.757812-31.382813-5.9375-10.339844-33.90625-47.679687-132.375-59.101563-9.558594-1.117187-19.984375-1.992187-31.011719-2.609374l-.183594-.003907h-.054687c-9.816406-.511719-20.300782-.769531-31.1875-.769531-.207032 0-.40625.113281-.613282.128906-.609374.058594-1.210937.183594-1.792968.375-.484375.136719-.953125.3125-1.402344.53125-.230469.113282-.484375.125-.707031.265625-36.511719 22.816407-52.445313 60.804688-59.257813 93.242188-1.460937-.425781-2.972656-.65625-4.492187-.675781-28.261719.03125-51.167969 22.933593-51.199219 51.199218v17.066406c.03125 28.265626 22.9375 51.167969 51.199219 51.199219zm119.226562-193.945312c-3.519531 18.089843-8.292969 56.847656-8.292969 134.214843 0 77.363282 4.773438 116.121094 8.292969 134.210938-4.554687.429688-9.261719.808594-14.117187 1.125-3.710938-12.445312-11.242188-48.371094-11.242188-135.335938 0-86.96875 7.53125-122.898437 11.242188-135.339843 4.859375.320312 9.566406.699219 14.117187 1.125zm-31.59375 270.441406c-4.542969.144531-9.171875.242187-13.917969.28125-4.195312-11.078125-13.980468-46.542969-13.980468-136.507813 0-89.96875 9.785156-125.433593 13.980468-136.511718 4.75.039062 9.386719.140625 13.917969.28125-4.601562 17.667968-10.832031 56.328125-10.832031 136.230468 0 79.898438 6.230469 118.558594 10.832031 136.226563zm324.667969-245.863281c15.648438-5.214844 27.460938 6.941406 31.433594 11.820312v195.625c-7.03125 10.054688-19.519532 14.75-31.433594 11.824219-10.410156-3.476563-19.570312-54.5-19.761719-109.675781.191407-55.140625 9.34375-106.113282 19.761719-109.59375zm-33.855469 54.761718c-2.289062 20.433594-2.867187 40.433594-2.960937 52.617188l-.007813.171875v.144531l-.007812.097656v3.585938c0 .167969.003906.347656.015625.515625.09375 12.179687.671875 32.179687 2.960937 52.617187-12.171875-7.699218-26.214843-11.921874-40.609375-12.210937-28.457031 0-60.914062 18.726563-76.480468 28.933594-4.175782-23.625-5.972657-47.613281-5.355469-71.597657-.613281-23.988281 1.175781-47.980468 5.34375-71.609374 15.769531 10.332031 48.113281 28.941406 76.492187 28.941406 14.394532-.289063 28.4375-4.511719 40.609375-12.207032zm-131.40625-29.507812c-2.957031 9.203125-8.105469 32.640625-8.105469 84.382812 0 51.980469 5.195313 75.382813 8.144532 84.496094-6.058594 8.878906-31.316406 36.949219-110.847656 47.726563-3.117188-15.421875-8.230469-52.804688-8.230469-132.222657 0-79.417968 5.113281-116.800781 8.234375-132.222656 78.199218 10.628906 104.222656 38.53125 110.804687 47.839844zm-195.425781-35.480469c-6.878906 39.570313-9.875 79.710938-8.945312 119.863281-.929688 40.148438 2.066406 80.292969 8.945312 119.859376-26.757812-30.074219-33.226562-72.785157-34.546875-98.070313v-43.582031c1.320313-25.285156 7.789063-67.992188 34.546875-98.070313zm-85.746094 111.328125c.019532-18.84375 15.289063-34.113281 34.132813-34.132812v17.863281c-.507813 8.257813-.515625 16.542969-.023438 24.804687-.496093 8.300782-.484375 16.625.035157 24.925782v17.738281h-.011719c-18.84375-.019531-34.113281-15.289063-34.132813-34.132813zm0 0"/></svg>