<svg height="511pt" viewBox="0 -110 511.34512 511" width="511pt" xmlns="http://www.w3.org/2000/svg"><path d="m474.542969 27.1875c-15.84375.910156-30.949219 6.988281-43.007813 17.300781-8.101562 7.441407-15.03125 16.0625-20.554687 25.574219-2.351563 3.640625-4.707031 7.289062-7.265625 10.78125-1.925782 2.617188-4.894532 4.261719-8.132813 4.507812-5.09375.464844-10.15625-1.183593-14-4.558593-6.492187-6.339844-12.101562-13.519531-16.683593-21.347657-1.261719-1.941406-2.511719-3.867187-3.773438-5.742187-17.253906-25.726563-39.917969-52.199219-77.132812-53.476563-1.019532-.035156-2.042969-.054687-3.058594-.054687-58.027344 0-217.578125 90.539063-269.132813 123.527344-7.351562 4.695312-11.800781 12.816406-11.800781 21.539062 0 8.722657 4.449219 16.847657 11.800781 21.542969 51.554688 32.984375 211.105469 123.523438 269.132813 123.523438 1.015625 0 2.039062-.015626 3.035156-.058594 37.234375-1.273438 59.902344-27.75 77.148438-53.464844 1.265624-1.882812 2.515624-3.808594 3.78125-5.75 4.578124-7.832031 10.191406-15.011719 16.679687-21.351562 3.859375-3.347657 8.910156-4.992188 14-4.558594 3.238281.246094 6.210937 1.894531 8.136719 4.511718 2.558594 3.488282 4.910156 7.140626 7.265625 10.78125 5.523437 9.511719 12.453125 18.132813 20.554687 25.574219 12.058594 10.3125 27.164063 16.390625 43.007813 17.300781 8.925781.550782 17.675781-2.660156 24.132812-8.851562 8.371094-8.679688 12.925781-20.34375 12.65625-32.398438v-153.601562c.269531-12.054688-4.285156-23.71875-12.65625-32.398438-6.449219-6.199218-15.203125-9.410156-24.132812-8.851562zm-49.238281 183.960938c-2.53125-3.925782-5.074219-7.84375-7.828126-11.601563-4.757812-6.460937-12.03125-10.601563-20.015624-11.390625-9.839844-.949219-19.632813 2.179688-27.097657 8.65625-7.722656 7.34375-14.378906 15.730469-19.773437 24.917969-1.214844 1.867187-2.421875 3.71875-3.644532 5.542969-15.59375 23.25-34.089843 44.90625-63.582031 45.925781-.808593.023437-1.621093.039062-2.429687.039062-49.605469 0-196.132813-80.015625-259.933594-120.839843-2.449219-1.554688-3.933594-4.257813-3.933594-7.160157 0-2.902343 1.484375-5.601562 3.933594-7.15625 63.800781-40.824219 210.328125-120.84375 259.933594-120.84375.808594 0 1.621094.019531 2.449218.042969 29.472657 1.015625 47.96875 22.675781 63.566407 45.933594 1.21875 1.816406 2.425781 3.667968 3.640625 5.53125 5.394531 9.191406 12.050781 17.578125 19.773437 24.917968 7.460938 6.488282 17.261719 9.617188 27.101563 8.660157 7.984375-.792969 15.257812-4.933594 20.015625-11.394531 2.753906-3.753907 5.296875-7.675782 7.828125-11.597657 1.5-2.316406 2.988281-4.578125 4.484375-6.789062 3.335937 24.085937 4.921875 48.382812 4.742187 72.695312.179688 24.316407-1.40625 48.609375-4.742187 72.695313-1.5-2.210938-2.984375-4.46875-4.484375-6.785156zm68.960937 10.890624c.25 7.390626-2.394531 14.585938-7.371094 20.054688-3.066406 2.988281-7.28125 4.503906-11.550781 4.148438-11.414062-.714844-22.316406-4.960938-31.207031-12.152344 5.378906-29.300782 7.878906-59.0625 7.464843-88.851563.414063-29.789062-2.085937-59.542969-7.464843-88.847656 8.890625-7.191406 19.792969-11.4375 31.207031-12.152344 4.269531-.363281 8.488281 1.152344 11.550781 4.152344 4.976563 5.464844 7.621094 12.660156 7.371094 20.046875zm0 0"/><path d="m200.316406 60.804688c-4.199218 2.101562-103.167968 51.632812-128.917968 68.800781-2.566407 1.679687-4.035157 4.605469-3.847657 7.667969s2.003907 5.785156 4.757813 7.136718c2.753906 1.351563 6.023437 1.121094 8.558594-.605468 24.867187-16.574219 126.0625-67.222657 127.082031-67.730469 4.21875-2.109375 5.925781-7.234375 3.816406-11.453125-2.105469-4.214844-7.234375-5.921875-11.449219-3.816406zm0 0"/><path d="m238.265625 51.371094c0 4.714844-3.820313 8.535156-8.53125 8.535156-4.714844 0-8.535156-3.820312-8.535156-8.535156 0-4.710938 3.820312-8.53125 8.535156-8.53125 4.710937 0 8.53125 3.820312 8.53125 8.53125zm0 0"/></svg>