<svg height="512pt" viewBox="0 -111 512.00182 512" width="512pt" xmlns="http://www.w3.org/2000/svg"><path d="m465.515625 25.898438c-19.15625 9.574218-26.582031 25.707031-33.136719 39.949218-6.917968 15.03125-11.824218 24.414063-24.851562 27.675782-7.910156 1.953124-11.730469-1.050782-16.535156-11.921876-1.980469-6.0625-4.339844-11.996093-7.070313-17.761718-.101563-.242188-.238281-.464844-.339844-.707032-.808593-1.851562-1.683593-3.667968-2.636719-5.429687-.183593-.355469-.339843-.753906-.53125-1.097656-.066406-.128907-.191406-.195313-.261718-.316407-3.925782-8.523437-12.375-14.046874-21.753906-14.226562-9.550782-.359375-18.777344 3.472656-25.265626 10.488281-9.125-12.042969-20.320312-22.363281-33.066406-30.472656-23.640625-15.128906-63.6875-29.59375-123.460937-17.683594-.222657.042969-.4375.066407-.65625.125-5.203125 1.050781-10.507813 2.230469-16.019531 3.703125-10.753907 2.898438-21.34375 6.394532-31.710938 10.472656-.28125.085938-.554688.191407-.824219.3125-87.796875 34.421876-118.121093 96.554688-125.734375 116.480469-2.207031 5.777344-2.214844 12.160157-.015625 17.941407 8.328125 21.914062 43.8125 94.6875 152.304688 125.9375.414062.164062.84375.292968 1.277343.386718 1.605469.453125 3.074219.988282 4.707032 1.425782 19.230468 5.324218 39.074218 8.109374 59.027344 8.285156 2.082031 0 4.011718-.15625 6.03125-.222656.863281.199218 1.765624.164062 2.613281-.09375 25.652343-.769532 50.652343-8.296876 72.460937-21.828126 12.75-8.109374 23.949219-18.433593 33.074219-30.484374 6.46875 7.039062 15.699219 10.890624 25.257813 10.539062 7.78125.035156 15.050781-3.886719 19.296874-10.410156.535157-.589844.984376-1.25 1.335938-1.964844.105469-.191406.191406-.382812.296875-.578125 2.460937-4.082031 4.542969-8.386719 6.214844-12.851563.0625-.136718.132812-.285156.191406-.417968.414063-.933594.8125-1.878906 1.152344-2.882813 1.203125-2.8125 2.285156-5.691406 3.292969-8.582031 5.214843-12.445312 9-15.84375 17.347656-13.777344 13.027344 3.257813 17.933594 12.640625 24.851562 27.675782 6.554688 14.242187 13.980469 30.378906 33.136719 39.949218 6.316406 3.449219 13.34375 5.398438 20.535156 5.691406 4.542969.070313 9.015625-1.152343 12.890625-3.523437 8.375-6.367187 13.222656-16.339844 13.054688-26.863281v-188.242188c.167968-10.523437-4.679688-20.496094-13.054688-26.867187-8.628906-5.34375-19.878906-4.609375-33.425781 2.167969zm-374.519531 30.847656c32.09375 8.703125 59.671875 31.496094 88.769531 55.71875 37.589844 31.296875 76.214844 63.457031 126.035156 63.457031 8.523438-.039063 17.015625-.96875 25.34375-2.773437-.835937 9.257812-2.171875 18.464843-4.003906 27.582031-59.835937 13.714843-102.847656-24.46875-148.246094-64.984375-31.625-28.222656-64.191406-57.257813-103.386719-67.996094 4.785157-3.742188 9.949219-7.410156 15.488282-11.003906zm39.746094-20.691406c21.78125 11.1875 42.285156 24.710937 61.144531 40.332031 35.109375 26.976562 71.183593 54.691406 116.976562 54.691406 7.804688-.027344 15.585938-.824219 23.230469-2.378906.277344 4.613281.507812 9.421875.621094 14.65625v2.644531c-.070313 3.222656-.191406 6.265625-.328125 9.253906-56.953125 14.472656-98.195313-19.683594-141.703125-55.902344-25.074219-20.875-50.910156-42.179687-80.273438-54.003906 6.335938-3.285156 13.167969-6.363281 20.332032-9.292968zm192.773437 32.535156c-41.90625 5.148437-74.910156-17.933594-109.726563-42.285156-4.011718-2.804688-8.105468-5.636719-12.21875-8.453126 80.4375-7.851562 114.394532 38.375 121.945313 50.738282zm-159.183594-43.886719c4.160157-1.109375 8.199219-2.054687 12.167969-2.910156 9.253906 5.816406 18.523438 12.21875 27.503906 18.503906 32.507813 22.726563 65.949219 46.109375 107.652344 46.109375 4.933594-.046875 9.855469-.410156 14.742188-1.089844 1.910156 8.640625 3.332031 17.382813 4.257812 26.179688-50.65625 10.914062-88.46875-17.992188-128.375-48.640625-15.714844-12.628907-32.246094-24.199219-49.492188-34.636719 3.8125-1.191406 7.523438-2.441406 11.542969-3.515625zm63.773438 247.363281c-26.375-18.609375-50.75-39.90625-72.734375-63.546875-38.203125-38.226562-77.632813-77.605469-127.316406-87.890625 2.210937-3.691406 4.875-7.722656 7.882812-11.933594 45.25 5.578126 81.386719 39.710938 119.546875 75.882813 35.179687 33.34375 71.390625 67.546875 116.125 78.054687-13.882813 5.519532-28.582031 8.707032-43.503906 9.433594zm-66.515625-8.203125c-10.183594-9.492187-20.386719-19.652343-30.265625-29.542969-34.269531-34.292968-69.707031-69.675781-112.476563-83.867187-.5-1.195313-.933594-2.265625-1.246094-3.09375-.710937-1.863281-.707031-3.921875.003907-5.78125.472656-1.238281 1.234375-3.042969 2.136719-5.082031 46.832031 7.441406 84.15625 44.664062 123.558593 84.089844 17.191407 17.820312 35.347657 34.683593 54.386719 50.515624-11.257812-1.316406-22.40625-3.460937-33.351562-6.410156-.960938-.25-1.800782-.566406-2.746094-.828125zm-129.863282-89.546875c31.492188 16.042969 59.90625 44.429688 87.523438 72.070313 1.160156 1.160156 2.363281 2.339843 3.53125 3.507812-36.992188-15.902343-68.609375-42.148437-91.054688-75.578125zm264.921876 74.472656c-49.90625-1.328124-88.570313-37.867187-129.425782-76.59375-35.9375-34.058593-73.007812-69.078124-119.105468-78.757812 3.394531-3.847656 7.09375-7.746094 11.179687-11.683594 40.367187 6.265625 73.371094 35.625 108.230469 66.726563 39.972656 35.675781 81.085937 72.363281 134.960937 72.363281 7.460938-.039062 14.898438-.742188 22.234375-2.109375-7.214844 11.824219-16.765625 22.050781-28.074218 30.054687zm61.75-18.480468c-6.15625.625-12.054688-2.625-14.808594-8.167969-1.789063-3.902344-2.128906-8.316406-.960938-12.449219.046875-.179687.097656-.425781.140625-.613281l.023438-.109375c3.394531-15.367188 5.5-30.988281 6.292969-46.707031 0-.105469.054687-.195313.054687-.304688l-.023437-.167969c.289062-4.828124.535156-9.859374.65625-15.320312l.007812-.375v-2.914062c-.15625-21.355469-2.558594-42.636719-7.167969-63.488282-1.160156-4.125-.824219-8.527344.953125-12.425781 2.765625-5.539063 8.675782-8.777344 14.832032-8.136719 2.828124 0 5.035156 2.140625 7.167968 5.914063.851563 1.597656 1.714844 3.328125 2.585938 5.328125 1.007812 2.375 2.046875 5.085937 3.171875 8.089844 1.167969 3.117187 2.46875 6.554687 4.007812 10.003906.039063.121094.085938.230468.125.355468 11.695313 37.164063 11.375 77.070313-.917969 114.042969l-.019531.042969c-1.171875 2.785156-2.25 5.539062-3.195312 8.066406-.503907 1.347656-.988281 2.617188-1.464844 3.84375-1.648437 3.835938-3.570313 7.796875-5.71875 11.804688-1.179687 2.109375-3.335937 3.488281-5.742187 3.6875zm136.53125 8.484375c.125 4.648437-1.679688 9.144531-4.988282 12.414062-3.195312 1.949219-9.144531.894531-16.792968-2.933593-13.792969-6.890626-19.363282-19-25.257813-31.816407-6.839844-14.847656-14.59375-31.683593-36.21875-37.089843-2.816406-.734376-5.714844-1.117188-8.628906-1.140626-1.65625.046876-3.304688.253907-4.917969.625 3.886719-22.527343 3.925781-45.546874.117188-68.085937 4.472656.742187 9.054687.503906 13.429687-.691406 21.628906-5.40625 29.378906-22.242188 36.21875-37.089844 5.898437-12.816406 11.46875-24.925781 25.257813-31.816406 7.648437-3.835938 13.613281-4.902344 16.792968-2.933594 3.296875 3.253906 5.101563 7.730469 4.988282 12.363281zm0 0"/></svg>