<svg height="512pt" viewBox="0 -51 512 512" width="512pt" xmlns="http://www.w3.org/2000/svg"><path d="m8.535156 213.371094c34.035156 0 44.683594 14.257812 57.019532 30.765625 13.175781 17.640625 28.105468 37.625 70.691406 37.625 16.445312-.347657 32.808594-2.390625 48.835937-6.09375-10.578125 24.78125-11.394531 52.644531-2.28125 78 10.21875 29.910156 30.410157 50.460937 54.007813 54.96875 3.507812.683593 7.074218 1.03125 10.648437 1.042969 39.570313 0 58.230469-45.398438 64.691407-66.21875 1.535156-4.820313.292968-10.089844-3.226563-13.71875-3.210937-3.296876-7.972656-4.570313-12.402344-3.316407-6.265625 2.667969-13.375 2.542969-19.542969-.339843-3.511718-3.671876-5.160156-8.742188-4.480468-13.777344 0-26.863282 24.203125-46.128906 68.425781-54.789063.792969 18.335938 15.394531 33.0625 33.722656 34.015625 19.824219-1.121094 35.035157-18.019531 34.074219-37.851562v-1.011719c19.6875 1.039063 32.46875 5.804687 37.164062 13.945313 6.285157 10.917968-2.191406 27.851562-6.125 34.625h-.007812c-2.375 4.148437-2.464844 9.222656-.242188 13.449218 2.035157 3.960938 5.980469 6.578125 10.417969 6.914063 3.015625.214843 5.882813.316406 8.609375.316406 30.582032 0 43.625-12.832031 49.164063-24.132813 2.230469-4.660156 3.597656-9.6875 4.035156-14.835937.125-.429687.214844-.871094.265625-1.316406v-153.601563c-.050781-.445312-.140625-.882812-.265625-1.316406-.4375-5.144531-1.804687-10.171875-4.035156-14.832031-6.03125-12.308594-20.972657-26.417969-57.769531-23.816407-4.441407.332032-8.390626 2.949219-10.425782 6.910157-2.226562 4.230469-2.132812 9.304687.25 13.449219 3.933594 6.777343 12.410156 23.710937 6.125 34.625-4.691406 8.144531-17.476562 12.910156-37.167968 13.945312v-1.011719c.964843-19.828125-14.242188-36.726562-34.066407-37.851562-18.328125.953125-32.929687 15.679687-33.722656 34.015625-44.222656-8.660156-68.425781-27.925782-68.425781-54.789063-.679688-5.035156.96875-10.101562 4.480468-13.777343 6.167969-2.882813 13.273438-3.007813 19.539063-.339844 4.433594 1.257812 9.195313-.015625 12.410156-3.316406 3.519531-3.632813 4.757813-8.90625 3.222657-13.726563-7.019532-22.589844-28.421876-74.140625-75.332032-65.164063-23.605468 4.507813-43.796875 25.058594-54.015625 54.964844-9.109375 25.351563-8.304687 53.210938 2.257813 77.996094-16.015625-3.699219-32.375-5.742188-48.808594-6.089844-42.589844 0-57.515625 19.984375-70.691406 37.625-12.339844 16.507813-22.988282 30.769532-57.023438 30.769532-4.714844 0-8.535156 3.820312-8.535156 8.53125 0 4.714843 3.820312 8.535156 8.535156 8.535156zm246.894532 98.941406c-.914063 10.425781 3.292968 20.644531 11.277343 27.40625 7.964844 5.316406 17.785157 7.066406 27.09375 4.824219-7.152343 19.976562-23.757812 53.085937-53.785156 47.328125-17.234375-3.292969-32.972656-20.042969-41.066406-43.71875-10.121094-29.617188-5.820313-61.023438 11.074219-80.15625 2.390624-2.800782 5.085937-5.324219 8.035156-7.527344 2.417968-1.847656 4.953125-3.617188 7.5625-5.332031.855468-.558594 1.753906-1.085938 2.625-1.632813 1.800781-1.128906 3.609375-2.25 5.476562-3.320312 1.058594-.605469 2.144532-1.1875 3.222656-1.773438 1.757813-.960937 3.527344-1.90625 5.335938-2.816406 1.144531-.578125 2.304688-1.140625 3.460938-1.699219 1.804687-.867187 3.621093-1.714843 5.457031-2.539062 1.175781-.527344 2.355469-1.050781 3.542969-1.5625 1.882812-.808594 3.777343-1.589844 5.683593-2.347657 1.152344-.464843 2.304688-.933593 3.464844-1.378906 2.035156-.785156 4.078125-1.53125 6.121094-2.265625 1.023437-.371093 2.054687-.757812 3.082031-1.113281 2.664062-.929688 5.324219-1.8125 7.976562-2.65625.394532-.125.792969-.265625 1.183594-.390625 3.027344-.953125 6.027344-1.855469 9.003906-2.707031 1.109376-.316406 2.191407-.605469 3.292969-.910156 1.859375-.511719 3.71875-1.035157 5.546875-1.511719 1.289063-.34375 2.550782-.65625 3.820313-.976563 1.589843-.402344 3.171875-.800781 4.722656-1.171875 1.289063-.3125 2.558594-.605469 3.816406-.898437 1.46875-.34375 2.921875-.671875 4.347657-.984375 1.25-.277344 2.488281-.546875 3.699218-.804688 1.316406-.277343 2.59375-.542969 3.859375-.800781 1.210938-.246094 2.425781-.496094 3.589844-.722656 1.183594-.230469 2.308594-.441406 3.441406-.652344 1.097657-.207031 2.230469-.425781 3.273438-.609375 1.085937-.199219 2.082031-.367187 3.105469-.542969.9375-.160156 1.925781-.339844 2.800781-.484375v24.359375c-54.238281 9.996094-85.144531 36.039063-85.144531 72.089844zm236.261718-131.09375c1.109375-1.238281 2.1875-2.546875 3.242188-3.894531v55.023437c-1.054688-1.34375-2.132813-2.652344-3.242188-3.894531-11.042968-11.222656-24.824218-19.367187-39.984375-23.617187 15.160157-4.25 28.941407-12.390626 39.984375-23.617188zm-34.476562 123.628906c6.21875-12.257812 12.46875-31.085937 3.460937-46.734375-7.867187-13.667969-25.328125-21.234375-51.953125-22.527343v-21.714844c16.625 1.390625 52.925782 6.617187 70.25 25.964844 9.519532 10.539062 15.148438 24.007812 15.960938 38.183593v.398438c.042968 4.089843-.832032 8.140625-2.558594 11.851562-5.875 11.976563-21.226562 14.890625-35.160156 14.578125zm-48.488282-130.761718c26.621094-1.292969 44.082032-8.859376 51.949219-22.527344 9.007813-15.648438 2.757813-34.476563-3.457031-46.734375 13.914062-.324219 29.28125 2.601562 35.15625 14.578125 1.726562 3.707031 2.601562 7.757812 2.558594 11.851562v.394532c-.8125 14.175781-6.441406 27.648437-15.957032 38.183593-17.273437 19.300781-53.617187 24.550781-70.25 25.960938zm-51.089843-18.097657c-.921875-10.402343 6.632812-19.628906 17.007812-20.785156 10.378907 1.15625 17.929688 10.386719 17.011719 20.785156v97.699219c.917969 10.398438-6.636719 19.628906-17.011719 20.78125-10.375-1.152344-17.929687-10.386719-17.007812-20.785156zm-158.6875-94.464843c8.09375-23.675782 23.828125-40.425782 41.074219-43.71875 2.246093-.441407 4.527343-.664063 6.8125-.664063 25.773437 0 40.375 29.582031 46.964843 47.988281-9.308593-2.238281-19.128906-.488281-27.09375 4.828125-7.984375 6.761719-12.191406 16.980469-11.277343 27.40625 0 36.050781 30.90625 62.09375 85.140624 72.09375v24.355469c-.882812-.148438-1.882812-.328125-2.824218-.488281-1.011719-.175781-1.996094-.34375-3.074219-.535157-1.078125-.195312-2.21875-.414062-3.34375-.625-1.101563-.207031-2.203125-.414062-3.359375-.640624-1.1875-.230469-2.433594-.484376-3.675781-.738282-1.21875-.246094-2.449219-.5-3.710938-.765625-1.265625-.269531-2.582031-.558593-3.898437-.847656-1.355469-.300781-2.730469-.613281-4.128906-.941406-1.304688-.300781-2.621094-.605469-3.957032-.929688-1.5-.359375-3.027344-.746093-4.558594-1.132812-1.335937-.339844-2.664062-.667969-4.023437-1.023438-1.6875-.445312-3.40625-.921875-5.125-1.398437-1.234375-.339844-2.453125-.667969-3.699219-1.023438-2.933594-.84375-5.886718-1.734375-8.871094-2.667968-.65625-.207032-1.320312-.441407-1.980468-.652344-2.390625-.769532-4.789063-1.558594-7.195313-2.394532-1.125-.394531-2.253906-.816406-3.378906-1.222656-1.9375-.703125-3.878906-1.40625-5.808594-2.152344-1.238281-.476562-2.46875-.976562-3.703125-1.472656-1.816406-.730468-3.628906-1.472656-5.429687-2.246094-1.257813-.539062-2.507813-1.09375-3.753907-1.65625-1.761718-.789062-3.511718-1.605468-5.242187-2.4375-1.21875-.585937-2.433594-1.179687-3.632813-1.785156-1.757812-.886718-3.480468-1.8125-5.195312-2.746094-1.109375-.605468-2.234375-1.203124-3.328125-1.828124-1.84375-1.058594-3.632813-2.167969-5.410156-3.28125-.890625-.558594-1.804688-1.09375-2.675781-1.664063-2.605469-1.71875-5.144532-3.484375-7.5625-5.335937-2.988282-2.234376-5.710938-4.796876-8.125-7.640626-16.769532-18.996093-21.070313-50.402343-10.949219-80.019531zm-119.71875 114.222656c12.332031-16.511719 22.980469-30.769532 57.015625-30.769532 21.183594.722657 42.203125 4.019532 62.597656 9.808594.660156.714844 1.398438 1.382813 2.101562 2.074219.511719.507813 1 1.019531 1.535157 1.511719 1.65625 1.527344 3.378906 3.007812 5.214843 4.398437 3.25 2.484375 6.703126 4.820313 10.246094 7.082031 1.078125.6875 2.1875 1.335938 3.289063 2.003907 2.601562 1.578125 5.253906 3.101562 7.960937 4.570312 1.195313.644531 2.382813 1.289063 3.59375 1.914063 3.066406 1.578125 6.171875 3.085937 9.328125 4.53125.785157.359375 1.550781.746094 2.339844 1.097656 3.976563 1.777344 7.996094 3.453125 12.054687 5.027344.917969.359375 1.835938.683594 2.757813 1.03125 3.183594 1.207031 6.371094 2.359375 9.554687 3.457031 1.25.425781 2.480469.839844 3.722657 1.253906 1.601562.527344 3.195312 1.066407 4.785156 1.566407h-141.082031c-4.714844 0-8.535156 3.820312-8.535156 8.535156 0 4.710937 3.820312 8.53125 8.535156 8.53125h141.066406c-1.546875.492187-3.101562 1.015625-4.660156 1.53125-1.308594.429687-2.605469.863281-3.917969 1.316406-3.089844 1.0625-6.179687 2.179688-9.265625 3.351562-1.003906.378907-2.007812.734376-3.011719 1.125-4.023437 1.570313-8.011719 3.234376-11.964843 4.992188-.835938.371094-1.640626.777344-2.46875 1.15625-3.105469 1.425781-6.164063 2.914062-9.179688 4.457031-1.238281.640625-2.453125 1.296875-3.675781 1.957031-2.691407 1.457032-5.316407 2.972657-7.898438 4.535157-1.109375.671875-2.226562 1.328125-3.3125 2.019531-3.539062 2.257812-6.988281 4.589844-10.230469 7.070312-1.835937 1.390626-3.550781 2.859376-5.195312 4.375-.585938.539063-1.109375 1.089844-1.667969 1.640626-.675781.667968-1.386719 1.308593-2.019531 1.992187-20.394531 5.792969-41.414062 9.085937-62.597656 9.808594-34.035156 0-44.683594-14.257813-57.015625-30.769531-5.230469-7.5-11.277344-14.394532-18.027344-20.558594h40.988281c4.714844 0 8.535156-3.820313 8.535156-8.535156 0-4.710938-3.820312-8.53125-8.535156-8.53125h-40.988281c6.75-6.167969 12.796875-13.0625 18.027344-20.558594zm0 0"/></svg>