<svg height="512pt" viewBox="0 -77 512.16501 512" width="512pt" xmlns="http://www.w3.org/2000/svg"><path d="m494.980469 85.425781h-8.53125c-17.425781.050781-31.996094 13.25-33.773438 30.582031-39.015625 29.808594-93.125-11.078124-111.175781-24.789062-1.511719-1.144531-2.730469-2.078125-3.660156-2.742188l-.054688-.027343c-.449218-.253907-.921875-.46875-1.410156-.636719-.332031-.214844-.683594-.402344-1.042969-.5625-.085937-.027344-.171875 0-.261719-.027344-.101562-.027344-.179687-.097656-.28125-.121094-.527343-.074218-1.058593-.09375-1.589843-.066406-.492188-.058594-.988281-.074218-1.480469-.046875-.089844.015625-.183594-.011719-.273438 0h-.039062c-12.382812 2.035157-24.882812 3.28125-37.425781 3.742188-19.976563 1.164062-40.023438-.054688-59.714844-3.632813-22.738281-4.132812-43.160156-16.496094-57.359375-34.730468-1.195312-1.515626-2.304688-3.175782-3.414062-4.839844-2.472657-4.074219-5.492188-7.789063-8.972657-11.042969-.324219-.300781-.660156-.582031-1.015625-.839844 1.0625-6.414062.855469-12.976562-.609375-19.3125-2.695312-10.160156-12.242187-16.964843-22.730469-16.191406-10.054687.609375-19.191406 6.054687-24.507812 14.613281-21.203125 7.734375-77.867188 36.683594-81.148438 123.265625-20.480468 2.6875-35.46875 20.640625-34.460937 41.273438-1.007813 20.628906 13.980469 38.582031 34.457031 41.273437 3.285156 86.601563 59.972656 115.542969 81.164063 123.269532 5.316406 8.539062 14.433593 13.976562 24.472656 14.605468.511719.035156 1.023437.050782 1.523437.050782 9.996094.078124 18.761719-6.660157 21.25-16.339844 1.445313-6.296875 1.648438-12.816406.589844-19.1875.164063-.132813.390625-.28125.511719-.40625 3.679687-3.371094 6.867187-7.242188 9.472656-11.5 1.117188-1.667969 2.222657-3.328125 3.347657-4.75 14.210937-18.285156 34.667968-30.6875 57.453124-34.832032 19.683594-3.574218 39.71875-4.789062 59.691407-3.625 12.539062.457032 25.039062 1.707032 37.425781 3.742188.203125.035156.394531-.039062.601562-.019531.253907.027343.492188.117187.75.121093l.097657.023438c.453125-.035156.898437-.105469 1.339843-.210938.285157-.027343.566407-.070312.847657-.128906.097656-.027344.195312-.015625.296875-.046875l.007812-.003906c.753906-.246094 1.472656-.601563 2.128906-1.046875.105469-.066406.230469-.097656.332032-.171875l.085937-.042969c.867188-.640625 1.992188-1.507812 3.367188-2.558594 47.609375-36.503906 84.90625-44.953124 111.054687-25.316406v5.367188c.015625 18.84375 15.289063 34.117187 34.132813 34.132812h8.53125c10.597656-1.191406 18.230469-10.734375 17.066406-21.332031v-153.601563c1.164063-10.597656-6.46875-20.136718-17.066406-21.332031zm-477.867188 93.867188c-.9375-11.035157 6.308594-21.105469 17.066407-23.722657v47.445313c-10.757813-2.621094-18.003907-12.691406-17.066407-23.722656zm34.136719 33.558593v-67.117187c0-64.316406 30.71875-94.148437 54.53125-107.664063-11.980469 46.074219-17.214844 93.644532-15.535156 141.222657-1.679688 47.578125 3.554687 95.148437 15.535156 141.226562-23.8125-13.519531-54.53125-43.351562-54.53125-107.667969zm95.207031 124.78125c-.476562 2.453126-2.785156 4.109376-5.257812 3.777344-5.722657-.386718-10.714844-4.027344-12.824219-9.359375-2.566406-4.730469-4.53125-9.761719-5.851562-14.976562-11.789063-44.890625-16.914063-91.273438-15.210938-137.65625 0-.042969-.023438-.082031-.023438-.125 0-.046875.023438-.082031.023438-.125-1.703125-46.363281 3.414062-92.726563 15.1875-137.601563 1.355469-5.328125 3.375-10.46875 6.019531-15.289062 2.125-5.230469 7.066407-8.769532 12.699219-9.101563 2.414062-.265625 4.648438 1.308594 5.203125 3.675781.972656 5.710938.777344 11.5625-.574219 17.199219l-.265625 1.449219c-.699219 3.742188-1.375 7.375-1.851562 10.726562-1.707031 12.742188-3.183594 25.78125-4.390625 38.765626-2.667969 28.957031-3.957032 58.417968-3.957032 90.050781v.25l.023438.125-.023438.125c0 31.632812 1.289063 61.089843 3.957032 90.058593 1.207031 12.96875 2.683594 26.015626 4.398437 38.816407.46875 3.292969 1.144531 6.925781 1.84375 10.664062l.253907 1.394531c1.355468 5.617188 1.566406 11.453126.621093 17.15625zm84.609375-82.914062c-26.792968 4.859375-50.847656 19.433594-67.558594 40.929688-1.210937 1.53125-2.339843 3.214843-3.480468 4.898437-1.371094-10.761719-2.667969-21.636719-3.679688-32.523437-2.617187-28.429688-3.890625-57.371094-3.890625-88.480469v-.25l-.027343-.125.027343-.125c0-31.109375 1.273438-60.050781 3.890625-88.476563 1.015625-10.921875 2.257813-21.84375 3.632813-32.597656 1.160156 1.714844 2.304687 3.425781 3.59375 5.058594 16.699219 21.445312 40.71875 35.980468 67.464843 40.832031 15.824219 2.96875 31.898438 4.40625 48 4.289063 5.101563 0 10.335938-.121094 15.710938-.367188 9.847656-.445312 18.53125-1.164062 26.671875-2.144531-11.164063 48.457031-11.222656 98.804687-.171875 147.285156-8.09375-.96875-16.71875-1.679687-26.503906-2.125-21.308594-1.21875-42.683594.097656-63.679688 3.921875zm106.761719-5.867188c-10.210937-45.804687-10.136719-93.304687.21875-139.074218 31.460937 22.628906 59.359375 34.113281 83.394531 34.113281 10.730469.078125 21.324219-2.4375 30.875-7.335937v85.441406c-30.089844-15.558594-68.507812-6.546875-114.488281 26.855468zm157.152344 11.507813c.054687 1.488281-.300781 2.964844-1.023438 4.265625h-7.507812c-9.421875-.011719-17.054688-7.644531-17.066407-17.066406v-128c.011719-9.421875 7.644532-17.054688 17.066407-17.066406h7.507812c.722657 1.304687 1.078125 2.777343 1.023438 4.265624zm0 0"/></svg>