<svg height="512pt" viewBox="0 -68 512.07418 512" width="512pt" xmlns="http://www.w3.org/2000/svg"><path d="m495.007812 76.820312h-8.535156c-14.128906.015626-25.582031 11.46875-25.597656 25.597657v1.199219c-13.429688 15.585937-33.015625 24.503906-53.589844 24.402343h-14.675781v-8.535156c-.003906-.5625-.0625-1.121094-.171875-1.671875-.671875-3.371094-17.710938-81.332031-137.15625-98.207031-3.035156-12.589844-15.011719-20.921875-27.875-19.386719s-22.542969 12.449219-22.53125 25.402344v9.164062c-16.324219 2.234375-37.660156 11.128906-41.855469 33.832032-30.390625 2.484374-34.367187 19.464843-34.871093 24.125l-.199219 1.175781c-5.910157 30.523437-30.394531 54.015625-61.132813 58.660156-17.765625-12.195313-41.835937-9.234375-56.109375 6.90625-14.277343 16.140625-14.277343 40.394531 0 56.535156 14.273438 16.140625 38.34375 19.105469 56.109375 6.910157 30.742188 4.644531 55.230469 28.144531 61.132813 58.671874l.199219 1.175782c.511718 4.675781 4.511718 21.628906 34.871093 24.109375 4.195313 22.699219 25.53125 31.597656 41.855469 33.832031v9.167969c-.019531 12.957031 9.664062 23.882812 22.53125 25.417969 12.867188 1.535156 24.851562-6.804688 27.878906-19.40625 119.445313-16.871094 136.484375-94.835938 137.15625-98.203126.109375-.554687.164063-1.113281.167969-1.675781v-8.535156h14.675781c20.574219-.101563 40.160156 8.816406 53.589844 24.402344v1.199219c.015625 14.132812 11.46875 25.585937 25.597656 25.601562h8.535156c9.421876-.015625 17.054688-7.648438 17.066407-17.066406v-187.734375c-.011719-9.421875-7.644531-17.054688-17.066407-17.066407zm-477.867187 110.933594c0-14.140625 11.460937-25.601562 25.601563-25.601562 14.136718 0 25.597656 11.460937 25.597656 25.601562 0 14.136719-11.460938 25.597656-25.597656 25.597656-14.132813-.015624-25.585938-11.46875-25.601563-25.597656zm128 93.867188c.070313-.527344.019531-1.0625-.140625-1.570313l-.25-1.464843c-6.441406-33.878907-31.589844-61.148438-64.839844-70.304688 7.328125-12.703125 7.328125-28.351562 0-41.058594 33.246094-9.152344 58.390625-36.414062 64.839844-70.285156l.28125-1.667969c.066406-.300781.09375-.601562.09375-.910156.347656-2.597656 4.507812-7.132813 17.082031-8.558594v203.910157c-12.574219-1.425782-16.734375-5.890626-17.066406-8.089844zm34.132813 17.066406v-221.867188c0-17.261718 15.46875-22.886718 25.601562-24.714843v271.339843c-10.125-1.785156-25.601562-7.359374-25.601562-24.757812zm59.734374 51.199219c0 4.710937-3.820312 8.53125-8.535156 8.53125-4.710937 0-8.53125-3.820313-8.53125-8.53125v-324.265625c0-4.714844 3.820313-8.535156 8.53125-8.535156 4.714844 0 8.535156 3.820312 8.535156 8.535156zm136.53125-94.851563c-1.847656 7.222656-20.402343 68.304688-119.464843 83.542969v-301.652344c99.53125 15.25 117.566406 75.792969 119.464843 83.519531zm31.746094-24.617187h-14.675781v-85.332031h14.675781c19.367188.058593 38.207032-6.292969 53.589844-18.058594v121.453125c-15.382812-11.769531-34.222656-18.121094-53.589844-18.0625zm79.1875 51.203125c-4.710937-.003906-8.527344-3.824219-8.53125-8.535156v-170.667969c.003906-4.710938 3.820313-8.53125 8.53125-8.53125h8.535156l.015626 187.734375zm0 0"/><path d="m309.972656 68.726562c-4.417968-1.335937-9.101562 1.085938-10.5625 5.46875-1.460937 4.378907.828125 9.128907 5.164063 10.714844 21.882812 7.300782 37.582031 38.09375 37.742187 38.398438 2.148438 4.144531 7.222656 5.792968 11.394532 3.703125 4.175781-2.089844 5.894531-7.140625 3.863281-11.34375-.757813-1.523438-18.976563-37.398438-47.601563-46.941407zm0 0"/><path d="m290.207031 68.285156c0 4.714844-3.820312 8.535156-8.53125 8.535156-4.714843 0-8.535156-3.820312-8.535156-8.535156 0-4.710937 3.820313-8.53125 8.535156-8.53125 4.710938 0 8.53125 3.820313 8.53125 8.53125zm0 0"/></svg>