<svg height="507pt" viewBox="0 -97 507.74629 507" width="507pt" xmlns="http://www.w3.org/2000/svg"><path d="m490.679688 103.6875h-25.601563c-.015625-14.132812-11.464844-25.582031-25.597656-25.597656h-8.535157c-14.132812.015625-25.582031 11.464844-25.597656 25.597656v3.828125c-12.242187 1.871094-23.882812 6.554687-34.011718 13.679687-12.757813 9.863282-23.582032 22.003907-31.921876 35.808594l-1.703124 2.714844c-7.226563 10.714844-15.152344 20.941406-23.722657 30.617188-22.378906 26.1875-50.558593 46.792968-82.296875 60.183593-37.019531 15.265625-79.007812 12.621094-113.816406-7.175781-56.703125-34.671875-69.851562-82.238281-63.25-115.207031 7.386719-38.378907 38.035156-68.015625 76.640625-74.105469 35.359375-4.683594 78.3125 13.066406 86.101563 49.980469 5.914062 24.738281-3.960938 50.566406-24.867188 65.050781-16.546875 10.507812-37.992188 9.089844-53.015625-3.5-10.691406-10.625-16.941406-27.390625-8.199219-38.847656 4.523438-6.621094 12.191406-10.378906 20.191406-9.898438.941407.171875 1.84375.507813 2.667969.988282 8.550781 4.417968 18.828125 3.835937 26.824219-1.523438s12.445312-14.644531 11.609375-24.234375c-.714844-9.015625-6.039063-17.019531-14.082031-21.160156-5.628906-2.960938-11.667969-5.058594-17.917969-6.230469-27.503906-4.023438-54.972656 7.503906-71.367187 29.953125-27.222657 35.921875-13.976563 81.824219 13.199218 108.617187 32.171875 29.5 80.007813 34.078126 117.191406 11.214844 38.75-23.175781 59.574219-74.234375 49.535157-121.398437-14.335938-67.277344-84.90625-99.351563-144.726563-91.511719-60.929687 9.339844-109.53125 55.75-121.671875 116.183594-15.484375 77.214844 37.546875 140.25 87.625 170.738281 27.195313 16.367187 58.390625 24.894531 90.128907 24.644531 24.035156-.046875 47.851562-4.554687 70.242187-13.292968 39.535156-16.390626 74.691406-41.792969 102.667969-74.183594 10.128906-11.453125 19.503906-23.550782 28.066406-36.214844l2.097656-3.144531c4.820313-8.203125 10.945313-15.574219 18.125-21.816407 1.167969-.808593 2.390625-1.539062 3.65625-2.1875v1.164063c.015625 14.132813 11.464844 25.582031 25.597656 25.597656h8.535157c14.132812-.015625 25.582031-11.464843 25.597656-25.597656h25.601563c9.421874-.011719 17.054687-7.648437 17.066406-17.066406v-25.601563c-.011719-9.417968-7.644532-17.054687-17.066406-17.066406zm-98.839844 46.824219c-8.988282 7.402343-16.609375 16.320312-22.519532 26.351562l-1.980468 2.964844c-8.125 12.027344-17.023438 23.515625-26.636719 34.390625-26.183594 30.390625-59.101563 54.246094-96.132813 69.667969-47.40625 19.121093-100.964843 15.433593-145.308593-10-45.398438-27.640625-93.53125-84.25-79.792969-152.808594 10.636719-53.316406 53.449219-94.3125 107.179688-102.632813 52.183593-6.816406 113.523437 20.515626 125.792968 78.144532 8.582032 40.257812-8.917968 83.65625-41.59375 103.199218-30.5 18.953126-69.867187 15.390626-96.464844-8.734374-21.859374-21.550782-32.855468-58.058594-11.578124-86.125 12.480468-17.320313 33.488281-26.355469 54.640624-23.5 4.589844.863281 9.027344 2.410156 13.160157 4.582031 2.832031 1.457031 4.707031 4.269531 4.964843 7.441406.300782 3.253906-1.109374 6.429687-3.722656 8.386719-2.867187 2.046875-6.621094 2.367187-9.792968.839844-2.390626-1.320313-4.988282-2.226563-7.679688-2.683594-14.289062-1.683594-28.351562 4.59375-36.640625 16.351562-14.710937 19.296875-6.242187 45.449219 9.773437 61.367188 20.625 17.921875 50.507813 20.351562 73.757813 5.996094 25.96875-15.539063 39.757813-50.546876 32.808594-83.238282-9.8125-46.460937-62.121094-69.121094-105.046875-63.359375-45.816406 7.109375-82.257813 42.175781-91.125 87.683594-7.742188 38.605469 6.863281 93.851563 71.082031 133.121094 39.351563 22.542969 86.902344 25.6875 128.878906 8.515625 34.25-14.363282 64.675781-36.527344 88.851563-64.726563 9.136718-10.308593 17.578125-21.207031 25.273437-32.632812l1.972657-3.117188c7.113281-11.828125 16.324218-22.261719 27.1875-30.78125 7.246093-5.132812 15.492187-8.683593 24.199218-10.4375v19.296875c-4.828125 1.402344-9.394531 3.589844-13.507812 6.476563zm56.171875 12.910156c0 4.710937-3.820313 8.53125-8.53125 8.53125h-8.535157c-4.710937 0-8.53125-3.820313-8.53125-8.53125v-59.734375c0-4.710938 3.820313-8.53125 8.53125-8.53125h8.535157c4.710937 0 8.53125 3.820312 8.53125 8.53125zm42.667969-17.066406h-25.601563v-25.601563h25.601563zm0 0"/></svg>