<svg height="512pt" viewBox="0 -85 512.02961 512" width="512pt" xmlns="http://www.w3.org/2000/svg"><path d="m469.332031 42.679688c-16.847656-.335938-32.003906 10.191406-37.570312 26.097656-5.949219 2.496094-10.988281 6.765625-14.421875 12.230468-4.855469 6.03125-10.363282 12.875-16.273438 12.875-5 0-10-5-15.300781-10.300781-6.371094-8.085937-15.535156-13.492187-25.691406-15.160156-7.640625-2.132813-95.511719-27.253906-159.28125-67.105469l-.019531-.019531c-.191407-.117187-.410157-.121094-.605469-.222656-.507813-.25-1.039063-.449219-1.582031-.59375-.3125-.132813-.632813-.246094-.957032-.339844-.234375-.039063-.464844.027344-.703125.011719-.234375-.019532-.425781-.136719-.660156-.136719-.3125.0429688-.625.105469-.933594.1875-.328125-.007813-.660156 0-.992187.027344-.246094.058593-.441406.230469-.679688.308593-.519531.171876-1.015625.394532-1.488281.667969-.292969.113281-.578125.246094-.855469.390625-.191406.136719-.308594.359375-.488281.515625-.425781.367188-.816406.78125-1.15625 1.230469-.230469.21875-.453125.453125-.65625.699219-.46875.761719-.898437 1.546875-1.28125 2.355469-23.320313 41.273437-49.523437 80.847656-78.40625 118.4375-4.410156-3.464844-9.855469-5.351563-15.460937-5.355469-11.277344.039062-21.195313 7.464843-24.40625 18.273437-7.53125-6.253906-17.003907-9.695312-26.792969-9.738281-23.566407 0-42.667969 19.101563-42.667969 42.664063 0 23.566406 19.101562 42.667968 42.667969 42.667968 9.789062-.042968 19.261719-3.484375 26.792969-9.738281 2.289062 8.082031 8.464843 14.484375 16.460937 17.0625s16.75.984375 23.328125-4.238281c28.839844 37.488281 54.996094 76.972656 78.273438 118.148437.460937.917969.925781 1.824219 1.492187 2.742188.207031.246093.425781.476562.65625.699219.34375.449218.730469.859374 1.15625 1.230468.851563.675782 1.804687 1.207032 2.828125 1.566406.242188.082032.4375.253907.683594.3125.632812.140626 1.277344.214844 1.925781.214844 1.007813-.019531 2-.222656 2.9375-.589844.273437-.105468.539063-.226562.800781-.359374.269532-.101563.53125-.21875.789063-.351563 63.761719-39.847656 151.636719-64.96875 159.28125-67.105469 10.15625-1.667968 19.320312-7.074218 25.691406-15.160156 5.300781-5.300781 10.300781-10.300781 15.300781-10.300781 5.910156 0 11.417969 6.84375 16.273438 12.875 3.433594 5.464843 8.472656 9.734375 14.421875 12.226562 5.566406 15.910157 20.722656 26.4375 37.570312 26.097657 11.445313.4375 22.550781-3.917969 30.648438-12.015626 8.097656-8.097656 12.453125-19.207031 12.019531-30.648437v-170.667969c.433594-11.441406-3.921875-22.550781-12.019531-30.648437-8.097657-8.097657-19.203125-12.453125-30.648438-12.019531zm-264.53125-19.164063c46.078125 25.042969 94.714844 45.070313 145.066407 59.734375v174.855469c-50.347657 14.671875-98.980469 34.695312-145.066407 59.722656zm-162.132812 172.765625c-14.140625 0-25.601563-11.460938-25.601563-25.601562 0-14.136719 11.460938-25.597657 25.601563-25.597657 14.136719 0 25.597656 11.460938 25.597656 25.597657-.015625 14.132812-11.46875 25.585937-25.597656 25.601562zm59.730469 0c0 4.714844-3.820313 8.535156-8.53125 8.535156-4.710938-.003906-8.53125-3.824218-8.535157-8.535156v-51.199219c-.011719-3.511719 2.132813-6.667969 5.398438-7.949219 3.269531-1.28125 6.988281-.417968 9.359375 2.164063.515625.496094.945312 1.074219 1.277344 1.707031.667968 1.257813 1.023437 2.65625 1.03125 4.078125zm16.472656 4.789062c.347656-1.574218.546875-3.179687.59375-4.789062v-51.199219c-.046875-1.613281-.246094-3.214843-.59375-4.789062 1.578125-1.972657 4.585937-5.789063 8.769531-11.296875.28125-.367188.519531-.683594.808594-1.0625.910156-1.199219 1.910156-2.542969 2.914062-3.882813.523438-.703125 1.011719-1.34375 1.558594-2.085937.910156-1.222656 1.890625-2.558594 2.863281-3.882813.742188-1.011719 1.449219-1.972656 2.230469-3.039062.921875-1.269531 1.902344-2.636719 2.875-3.984375.910156-1.265625 1.800781-2.496094 2.75-3.824219.949219-1.332031 1.9375-2.742187 2.925781-4.136719 1.058594-1.5 2.101563-2.976562 3.199219-4.550781.96875-1.386719 1.96875-2.84375 2.964844-4.289063 1.183593-1.710937 2.359375-3.417968 3.585937-5.207031.996094-1.464843 2.019532-2.988281 3.039063-4.503906 1.28125-1.898437 2.558593-3.792969 3.871093-5.769531 1.039063-1.5625 2.097657-3.179688 3.15625-4.789063 1.335938-2.035156 2.667969-4.066406 4.03125-6.171875 1.09375-1.691406 2.203126-3.429687 3.3125-5.167968 1.367188-2.140626 2.738282-4.289063 4.128907-6.5 1.148437-1.824219 2.304687-3.6875 3.460937-5.554688 1.378906-2.222656 2.757813-4.453125 4.15625-6.738281.753906-1.238281 1.503906-2.460938 2.261719-3.71875v261.089843c-20.875-34.769531-43.875-68.21875-68.863281-100.15625zm282.195312 29.34375c-10.84375 1.105469-20.746094 6.640626-27.367187 15.300782-2.304688 2.304687-4.550781 4.476562-6.765625 6.285156v-162.636719c2.21875 1.808594 4.460937 3.980469 6.765625 6.285157 6.621093 8.660156 16.523437 14.195312 27.367187 15.300781 10.269532-.738281 19.667969-6.046875 25.601563-14.460938v148.386719c-5.933594-8.414062-15.332031-13.722656-25.601563-14.460938zm93.867188 25.550782c.378906 6.902344-2.195313 13.640625-7.078125 18.535156-4.882813 4.894531-11.617188 7.480469-18.523438 7.113281-25.117187 0-25.589843-32.757812-25.597656-34.132812v-153.597657c.105469-4.636718.789063-9.238281 2.035156-13.703124.039063-.09375.039063-.203126.078125-.296876 2.414063-12.714843 14.210938-21.429687 27.074219-19.996093 12.863281 1.433593 22.453125 12.527343 22.011719 25.460937zm0 0"/><path d="m325.667969 94c-31.902344-5.953125-62.605469-17.113281-90.882813-33.035156-4.027344-2.292969-9.152344-.949219-11.539062 3.027344-2.382813 3.976562-1.15625 9.132812 2.765625 11.605468 30.074219 17.109375 62.820312 29.019532 96.859375 35.234375.460937.078125.933594.117188 1.402344.117188 4.4375-.007813 8.128906-3.414063 8.492187-7.835938s-2.722656-8.382812-7.097656-9.113281zm0 0"/></svg>