<svg height="512pt" viewBox="0 -43 512 512" width="512pt" xmlns="http://www.w3.org/2000/svg"><path d="m34.132812 349.867188v11.898437c-.007812 5.054687 1.492188 10 4.300782 14.199219.464844.695312 1.027344 1.316406 1.667968 1.851562l56.867188 46.902344c.410156.285156.851562.53125 1.308594.738281.332031.222657.679687.417969 1.039062.585938.980469.398437 2.027344.609375 3.082032.625h25.601562c9.421875-.015625 17.054688-7.648438 17.066406-17.066407v-35.441406l36.933594-6.152344h.015625c8.234375-1.359374 14.269531-8.488281 14.25-16.832031v-1.308593h17.066406c7.5-.027344 14.097657-4.953126 16.253907-12.136719 65.148437-48.289063 180.363281-41.933594 207.335937-39.671875l5.453125 21.808594c1.886719 7.605468 8.722656 12.941406 16.558594 12.933593h36c9.421875-.011719 17.054687-7.648437 17.066406-17.066406v-204.800781c-.011719-9.421875-7.644531-17.054688-17.066406-17.066406h-36c-7.835938-.007813-14.667969 5.328124-16.554688 12.933593l-5.453125 21.808594c-26.949219 2.273437-142.109375 8.675781-207.335937-39.675781-2.160156-7.179688-8.757813-12.105469-16.257813-12.132813h-17.066406v-1.308593c.015625-8.351563-6.027344-15.480469-14.265625-16.835938l-36.933594-6.152344v-35.4375c-.011718-9.421875-7.644531-17.0546872-17.066406-17.066406h-25.601562c-.136719 0-.25.0703125-.382813.078125-.945313.027344-1.878906.21875-2.761719.554687-.066406.027344-.140625.03125-.207031.058594-.75.320313-1.449219.746094-2.078125 1.257813l-56.867188 46.902343c-.640624.53125-1.203124 1.15625-1.667968 1.847657-2.808594 4.203125-4.308594 9.144531-4.300782 14.199219v11.902343c-18.84375.015625-34.1132808 15.289063-34.132812 34.132813v204.800781c.0195312 18.84375 15.289062 34.113281 34.132812 34.132813zm401.066407-101.664063c-31.492188-1.460937-136.304688-4.070313-204.800781 20.820313v-111.386719c49.972656 18.15625 119.28125 21.695312 165.367187 21.695312 17.046875 0 30.910156-.476562 39.433594-.871093zm-204.800781 68.351563v-29.257813c64.734374-26.132813 174.570312-23.332031 204.800781-21.976563v15.4375c-31.925781-2.5625-135.804688-6.96875-204.800781 35.800782zm221.867187-178.972657 6.667969-26.648437h36l.015625 204.800781h-36.027344l-6.65625-26.652344zm-17.066406 8.328125v15.4375c-30.226563 1.359375-140.039063 4.164063-204.800781-21.976562v-29.332032c50.382812 31.242188 119.371093 37.386719 165.394531 37.386719 16.976562 0 30.789062-.824219 39.40625-1.515625zm-221.867188-52.042968v51.0625l.011719 136.75v51.121093h-17.078125v-238.933593zm-34.132812-18.375v275.683593l-34.132813 5.683594v-287.050781zm-51.199219-15.765626v307.207032l.015625.066406v42.601562h-17.082031v-392.535156h17.066406zm-76.800781 5.171876c-.003907-1.328126.308593-2.636719.910156-3.824219l41.757813-34.441407v373.402344l-41.757813-34.441406c-.601563-1.1875-.914063-2.5-.910156-3.828125zm-34.132813 46.035156c.011719-9.421875 7.648438-17.054688 17.066406-17.066406v238.933593c-9.417968-.011719-17.054687-7.648437-17.066406-17.066406zm0 0"/></svg>