<svg height="511pt" viewBox="-85 0 511 511.97274" width="511pt" xmlns="http://www.w3.org/2000/svg"><path d="m335.558594 60.367188c3.96875-3.234376 6.269531-8.085938 6.261718-13.207032v-30.09375c-.011718-9.421875-7.644531-17.0546872-17.066406-17.066406h-93.867187c-9.421875.0117188-17.054688 7.644531-17.066407 17.066406v17.066406h-85.332031v-17.066406c-.011719-9.421875-7.648437-17.0546872-17.070312-17.066406h-93.863281c-9.421876.0117188-17.058594 7.644531-17.066407 17.066406v30.09375c-.011719 5.117188 2.285157 9.96875 6.257813 13.199219l87.605468 71.6875v175.683594l-5.75 5.246093c-2.601562 2.371094-3.480468 6.101563-2.207031 9.386719 1.273438 3.289063 4.433594 5.453125 7.957031 5.453125v31.113282l-5.75 5.246093c-2.601562 2.375-3.480468 6.105469-2.207031 9.390625 1.273438 3.285156 4.433594 5.449219 7.957031 5.449219v31.117187l-5.75 5.242188c-2.601562 2.375-3.480468 6.105469-2.207031 9.390625 1.273438 3.285156 4.433594 5.449219 7.957031 5.449219v9.644531c-.015624 4.847656 2.046876 9.46875 5.664063 12.699219l1.96875 1.8125-.132813.121094c-3.484374 3.175781-3.734374 8.574218-.558593 12.058593s8.578125 3.734375 12.058593.558594l1.230469-1.121094 15.320313 14.128907c-3.402344 3.199218-3.601563 8.535156-.449219 11.980468 3.148437 3.445313 8.484375 3.71875 11.96875.609375l1.074219-.976562 17.417968 16.0625c3.097657 2.703125 7.070313 4.1875 11.179688 4.179687 4.21875-.007812 8.292969-1.546875 11.460938-4.332031l59.5625-54.933594c3.707031-3.242187 5.835937-7.925781 5.835937-12.847656v-44.308594l5.75-5.242187c1.671875-1.523438 2.671875-3.652344 2.773437-5.914063.105469-2.261719-.691406-4.472656-2.21875-6.144531-1.621093-1.761719-3.914062-2.75-6.304687-2.714844v-31.183594l5.75-5.242187c1.671875-1.527344 2.671875-3.652344 2.773437-5.914063.105469-2.261718-.691406-4.472656-2.21875-6.144531-1.621093-1.761719-3.914062-2.75-6.304687-2.71875v-31.179687l5.75-5.242188c1.671875-1.527344 2.671875-3.652344 2.773437-5.914062.105469-2.261719-.691406-4.472656-2.21875-6.144532-1.621093-1.761718-3.914062-2.75-6.304687-2.71875v-31.179687l5.75-5.246094c1.671875-1.523437 2.671875-3.652343 2.773437-5.914062.105469-2.261719-.691406-4.46875-2.21875-6.144531-1.621093-1.757813-3.914062-2.746094-6.304687-2.710938v-31.183594l5.75-5.246094c1.671875-1.523437 2.671875-3.652343 2.773437-5.914062.105469-2.261719-.691406-4.472656-2.21875-6.144531-1.621093-1.761719-3.914062-2.746094-6.304687-2.714844v-38.683594zm-318.003906-43.300782h93.863281v17.066406c.011719 9.421876 7.648437 17.054688 17.070312 17.066407h85.332031c9.421876-.011719 17.054688-7.644531 17.066407-17.066407v-17.066406l93.867187-.007812v30.101562l-88.378906 72.304688h-130.441406l-88.378906-72.304688zm93.863281 119.46875h119.46875l-.023438 46.703125-119.445312 108.925781zm119.304687 303.472656-59.40625 55.085938-16.164062-14.90625 75.585937-68.933594zm.027344-51.871093-88.195312 80.433593-15.316407-14.125 103.527344-94.417968zm.027344-51.226563-116.136719 105.917969-3.222656-2.96875v-22.1875l119.375-108.867187zm.023437-51.222656-119.382812 108.878906v-28.09375l119.402343-108.894531zm.027344-51.226562-119.410156 108.90625v-28.097657l119.425781-108.914062zm0 0"/></svg>