<svg height="511pt" viewBox="0 -112 511.93329 511" width="511pt" xmlns="http://www.w3.org/2000/svg"><path d="m281.574219 83.238281h-51.199219c-14.132812.015625-25.585938 11.46875-25.601562 25.597657v42.691406h-10.929688l-.078125-.109375c-5.621094-20.449219-20.929687-71.539063-42.191406-106.730469-13.085938-24.261719-37.117188-40.671875-64.476563-44.023438-17.457031-1.335937-43.726562 3.515626-69.65625 34.421876-38.289062 45.636718-4.847656 94.777343 17.707032 113.945312l129.933593 129.03125c6.433594 6.414062 15.152344 10.003906 24.238281 9.976562h133.308594c9.082032.023438 17.804688-3.5625 24.242188-9.976562l129.703125-128.808594c23.027343-19.757812 56.085937-68.699218 17.933593-114.167968-25.925781-30.898438-52.195312-35.75-69.65625-34.421876-27.359374 3.351563-51.394531 19.761719-64.480468 44.023438-21.296875 35.25-36.621094 86.457031-42.273438 106.816406h-10.925781v-42.667968c-.015625-14.128907-11.464844-25.582032-25.597656-25.597657zm-59.734375 25.597657c.003906-4.710938 3.824218-8.527344 8.535156-8.53125h51.199219c4.710937.003906 8.527343 3.820312 8.53125 8.53125v42.667968h-68.265625zm-175.144532 27.636718c-2.195312-1.867187-53.273437-46.21875-16.179687-90.417968 15.714844-18.726563 33.414063-28.523438 51.421875-28.523438 1.277344 0 2.558594.050781 3.84375.148438 21.851562 2.980468 40.914062 16.328124 51.1875 35.839843 20.757812 34.351563 36.148438 87.160157 40.371094 102.527344.355468 1.007813.804687 1.980469 1.347656 2.898437l-6.78125 101.835938zm142.625 134.5c-.335937 0-.65625-.078125-.988281-.097656l6.816407-102.304688h121.652343l6.8125 102.304688c-.332031.019531-.652343.097656-.984375.097656zm185.65625-217.453125c10.273438-19.511719 29.339844-32.859375 51.1875-35.839843 19.28125-1.539063 38.425782 8.308593 55.265626 28.375 36.945312 44.023437-14 88.554687-16.1875 90.425781-.15625.140625-.324219.289062-.46875.433593l-124.730469 123.871094-6.785157-101.832031c.542969-.921875.996094-1.894531 1.347657-2.902344 4.226562-15.371093 19.613281-68.179687 40.371093-102.53125zm0 0"/><path d="m83.234375 32.292969c-23.734375 6.597656-42.277344 25.144531-48.871094 48.878906-.8125 2.980469.054688 6.171875 2.261719 8.332031 2.207031 2.164063 5.414062 2.964844 8.378906 2.09375s5.226563-3.277344 5.914063-6.292968c5.03125-17.652344 18.832031-31.445313 36.488281-36.464844 4.460938-1.242188 7.121094-5.816406 5.988281-10.308594-1.132812-4.492188-5.640625-7.261719-10.160156-6.238281zm0 0"/><path d="m424.535156 48.839844c17.65625 5.019531 31.460938 18.8125 36.492188 36.464844 1.222656 4.480468 5.796875 7.164062 10.304687 6.039062 4.503907-1.125 7.28125-5.644531 6.25-10.171875-6.589843-23.734375-25.136719-42.28125-48.871093-48.878906-4.511719-1.011719-9.011719 1.753906-10.140626 6.238281-1.132812 4.484375 1.511719 9.054688 5.964844 10.304688zm0 0"/></svg>