<svg height="512pt" viewBox="-111 0 512 512" width="512pt" xmlns="http://www.w3.org/2000/svg"><path d="m90.113281.769531-.214843-.070312c-1.480469-.441407-3.019532-.6757815-4.566407-.699219-1.28125.0195312-2.539062.332031-3.683593.914062-46.582032 6.292969-81.414063 45.945313-81.648438 92.953126v17.066406c.015625 14.132812 11.46875 25.585937 25.601562 25.601562h42.664063v159.113282l-5.75 5.242187c-2.605469 2.375-3.484375 6.105469-2.210937 9.390625 1.273437 3.289062 4.4375 5.453125 7.960937 5.453125v31.113281l-5.75 5.246094c-2.605469 2.371094-3.480469 6.101562-2.207031 9.390625 1.273437 3.285156 4.433594 5.449219 7.957031 5.449219v31.113281l-5.75 5.246094c-2.605469 2.371093-3.480469 6.105469-2.207031 9.390625 1.273437 3.285156 4.433594 5.449218 7.957031 5.449218v31.117188l-5.75 5.242188c-2.605469 2.375-3.480469 6.105468-2.207031 9.390624 1.273437 3.289063 4.4375 5.453126 7.960937 5.449219.257813 0 .496094-.113281.746094-.136719 1.792969 10.796876 7.003906 20.726563 14.867187 28.335938.042969.050781.054688.117188.101563.171875.113281.125.273437.164063.390625.28125 9.46875 8.996094 22.03125 14.011719 35.089844 14.015625h51.203125c28.261719-.03125 51.167969-22.9375 51.199219-51.199219v-26.171875l5.746093-5.238281c3.480469-3.171875 3.734375-8.566406.566407-12.050781-1.625-1.761719-3.917969-2.75-6.316407-2.71875v-31.1875l5.746094-5.242188c3.480469-3.171875 3.734375-8.566406.566406-12.050781-1.621093-1.761719-3.914062-2.753906-6.308593-2.722656v-31.148438l5.75-5.242187c1.671874-1.523438 2.671874-3.652344 2.773437-5.914063.105469-2.261719-.695313-4.472656-2.21875-6.144531-1.621094-1.761719-3.914063-2.75-6.304687-2.714844v-31.183594l5.75-5.246093c1.671874-1.523438 2.671874-3.652344 2.773437-5.914063.105469-2.261718-.695313-4.472656-2.21875-6.144531-1.617187-1.761719-3.910156-2.753906-6.304687-2.71875v-31.179687l5.75-5.242188c1.671874-1.527344 2.671874-3.652344 2.773437-5.914062.105469-2.261719-.695313-4.472657-2.21875-6.144532-1.621094-1.757812-3.914063-2.746094-6.304687-2.714844v-31.183593l5.75-5.242188c1.671874-1.527343 2.671874-3.652343 2.773437-5.914062.105469-2.261719-.695313-4.472657-2.21875-6.144531-1.621094-1.761719-3.914063-2.75-6.304687-2.71875v-22.113282h42.667968c14.128906-.015625 25.582032-11.46875 25.597656-25.601562v-17.066406c-.234374-47.007813-35.066406-86.660157-81.648437-92.953126-1.144531-.582031-2.402344-.8945308-3.683594-.914062-1.542969.0234375-3.070312.253906-4.546875.691406l-.207031.066406c-7.269531 2.097657-12.289063 8.742188-12.3125 16.308594v17.066406h-85.335937v-17.066406c-.027344-7.558594-5.027344-14.191406-12.285157-16.296875zm114.6875 460.03125c-.019531 18.84375-15.289062 34.113281-34.132812 34.132813h-14.925781l49.058593-44.738282zm0-33.707031-74.394531 67.839844h-10.941406c-5.410156-.039063-10.730469-1.375-15.511719-3.902344l100.847656-92.023438zm0-51.191406-113.734375 103.78125c-3.738281-5.585938-5.734375-12.160156-5.734375-18.882813v-4.011719l119.46875-108.953124zm0-51.175782-119.46875 108.957032v-28.09375l119.46875-108.953125zm0-51.203124-119.46875 108.960937v-28.09375l119.46875-108.953125zm0-51.199219-119.46875 108.957031v-28.09375l119.46875-108.953125zm0-51.199219-119.46875 108.957031v-143.546875h119.46875zm-17.066406-119.925781c9.421875-.011719 17.054687-7.644531 17.066406-17.066407v-16.5c38.761719 4.480469 68.070313 37.210938 68.265625 76.234376v17.066406c-.003906 4.710937-3.820312 8.527344-8.53125 8.53125h-238.933594c-4.710937-.003906-8.53125-3.820313-8.535156-8.53125v-17.066406c.195313-39.023438 29.503906-71.753907 68.265625-76.234376v16.5c.011719 9.421876 7.648438 17.054688 17.066407 17.066407zm0 0"/></svg>