<svg height="512pt" viewBox="0 -34 512.05458 512" width="512pt" xmlns="http://www.w3.org/2000/svg"><path d="m395.003906 12.820312c-4.589844-7.898437-13.023437-12.7617182-22.15625-12.7773432l-233.640625-.015625c-9.132812.015625-17.566406 4.8789062-22.152343 12.7734372l-113.625 196.269531c-4.574219 7.9375-4.574219 17.710938.007812 25.648438l113.617188 196.265625c4.585937 7.898437 13.023437 12.761719 22.152343 12.777344l233.640625.015625c9.132813-.015625 17.570313-4.878906 22.15625-12.773438l113.621094-196.269531c4.574219-7.9375 4.574219-17.710937-.003906-25.648437zm98.847656 213.367188-113.617187 196.265625c-1.53125 2.628906-4.34375 4.25-7.386719 4.257813l-233.640625-.015626c-3.042969-.007812-5.855469-1.628906-7.386719-4.257812l-113.613281-196.269531c-1.53125-2.644531-1.53125-5.902344-.007812-8.546875l113.628906-196.269532c1.523437-2.628906 4.335937-4.253906 7.378906-4.257812l233.640625.015625c3.042969.007813 5.855469 1.628906 7.386719 4.261719l113.613281 196.265625c1.527344 2.644531 1.53125 5.902343.003906 8.550781zm0 0"/><path d="m129.921875 75.695312c4.078125 2.359376 9.300781.972657 11.667969-3.101562l12.382812-21.347656h33.738282c4.710937 0 8.53125-3.820313 8.53125-8.535156 0-4.710938-3.820313-8.535157-8.53125-8.535157h-38.65625c-3.042969 0-5.855469 1.621094-7.382813 4.25l-14.847656 25.601563c-2.363281 4.078125-.976563 9.296875 3.097656 11.667968zm0 0"/><path d="m454.335938 183.492188c-1.53125-2.636719-4.351563-4.253907-7.402344-4.25-3.046875.007812-5.863282 1.640624-7.378906 4.285156-1.519532 2.644531-1.511719 5.898437.019531 8.535156l17.3125 29.847656-17.320313 29.851563c-2.363281 4.074219-.976562 9.296875 3.097656 11.664062 4.078126 2.367188 9.300782.980469 11.667969-3.097656l19.796875-34.132813c1.53125-2.652343 1.53125-5.917968 0-8.566406zm0 0"/><path d="m187.710938 392.578125h-33.738282l-12.382812-21.351563c-1.53125-2.636718-4.351563-4.257812-7.402344-4.25-3.046875.007813-5.859375 1.640626-7.378906 4.285157-1.519532 2.644531-1.511719 5.894531.019531 8.53125l14.847656 25.601562c1.527344 2.628907 4.335938 4.25 7.378907 4.25h38.65625c4.710937 0 8.53125-3.820312 8.53125-8.535156 0-4.710937-3.820313-8.53125-8.53125-8.53125zm0 0"/><path d="m69.363281 180.394531c-4.078125-2.355469-9.292969-.972656-11.660156 3.097657l-19.796875 34.136718c-1.535156 2.648438-1.535156 5.914063 0 8.566406l19.796875 34.132813c1.527344 2.632813 4.34375 4.253906 7.390625 4.25 1.5 0 2.972656-.394531 4.265625-1.152344 4.078125-2.363281 5.46875-7.585937 3.105469-11.664062l-17.3125-29.851563 17.316406-29.847656c2.363281-4.082031.972656-9.304688-3.105469-11.667969zm0 0"/><path d="m382.109375 368.128906c-4.078125-2.355468-9.289063-.96875-11.660156 3.097656l-12.378907 21.351563h-33.828124c-4.710938 0-8.53125 3.820313-8.53125 8.53125 0 4.714844 3.820312 8.535156 8.53125 8.535156h38.742187c3.042969 0 5.855469-1.617187 7.382813-4.25l14.851562-25.601562c1.132812-1.957031 1.445312-4.289063.863281-6.476563s-2.011719-4.054687-3.972656-5.1875zm0 0"/><path d="m324.242188 51.246094h33.828124l12.378907 21.347656c1.53125 2.636719 4.351562 4.257812 7.398437 4.25 3.050782-.003906 5.863282-1.636719 7.382813-4.28125s1.511719-5.898438-.019531-8.535156l-14.847657-25.601563c-1.527343-2.628906-4.335937-4.246093-7.378906-4.25h-38.742187c-4.710938 0-8.53125 3.824219-8.53125 8.535157 0 4.714843 3.820312 8.535156 8.53125 8.535156zm0 0"/><path d="m255.976562 76.84375c-80.117187 0-145.066406 64.949219-145.066406 145.066406 0 80.117188 64.949219 145.066406 145.066406 145.066406 80.117188 0 145.066407-64.949218 145.066407-145.066406-.089844-80.082031-64.984375-144.976562-145.066407-145.066406zm0 273.066406c-70.691406 0-128-57.308594-128-128s57.308594-128 128-128c70.691407 0 128 57.308594 128 128-.078124 70.660156-57.339843 127.921875-128 128zm0 0"/><path d="m255.976562 110.976562c-61.265624 0-110.933593 49.667969-110.933593 110.933594 0 61.269532 49.667969 110.933594 110.933593 110.933594 61.265626 0 110.933594-49.664062 110.933594-110.933594-.070312-61.238281-49.695312-110.863281-110.933594-110.933594zm0 204.800782c-51.839843 0-93.867187-42.023438-93.867187-93.867188 0-51.839844 42.027344-93.867187 93.867187-93.867187 51.839844 0 93.867188 42.027343 93.867188 93.867187-.058594 51.816406-42.050781 93.808594-93.867188 93.867188zm0 0"/></svg>