<svg height="512pt" viewBox="-68 0 512 512" width="512pt" xmlns="http://www.w3.org/2000/svg"><path d="m264.535156 0h-153.601562c-14.132813.015625-25.585938 11.46875-25.601563 25.601562v68.265626h-8.53125c-9.421875.011718-17.054687 7.644531-17.066406 17.066406v17.066406h-29.867187c-16.496094 0-29.867188 13.371094-29.867188 29.867188 0 16.496093 13.371094 29.867187 29.867188 29.867187h81.066406v107.914063l-5.746094 5.242187c-2.605469 2.375-3.484375 6.105469-2.210938 9.390625 1.273438 3.285156 4.433594 5.453125 7.957032 5.453125v31.113281l-5.75 5.246094c-2.605469 2.371094-3.484375 6.101562-2.210938 9.390625 1.273438 3.285156 4.4375 5.449219 7.960938 5.449219v31.113281l-5.75 5.246094c-2.605469 2.371093-3.484375 6.105469-2.210938 9.390625 1.273438 3.285156 4.4375 5.449218 7.960938 5.449218v31.117188l-5.75 5.242188c-2.605469 2.375-3.484375 6.105468-2.210938 9.390624 1.277344 3.289063 4.441406 5.453126 7.964844 5.449219.257812 0 .492188-.113281.746094-.136719 1.792968 10.796876 7.003906 20.726563 14.867187 28.335938.042969.050781.054688.117188.097657.171875.113281.125.277343.164063.394531.28125 9.46875 8.996094 22.03125 14.011719 35.089843 14.015625h51.199219c28.265625-.03125 51.171875-22.9375 51.203125-51.199219v-26.171875l5.742188-5.238281c3.484375-3.171875 3.738281-8.566406.566406-12.050781-1.621094-1.761719-3.917969-2.75-6.3125-2.71875v-31.1875l5.746094-5.242188c3.480468-3.171875 3.734375-8.566406.566406-12.050781-1.621094-1.761719-3.914062-2.753906-6.308594-2.722656v-31.148438l5.746094-5.242187c1.675781-1.523438 2.671875-3.652344 2.777344-5.914063.105468-2.261719-.695313-4.472656-2.222656-6.144531-1.617188-1.761719-3.910157-2.75-6.300782-2.71875v-31.179688l5.746094-5.246093c1.675781-1.523438 2.671875-3.652344 2.777344-5.914063.105468-2.261718-.695313-4.472656-2.222656-6.144531-1.617188-1.761719-3.910157-2.75-6.300782-2.71875v-31.179687l5.746094-5.242188c1.675781-1.527344 2.671875-3.652344 2.777344-5.914062.105468-2.261719-.695313-4.472657-2.222656-6.144532-1.621094-1.757812-3.910157-2.742187-6.300782-2.714844v-22.117187h81.066406c16.492188 0 29.863282-13.371094 29.863282-29.867187 0-16.496094-13.371094-29.867188-29.863282-29.867188h-29.867187v-17.066406c-.011719-9.421875-7.648437-17.054688-17.066406-17.066406h-8.535157v-68.265626c-.015624-14.132812-11.46875-25.585937-25.597656-25.601562zm8.53125 25.601562v68.265626h-25.601562v-76.800782h17.070312c4.710938.003906 8.527344 3.824219 8.53125 8.535156zm-42.667968-8.535156v76.800782h-85.332032v-76.800782zm-128 8.535156c.003906-4.710937 3.824218-8.53125 8.535156-8.535156h17.066406v76.800782h-25.601562zm25.601562 162.132813h101.210938l-101.210938 92.34375zm0 115.445313 119.464844-109.003907v28.152344l-119.464844 108.953125zm119.464844 157.621093c-.019532 18.84375-15.289063 34.113281-34.132813 34.132813h-14.921875l49.054688-44.738282zm0-33.707031-74.390625 67.839844h-10.941407c-5.410156-.039063-10.730468-1.375-15.515624-3.902344l100.847656-92.023438zm0-51.191406-113.730469 103.78125c-3.742187-5.585938-5.738281-12.160156-5.734375-18.882813v-4.011719l119.464844-108.953124zm0-51.175782-119.464844 108.957032v-28.09375l119.464844-108.953125zm0-51.203124-119.464844 108.960937v-28.09375l119.464844-108.953125zm98.136718-128.457032c7.066407 0 12.796876 5.730469 12.796876 12.800782 0 7.070312-5.730469 12.800781-12.796876 12.800781h-315.734374c-7.070313 0-12.800782-5.730469-12.800782-12.800781 0-7.070313 5.730469-12.800782 12.800782-12.800782zm-46.921874-17.066406h-221.878907v-17.066406h221.867188zm0 0"/></svg>