<svg height="511pt" viewBox="-93 0 511 511.9275" width="511pt" xmlns="http://www.w3.org/2000/svg"><path d="m128.445312 136.535156c-4.710937 0-8.53125 3.820313-8.53125 8.53125v25.601563c0 4.710937 3.820313 8.53125 8.53125 8.53125 4.714844 0 8.535157-3.820313 8.535157-8.53125v-25.601563c0-4.710937-3.820313-8.53125-8.535157-8.53125zm0 0"/><path d="m128.445312 196.265625c-4.710937 0-8.53125 3.820313-8.53125 8.535156v128c0 4.710938 3.820313 8.53125 8.53125 8.53125 4.714844 0 8.535157-3.820312 8.535157-8.53125v-128c0-4.714843-3.820313-8.535156-8.535157-8.535156zm0 0"/><path d="m91.429688 452.566406 59.917968 55.210938c3.101563 2.683594 7.066406 4.160156 11.167969 4.148437 4.222656-.003906 8.300781-1.535156 11.480469-4.316406l59.527344-54.847656c3.730468-3.234375 5.871093-7.929688 5.855468-12.867188v-322.1875c0-2.175781.828125-4.269531 2.320313-5.855469l78.980469-83.816406c.226562-.242187.441406-.496094.640624-.761718 3.851563-5.175782 4.457032-12.082032 1.566407-17.847657-2.894531-5.769531-8.789063-9.4140622-15.238281-9.425781h-290.132813c-6.453125.0117188-12.347656 3.65625-15.238281 9.425781-2.894532 5.765625-2.2890628 12.671875 1.5625 17.847657.199218.265624.414062.519531.640625.761718l78.984375 83.816406c1.488281 1.585938 2.320312 3.679688 2.316406 5.855469v322.1875c-.035156 4.839844 2.027344 9.460938 5.648438 12.671875zm71.300781 42.492188-59.882813-55.164063v-320.429687h119.464844l-.148438 320.550781zm-145.140625-477.992188 289.960937.023438-78.265625 83.058594c-.628906.71875-1.214844 1.46875-1.757812 2.25h-129.894532c-.542968-.78125-1.125-1.53125-1.753906-2.25zm0 0"/></svg>