<svg height="510pt" viewBox="-6 0 510 510.96465" width="510pt" xmlns="http://www.w3.org/2000/svg"><path d="m447.15625 230.398438h27.441406c7.824219.015624 15.226563-3.542969 20.101563-9.664063 4.8125-5.960937 6.640625-13.792969 4.964843-21.265625-26.214843-116.609375-129.761718-199.46484375-249.28125-199.46875-119.519531-.00390625-223.074218 82.851562-249.292968 199.457031-1.675782 7.480469.152344 15.3125 4.96875 21.277344 4.871094 6.121094 12.273437 9.679687 20.097656 9.664063h28.46875c4.710938.003906 8.53125 3.824218 8.53125 8.535156v34.132812c0 4.710938-3.820312 8.53125-8.53125 8.535156h-28.210938c-7.839843-.015624-15.257812 3.5625-20.132812 9.707032-4.8125 5.980468-6.625 13.839844-4.914062 21.324218 26.640624 116.0625 129.929687 198.332032 249.011718 198.332032 119.082032 0 222.371094-82.269532 249.011719-198.332032 1.710937-7.484374-.101563-15.34375-4.917969-21.324218-4.871094-6.144532-12.289062-9.722656-20.132812-9.707032h-27.183594c-4.710938-.003906-8.527344-3.824218-8.53125-8.535156v-34.132812c.003906-4.710938 3.820312-8.53125 8.53125-8.535156zm0 68.269531h27.183594c2.648437-.003907 5.148437 1.207031 6.792968 3.28125 1.574219 1.921875 2.175782 4.460937 1.625 6.882812-24.859374 108.3125-121.25 185.089844-232.378906 185.089844s-207.519531-76.777344-232.378906-185.089844c-.546875-2.421875.050781-4.957031 1.621094-6.882812 1.644531-2.074219 4.148437-3.28125 6.792968-3.28125h28.210938c14.132812-.015625 25.582031-11.46875 25.597656-25.601563v-34.132812c-.015625-14.132813-11.464844-25.585938-25.597656-25.601563h-28.46875c-2.640625.003907-5.136719-1.199219-6.78125-3.265625-1.574219-1.921875-2.175781-4.460937-1.632812-6.882812 24.476562-108.8125 121.109374-186.117188 232.640624-186.117188 111.527344.003906 208.160157 77.3125 232.632813 186.125.539063 2.421875-.0625 4.957032-1.632813 6.875-1.644531 2.066406-4.144531 3.269532-6.785156 3.265625h-27.441406c-14.128906.015625-25.582031 11.46875-25.597656 25.601563v34.132812c.015625 14.132813 11.46875 25.585938 25.597656 25.601563zm0 0"/><path d="m250.378906 102.398438c-84.546875 0-153.089844 68.542968-153.089844 153.089843s68.542969 153.089844 153.089844 153.089844 153.089844-68.542969 153.089844-153.089844c-.097656-84.507812-68.582031-152.992187-153.089844-153.089843zm0 289.109374c-75.121094 0-136.019531-60.898437-136.019531-136.019531 0-75.121093 60.898437-136.019531 136.019531-136.019531s136.019532 60.898438 136.019532 136.019531c-.082032 75.089844-60.929688 135.9375-136.019532 136.019531zm0 0"/><path d="m168.742188 76.183594c4.347656-1.769532 6.453124-6.722656 4.707031-11.082032-1.75-4.359374-6.691407-6.484374-11.058594-4.757812-1.839844.730469-45.492187 18.699219-89.109375 79.765625-1.855469 2.476563-2.226562 5.765625-.96875 8.59375 1.261719 2.828125 3.953125 4.75 7.039062 5.023437 3.082032.277344 6.074219-1.140624 7.816407-3.699218 40.324219-56.453125 80.882812-73.5625 81.574219-73.84375zm0 0"/><path d="m208.222656 51.199219c0 4.714843-3.820312 8.535156-8.53125 8.535156-4.714844 0-8.535156-3.820313-8.535156-8.535156 0-4.710938 3.820312-8.53125 8.535156-8.53125 4.710938 0 8.53125 3.820312 8.53125 8.53125zm0 0"/></svg>