<svg height="512pt" viewBox="-133 0 512 512.0052" width="512pt" xmlns="http://www.w3.org/2000/svg"><path d="m33.292969 409.285156-17.035157-33.75c-2.191406-4.070312-7.226562-5.652344-11.351562-3.570312-4.125 2.078125-5.847656 7.066406-3.882812 11.25l25.195312 49.917968.019531.03125c.96875 1.980469 2.308594 3.757813 3.945313 5.234376l62.488281 69.777343c3.640625 3.707031 9.164063 4.84375 13.972656 2.875 4.8125-1.964843 7.953125-6.644531 7.957031-11.84375v-301.980469c-.167968-4.65625 3.152344-8.710937 7.75-9.460937 2.5625-.222656 5.085938.726563 6.867188 2.585937 1.585938 1.554688 2.46875 3.691407 2.449219 5.914063v302.941406c-.015625 5.203125 3.136719 9.894531 7.957031 11.851563 4.945312 1.992187 10.605469.734375 14.242188-3.167969l62.21875-69.492187c1.777343-1.621094 3.199218-3.601563 4.164062-5.808594l24.917969-49.375c1.472656-2.730469 1.347656-6.046875-.332031-8.660156-1.679688-2.613282-4.644532-4.109376-7.742188-3.902344-3.097656.203125-5.839844 2.074218-7.160156 4.882812l-17.003906 33.695313-18.65625-20.917969 23.285156-26.179688c1.007812-.746093 1.832031-1.710937 2.414062-2.820312l25.195313-49.921875c1.964843-4.179687.242187-9.167969-3.882813-11.25-4.125-2.078125-9.160156-.496094-11.351562 3.570313l-16.0625 31.828124-19.597656-22.023437 24.066406-27.058594c1.476562-1.671875 2.609375-3.621093 3.332031-5.730469l23.492187-46.546874c1.964844-4.179688.246094-9.167969-3.882812-11.246094-4.125-2.082032-9.15625-.5-11.351562 3.566406l-16.195313 32.09375-19.460937-21.875 24.0625-27.058594c.058593-.070312.097656-.148437.15625-.214844.277343-.324218.527343-.664062.753906-1.023437.996094-1.3125 1.796875-2.765625 2.375-4.308594l23.539062-46.644531c1.964844-4.183594.246094-9.167969-3.878906-11.25-4.128906-2.078125-9.160156-.496094-11.351562 3.570312l-16.171876 32.039063-19.488281-21.90625 26.984375-30.398437c2.757813-3.117188 4.28125-7.136719 4.28125-11.300782v-47.957031c0-.519531-.109375-1.011719-.15625-1.523437 10.277344-3.542969 17.1875-13.203126 17.222656-24.074219v-17.066407c-.015624-14.132812-11.46875-25.585937-25.601562-25.601562h-187.734375c-14.128906.015625-25.582031 11.46875-25.597656 25.601562v17.066407c.035156 10.871093 6.941406 20.53125 17.21875 24.074219-.046875.511718-.152344 1.003906-.152344 1.523437v47.957031c.003906 4.167969 1.53125 8.191406 4.289063 11.308594l26.960937 30.386719-19.527344 21.953125-16.199219-32.097656c-1.320312-2.808594-4.0625-4.679688-7.160156-4.882813-3.097656-.207031-6.0625 1.289063-7.742187 3.902344-1.675781 2.609375-1.804688 5.929687-.332031 8.660156l24.304687 48.15625c.246094.554687.519531 1.097656.820313 1.621094l.070312.136719c.421875.820312.980469 1.5625 1.644531 2.199218l.0625.085938 24.0625 27.050781-19.507812 21.929687-16.222657-32.148437c-2.195312-4.070313-7.226562-5.652344-11.351562-3.570313-4.128906 2.082032-5.847656 7.066407-3.882812 11.25l23.65625 46.875c.527343 1.367188 1.234374 2.664063 2.09375 3.847657.273437.457031.585937.886719.9375 1.28125.078124.09375.132812.199219.214843.289062l24.0625 27.050781-19.640625 22.085938-16.089844-31.886719c-2.195312-4.066406-7.226562-5.648437-11.351562-3.566406-4.128906 2.078125-5.847656 7.066406-3.882812 11.25l25.191406 49.917969c.628906 1.207031 1.539062 2.242187 2.660156 3.019531l23.113281 25.980469zm-12.558594-383.683594c.003906-4.714843 3.820313-8.53125 8.53125-8.535156h187.734375c4.710938.003906 8.53125 3.820313 8.535156 8.535156v17.066407c-.003906 4.710937-3.824218 8.527343-8.535156 8.53125h-187.734375c-4.710937-.003907-8.527344-3.820313-8.53125-8.53125zm19.941406 324.308594 24.0625-27.058594c5.75-6.472656 5.75-16.222656 0-22.691406l-23.789062-26.742187-.199219-.394531 23.988281-26.972657c5.75-6.472656 5.75-16.222656 0-22.691406l-23.886719-26.851563-.128906-.253906 24.007813-26.988281c5.75-6.472656 5.757812-16.21875.015625-22.699219l-26.945313-30.34375v-47.957031h170.667969l.007812 47.933594-26.964843 30.382812c-5.734375 6.476563-5.726563 16.210938.015625 22.675781l23.96875 26.941407-.253906.503906-23.714844 26.664063c-5.753906 6.46875-5.753906 16.21875 0 22.691406l23.941406 26.910156-.324219.644531-23.617187 26.554688c-5.753906 6.46875-5.753906 16.21875 0 22.691406l24.0625 27.050781-24.0625 27.050782c-5.761719 6.476562-5.757813 16.246093.015625 22.714843l23.132812 26.015625-.003906.023438c-.339844.273437-.652344.574218-.941406.894531l-54.996094 61.441406v-291.785156c.054687-6.753906-2.632813-13.242187-7.449219-17.980469-4.769531-4.894531-11.320312-7.644531-18.152344-7.617187-.738281 0-1.480468.03125-2.222656.097656-13.445312 1.480469-23.566406 12.933594-23.375 26.460937v290.8125l-55-61.429687c-.3125-.332031-.648437-.640625-1.007812-.917969l23.199218-26.015625c5.769532-6.472656 5.777344-16.238281.015626-22.71875zm0 0"/></svg>