<svg height="512pt" viewBox="0 -64 512 512" width="512pt" xmlns="http://www.w3.org/2000/svg"><path d="m477.867188 219.765625v-125.898437c0-69.285157-29.882813-93.867188-55.46875-93.867188h-332.796876c-25.585937 0-55.46875 24.582031-55.46875 93.867188v125.898437c-21.449218 8.269531-34.132812 24.054687-34.132812 44.769531v93.863282c.015625 14.132812 11.46875 25.585937 25.601562 25.601562h460.796876c14.132812-.015625 25.585937-11.46875 25.601562-25.601562v-93.863282c0-20.714844-12.683594-36.5-34.132812-44.769531zm-17.066407-125.898437v121.257812c-7.046875-1.210938-14.183593-1.808594-21.335937-1.792969-19.765625-1.039062-39.304688 4.613281-55.464844 16.042969v-135.507812c0-46.660157 15.074219-76.800782 38.398438-76.800782 23.328124 0 38.402343 30.140625 38.402343 76.800782zm-315.734375-8.535157c0-50.390625 59.757813-68.265625 110.933594-68.265625s110.933594 17.875 110.933594 68.265625v150.574219c-20.542969-14.449219-58.859375-22.574219-110.933594-22.574219s-90.390625 8.125-110.933594 22.574219zm230.398438-68.265625h12.734375c-7.140625 8.8125-12.347657 19.019532-15.292969 29.972656-8.605469-12.878906-20.488281-23.222656-34.425781-29.972656zm-201.945313 0c-13.9375 6.75-25.820312 17.09375-34.425781 29.972656-2.945312-10.953124-8.152344-21.160156-15.292969-29.972656zm-122.320312 145.066406v-68.265624c0-46.660157 15.074219-76.800782 38.402343-76.800782 23.324219 0 38.398438 30.140625 38.398438 76.800782v135.507812c-16.160156-11.429688-35.699219-17.082031-55.464844-16.042969-7.152344-.015625-14.289062.582031-21.335937 1.792969zm21.335937 68.265626c25.582032 0 55.464844 8.945312 55.464844 34.136718 0 4.710938 3.820312 8.53125 8.535156 8.53125 4.710938 0 8.53125-3.820312 8.53125-8.53125 0-19.777344 46.660156-34.136718 110.933594-34.136718s110.933594 14.359374 110.933594 34.136718c0 4.710938 3.820312 8.53125 8.53125 8.53125 4.714844 0 8.535156-3.820312 8.535156-8.53125 0-25.191406 29.882812-34.136718 55.464844-34.136718 25.585937 0 55.46875 8.945312 55.46875 34.136718v25.597656h-477.867188v-25.597656c0-25.191406 29.882813-34.136718 55.46875-34.136718zm422.398438 128c-.003906 4.714843-3.820313 8.53125-8.535156 8.535156h-460.796876c-4.714843-.003906-8.53125-3.820313-8.535156-8.535156v-51.199219h477.867188zm0 0"/><path d="m220.464844 42.785156c-20.171875 3.355469-58.332032 20.148438-58.332032 59.613282 0 4.714843 3.820313 8.535156 8.535157 8.535156 4.710937 0 8.53125-3.820313 8.53125-8.535156 0-34.824219 42.292969-42.472657 44.09375-42.78125 3.003906-.503907 5.515625-2.574219 6.582031-5.433594 1.066406-2.855469.527344-6.0625-1.414062-8.414063-1.941407-2.351562-4.988282-3.492187-7.996094-2.984375zm0 0"/><path d="m264.535156 42.667969c0 4.710937-3.824218 8.53125-8.535156 8.53125s-8.535156-3.820313-8.535156-8.53125c0-4.714844 3.824218-8.535157 8.535156-8.535157s8.535156 3.820313 8.535156 8.535157zm0 0"/></svg>