<svg height="512pt" viewBox="-120 0 512 512.09257" width="512pt" xmlns="http://www.w3.org/2000/svg"><path d="m273.125 136.699219c.074219-65.011719-45.703125-121.058594-109.421875-133.96875-63.71875-12.90625-127.703125 20.902343-152.9375 80.820312-25.234375 59.914063-4.726563 129.3125 49.027344 165.882813v58.503906l-5.742188 5.238281c-2.605469 2.371094-3.484375 6.101563-2.210937 9.386719 1.269531 3.285156 4.429687 5.453125 7.953125 5.453125v31.125l-5.742188 5.234375c-2.605469 2.371094-3.480469 6.101562-2.210937 9.386719 1.269531 3.285156 4.429687 5.453125 7.953125 5.453125v31.082031l-5.75 5.246094c-2.605469 2.371093-3.480469 6.101562-2.207031 9.390625 1.269531 3.285156 4.433593 5.449218 7.957031 5.449218v9.675782c-.03125 4.84375 2.027343 9.464844 5.648437 12.675781l1.972656 1.816406-.121093.109375c-3.484375 3.175782-3.734375 8.574219-.558594 12.058594s8.574219 3.734375 12.058594.558594l1.222656-1.117188 15.328125 14.125c-3.480469 3.179688-3.71875 8.578125-.539062 12.054688 3.183593 3.476562 8.578124 3.71875 12.058593.535156l1.078125-.984375 17.421875 16.050781c3.097657 2.6875 7.066407 4.160156 11.164063 4.152344 4.226562-.003906 8.304687-1.539062 11.484375-4.316406l59.527343-54.851563c3.730469-3.230469 5.867188-7.929687 5.855469-12.867187v-44.339844l5.75-5.242188c1.671875-1.523437 2.671875-3.652343 2.777344-5.914062s-.695313-4.472656-2.21875-6.144531c-1.621094-1.761719-3.917969-2.75-6.308594-2.71875v-31.179688l5.75-5.246093c1.671875-1.523438 2.671875-3.652344 2.777344-5.914063s-.695313-4.46875-2.21875-6.144531c-1.621094-1.761719-3.917969-2.75-6.308594-2.714844v-31.183594l5.75-5.242187c1.671875-1.523438 2.671875-3.652344 2.777344-5.914063.105469-2.261718-.695313-4.472656-2.21875-6.144531-1.621094-1.761719-3.917969-2.75-6.308594-2.71875v-23.863281c37.453125-25.277344 59.851563-67.550782 59.730469-112.734375zm-196.265625 229.964843 104.910156-95.660156c2.253907-2.050781 3.238281-5.152344 2.585938-8.132812-.652344-2.976563-2.84375-5.382813-5.75-6.308594s-6.082031-.230469-8.335938 1.824219l-93.410156 85.1875v-28.113281l49.867187-45.484376c3.320313-3.207031 3.484376-8.476562.371094-11.882812-3.113281-3.410156-8.371094-3.726562-11.871094-.714844l-38.367187 34.992188v-47.46875c-.042969-.300782-.101563-.601563-.179687-.898438-.054688-.574218-.167969-1.144531-.34375-1.695312-.339844-1.011719-.859376-1.957032-1.535157-2.789063-.382812-.449219-.808593-.859375-1.277343-1.21875-.207032-.21875-.429688-.429687-.65625-.625-45.007813-28.378906-65.816407-83.101562-51.046876-134.214843 14.769532-51.117188 61.5625-86.300782 114.769532-86.300782 53.207031 0 100 35.183594 114.769531 86.300782 14.773437 51.113281-6.039063 105.835937-51.042969 134.214843-.230468.195313-.449218.40625-.65625.625-.46875.359375-.898437.769531-1.28125 1.21875-.671875.832031-1.191406 1.773438-1.535156 2.789063-.171875.550781-.289062 1.121094-.339844 1.695312-.078125.296875-.136718.597656-.175781.898438l-.035156 40.90625-119.433594 108.921875zm119.316406 73.519532-59.433593 55.039062-16.148438-14.875 75.605469-68.949218zm.039063-51.90625-88.222656 80.460937-15.324219-14.117187 103.574219-94.457032zm.039062-51.234375-116.191406 105.96875-3.203125-2.953125v-22.21875l119.417969-108.914063zm0 0"/><path d="m230.460938 136.699219c0-51.839844-42.027344-93.867188-93.867188-93.867188-51.84375 0-93.867188 42.027344-93.867188 93.867188 0 51.839843 42.023438 93.867187 93.867188 93.867187 51.816406-.058594 93.808594-42.050781 93.867188-93.867187zm-93.867188 76.800781c-42.417969 0-76.800781-34.386719-76.800781-76.800781 0-42.414063 34.382812-76.800781 76.800781-76.800781 42.414062 0 76.800781 34.386718 76.800781 76.800781-.046875 42.394531-34.40625 76.753906-76.800781 76.800781zm0 0"/></svg>