<svg height="512pt" viewBox="0 -85 512.11502 512" width="512pt" xmlns="http://www.w3.org/2000/svg"><path d="m66.878906 310.039062c23.574219 20.453126 53.808594 31.585938 85.015625 31.300782 1.855469 0 3.722657-.035156 5.585938-.117188 27.210937-.332031 53.132812-11.648437 71.871093-31.382812 2.183594-2.402344 4.390626-5.257813 6.679688-8.242188 6.152344-8.027344 12.796875-16.390625 20.515625-16.167968 7.117187 0 13.429687 8.226562 19.542969 16.175781 2.285156 2.988281 4.492187 5.839843 6.675781 8.242187 18.730469 19.722656 44.636719 31.039063 71.835937 31.375 33.097657 1.648438 65.554688-9.519531 90.632813-31.183594 20.726563-20.464843 37.34375-44.707031 48.960937-71.417968l.011719-.015625c12.714844-26.074219 25.238281-56.457031 12.742188-87.109375-4.949219-12.046875-15.5-20.898438-28.222657-23.683594-13.59375-3.359375-27.96875.058594-38.59375 9.175781-18.117187 15.859375-19.910156 38.449219-21.496093 58.382813l-.347657 4.292968c-.359374 20.300782-5.882812 40.179688-16.042968 57.757813-10.320313 16.890625-28.050782 27.878906-47.773438 29.601563-13.167968.902343-25.878906-5.011719-33.671875-15.667969-11.945312-17.519531-15.28125-39.511719-9.074219-59.785157 3.792969-12.898437 8.566407-25.738281 13.183594-38.164062 10.5-24.984375 17.683594-51.230469 21.367188-78.074219 4.136718-29.730469-8.589844-59.296875-33.03125-76.722656-34.117188-24.734375-80.265625-24.734375-114.382813 0-24.4375 17.425781-37.167969 46.992187-33.03125 76.722656 3.6875 26.847657 10.871094 53.09375 21.371094 78.074219 4.613281 12.425781 9.390625 25.269531 13.1875 38.175781 6.203125 20.269531 2.863281 42.261719-9.078125 59.777344-7.804688 10.640625-20.515625 16.554687-33.6875 15.664063-19.707031-1.726563-37.425781-12.703126-47.746094-29.585938-10.167968-17.585938-15.691406-37.472656-16.050781-57.78125l-.347656-4.285156c-1.585938-19.933594-3.378907-42.523438-21.488281-58.375-10.621094-9.125-25.007813-12.546875-38.601563-9.183594-12.71875 2.78125-23.265625 11.625-28.222656 23.667969-12.5 30.667969.019531 61.050781 12.75 87.140625 11.617187 26.710937 28.234375 50.953125 48.960937 71.417968zm-45.898437-152.140624c2.914062-6.902344 9.019531-11.9375 16.351562-13.484376 2.078125-.488281 4.210938-.734374 6.347657-.734374 6.242187-.070313 12.300781 2.117187 17.058593 6.160156 12.894531 11.28125 14.269531 28.574218 15.726563 46.882812l.351562 4.359375c.507813 23.253907 7.035156 45.980469 18.945313 65.960938 13.402343 21.425781 36.210937 35.1875 61.414062 37.050781 18.625 1.007812 36.519531-7.371094 47.667969-22.324219 15.339844-21.824219 19.738281-49.507812 11.917969-75.007812-3.960938-13.476563-8.839844-26.601563-13.5625-39.292969-9.988281-23.601562-16.839844-48.414062-20.378907-73.800781-3.558593-23.730469 6.554688-47.445313 26.144532-61.308594 28.09375-20.367187 66.09375-20.367187 94.183594 0 19.589843 13.863281 29.703124 37.578125 26.148437 61.308594-3.539063 25.386719-10.390625 50.199219-20.382813 73.800781-4.71875 12.691406-9.597656 25.816406-13.554687 39.28125-7.828125 25.503906-3.429687 53.195312 11.910156 75.019531 11.171875 14.921875 29.042969 23.292969 47.660157 22.324219 25.210937-1.863281 48.03125-15.628906 61.433593-37.066406 11.902344-19.972656 18.425781-42.6875 18.933594-65.933594l.351563-4.367188c1.453124-18.308593 2.828124-35.597656 15.734374-46.890624 6.503907-5.40625 15.183594-7.417969 23.398438-5.417969 7.335938 1.550781 13.445312 6.59375 16.355469 13.5 9.84375 24.160156-1.171875 50.460937-12.269531 73.210937-13.632813 27.757813-26.507813 49.632813-45.019532 66.199219-21.773437 18.703125-49.910156 28.316406-78.582031 26.847656-22.625-.179687-44.214844-9.488281-59.878906-25.816406-1.886719-2.074219-3.785157-4.558594-5.761719-7.140625-7.96875-10.367188-18.101562-23.058594-34.058594-22.84375-15.554687 0-25.269531 12.667969-33.074218 22.84375-1.980469 2.574219-3.875 5.066406-5.757813 7.132812-15.675781 16.335938-37.285156 25.648438-59.921875 25.820313-28.660156 1.472656-56.789062-8.140625-78.550781-26.851563-18.515625-16.570312-31.390625-38.457031-45.011719-66.199218-11.101562-22.75-22.121094-49.050782-12.269531-73.222656zm0 0"/><path d="m247.523438 76.804688c0-14.136719-11.464844-25.597657-25.601563-25.597657s-25.601563 11.460938-25.601563 25.597657c0 14.140624 11.464844 25.601562 25.601563 25.601562 14.132813-.015625 25.585937-11.46875 25.601563-25.601562zm-34.136719 0c0-4.710938 3.820312-8.53125 8.535156-8.53125 4.710937 0 8.53125 3.820312 8.53125 8.53125 0 4.714843-3.820313 8.535156-8.53125 8.535156-4.710937-.003906-8.527344-3.824219-8.535156-8.535156zm0 0"/><path d="m290.1875 128.003906c10.355469 0 19.691406-6.234375 23.652344-15.800781 3.960937-9.566406 1.773437-20.578125-5.550782-27.898437-7.320312-7.324219-18.332031-9.511719-27.898437-5.550782-9.566406 3.960938-15.800781 13.296875-15.800781 23.652344.015625 14.132812 11.464844 25.582031 25.597656 25.597656zm0-34.132812c4.714844 0 8.535156 3.820312 8.535156 8.535156 0 4.710938-3.820312 8.53125-8.535156 8.53125-4.710938 0-8.53125-3.820312-8.53125-8.53125.003906-4.710938 3.820312-8.53125 8.53125-8.535156zm0 0"/></svg>