<svg height="512pt" viewBox="0 -21 512.00056 512" width="512pt" xmlns="http://www.w3.org/2000/svg"><path d="m18.78125 340.394531c8.160156 76.074219 47.074219 124.261719 104.769531 129.078125 24.8125 3.074219 49.757813-4.546875 68.621094-20.957031 24.394531-21.441406 37.855469-57.117187 40.011719-106.050781.890625-20.496094.46875-40.898438-.164063-60.867188h47.957031c-.632812 19.96875-1.050781 40.375-.164062 60.875 2.160156 48.925782 15.617188 84.601563 40 106.035156 16.238281 14.230469 37.226562 21.84375 58.808594 21.332032 3.214844 0 6.425781-.089844 9.835937-.375 57.6875-4.804688 96.605469-52.996094 104.761719-129.078125 11.859375-8.789063 18.832031-22.695313 18.78125-37.453125.03125-21.503906-14.550781-40.273438-35.390625-45.5625-20.839844-5.289063-42.609375 4.261718-52.832031 23.175781s-6.285156 42.355469 9.554687 56.894531c-4.148437 32.53125-16.273437 69.679688-49.832031 72.523438-8.601562 1.425781-17.402344-.847656-24.234375-6.257813-11.214844-9.890625-18.40625-33.140625-19.734375-63.765625-.980469-22.785156-.214844-46.507812.523438-69.453125l.074218-2.324219c.539063-14.691406 1.203125-32.972656 1.203125-50.566406v-140.796875c-.023437-1.332031-.363281-2.636719-.996093-3.808593-6.074219-41.902344-41.992188-72.992188-84.335938-72.992188s-78.261719 31.089844-84.335938 72.992188c-.632812 1.171874-.972656 2.476562-.996093 3.808593v140.796875c0 17.59375.664062 35.875 1.199219 50.535156l.074218 2.355469c.738282 22.945313 1.503906 46.667969.523438 69.453125-1.328125 30.625-8.519532 53.875-19.710938 63.75-6.824218 5.40625-15.609375 7.6875-24.203125 6.28125-33.609375-2.847656-45.734375-40.003906-49.882812-72.535156 15.808593-14.542969 19.722656-37.960938 9.5-56.851562-10.21875-18.890626-31.960938-28.425782-52.78125-23.148438-20.820313 5.273438-35.3984378 24.015625-35.386719 45.496094-.0546875 14.761718 6.917969 28.667968 18.78125 37.460937zm262.820312-178.261719h-51.203124v-51.199218h51.203124zm0 17.066407v17.066406h-51.203124v-17.066406zm-50.253906 81.890625c-.46875-14.332032-.949218-29.15625-.949218-43.492188v-4.265625h51.203124v4.265625c0 14.335938-.480468 29.160156-.945312 43.492188l-.113281 3.441406h-49.082031zm50.253906-167.222656h-51.203124v-4.269532c0-1.328125.066406-2.660156.203124-3.980468 1.222657-12.925782 12.441407-22.578126 25.402344-21.851563 12.960938-.726563 24.175782 8.921875 25.390625 21.84375.136719 1.328125.203125 2.65625.207031 3.988281zm183.464844 179.199218c11.683594-.074218 22.332032 6.6875 27.238282 17.289063 4.90625 10.601562 3.164062 23.09375-4.453126 31.953125-7.617187 8.859375-19.707031 12.449218-30.925781 9.1875-3.445312-.914063-6.6875-2.46875-9.554687-4.589844-10.398438-7.632812-14.710938-21.085938-10.683594-33.339844s15.480469-20.527344 28.378906-20.5zm-337.90625 153.914063c13.210938 1.832031 26.585938-1.96875 36.863282-10.472657 15.101562-13.332031 23.921874-39.558593 25.492187-75.832031 1.003906-23.425781.230469-47.476562-.519531-70.726562l-.074219-2.402344c-.53125-14.554687-1.1875-32.664063-1.1875-49.949219v-132.265625c0-37.703125 30.5625-68.265625 68.265625-68.265625s68.265625 30.5625 68.265625 68.265625v132.265625c0 17.285156-.65625 35.394532-1.191406 49.984375l-.078125 2.367188c-.75 23.25-1.519532 47.300781-.515625 70.726562 1.570312 36.273438 10.386719 62.5 25.515625 75.847657 10.265625 8.542968 23.671875 12.339843 36.894531 10.449218 33.734375-2.847656 56.304687-31.074218 64.296875-79.882812.199219.074218.417969.105468.621094.175781.855468.296875 1.738281.484375 2.613281.730469 1.335937.371094 2.660156.734375 4.03125.988281 1.128906.210937 2.261719.332031 3.410156.460937 1.1875.132813 2.359375.242188 3.550781.285157.554688.019531 1.097657.136719 1.65625.136719.691407 0 1.363282-.113282 2.046876-.140626.949218-.039062 1.882812-.101562 2.820312-.195312 1.175781-.121094 2.332031-.285156 3.484375-.488281.53125-.09375 1.082031-.117188 1.609375-.226563-9.3125 62.207032-40.902344 99.714844-87.972656 103.640625-20.1875 2.609375-40.535156-3.484375-55.964844-16.757812-20.769531-18.261719-32.285156-49.875-34.230469-93.96875-1.0625-24.488281-.207031-49.199219.617188-73.089844l.230469-6.996094c.472656-14.472656.957031-29.4375.957031-44.046875v-128c0-1.910156-.097657-3.816406-.292969-5.714844-2.050781-21.660156-20.628906-37.964843-42.371094-37.183593-21.746094-.777344-40.324218 15.527343-42.378906 37.191406-.1875 1.882813-.285156 3.789063-.285156 5.707031v128c0 14.609375.480468 29.574219.953125 44.042969l.226562 6.996094c.828125 23.894531 1.679688 48.601562.617188 73.082031-1.945313 44.101562-13.457031 75.71875-34.242188 93.984375-15.445312 13.226563-35.761719 19.3125-55.933593 16.757813-47.089844-3.929688-78.675782-41.4375-87.988282-103.644532.53125.113282 1.085938.132813 1.621094.226563 1.152344.207031 2.308594.371093 3.484375.488281.917969.09375 1.832031.152344 2.761719.191406.703125.03125 1.386718.144532 2.09375.144532.570312 0 1.128906-.117188 1.699218-.140626 1.144532-.042968 2.277344-.148437 3.421876-.273437 1.1875-.132813 2.367187-.257813 3.535156-.476563 1.277344-.234374 2.515625-.578124 3.761718-.917968.96875-.265625 1.945313-.484375 2.890626-.808594.1875-.0625.386718-.09375.570312-.160156 7.992188 48.808594 30.566406 77.035156 64.347656 79.890625zm-80.226562-153.914063c12.929687-.023437 24.402344 8.292969 28.402344 20.589844 4.003906 12.296875-.378907 25.769531-10.847657 33.359375-7.578125 5.410156-17.21875 7.039063-26.152343 4.425781-2.496094-.695312-4.878907-1.738281-7.082032-3.101562-8.859375-5.394532-14.242187-15.035156-14.1875-25.40625.019532-16.488282 13.378906-29.847656 29.867188-29.867188zm0 0"/><path d="m264.535156 136.53125c0 4.714844-3.820312 8.535156-8.535156 8.535156-4.710938 0-8.53125-3.820312-8.53125-8.535156 0-4.710938 3.820312-8.53125 8.53125-8.53125 4.714844 0 8.535156 3.820312 8.535156 8.53125zm0 0"/><path d="m264.535156 238.933594c0 4.710937-3.820312 8.53125-8.535156 8.53125-4.710938 0-8.53125-3.820313-8.53125-8.53125 0-4.714844 3.820312-8.535156 8.53125-8.535156 4.714844 0 8.535156 3.820312 8.535156 8.535156zm0 0"/></svg>