<svg height="512pt" viewBox="0 -98 512.00107 512" width="512pt" xmlns="http://www.w3.org/2000/svg"><path d="m460.800781.0078125c-21.21875-.0273437-40.25 13.0507815-47.828125 32.8710935-7.578125 19.816406-2.128906 42.257813 13.695313 56.394532v47.265624h-29.777344c-15.707031-65.078124-73.941406-110.933593-140.890625-110.933593s-125.183594 45.855469-140.890625 110.933593h-29.777344v-47.273437c17.5-15.695313 22.054688-41.296875 11.042969-62.066406-11.015625-20.765625-34.765625-31.359375-57.574219-25.675781-22.8125 5.679687-38.816406 26.175781-38.800781 49.683593.0625 14.527344 6.261719 28.351563 17.066406 38.066407v55.800781c.039063 32.972656 26.757813 59.695312 59.734375 59.734375h38.308594c15.707031 65.078125 73.941406 110.933594 140.890625 110.933594s125.183594-45.855469 140.890625-110.933594h38.308594c32.976562-.039063 59.695312-26.761719 59.734375-59.734375v-55.808594c15.824218-14.136719 21.269531-36.574219 13.691406-56.390625-7.578125-19.820312-26.609375-32.8984375-47.824219-32.8671875zm-204.800781 42.6640625c57.550781.003906 108.023438 38.40625 123.378906 93.867187h-64.347656c-12.15625-21.117187-34.664062-34.132812-59.03125-34.132812s-46.875 13.015625-59.03125 34.132812h-64.347656c15.355468-55.460937 65.828125-93.863281 123.378906-93.867187zm-51.199219 128c0-28.277344 22.921875-51.199219 51.199219-51.199219s51.199219 22.921875 51.199219 51.199219-22.921875 51.203125-51.199219 51.203125c-28.265625-.03125-51.167969-22.9375-51.199219-51.203125zm-153.601562-153.597656c14.699219 0 27.75 9.414062 32.386719 23.359375 4.640624 13.949218-.171876 29.300781-11.945313 38.105468-8.992187 6.578126-20.59375 8.441407-31.191406 5.007813-1.738281-.554687-3.429688-1.253906-5.054688-2.089844-1.625-.835937-3.175781-1.8125-4.632812-2.914062l-.023438-.015625h-.003906c-11.765625-8.808594-16.570313-24.160156-11.925781-38.105469 4.644531-13.945313 17.691406-23.351563 32.390625-23.347656zm-17.066407 128v-45.550781c.121094.042968.257813.054687.378907.097656 2.394531.804687 4.84375 1.429687 7.328125 1.871094.242187.042968.464844.132812.707031.167968 5.726563.992188 11.582031.992188 17.308594 0 .226562-.035156.441406-.121094.667969-.164062 2.5-.4375 4.960937-1.066406 7.367187-1.875.121094-.042969.257813-.054688.375-.097656v37.015624c.011719 9.421876 7.648437 17.058594 17.066406 17.066407h104.648438c-2.996094 11.183593-2.996094 22.953125 0 34.132812h-113.179688c-23.554687-.027343-42.640625-19.113281-42.667969-42.664062zm221.867188 153.597656c-57.550781 0-108.023438-38.402344-123.378906-93.863281h64.347656c12.15625 21.117187 34.664062 34.132812 59.03125 34.132812s46.875-13.015625 59.03125-34.132812h64.347656c-15.355468 55.460937-65.828125 93.863281-123.378906 93.863281zm221.867188-153.597656c-.027344 23.550781-19.113282 42.636719-42.667969 42.664062h-113.179688c2.996094-11.179687 2.996094-22.949219 0-34.132812h104.648438c9.417969-.007813 17.054687-7.644531 17.066406-17.066407v-37.015624c.121094.042968.253906.054687.378906.097656 2.390625.804687 4.839844 1.429687 7.328125 1.871094.238282.042968.464844.132812.707032.167968 5.726562.992188 11.578124.992188 17.304687 0 .230469-.035156.441406-.121094.667969-.164062 2.5-.4375 4.964844-1.066406 7.371094-1.875.121093-.042969.253906-.054688.375-.097656zm3.375-66.535157c-8.992188 6.578126-20.59375 8.441407-31.195313 5.007813-1.738281-.554687-3.425781-1.253906-5.050781-2.089844-1.625-.835937-3.175782-1.8125-4.632813-2.914062l-.023437-.015625h-.007813c-11.761719-8.8125-16.5625-24.164063-11.914062-38.109375 4.648437-13.941407 17.699219-23.34375 32.394531-23.339844 14.699219.007813 27.742188 9.421875 32.378906 23.367187 4.636719 13.945313-.175781 29.296876-11.945312 38.101563zm0 0"/><path d="m209.363281 92.546875c3.863281-2.558594 4.976563-7.734375 2.511719-11.65625-2.46875-3.925781-7.617188-5.160156-11.597656-2.785156-10.617188 7.675781-19.976563 16.953125-27.742188 27.5-2.945312 3.679687-2.351562 9.050781 1.328125 11.996093 3.679688 2.945313 9.050781 2.351563 11.996094-1.328124 6.671875-8.980469 14.585937-16.972657 23.503906-23.726563zm0 0"/><path d="m238.933594 68.273438c0 4.710937-3.820313 8.535156-8.535156 8.535156-4.710938 0-8.53125-3.824219-8.53125-8.535156 0-4.710938 3.820312-8.535157 8.53125-8.535157 4.714843 0 8.535156 3.824219 8.535156 8.535157zm0 0"/></svg>