<svg height="511pt" viewBox="0 -55 511.94104 511" width="511pt" xmlns="http://www.w3.org/2000/svg"><path d="m13.003906 360.089844c30.160156 7.578125 59.433594 18.320312 87.339844 32.039062 14.171875 6.589844 29.667969 9.851563 45.292969 9.535156 51.078125 0 109.296875-28.824218 130.789062-63.949218 9.03125-13.542969 8.730469-31.265625-.753906-44.492188-12.15625-17.257812-32.664063-26.625-53.667969-24.519531-10.6875 1.472656-19.398437 9.316406-21.976562 19.792969-7.742188 30.390625-30.308594 53.308594-52.484375 53.308594-21.53125-.410157-41.464844-11.445313-53.242188-29.476563-8.039062-15.765625-23.007812-45.113281 32.625-92 50.441407-42.449219 164.835938-54.605469 240.53125-62.65625 12.183594-1.300781 23.3125-2.484375 32.949219-3.667969 50.042969-6.171875 78.992188-44.941406 92.273438-68.734375 19.820312-14.464843 25.148437-41.761719 12.214843-62.613281-12.933593-20.851562-39.753906-28.210938-61.519531-16.878906-21.765625 11.332031-31.113281 37.523437-21.449219 60.078125-6.832031 15.574219-20.644531 25.242187-41.480469 28.628906-50.476562 8.261719-155.511718 25.453125-215.582031 25.453125-48.644531-1.730469-97.109375-6.832031-145.046875-15.265625-4.933594-.839844-9.984375.554687-13.785156 3.808594-3.832031 3.246093-6.0390625 8.011719-6.03125 13.03125v222.011719c-.03125 7.867187 5.351562 14.726562 13.003906 16.566406zm452.0625-342.550782c16.496094 0 29.867188 13.371094 29.867188 29.867188 0 16.492188-13.371094 29.867188-29.867188 29.867188s-29.867187-13.375-29.867187-29.867188c.019531-16.488281 13.382812-29.847656 29.867187-29.867188zm-300.203125 119.464844c61.460938 0 167.417969-17.339844 218.539063-25.707031 20.105468-2.105469 38.25-12.996094 49.554687-29.753906 8.675781 8.214843 20.164063 12.792969 32.109375 12.796875.539063 0 1.058594-.0625 1.59375-.082032-15.796875 23.195313-40.582031 38.722657-68.34375 42.8125-9.546875 1.167969-20.578125 2.34375-32.667968 3.625-77.761719 8.277344-195.273438 20.769532-249.71875 66.585938-65.996094 55.613281-45.558594 95.691406-36.824219 112.796875 14.648437 23.8125 40.480469 38.457031 68.4375 38.792969 30.21875 0 59.25-27.824219 69.027343-66.15625.886719-4 4.308594-6.933594 8.398438-7.203125 14.363281-.867188 28.175781 5.671875 36.605469 17.335937 5.648437 7.699219 5.765625 18.140625.292969 25.964844-24.339844 39.777344-106.464844 71.367188-153.992188 48-29.011719-14.265625-59.449219-25.425781-90.808594-33.289062l-.042968-222.019532c48.863281 8.589844 98.261718 13.769532 147.839843 15.5zm0 0"/></svg>