<svg height="512pt" viewBox="0 -111 512 512" width="512pt" xmlns="http://www.w3.org/2000/svg"><path d="m486.398438 0h-460.796876c-14.132812.015625-25.585937 11.46875-25.601562 25.601562v238.933594c.015625 14.128906 11.46875 25.582032 25.601562 25.597656h460.796876c14.132812-.015624 25.585937-11.46875 25.601562-25.597656v-238.933594c-.015625-14.132812-11.46875-25.585937-25.601562-25.601562zm8.535156 264.535156c-.003906 4.710938-3.820313 8.527344-8.535156 8.53125h-460.796876c-4.714843-.003906-8.53125-3.820312-8.535156-8.53125v-238.933594c.003906-4.714843 3.820313-8.53125 8.535156-8.535156h460.796876c4.714843.003906 8.53125 3.820313 8.535156 8.535156zm0 0"/><path d="m59.734375 34.132812c-14.140625 0-25.601563 11.460938-25.601563 25.601563 0 14.136719 11.460938 25.597656 25.601563 25.597656 14.136719 0 25.597656-11.460937 25.597656-25.597656-.015625-14.132813-11.464843-25.585937-25.597656-25.601563zm0 34.132813c-4.714844 0-8.535156-3.820313-8.535156-8.53125 0-4.714844 3.820312-8.535156 8.535156-8.535156 4.710937 0 8.53125 3.820312 8.53125 8.535156 0 4.710937-3.820313 8.53125-8.53125 8.53125zm0 0"/><path d="m59.734375 204.800781c-14.140625 0-25.601563 11.460938-25.601563 25.597657 0 14.140624 11.460938 25.601562 25.601563 25.601562 14.136719 0 25.597656-11.460938 25.597656-25.601562-.015625-14.128907-11.464843-25.582032-25.597656-25.597657zm0 34.132813c-4.714844 0-8.535156-3.820313-8.535156-8.535156 0-4.710938 3.820312-8.53125 8.535156-8.53125 4.710937 0 8.53125 3.820312 8.53125 8.53125 0 4.714843-3.820313 8.53125-8.53125 8.535156zm0 0"/><path d="m452.265625 204.800781c-14.136719 0-25.597656 11.460938-25.597656 25.597657 0 14.140624 11.460937 25.601562 25.597656 25.601562 14.140625 0 25.601563-11.460938 25.601563-25.601562-.015626-14.128907-11.46875-25.582032-25.601563-25.597657zm0 34.132813c-4.710937 0-8.53125-3.820313-8.53125-8.535156 0-4.710938 3.820313-8.53125 8.53125-8.53125 4.714844 0 8.535156 3.820312 8.535156 8.53125-.003906 4.714843-3.824219 8.53125-8.535156 8.535156zm0 0"/><path d="m452.265625 34.132812c-14.136719 0-25.597656 11.460938-25.597656 25.601563 0 14.136719 11.460937 25.597656 25.597656 25.597656 14.140625 0 25.601563-11.460937 25.601563-25.597656-.015626-14.132813-11.46875-25.585937-25.601563-25.601563zm0 34.132813c-4.710937 0-8.53125-3.820313-8.53125-8.53125 0-4.714844 3.820313-8.535156 8.53125-8.535156 4.714844 0 8.535156 3.820312 8.535156 8.535156-.003906 4.710937-3.824219 8.53125-8.535156 8.53125zm0 0"/><path d="m366.933594 76.800781h-17.066406c-9.421876.011719-17.054688 7.644531-17.066407 17.066407v1.363281c-23.789062-12.019531-50.152343-18.050781-76.800781-17.578125-26.648438-.472656-53.011719 5.558594-76.800781 17.578125v-1.363281c-.011719-9.421876-7.644531-17.054688-17.066407-17.066407h-17.066406c-9.421875.011719-17.054687 7.644531-17.066406 17.066407v68.265624c0 43.066407 56.226562 76.800782 128 76.800782s128-33.734375 128-76.800782v-68.265624c-.011719-9.421876-7.644531-17.054688-17.066406-17.066407zm-110.933594 17.917969c27.09375-.972656 53.851562 6.207031 76.820312 20.609375l.046876 46.199219c-1.59375 5.332031-25.832032 26.207031-76.867188 26.207031s-75.273438-20.875-76.800781-25.601563v-46.824218c22.964843-14.390625 49.71875-21.558594 76.800781-20.589844zm110.933594 67.414062c0 32.375-50.800782 59.734376-110.933594 59.734376s-110.933594-27.359376-110.933594-59.734376v-68.265624h17.066406v68.265624c0 17.402344 36.566407 42.667969 93.867188 42.667969s93.867188-25.265625 93.867188-42.667969v-68.265624h17.066406zm0 0"/></svg>