<svg height="512pt" viewBox="-77 0 512 512" width="512pt" xmlns="http://www.w3.org/2000/svg"><path d="m332.800781 0h-307.199219c-14.132812.015625-25.585937 11.46875-25.601562 25.601562v460.796876c.015625 14.132812 11.46875 25.585937 25.601562 25.601562h307.199219c14.132813-.015625 25.582031-11.46875 25.597657-25.601562v-460.796876c-.015626-14.132812-11.464844-25.585937-25.597657-25.601562zm8.53125 486.398438c0 4.714843-3.820312 8.53125-8.53125 8.535156h-307.199219c-4.714843-.003906-8.53125-3.820313-8.535156-8.535156v-460.796876c.003906-4.714843 3.820313-8.53125 8.535156-8.535156h307.199219c4.710938.003906 8.53125 3.820313 8.53125 8.535156zm0 0"/><path d="m59.734375 85.332031c14.136719 0 25.597656-11.460937 25.597656-25.597656 0-14.140625-11.460937-25.601563-25.597656-25.601563-14.140625 0-25.601563 11.460938-25.601563 25.601563.015626 14.132813 11.46875 25.582031 25.601563 25.597656zm0-34.132812c4.710937 0 8.53125 3.820312 8.53125 8.535156 0 4.710937-3.820313 8.53125-8.53125 8.53125-4.714844 0-8.535156-3.820313-8.535156-8.53125.003906-4.710937 3.824219-8.53125 8.535156-8.535156zm0 0"/><path d="m298.667969 34.132812c-14.140625 0-25.601563 11.460938-25.601563 25.601563 0 14.136719 11.460938 25.597656 25.601563 25.597656 14.136719 0 25.597656-11.460937 25.597656-25.597656-.015625-14.132813-11.46875-25.585937-25.597656-25.601563zm0 34.132813c-4.714844 0-8.535157-3.820313-8.535157-8.53125 0-4.714844 3.820313-8.535156 8.535157-8.535156 4.710937 0 8.53125 3.820312 8.53125 8.535156-.003907 4.710937-3.820313 8.53125-8.53125 8.53125zm0 0"/><path d="m59.734375 426.667969c-14.140625 0-25.601563 11.460937-25.601563 25.597656 0 14.140625 11.460938 25.601563 25.601563 25.601563 14.136719 0 25.597656-11.460938 25.597656-25.601563-.015625-14.132813-11.464843-25.582031-25.597656-25.597656zm0 34.132812c-4.714844 0-8.535156-3.820312-8.535156-8.535156 0-4.710937 3.820312-8.53125 8.535156-8.53125 4.710937 0 8.53125 3.820313 8.53125 8.53125s-3.820313 8.53125-8.53125 8.535156zm0 0"/><path d="m298.667969 426.667969c-14.140625 0-25.601563 11.460937-25.601563 25.597656 0 14.140625 11.460938 25.601563 25.601563 25.601563 14.136719 0 25.597656-11.460938 25.597656-25.601563-.015625-14.132813-11.46875-25.582031-25.597656-25.597656zm0 34.132812c-4.714844 0-8.535157-3.820312-8.535157-8.535156 0-4.710937 3.820313-8.53125 8.535157-8.53125 4.710937 0 8.53125 3.820313 8.53125 8.53125-.003907 4.710937-3.820313 8.53125-8.53125 8.535156zm0 0"/><path d="m213.332031 157.660156v-106.460937c-.011719-9.417969-7.644531-17.054688-17.066406-17.066407h-34.132813c-9.417968.011719-17.054687 7.648438-17.066406 17.066407l-.171875 106.558593c-71.285156 17.429688-118.296875 85.386719-109.464843 158.238282 8.828124 72.855468 70.714843 127.609375 144.101562 127.503906s135.113281-55.042969 143.730469-127.921875c8.617187-72.878906-38.59375-140.699219-109.929688-157.917969zm51.183594 236.332032c-35.769531 32.074218-86.496094 41.402343-131.335937 24.152343-44.839844-17.253906-76.230469-58.175781-81.28125-105.953125-6.476563-63.691406 34.875-122.453125 97.019531-137.847656 7.710937-1.796875 13.179687-8.652344 13.214843-16.570312v-106.574219h34.132813v106.550781c.039063 7.929688 5.511719 14.796875 13.234375 16.601562 46.175781 11.214844 82.324219 47.105469 93.867188 93.199219 11.546874 46.089844-3.414063 94.785157-38.851563 126.441407zm0 0"/><path d="m179.199219 204.800781c-51.839844 0-93.867188 42.023438-93.867188 93.867188 0 51.839843 42.027344 93.867187 93.867188 93.867187 51.84375 0 93.867187-42.027344 93.867187-93.867187-.058594-51.816407-42.050781-93.808594-93.867187-93.867188zm0 170.664063c-42.414063 0-76.800781-34.382813-76.800781-76.796875 0-42.417969 34.386718-76.800781 76.800781-76.800781 42.417969 0 76.800781 34.382812 76.800781 76.800781-.046875 42.394531-34.402344 76.75-76.800781 76.796875zm0 0"/></svg>