<svg height="512pt" viewBox="0 -115 512 512" width="512pt" xmlns="http://www.w3.org/2000/svg"><path d="m486.398438 0h-460.796876c-14.132812.015625-25.585937 11.46875-25.601562 25.601562v213.332032c.015625 14.132812 11.46875 25.585937 25.601562 25.601562h73.8125c16.554688 11.046875 71.117188 17.066406 156.585938 17.066406s140.03125-6.019531 156.585938-17.066406h73.8125c14.132812-.015625 25.585937-11.46875 25.601562-25.601562v-213.332032c-.015625-14.132812-11.46875-25.585937-25.601562-25.601562zm-230.398438 264.535156c-107.179688 0-137.519531-9.449218-145.050781-12.921875.042969-26.683593.910156-61.449219 17.925781-89.207031 21.234375-34.632812 62.816406-51.472656 127.125-51.472656s105.890625 16.839844 127.125 51.472656c17.21875 28.089844 17.902344 63.371094 17.929688 90.175781-5.363282 2.113281-36.863282 11.953125-145.054688 11.953125zm238.933594-25.601562c-.003906 4.710937-3.820313 8.53125-8.535156 8.53125h-68.296876c-.160156-28.136719-1.878906-63.726563-20.425781-93.972656-24.257812-39.566407-71.925781-59.625-141.675781-59.625s-117.417969 20.058593-141.675781 59.625c-18.546875 30.246093-20.265625 65.835937-20.425781 93.972656h-68.296876c-4.714843 0-8.53125-3.820313-8.535156-8.53125v-213.332032c.003906-4.714843 3.820313-8.53125 8.535156-8.535156h460.796876c4.714843.003906 8.53125 3.820313 8.535156 8.535156zm0 0"/><path d="m59.734375 34.132812c-14.140625 0-25.601563 11.460938-25.601563 25.601563 0 14.136719 11.460938 25.597656 25.601563 25.597656 14.136719 0 25.597656-11.460937 25.597656-25.597656-.015625-14.132813-11.464843-25.585937-25.597656-25.601563zm0 34.132813c-4.714844 0-8.535156-3.820313-8.535156-8.53125 0-4.714844 3.820312-8.535156 8.535156-8.535156 4.710937 0 8.53125 3.820312 8.53125 8.535156 0 4.710937-3.820313 8.53125-8.53125 8.53125zm0 0"/><path d="m59.734375 179.199219c-14.140625 0-25.601563 11.460937-25.601563 25.601562 0 14.136719 11.460938 25.597657 25.601563 25.597657 14.136719 0 25.597656-11.460938 25.597656-25.597657-.015625-14.132812-11.464843-25.585937-25.597656-25.601562zm0 34.132812c-4.714844 0-8.535156-3.820312-8.535156-8.53125 0-4.714843 3.820312-8.535156 8.535156-8.535156 4.710937 0 8.53125 3.820313 8.53125 8.535156 0 4.710938-3.820313 8.53125-8.53125 8.53125zm0 0"/><path d="m452.265625 179.199219c-14.136719 0-25.597656 11.460937-25.597656 25.601562 0 14.136719 11.460937 25.597657 25.597656 25.597657 14.140625 0 25.601563-11.460938 25.601563-25.597657-.015626-14.132812-11.46875-25.585937-25.601563-25.601562zm0 34.132812c-4.710937 0-8.53125-3.820312-8.53125-8.53125 0-4.714843 3.820313-8.535156 8.53125-8.535156 4.714844 0 8.535156 3.820313 8.535156 8.535156-.003906 4.710938-3.824219 8.53125-8.535156 8.53125zm0 0"/><path d="m452.265625 34.132812c-14.136719 0-25.597656 11.460938-25.597656 25.601563 0 14.136719 11.460937 25.597656 25.597656 25.597656 14.140625 0 25.601563-11.460937 25.601563-25.597656-.015626-14.132813-11.46875-25.585937-25.601563-25.601563zm0 34.132813c-4.710937 0-8.53125-3.820313-8.53125-8.53125 0-4.714844 3.820313-8.535156 8.53125-8.535156 4.714844 0 8.535156 3.820312 8.535156 8.535156-.003906 4.710937-3.824219 8.53125-8.535156 8.53125zm0 0"/><path d="m203.398438 136.648438c-33.980469 6.171874-60.578126 32.769531-66.75 66.75-.769532 4.648437 2.371093 9.039062 7.019531 9.816406.464843.078125.933593.121094 1.40625.117187 4.167969-.003906 7.726562-3.019531 8.410156-7.132812 7.390625-44.367188 50.898437-52.398438 52.75-52.714844 4.648437-.785156 7.78125-5.1875 7-9.835937-.785156-4.648438-5.1875-7.78125-9.835937-7zm0 0"/><path d="m247.464844 136.535156c0 4.710938-3.820313 8.53125-8.53125 8.53125-4.714844 0-8.535156-3.820312-8.535156-8.53125 0-4.714844 3.820312-8.535156 8.535156-8.535156 4.710937 0 8.53125 3.820312 8.53125 8.535156zm0 0"/></svg>