<svg height="512pt" viewBox="0 -64 512.11355 512" width="512pt" xmlns="http://www.w3.org/2000/svg"><path d="m59.855469 34.316406c-14.136719 0-25.597657 11.460938-25.597657 25.601563 0 14.136719 11.460938 25.601562 25.597657 25.601562 14.140625 0 25.601562-11.464843 25.601562-25.601562-.015625-14.132813-11.46875-25.585938-25.601562-25.601563zm0 34.132813c-4.710938 0-8.53125-3.820313-8.53125-8.53125 0-4.714844 3.820312-8.535157 8.53125-8.535157 4.714843 0 8.535156 3.820313 8.535156 8.535157-.003906 4.710937-3.824219 8.53125-8.535156 8.53125zm0 0"/><path d="m452.390625.183594c-32.972656.039062-59.695313 26.761718-59.734375 59.734375 0 .957031.097656 1.886719.144531 2.832031-26.910156 21.367188-35.71875 50.625-25.386719 84.949219 7.597657 24.570312 17.648438 48.3125 30 70.867187 15.625 29.992188 20.34375 39.042969-1.558593 56.558594-16.335938 11.414062-34.964844 19.125-54.585938 22.59375-2.351562-1.070312-4.847656-1.789062-7.40625-2.144531-51.589843-7.015625-103.890625-7.015625-155.480469 0-2.558593.355469-5.054687 1.074219-7.40625 2.144531-19.625-3.46875-38.253906-11.183594-54.585937-22.601562-21.902344-17.507813-17.183594-26.558594-1.558594-56.550782 12.347657-22.554687 22.398438-46.292968 30-70.855468 11.296875-30.816407.964844-65.390626-25.386719-84.949219.046876-.949219.144532-1.886719.144532-2.84375.027344-26.347657-17.195313-49.609375-42.402344-57.273438-25.210938-7.660156-52.464844 2.078125-67.105469 23.984375s-13.21875 50.8125 3.503907 71.175782c16.71875 20.359374 44.796874 27.378906 69.132812 17.277343 5.265625 12.078125 3.695312 26.34375-4.886719 43.410157l-.859375 1.71875c-42.375 84.472656-63.640625 126.882812-13.542968 162.648437 21.300781 14.074219 44.753906 24.578125 69.433593 31.109375 8.394531 2.480469 16.347657 4.503906 24.246094 6.277344.132813.480468.179687.949218.320313 1.429687 3.015624 9.347657 11.199218 16.085938 20.953124 17.25 25.765626 3.507813 51.738282 5.265625 77.738282 5.265625 26.003906 0 51.976562-1.761718 77.742187-5.265625 9.746094-1.164062 17.925781-7.894531 20.949219-17.238281.144531-.480469.1875-.953125.324219-1.4375 7.894531-1.773438 15.84375-3.792969 24.226562-6.277344 24.683594-6.527344 48.144531-17.035156 69.449219-31.109375 50.097656-35.765625 28.832031-78.175781-13.542969-162.648437l-.859375-1.71875c-8.566406-17.082032-10.132812-31.347656-4.882812-43.410156 22.316406 9.246093 48.003906 4.140624 65.089844-12.941407 17.082031-17.078125 22.191406-42.769531 12.949218-65.085937-9.242187-22.320313-31.019531-36.871094-55.175781-36.875zm-435.199219 59.734375c0-23.566407 19.101563-42.667969 42.664063-42.667969 23.566406 0 42.667969 19.101562 42.667969 42.667969 0 23.5625-19.101563 42.667969-42.667969 42.667969-23.550781-.03125-42.636719-19.117188-42.664063-42.667969zm120.507813 277.683593c-22.855469-6.003906-44.585938-15.671874-64.351563-28.625-36.582031-26.125-25.4375-52.757812 18.875-141.117187l.859375-1.707031c11.382813-22.625 12.859375-42.738282 4.4375-59.929688 7.894531-6.4375 14.015625-14.78125 17.792969-24.238281 16.191406 16.191406 20.582031 36.167969 13.167969 60.816406-7.273438 23.546875-16.914063 46.289063-28.785157 67.886719-15.570312 29.878906-26.820312 51.480469 6.027344 77.753906 15.550782 11.320313 33.25 19.351563 52.011719 23.59375-.085937.265625-.21875.507813-.296875.769532-2.839844 9.460937-3.96875 19.351562-3.339844 29.210937-5.34375-1.316406-10.757812-2.746094-16.398437-4.414063zm193.867187 24.40625c-50.066406 6.816407-100.820312 6.816407-150.886718 0-3.109376-.28125-5.789063-2.3125-6.898438-5.234374-4-12.714844-4-26.347657 0-39.058594.34375-1.003906.925781-1.910156 1.699219-2.636719 1.347656-.40625 2.574219-1.148437 3.5625-2.152344.53125-.195312 1.078125-.339843 1.636719-.4375 50.066406-6.808593 100.820312-6.808593 150.886718 0 .554688.097657 1.105469.242188 1.636719.4375.988281 1.003907 2.214844 1.746094 3.5625 2.152344.773437.726563 1.355469 1.632813 1.699219 2.636719 4 12.710937 4 26.34375 0 39.058594-1.109375 2.921874-3.789063 4.957031-6.898438 5.234374zm87.597656-195.867187.859376 1.71875c44.3125 88.359375 55.457031 114.992187 18.875 141.117187-19.769532 12.957032-41.507813 22.621094-64.367188 28.625-5.632812 1.667969-11.039062 3.097657-16.378906 4.417969.628906-9.855469-.5-19.742187-3.335938-29.203125-.082031-.269531-.210937-.511718-.300781-.777344 18.757813-4.246093 36.457031-12.269531 52.007813-23.589843 32.851562-26.28125 21.597656-47.882813 6.023437-77.765625-11.867187-21.597656-21.511719-44.34375-28.78125-67.890625-7.984375-21.085938-2.820313-44.898438 13.175781-60.785157 3.777344 9.449219 9.898438 17.785157 17.785156 24.214844-8.394531 17.160156-6.917968 37.269532 4.4375 59.917969zm33.226563-63.554687c-23.566406 0-42.667969-19.105469-42.667969-42.667969 0-23.566407 19.101563-42.667969 42.667969-42.667969 23.5625 0 42.664063 19.101562 42.664063 42.667969-.027344 23.550781-19.113282 42.636719-42.664063 42.667969zm0 0"/><path d="m452.390625 34.316406c-14.140625 0-25.601563 11.460938-25.601563 25.601563 0 14.136719 11.460938 25.601562 25.601563 25.601562 14.136719 0 25.597656-11.464843 25.597656-25.601562-.015625-14.132813-11.464843-25.585938-25.597656-25.601563zm0 34.132813c-4.714844 0-8.535156-3.820313-8.535156-8.53125 0-4.714844 3.820312-8.535157 8.535156-8.535157 4.710937 0 8.53125 3.820313 8.53125 8.535157 0 4.710937-3.820313 8.53125-8.53125 8.53125zm0 0"/></svg>