<svg height="511pt" viewBox="-17 0 511 511.97745" width="511pt" xmlns="http://www.w3.org/2000/svg"><path d="m40.433594 455.71875c37.335937 37.332031 98.160156 56.257812 180.796875 56.257812 6.082031 0 12.359375-.085937 17.898437-.347656 6.261719.265625 12.441406.347656 18.617188.347656 82.644531 0 143.46875-18.925781 180.828125-56.273437 26.625-26.945313 41.03125-63.632813 39.851562-101.492187.902344-33.164063-10.042969-65.566407-30.871093-91.386719 2.472656-3.195313 4.636718-6.613281 6.472656-10.214844 9.757812-19.308594 9.777344-42.105469.046875-61.433594-4.617188-9.226562-11.273438-17.285156-19.464844-23.566406-5.121094-3.9375-9.179687-9.089844-11.808594-14.988281-2.75-6.140625-4.148437-12.796875-4.109375-19.523438v-26.621094c.019532-6.761718-5.238281-12.367187-11.992187-12.773437-20.808594-1.730469-37.324219-18.234375-39.066407-39.042969-.394531-6.757812-6-12.03125-12.769531-12.015625h-26.625c-6.714843.042969-13.359375-1.351562-19.492187-4.09375-5.925782-2.636719-11.101563-6.714843-15.054688-11.863281-12.949218-16.835938-32.988281-26.6953125-54.226562-26.6875-21.238282.0078125-41.269532 9.882812-54.207032 26.730469-3.9375 5.121093-9.089843 9.179687-14.992187 11.804687-6.136719 2.75-12.792969 4.152344-19.519531 4.109375h-26.621094c-6.761719-.019531-12.367188 5.238281-12.773438 11.992188-1.730468 20.808593-18.234374 37.324219-39.042968 39.066406-6.761719.394531-12.035156 6.003906-12.015625 12.773437v26.621094c.042969 6.714844-1.351563 13.359375-4.09375 19.492188-2.636719 5.925781-6.71875 11.101562-11.863281 15.054687-8.144532 6.246094-14.769532 14.257813-19.371094 23.433594-9.757813 19.304687-9.78125 42.09375-.058594 61.417969 1.828125 3.609375 3.992188 7.039062 6.457031 10.25-20.761719 25.808594-31.679687 58.152344-30.804687 91.265625-1.207032 37.933593 13.207031 74.703125 39.875 101.707031zm386.046875-12.066406c-34.011719 34.007812-90.78125 51.257812-168.726563 51.257812-5.941406 0-11.875-.085937-18.617187-.332031-6.027344.246094-12.050781.332031-17.90625.332031-77.945313 0-134.714844-17.25-168.703125-51.242187-23.421875-23.84375-36.035156-56.253907-34.902344-89.65625-1.007812-31.378907 10.082031-61.945313 30.976562-85.375 1.300782-1.382813 2.601563-2.765625 3.898438-4.066407 7.394531-7.347656 15.644531-13.773437 24.578125-19.144531 6.359375-4.03125 13.039063-7.542969 19.96875-10.492187 34.421875-13.914063 71.183594-21.128906 108.3125-21.261719v27.089844c-75.113281 3.042969-124.964844 26.5-144.242187 68.132812-.039063.085938-.066407.175781-.105469.253907l-.070313.179687c-6.316406 14.066406-9.449218 29.351563-9.183594 44.765625-1.03125 27.132812 9.414063 53.445312 28.777344 72.484375 30.773438 29.78125 84.414063 43.53125 158.65625 40.933594 5.992188.214843 11.84375.320312 17.558594.316406 65.757812 0 113.382812-13.851563 141.699219-41.25 19.359375-19.03125 29.804687-45.339844 28.777343-72.46875.273438-15.421875-2.863281-30.71875-9.1875-44.789063l-.0625-.15625-.074218-.195312c-19.3125-41.707031-69.160156-65.164062-144.277344-68.207031v-27.089844c37.160156.117187 73.957031 7.347656 108.402344 21.296875 6.945312 2.96875 13.640625 6.492188 20.015625 10.542969 8.839843 5.371093 17.015625 11.769531 24.359375 19.058593 1.316406 1.316407 2.558594 2.632813 3.824218 4.066407 21.007813 23.453125 32.15625 54.105469 31.132813 85.574219 1.109375 33.332031-11.496094 65.660156-34.875 89.441406zm-355.933594-214.355469c-1.160156-2.3125-1.75-4.867187-1.722656-7.453125-.007813-2.777344.671875-5.515625 1.976562-7.964844 1.09375-2.15625 2.652344-4.039062 4.566407-5.519531 11.898437-9.078125 21.339843-20.988281 27.46875-34.644531 5.527343-12.242188 8.46875-25.5 8.640624-38.933594 17.613282-9.011719 31.945313-23.34375 40.957032-40.957031 13.5-.183594 26.8125-3.15625 39.109375-8.726563 13.511719-6.058594 25.300781-15.390625 34.296875-27.152344 1.636718-2.140624 3.753906-3.867187 6.183594-5.035156 4.878906-2.425781 10.632812-2.335937 15.433593.242188 2.152344 1.09375 4.039063 2.652344 5.515625 4.566406 9.078125 11.898438 20.988282 21.339844 34.644532 27.464844 12.246093 5.53125 25.5 8.472656 38.933593 8.644531 9.015625 17.613281 23.34375 31.941406 40.960938 40.957031.183593 13.5 3.152343 26.8125 8.722656 39.109375 6.0625 13.511719 15.394531 25.300781 27.15625 34.296875 2.144531 1.640625 3.875 3.765625 5.042969 6.199219 1.164062 2.3125 1.753906 4.867187 1.726562 7.453125-.007812 2.636719-.636718 5.238281-1.835937 7.589844-6.238281-3.8125-12.734375-7.183594-19.441407-10.089844-36.605468-14.894531-75.734374-22.617188-115.257812-22.742188v-.359374c-.015625-14.128907-11.46875-25.582032-25.597656-25.597657h-17.066406c-14.132813.015625-25.585938 11.46875-25.601563 25.597657v.359374c-39.488281.140626-78.582031 7.847657-115.167969 22.699219-6.75 2.917969-13.285156 6.304688-19.558594 10.136719zm339.613281 124.832031c.949219 22.480469-7.609375 44.328125-23.578125 60.183594-26.941406 26.066406-77.714843 38.523438-147.390625 36.148438-69.035156 2.367187-119.847656-10.082032-146.789062-36.148438-15.972656-15.863281-24.53125-37.714844-23.578125-60.203125 0-1.707031.160156-3.3125.230469-4.972656 1.035156.421875 2.121093.707031 3.230468.847656 20.808594 1.730469 37.324219 18.234375 39.066406 39.042969.394532 6.761718 6.003907 12.035156 12.773438 12.015625h26.621094c6.714844-.039063 13.359375 1.355469 19.492187 4.097656 5.925781 2.636719 11.101563 6.714844 15.054688 11.859375 6.246093 8.144531 14.257812 14.769531 23.433593 19.371094 19.308594 9.761718 42.105469 9.78125 61.433594.050781 9.226563-4.621094 17.285156-11.277344 23.566406-19.464844 3.9375-5.125 9.089844-9.183593 14.992188-11.808593 6.136719-2.75 12.792969-4.148438 19.519531-4.105469h26.625c6.761719.023437 12.367188-5.238281 12.773438-11.992188 1.730469-20.808593 18.234375-37.324219 39.042969-39.066406 1.117187-.140625 2.210937-.425781 3.253906-.851563.070312 1.667969.226562 3.28125.226562 4.996094zm-81.921875 29.847656c-9.164062-.046874-18.234375 1.878907-26.589843 5.640626-8.457032 3.785156-15.839844 9.617187-21.476563 16.96875-9.710937 12.625-24.730469 20.027343-40.65625 20.035156-15.925781.007812-30.953125-7.378906-40.675781-19.992188-5.652344-7.378906-13.058594-13.230468-21.542969-17.027344-8.347656-3.753906-17.398437-5.671874-26.550781-5.625h-22.785156c-3.832032-26.191406-24.40625-46.761718-50.601563-50.589843v-17.074219c6.171875.640625 12.242187 2.03125 18.074219 4.148438l4.109375 1.660156c17.738281 7.777344 31.898437 21.941406 39.675781 39.679687 1.359375 3.101563 4.425781 5.109375 7.816406 5.109375h3.710938c11.566406-.050781 23.007812 2.378906 33.558594 7.125 11.097656 4.976563 20.777343 12.648438 28.164062 22.316406 3.042969 3.964844 6.945312 7.195313 11.414062 9.441407 4.875 2.503906 10.273438 3.820312 15.75 3.839843 5.210938.003907 10.347657-1.234374 14.984376-3.609374 4.734374-2.324219 8.867187-5.710938 12.074218-9.898438 7.292969-9.539062 16.859375-17.105469 27.820313-22.007812 10.597656-4.785157 22.097656-7.246094 33.726562-7.207032h3.710938c3.390625 0 6.457031-2.011718 7.816406-5.121094 7.746094-17.664062 21.832031-31.789062 39.472656-39.59375l4.074219-1.65625c5.90625-2.167968 12.058594-3.589843 18.3125-4.230468v17.066406c-26.191406 3.832031-46.761719 24.40625-50.589844 50.601562zm48.867188-79.324218-4.507813 1.832031c-19.890625 8.722656-36.15625 24.042969-46.050781 43.375-13.496094.1875-26.8125 3.160156-39.109375 8.726563-13.507812 6.0625-25.296875 15.394531-34.292969 27.15625-1.636719 2.140624-3.753906 3.867187-6.183593 5.035156-4.878907 2.425781-10.628907 2.335937-15.433594-.242188-2.152344-1.09375-4.039063-2.652344-5.515625-4.566406-9.078125-11.898438-20.988281-21.339844-34.648438-27.464844-12.246093-5.53125-25.5-8.472656-38.933593-8.644531-9.929688-19.40625-26.285157-34.769531-46.273438-43.464844l-4.535156-1.832031c-4.929688-1.792969-10.007813-3.164062-15.171875-4.097656 25.84375-31.40625 76.203125-40.890625 119.089843-42.679688.921876 13.371094 12.019532 23.753906 25.421876 23.792969h17.066406c13.398437-.039063 24.492187-10.425781 25.414062-23.792969 42.867188 1.785156 93.199219 11.261719 119.074219 42.675782-5.242187.957031-10.398437 2.359374-15.40625 4.191406zm-120.546875-48.675782c-.003906 4.710938-3.820313 8.53125-8.53125 8.535157h-17.066406c-4.714844-.003907-8.53125-3.824219-8.535157-8.535157v-59.734374c.003907-4.710938 3.820313-8.527344 8.535157-8.53125h17.066406c4.710937.003906 8.527344 3.820312 8.53125 8.53125zm-216.347656-57.230468c3.441406-6.875 8.398437-12.875 14.496093-17.550782 7.378907-5.65625 13.230469-13.058593 17.027344-21.542968 3.753906-8.347656 5.671875-17.402344 5.625-26.554688v-22.785156c26.191406-3.832031 46.761719-24.40625 50.589844-50.601562h22.796875c9.164062.046874 18.234375-1.878907 26.589844-5.640626 8.457031-3.785156 15.839843-9.617187 21.476562-16.96875 9.710938-12.625 24.730469-20.023437 40.65625-20.03125 15.925781-.011718 30.953125 7.375 40.675781 19.992188 5.65625 7.375 13.058594 13.226562 21.542969 17.023438 8.347656 3.753906 17.402344 5.671874 26.550781 5.625h22.785157c3.832031 26.195312 24.40625 46.761718 50.601562 50.589843v22.796875c-.046875 9.164063 1.878906 18.234375 5.640625 26.589844 3.785156 8.457031 9.617187 15.839844 16.96875 21.476562 6.140625 4.710938 11.132813 10.757813 14.589844 17.683594 7.3125 14.507813 7.289062 31.628906-.058594 46.117188-.902344 1.769531-1.917969 3.480468-3.035156 5.121094-4.175781-3.960938-8.582031-7.671876-13.199219-11.109376.277344-.480468.628906-.964843.867188-1.441406 2.523437-4.84375 3.835937-10.226562 3.828124-15.691406.039063-5.253906-1.175781-10.4375-3.550781-15.125-2.324219-4.734375-5.714843-8.867188-9.898437-12.074219-9.539063-7.292969-17.105469-16.855469-22.007813-27.820312-4.789062-10.597657-7.246093-22.097657-7.210937-33.726563v-3.710937c0-3.394531-2.011719-6.460938-5.121094-7.816407-17.734375-7.777343-31.898438-21.941406-39.671875-39.679687-1.359375-3.105469-4.425781-5.113281-7.816406-5.113281h-3.710938c-11.566406.050781-23.007812-2.378906-33.558593-7.125-11.097657-4.976563-20.777344-12.648438-28.164063-22.316406-9.976563-12.8125-27.585937-16.851563-42.152344-9.671876-4.734375 2.324219-8.867187 5.710938-12.074219 9.898438-7.292968 9.539062-16.859374 17.105469-27.820312 22.007812-10.597656 4.785157-22.097656 7.242188-33.722656 7.207032h-3.710938c-3.394531 0-6.460937 2.011718-7.816406 5.121094-7.777344 17.734374-21.945312 31.898437-39.679688 39.675781-3.105468 1.355469-5.113281 4.421875-5.113281 7.8125v3.710937c.050781 11.566406-2.378906 23.011719-7.125 33.558594-4.976562 11.097656-12.648437 20.78125-22.316406 28.164062-3.960937 3.039063-7.1875 6.9375-9.433594 11.398438-2.507812 4.824219-3.808593 10.1875-3.792969 15.625-.039062 5.25 1.175782 10.433594 3.542969 15.117188.347657.707031.765625 1.308593 1.148438 1.96875-4.628907 3.433593-9.042969 7.140624-13.222657 11.105468-1.128906-1.664062-2.15625-3.398437-3.066406-5.191406-7.308594-14.503906-7.289062-31.613281.050782-46.097656zm0 0"/><path d="m239.492188 127.976562c14.136718 0 25.601562-11.460937 25.601562-25.597656 0-14.140625-11.464844-25.601562-25.601562-25.601562-14.136719 0-25.601563 11.460937-25.601563 25.601562.015625 14.128906 11.46875 25.582032 25.601563 25.597656zm0-34.132812c4.714843 0 8.535156 3.820312 8.535156 8.535156 0 4.710938-3.820313 8.53125-8.535156 8.53125-4.710938 0-8.53125-3.820312-8.53125-8.53125 0-4.714844 3.820312-8.53125 8.53125-8.535156zm0 0"/><path d="m239.492188 315.710938c-14.136719 0-25.601563 11.460937-25.601563 25.601562 0 14.136719 11.464844 25.597656 25.601563 25.597656 14.136718 0 25.601562-11.460937 25.601562-25.597656-.015625-14.132812-11.46875-25.585938-25.601562-25.601562zm0 34.132812c-4.710938 0-8.53125-3.820312-8.53125-8.53125 0-4.714844 3.820312-8.535156 8.53125-8.535156 4.714843 0 8.535156 3.820312 8.535156 8.535156-.003906 4.710938-3.824219 8.527344-8.535156 8.53125zm0 0"/></svg>