<svg height="512pt" viewBox="0 -111 512 512" width="512pt" xmlns="http://www.w3.org/2000/svg"><path d="m477.867188 60.84375v-26.710938c-.019532-18.84375-15.289063-34.1132808-34.132813-34.132812h-375.46875c-18.84375.0195312-34.113281 15.289062-34.132813 34.132812l-.246093 26.699219c-19.636719 4.824219-33.886719 25.902344-33.886719 50.101563 0 24.199218 14.25 45.273437 34.132812 50.089844v11.605468c-.015624 38.277344 23.703126 72.550782 59.53125 86.023438.109376.046875.234376.070312.34375.113281-.046874 1.738281-.109374 3.480469-.125 5.207031-.066406 7.605469 4.898438 14.339844 12.179688 16.53125 14.886719 4.394532 52.988281 9.628906 149.9375 9.628906s135.050781-5.234374 149.925781-9.617187c7.285157-2.191406 12.253907-8.929687 12.191407-16.539063-.019532-2.503906-.085938-5.023437-.183594-7.550781 36.039062-13.316406 59.957031-47.679687 59.933594-86.101562l.246093-9.289063c19.636719-4.828125 33.886719-25.902344 33.886719-50.101562 0-24.199219-14.25-45.277344-34.132812-50.089844zm-221.867188 212.222656c-99.921875 0-133.800781-5.589844-145.050781-8.960937.144531-18.53125 1.589843-39.789063 17.066406-57.464844 20.914063-23.875 63.972656-35.972656 127.984375-35.972656s107.070312 12.097656 127.980469 35.972656c15.480469 17.675781 16.925781 38.933594 17.132812 57.5-11.3125 3.335937-45.1875 8.925781-145.113281 8.925781zm217.933594-128.574218c-7.675782 1.804687-13.109375 8.644531-13.132813 16.53125v9.300781c-.027343 29.542969-17.492187 56.289062-44.53125 68.191406-2.164062-15.957031-8.921875-30.941406-19.453125-43.125-24.632812-28.125-70.695312-41.789063-140.816406-41.789063s-116.183594 13.664063-140.820312 41.789063c-10.980469 12.777344-17.859376 28.566406-19.734376 45.308594-26.980468-11.863281-44.355468-38.59375-44.246093-68.066407v-11.609374c-.035157-7.921876-5.515625-14.777344-13.238281-16.554688-11.910157-2.9375-20.894532-17.351562-20.894532-33.535156s8.984375-30.601563 21-33.558594c7.675782-1.808594 13.109375-8.644531 13.132813-16.53125v-26.710938c.011719-9.421874 7.644531-17.054687 17.066406-17.066406h375.46875c9.421875.011719 17.054687 7.644532 17.066406 17.066406v26.710938c.035157 7.921875 5.515625 14.777344 13.238281 16.554688 11.910157 2.933593 20.894532 17.351562 20.894532 33.535156s-8.984375 30.597656-21 33.558594zm0 0"/><path d="m59.734375 85.332031c-14.140625 0-25.601563 11.460938-25.601563 25.601563 0 14.136718 11.460938 25.601562 25.601563 25.601562 14.136719 0 25.597656-11.464844 25.597656-25.601562-.015625-14.132813-11.464843-25.585938-25.597656-25.601563zm0 34.132813c-4.714844 0-8.535156-3.820313-8.535156-8.53125 0-4.714844 3.820312-8.535156 8.535156-8.535156 4.710937 0 8.53125 3.820312 8.53125 8.535156-.003906 4.710937-3.820313 8.527344-8.53125 8.53125zm0 0"/><path d="m452.265625 85.332031c-14.136719 0-25.597656 11.460938-25.597656 25.601563 0 14.136718 11.460937 25.601562 25.597656 25.601562 14.140625 0 25.601563-11.464844 25.601563-25.601562-.015626-14.132813-11.46875-25.585938-25.601563-25.601563zm0 34.132813c-4.710937 0-8.53125-3.820313-8.53125-8.53125 0-4.714844 3.820313-8.535156 8.53125-8.535156 4.714844 0 8.535156 3.820312 8.535156 8.535156-.003906 4.710937-3.824219 8.527344-8.535156 8.53125zm0 0"/><path d="m392.535156 34.132812h-273.070312c-9.417969.011719-17.054688 7.644532-17.066406 17.066407v68.265625c.011718 9.421875 7.648437 17.058594 17.066406 17.070312h273.070312c9.417969-.011718 17.054688-7.648437 17.066406-17.070312v-68.265625c-.011718-9.421875-7.648437-17.054688-17.066406-17.066407zm-273.070312 85.332032v-68.265625h273.070312l.011719 68.265625zm0 0"/><path d="m195.28125 188.640625c-2.335938.277344-57.246094 7.144531-67.046875 48.316406-.769531 2.988281.136719 6.15625 2.367187 8.289063 2.230469 2.132812 5.433594 2.894531 8.386719 1.996094 2.949219-.898438 5.183594-3.320313 5.84375-6.335938 7.035157-29.539062 51.984375-35.265625 52.4375-35.3125 3.03125-.359375 5.636719-2.300781 6.84375-5.101562 1.207031-2.800782.824219-6.03125-.996093-8.476563-1.820313-2.445313-4.808594-3.730469-7.835938-3.375zm0 0"/></svg>