<svg height="512pt" viewBox="0 -60 512.0034 512" width="512pt" xmlns="http://www.w3.org/2000/svg"><path d="m77.460938 146.984375c-25.136719 77.351563 2.394531 162.09375 68.191406 209.898437 65.800781 47.808594 154.898437 47.808594 220.699218 0 65.796876-47.804687 93.328126-132.546874 68.195313-209.898437l65.4375-70.890625c12.207031-13.230469 15.433594-32.433594 8.214844-48.925781-7.214844-16.492188-23.507813-27.152344-41.507813-27.167969h-421.378906c-18 .015625-34.292969 10.675781-41.507812 27.167969-7.21875 16.492187-3.996094 35.695312 8.214843 48.925781zm349.207031 57.816406c-.121094 66.144531-38.445313 126.261719-98.363281 154.285157-59.914063 28.023437-130.625 18.902343-181.464844-23.40625-50.84375-42.308594-72.664063-110.183594-55.996094-174.191407l29.179688 31.609375c-.332032 3.734375-.554688 7.601563-.554688 11.703125 0 75.40625 61.128906 136.535157 136.535156 136.535157 75.402344 0 136.53125-61.128907 136.53125-136.535157 0-4.101562-.222656-7.96875-.554687-11.703125l29.179687-31.609375c3.675782 14.144531 5.527344 28.699219 5.507813 43.3125zm-51.53125 6.542969c-3.390625 63.320312-55.722657 112.925781-119.132813 112.925781-63.414062 0-115.746094-49.605469-119.136718-112.925781l42.324218 45.847656c20.015625 21.035156 47.777344 32.945313 76.8125 32.945313s56.800782-11.910157 76.8125-32.945313zm-329.824219-194.273438h421.378906c11.222656.007813 21.378906 6.65625 25.878906 16.941407 4.496094 10.28125 2.484376 22.253906-5.125 30.503906l-167.167968 181.097656c-16.78125 17.539063-40 27.457031-64.269532 27.457031-24.273437 0-47.492187-9.917968-64.273437-27.457031l-167.175781-181.097656c-7.609375-8.25-9.621094-20.222656-5.121094-30.503906 4.496094-10.285157 14.652344-16.933594 25.875-16.941407zm0 0"/><path d="m256.003906 247.46875c23.5625 0 42.664063-19.101562 42.664063-42.667969 0-23.5625-19.101563-42.664062-42.664063-42.664062-23.566406 0-42.667968 19.101562-42.667968 42.664062.027343 23.554688 19.113281 42.640625 42.667968 42.667969zm0-68.265625c14.136719 0 25.597656 11.460937 25.597656 25.597656 0 14.140625-11.460937 25.601563-25.597656 25.601563-14.140625 0-25.601562-11.460938-25.601562-25.601563.015625-14.132812 11.46875-25.582031 25.601562-25.597656zm0 0"/><path d="m59.734375 51.203125h17.066406c4.714844 0 8.535157-3.820313 8.535157-8.535156 0-4.710938-3.820313-8.53125-8.535157-8.53125h-17.066406c-4.710937 0-8.53125 3.820312-8.53125 8.53125 0 4.714843 3.820313 8.535156 8.53125 8.535156zm0 0"/><path d="m110.933594 51.203125h102.402344c4.710937 0 8.53125-3.820313 8.53125-8.535156 0-4.710938-3.820313-8.53125-8.53125-8.53125h-102.402344c-4.710938 0-8.53125 3.820312-8.53125 8.53125 0 4.714843 3.820312 8.535156 8.53125 8.535156zm0 0"/></svg>