<svg height="504pt" viewBox="-10 0 504 504.31897" width="504pt" xmlns="http://www.w3.org/2000/svg"><path d="m275.632812 50.359375h-135.121093c-2.972657-5.175781-8.480469-8.371094-14.449219-8.390625h-109.117188c-9.265624.007812-16.773437 7.519531-16.785156 16.785156v8.394532c.039063 12.757812 9.636719 23.464843 22.316406 24.890624l56.617188 35.386719-38.71875 38.714844c-10.230469 10.230469-10.226562 26.820313.003906 37.050781 10.230469 10.230469 26.820313 10.230469 37.050782-.003906l68.894531-68.890625h91.761719c-2.261719 5.765625-4.585938 11.539063-6.964844 17.3125-4.222656-.308594-8.464844-.527344-12.730469-.527344-80.070313-.160156-150.230469 53.5625-170.953125 130.902344s13.171875 158.949219 82.59375 198.84375 156.996094 28.101563 213.386719-28.742187 67.488281-144.511719 27.039062-213.609376c23.582031-25.578124 44.605469-53.394531 62.777344-83.058593 11.273437-18 20.566406-37.167969 27.714844-57.171875 3.648437-10.269532 6.601562-20.773438 8.835937-31.441406 4.828125-.785157 9.0625-3.65625 11.582032-7.847657 2.519531-4.191406 3.066406-9.277343 1.5-13.90625l-3.539063-10.617187c-6.835937-20.578125-26.09375-34.4570315-47.777344-34.433594h-40.222656c-21.683594-.0234375-40.941406 13.855469-47.78125 34.433594l-3.53125 10.617187c-.539063 1.714844-.792969 3.511719-.753906 5.308594zm18.296876 16.789063v33.574218c-.011719 9.265625-7.519532 16.773438-16.785157 16.785156h-117.507812c-9.269531-.011718-16.777344-7.519531-16.789063-16.785156v-33.574218zm-199.035157 50.359374-40.289062-25.179687h71.457031v8.394531c.03125 5.910156 1.644531 11.707032 4.667969 16.785156zm-77.949219-58.753906h109.117188v16.785156h-100.722656c-4.632813-.003906-8.390625-3.757812-8.394532-8.390624zm48.613282 132.566406c-3.71875 3.570313-9.59375 3.5625-13.304688-.015624-3.664062-3.675782-3.664062-9.621094 0-13.296876l43.710938-43.710937h26.621094zm312.304687 136.023438c0 88.078125-71.398437 159.476562-159.472656 159.476562-88.078125 0-159.476563-71.398437-159.476563-159.476562 0-88.074219 71.398438-159.476562 159.476563-159.476562 1.945313 0 3.882813.089843 5.820313.164062-5.089844 11.863281-10.292969 23.679688-15.4375 35.3125-2.382813 5.386719-4.789063 10.894531-7.195313 16.367188-45.679687 7.050781-81.976563 42.082031-90.648437 87.480468-8.671876 45.398438 12.160156 91.339844 52.023437 114.730469s90.132813 19.167969 125.535156-10.546875c35.402344-29.710938 48.277344-78.488281 32.152344-121.800781 3.945313-3.949219 7.871094-7.855469 11.714844-11.65625 6.546875-6.484375 12.863281-12.722657 18.617187-18.65625 2.601563-2.664063 5.066406-5.304688 7.582032-7.949219 12.699218 23.324219 19.339843 49.46875 19.308593 76.03125zm-217.746093 29.753906c5.714843 16.957032 19.28125 30.101563 36.40625 35.277344 4.445312 1.242188 9.035156 1.875 13.648437 1.886719 25.476563 0 45.953125-19.859375 57.523437-40.753907 11.128907-18.363281 24.464844-35.292968 39.714844-50.40625 13.402344 49.09375-15.460937 99.777344-64.527344 113.296876-49.0625 13.519531-99.8125-15.226563-113.449218-64.261719-13.632813-49.03125 14.992187-99.847657 63.992187-113.597657-2.695312 6.277344-5.414062 12.570313-7.976562 18.796876-2.742188 6.664062-5.777344 13.195312-8.804688 19.730468-3.507812 7.566406-7.140625 15.394532-10.304687 23.394532-7.175782 18.136718-12.894532 37.554687-6.222656 56.636718zm284.921874-264.203125c-6.765624 18.84375-15.546874 36.90625-26.1875 53.867188-22.632812 36.585937-49.453124 70.414062-79.914062 100.796875-5.691406 5.867187-11.917969 12.03125-18.378906 18.425781-24.390625 24.113281-52.035156 51.453125-67.542969 79.386719-10.484375 18.933594-29.695313 36.964844-52.042969 30.816406-11.824218-3.6875-21.136718-12.863281-25.003906-24.628906-5.105469-14.589844.410156-30.835938 5.980469-44.917969 2.992187-7.554687 6.519531-15.15625 9.925781-22.507813 3.136719-6.753906 6.269531-13.515624 9.101562-20.402343 7.300782-17.753907 15.359376-35.976563 23.15625-53.597657 10.96875-24.8125 22.230469-50.410156 31.976563-75.835937h21.035156c18.53125-.019531 33.554688-15.042969 33.574219-33.574219v-33.574218h141.773438c-2.011719 8.140624-5.679688 20.425781-7.453126 25.746093zm-85.5625-53.148437c4.558594-13.71875 17.394532-22.972656 31.851563-22.960938h40.222656c14.453125-.011718 27.292969 9.242188 31.851563 22.960938l3.5625 10.613281h-111.027344zm0 0"/><path d="m176.421875 92.328125c0 4.636719-3.757813 8.394531-8.394531 8.394531-4.632813 0-8.390625-3.757812-8.390625-8.394531s3.757812-8.394531 8.390625-8.394531c4.636718 0 8.394531 3.757812 8.394531 8.394531zm0 0"/><path d="m277.144531 92.328125c0 4.636719-3.757812 8.394531-8.394531 8.394531s-8.394531-3.757812-8.394531-8.394531 3.757812-8.394531 8.394531-8.394531 8.394531 3.757812 8.394531 8.394531zm0 0"/><path d="m238.175781 297.84375c-1.519531-2.527344-4.25-4.070312-7.195312-4.074219h-25.179688c-2.949219.003907-5.679687 1.546875-7.199219 4.074219l-12.589843 20.984375c-1.59375 2.660156-1.59375 5.980469 0 8.640625l12.589843 20.980469c1.519532 2.527343 4.25 4.074219 7.199219 4.074219h25.179688c2.945312 0 5.675781-1.546876 7.195312-4.074219l12.589844-20.980469c1.597656-2.660156 1.597656-5.980469 0-8.640625zm-11.949219 37.894531h-15.671874l-7.554688-12.589843 7.554688-12.589844h15.671874l7.550782 12.589844zm0 0"/></svg>