<svg height="504pt" viewBox="0 0 504 504.09841" width="504pt" xmlns="http://www.w3.org/2000/svg"><path d="m16.398438 423.777344c-14.691407 12.242187-20.144532 32.375-13.636719 50.359375 6.511719 17.980469 23.585937 29.960937 42.710937 29.960937h412.621094c19.125 0 36.199219-11.976562 42.710938-29.960937 6.507812-17.980469 1.058593-38.117188-13.632813-50.359375l-133.316406-111.089844c-.289063-.242188-.628907-.40625-.921875-.640625 5.070312-4.726563 7.953125-11.34375 7.964844-18.277344v-50.359375c-.015626-13.902344-11.28125-25.164062-25.179688-25.179687h-33.574219v-16.671875l1.378907-.230469c4.570312-.765625 7.65625-5.082031 6.898437-9.652344-.675781-4.027343-4.199219-6.949219-8.277344-6.871093v-16.820313l1.378907-.230469c4.570312-.761718 7.65625-5.082031 6.898437-9.652344-.679687-4.023437-4.199219-6.945312-8.277344-6.867187v-16.824219l1.378907-.230468c4.570312-.761719 7.65625-5.082032 6.898437-9.652344-.683594-4.019532-4.203125-6.933594-8.277344-6.863282v-16.828124l1.378907-.230469c4.570312-.761719 7.65625-5.082031 6.898437-9.652344-.675781-4.023437-4.199219-6.945313-8.277344-6.867187v-16.824219l1.378907-.230469c4.570312-.761719 7.65625-5.082031 6.898437-9.652344-.679687-4.019531-4.199219-6.941406-8.277344-6.863281v-16.828125l1.378907-.230469c4.570312-.761719 7.65625-5.082031 6.898437-9.652343-.679687-4.023438-4.199219-6.945313-8.277344-6.867188v-.152344c-.011719-9.265625-7.523437-16.7734372-16.789062-16.785156h-67.148438c-9.265625.0117188-16.773437 7.519531-16.785156 16.785156v16.671875l-1.382813.230469c-4.304687.722656-7.335937 4.621094-6.980468 8.96875.359375 4.347656 3.992187 7.699219 8.355468 7.703125h.007813v16.671875l-1.382813.230469c-4.304687.71875-7.335937 4.617187-6.980468 8.96875.359375 4.347656 3.992187 7.699219 8.355468 7.703125h.007813v16.671875l-1.382813.230469c-4.304687.71875-7.335937 4.617187-6.980468 8.96875.359375 4.347656 3.992187 7.699218 8.355468 7.703124h.007813v16.671876l-1.382813.230468c-4.304687.71875-7.335937 4.617188-6.980468 8.96875.359375 4.347656 3.992187 7.695313 8.355468 7.703125h.007813v16.671875l-1.382813.230469c-4.304687.71875-7.335937 4.617187-6.980468 8.96875.359375 4.347656 3.992187 7.695313 8.355468 7.703125h.007813v16.671875l-1.382813.230469c-4.304687.71875-7.335937 4.617187-6.980468 8.964844.359375 4.351562 3.992187 7.699218 8.355468 7.707031h-33.566406c-13.898437.015625-25.164062 11.277343-25.179687 25.179687v50.359375c.011719 6.933594 2.894531 13.550781 7.960937 18.277344-.292968.234375-.632812.398437-.921875.640625zm460.023437 12.902344c9.261719 7.71875 12.699219 20.410156 8.59375 31.746093-4.101563 11.335938-14.867187 18.886719-26.921875 18.886719h-412.621094c-12.058594 0-22.820312-7.550781-26.925781-18.886719-4.105469-11.335937-.667969-24.027343 8.59375-31.746093l133.304687-111.089844c5.152344-4.285156 11.640626-6.632813 18.339844-6.640625h145.992188c6.699218.007812 13.1875 2.355469 18.335937 6.640625zm-266.605469-201.664063h83.933594v67.148437h-83.933594zm134.292969 8.394531v50.359375c-.003906 4.636719-3.757813 8.390625-8.390625 8.394531h-25.183594v-67.148437h25.183594c4.632812.003906 8.386719 3.761719 8.390625 8.394531zm-125.902344-226.625h67.148438v2.6875l-67.148438 11.1875zm0 30.890625 67.148438-11.191406v16.5625l-67.148438 11.1875zm0 33.574219 67.148438-11.191406v16.5625l-67.148438 11.1875zm0 33.574219 67.148438-11.191407v16.5625l-67.148438 11.1875zm0 33.570312 67.148438-11.1875v16.5625l-67.148438 11.1875zm0 33.574219 67.148438-11.1875v16.558594l-67.148438 11.191406zm0 33.574219 67.148438-11.191407v13.878907h-67.148438zm-50.359375 86.621093c-4.632812-.003906-8.390625-3.757812-8.394531-8.394531v-50.359375c.003906-4.632812 3.761719-8.390625 8.394531-8.394531h25.179688v67.148437zm0 0"/><path d="m128.601562 374.925781-66.8125 55.0625c-2.402343 1.875-3.597656 4.910157-3.121093 7.925781.476562 3.011719 2.550781 5.527344 5.417969 6.574219 2.863281 1.042969 6.074218.449219 8.375-1.550781l66.8125-55.0625c2.398437-1.878906 3.589843-4.910156 3.113281-7.921875-.476563-3.007813-2.550781-5.523437-5.414063-6.570313-2.863281-1.042968-6.066406-.453124-8.371094 1.542969zm0 0"/><path d="m167.847656 360.917969c0 4.636719-3.757812 8.394531-8.394531 8.394531-4.632813 0-8.390625-3.757812-8.390625-8.394531s3.757812-8.394531 8.390625-8.394531c4.636719 0 8.394531 3.757812 8.394531 8.394531zm0 0"/></svg>