<svg height="512pt" viewBox="-26 0 512 512" width="512pt" xmlns="http://www.w3.org/2000/svg"><path d="m23.832031 196.265625c-13.160156.019531-23.8203122 10.691406-23.832031 23.851563v268.03125c.0117188 13.160156 10.671875 23.832031 23.832031 23.851562h7.65625c198.527344 0 429.3125-124.160156 429.3125-284.226562v-7.65625c-.011719-13.160157-10.671875-23.832032-23.835937-23.851563h-283.363282v-68.265625h104.535157c8.949219-.058594 17.039062-5.332031 20.707031-13.492188 4.53125-9.28125 3.398438-20.332031-2.921875-28.5-40.121094-53.277343-102.609375-85.023437-169.296875-86.007812h-54.585938c-28.695312 0-52.039062 25.941406-52.039062 57.832031v44.566407c.015625 14.132812 11.46875 25.585937 25.601562 25.601562v68.265625zm419.902344 23.851563v7.65625c0 123.542968-180.078125 267.160156-412.246094 267.160156h-7.65625c-3.738281-.007813-6.765625-3.042969-6.765625-6.785156v-268.03125c0-3.738282 3.027344-6.773438 6.765625-6.785157h413.132813c3.742187.007813 6.769531 3.042969 6.769531 6.785157zm-307.199219-23.851563h-25.601562v-68.265625h25.601562zm-119.46875-93.867187v-44.566407c0-22.472656 15.6875-40.765625 34.972656-40.765625h54.585938c61.476562 1.011719 119.03125 30.378906 155.933594 79.558594 2.253906 3.015625 2.617187 7.046875.9375 10.417969-.882813 2.222656-2.96875 3.738281-5.359375 3.890625h-232.535157c-4.710937-.003906-8.53125-3.824219-8.535156-8.535156zm25.601563 25.601562h51.199219v68.265625h-51.199219zm0 0"/><path d="m51.199219 230.398438h-8.53125c-4.714844 0-8.535157 3.820312-8.535157 8.535156 0 4.710937 3.820313 8.53125 8.535157 8.53125h8.53125c4.714843 0 8.535156-3.820313 8.535156-8.53125 0-4.714844-3.820313-8.535156-8.535156-8.535156zm0 0"/><path d="m76.800781 238.933594c0 4.710937 3.820313 8.53125 8.53125 8.53125h162.132813c4.714844 0 8.535156-3.820313 8.535156-8.53125 0-4.714844-3.820312-8.535156-8.535156-8.535156h-162.132813c-4.710937 0-8.53125 3.820312-8.53125 8.535156zm0 0"/></svg>