<svg height="512pt" viewBox="-50 0 512 512.00255" width="512pt" xmlns="http://www.w3.org/2000/svg"><path d="m170.667969 512.003906c9.421875-.015625 17.054687-7.648437 17.066406-17.066406v-477.867188c-.011719-9.421874-7.644531-17.054687-17.066406-17.06640575h-153.601563c-9.417968.01171875-17.050781 7.64453175-17.066406 17.06640575v477.867188c.015625 9.417969 7.648438 17.050781 17.066406 17.066406zm-102.398438-17.066406h-17.066406v-76.800781c0-4.710938 3.820313-8.53125 8.53125-8.535157 2.300781-.003906 4.503906.941407 6.082031 2.617188 1.585938 1.558594 2.472656 3.695312 2.453125 5.917969zm68.265625 0h-17.066406v-76.800781c.003906-4.710938 3.820312-8.53125 8.53125-8.535157 2.304688-.003906 4.503906.941407 6.085938 2.617188 1.585937 1.558594 2.46875 3.695312 2.449218 5.917969zm-119.46875-477.867188h153.601563l.015625 477.867188h-17.082032v-76.800781c-.066406-14.113281-11.488281-25.535157-25.601562-25.601563-14.128906.015625-25.582031 11.46875-25.597656 25.601563v76.800781h-17.066406v-76.800781c-.066407-14.113281-11.488282-25.535157-25.601563-25.601563-14.132813.015625-25.585937 11.46875-25.601563 25.601563v76.800781h-17.066406zm0 0"/><path d="m59.734375 179.203125c14.132813-.015625 25.585937-11.46875 25.601563-25.601563v-93.867187c0-14.136719-11.460938-25.597656-25.601563-25.597656-14.136719 0-25.601563 11.460937-25.601563 25.597656v93.867187c.015626 14.132813 11.46875 25.585938 25.601563 25.601563zm-8.53125-119.46875c0-4.710937 3.820313-8.53125 8.53125-8.53125 4.714844 0 8.535156 3.820313 8.535156 8.53125v93.867187c0 4.714844-3.820312 8.535157-8.535156 8.535157-4.710937 0-8.53125-3.820313-8.53125-8.535157zm0 0"/><path d="m128 179.203125c14.132812-.015625 25.585938-11.46875 25.601562-25.601563v-93.867187c0-14.136719-11.460937-25.597656-25.601562-25.597656-14.136719 0-25.597656 11.460937-25.597656 25.597656v93.867187c.015625 14.132813 11.46875 25.585938 25.597656 25.601563zm-8.53125-119.46875c0-4.710937 3.820312-8.53125 8.53125-8.53125 4.714844 0 8.535156 3.820313 8.535156 8.53125v93.867187c0 4.714844-3.820312 8.535157-8.535156 8.535157-4.710938 0-8.53125-3.820313-8.53125-8.535157zm0 0"/><path d="m59.734375 358.402344c14.132813-.015625 25.585937-11.46875 25.601563-25.601563v-93.863281c0-14.140625-11.460938-25.601562-25.601563-25.601562-14.136719 0-25.601563 11.460937-25.601563 25.601562v93.863281c.015626 14.132813 11.46875 25.585938 25.601563 25.601563zm-8.53125-119.464844c0-4.714844 3.820313-8.535156 8.53125-8.535156 4.714844 0 8.535156 3.820312 8.535156 8.535156v93.863281c0 4.714844-3.820312 8.535157-8.535156 8.535157-4.710937 0-8.53125-3.820313-8.53125-8.535157zm0 0"/><path d="m128 358.402344c14.132812-.015625 25.585938-11.46875 25.601562-25.601563v-93.863281c0-14.140625-11.460937-25.601562-25.601562-25.601562-14.136719 0-25.597656 11.460937-25.597656 25.601562v93.863281c.015625 14.132813 11.46875 25.585938 25.597656 25.601563zm-8.53125-119.464844c0-4.714844 3.820312-8.535156 8.53125-8.535156 4.714844 0 8.535156 3.820312 8.535156 8.535156v93.863281c0 4.714844-3.820312 8.535157-8.535156 8.535157-4.710938 0-8.53125-3.820313-8.53125-8.535157zm0 0"/><path d="m238.933594 307.203125v162.132813c.027344 23.550781 19.113281 42.640624 42.667968 42.667968h25.601563c9.417969-.015625 17.050781-7.648437 17.066406-17.066406v-17.066406c-.015625-9.421875-7.648437-17.054688-17.066406-17.070313h-17.070313v-17.066406h42.667969v8.535156c.011719 9.421875 7.648438 17.054688 17.066407 17.066407h25.601562c9.417969-.011719 17.054688-7.644532 17.066406-17.066407v-9.015625c6.191406-1.152344 11.738282-4.566406 15.558594-9.578125 4.59375-5.960937 6.113281-13.742187 4.09375-20.996093l-109.128906-389.484376c-4.667969-15.242187-19.625-24.921874-35.441406-22.9375-15.820313 1.984376-27.921876 15.050782-28.683594 30.976563v207.703125c.015625 9.417969 7.648437 17.050781 17.066406 17.066406l.019531 34.132813h-.019531c-9.417969.011719-17.050781 7.644531-17.066406 17.066406zm17.066406-68.265625v-207.703125c.417969-8.214844 7.398438-14.546875 15.617188-14.164063 6.828124-.21875 12.960937 4.144532 14.992187 10.664063l109.132813 389.511719c.582031 2.105468.128906 4.359375-1.214844 6.082031-1.714844 2.167969-4.347656 3.40625-7.113282 3.339844h-3.414062c-4.710938 0-8.53125 3.820312-8.53125 8.535156v17.066406h-25.601562v-8.535156c-.011719-9.417969-7.644532-17.050781-17.066407-17.066406h-42.667969c-9.417968.015625-17.050781 7.648437-17.066406 17.066406v17.066406c.015625 9.421875 7.648438 17.054688 17.066406 17.070313h17.070313v17.066406h-25.601563c-14.132812-.015625-25.585937-11.46875-25.601562-25.601562l-.015625-162.132813h.015625c9.421875-.011719 17.054688-7.648437 17.066406-17.066406v-34.132813c-.011718-9.421875-7.644531-17.054687-17.066406-17.066406zm0 0"/></svg>