<svg height="512pt" viewBox="0 0 512 512" width="512pt" xmlns="http://www.w3.org/2000/svg"><path d="m110.933594 281.601562c14.136718 0 25.601562-11.464843 25.601562-25.601562s-11.464844-25.601562-25.601562-25.601562c-14.140625 0-25.601563 11.464843-25.601563 25.601562.015625 14.132812 11.46875 25.585938 25.601563 25.601562zm0-34.136718c4.710937 0 8.53125 3.824218 8.53125 8.535156s-3.820313 8.535156-8.53125 8.535156c-4.714844 0-8.535156-3.824218-8.535156-8.535156.003906-4.710938 3.824218-8.53125 8.535156-8.535156zm0 0"/><path d="m170.667969 435.199219c-14.140625 0-25.601563 11.460937-25.601563 25.601562 0 14.136719 11.460938 25.597657 25.601563 25.597657 14.136719 0 25.597656-11.460938 25.597656-25.597657-.015625-14.132812-11.46875-25.585937-25.597656-25.601562zm0 34.132812c-4.714844 0-8.535157-3.820312-8.535157-8.53125 0-4.714843 3.820313-8.535156 8.535157-8.535156 4.710937 0 8.53125 3.820313 8.53125 8.535156-.003907 4.710938-3.820313 8.53125-8.53125 8.53125zm0 0"/><path d="m51.199219 435.199219c-14.136719 0-25.597657 11.460937-25.597657 25.601562 0 14.136719 11.460938 25.597657 25.597657 25.597657 14.140625 0 25.601562-11.460938 25.601562-25.597657-.015625-14.132812-11.46875-25.585937-25.601562-25.601562zm0 34.132812c-4.710938 0-8.53125-3.820312-8.53125-8.53125 0-4.714843 3.820312-8.535156 8.53125-8.535156 4.714843 0 8.535156 3.820313 8.535156 8.535156-.003906 4.710938-3.824219 8.53125-8.535156 8.53125zm0 0"/><path d="m170.667969 76.800781c14.136719 0 25.597656-11.460937 25.597656-25.601562 0-14.136719-11.460937-25.597657-25.597656-25.597657-14.140625 0-25.601563 11.460938-25.601563 25.597657.015625 14.132812 11.46875 25.585937 25.601563 25.601562zm0-34.132812c4.710937 0 8.53125 3.820312 8.53125 8.53125 0 4.714843-3.820313 8.535156-8.53125 8.535156-4.714844 0-8.535157-3.820313-8.535157-8.535156.003907-4.710938 3.820313-8.53125 8.535157-8.53125zm0 0"/><path d="m51.199219 76.800781c14.140625 0 25.601562-11.460937 25.601562-25.601562 0-14.136719-11.460937-25.597657-25.601562-25.597657-14.136719 0-25.597657 11.460938-25.597657 25.597657.015626 14.132812 11.464844 25.585937 25.597657 25.601562zm0-34.132812c4.714843 0 8.535156 3.820312 8.535156 8.53125 0 4.714843-3.820313 8.535156-8.535156 8.535156-4.710938 0-8.53125-3.820313-8.53125-8.535156 0-4.710938 3.820312-8.53125 8.53125-8.53125zm0 0"/><path d="m494.933594 221.867188h-19.441406c-3.027344-5.261719-8.625-8.511719-14.691407-8.535157h-145.066406c-6.070313.023438-11.667969 3.273438-14.691406 8.535157h-79.175781v-187.734376c-.019532-18.84375-15.289063-34.1132808-34.132813-34.132812h-153.601563c-18.84375.0195312-34.1132808 15.289062-34.132812 34.132812v443.734376c.0195312 18.84375 15.289062 34.113281 34.132812 34.132812h153.601563c18.84375-.019531 34.113281-15.289062 34.132813-34.132812v-187.734376h79.175781c3.023437 5.261719 8.621093 8.511719 14.691406 8.535157h145.066406c6.066407-.023438 11.664063-3.273438 14.691407-8.535157h19.441406c9.421875-.011718 17.054687-7.644531 17.066406-17.066406v-34.132812c-.011719-9.421875-7.644531-17.054688-17.066406-17.066406zm-307.199219 51.199218v-34.132812h110.933594v34.132812zm-17.066406-42.667968v68.269531h-119.46875v-85.335938h119.46875zm0-34.132813h-119.46875v-59.730469c.03125-28.265625 22.9375-51.171875 51.199219-51.203125h17.066406c28.265625.03125 51.171875 22.9375 51.203125 51.203125zm-119.46875 119.46875h119.46875v59.730469c-.03125 28.265625-22.9375 51.171875-51.203125 51.203125h-17.066406c-28.261719-.03125-51.167969-22.9375-51.199219-51.203125zm153.601562 162.132813c-.011719 9.417968-7.648437 17.054687-17.066406 17.066406h-153.601563c-9.417968-.011719-17.054687-7.648438-17.066406-17.066406v-443.734376c.011719-9.417968 7.648438-17.054687 17.066406-17.066406h153.601563c9.417969.011719 17.054687 7.648438 17.066406 17.066406v187.734376h-17.066406v-85.332032c-.042969-37.6875-30.582031-68.226562-68.269531-68.269531h-17.066406c-37.683594.042969-68.222657 30.582031-68.265626 68.269531v238.929688c.042969 37.6875 30.582032 68.226562 68.265626 68.269531h17.066406c37.6875-.042969 68.226562-30.582031 68.269531-68.269531v-85.332032h17.066406zm110.933594-196.265626v-51.203124h145.066406l.015625 51.117187-.015625.085937zm179.199219-8.535156h-17.066406v-34.132812h17.066406zm0 0"/></svg>