<svg height="512pt" viewBox="0 -34 512 512" width="512pt" xmlns="http://www.w3.org/2000/svg"><path d="m486.398438 204.800781h-298.664063v-42.667969c0-.183593-.09375-.335937-.105469-.515624-.046875-.773438-.199218-1.535157-.457031-2.265626-.082031-.273437-.175781-.542968-.285156-.804687-.398438-.882813-.945313-1.691406-1.613281-2.390625l-.050782-.0625-70.753906-70.761719h167.132812v8.535157c.015626 14.132812 11.464844 25.582031 25.597657 25.597656h162.132812c14.132813-.015625 25.585938-11.464844 25.601563-25.597656v-68.265626c-.015625-14.132812-11.46875-25.585937-25.601563-25.601562h-162.132812c-14.132813.015625-25.582031 11.46875-25.597657 25.601562v8.53125h-196.269531v-17.066406c-.011719-9.421875-7.644531-17.0546872-17.066406-17.066406h-42.664063c-9.421874.0117188-17.054687 7.644531-17.066406 17.066406v19.441406c-5.261718 3.023438-8.5156248 8.625-8.535156 14.691407v25.601562c0 .183594.09375.335938.105469.511719.105469 2.042969.941406 3.980469 2.355469 5.460938l.050781.0625 6.023437 6.03125v13.53125c.011719 9.421874 7.644532 17.054687 17.066406 17.066406h13.53125l46.199219 46.203125v39.132812h-59.730469c-14.132812.015625-25.585937 11.46875-25.601562 25.597657v153.601562c.015625 14.132812 11.46875 25.585938 25.601562 25.601562h51.199219c.015625 18.84375 15.289063 34.113282 34.132813 34.132813h42.667968c18.84375-.019531 34.113282-15.289063 34.132813-34.132813h298.664063c14.132812-.015624 25.585937-11.46875 25.601562-25.601562v-153.601562c-.015625-14.128907-11.46875-25.582032-25.601562-25.597657zm-409.597657-136.535156h-59.734375v-17.066406h349.867188c4.710937 0 8.53125 3.820312 8.53125 8.535156 0 4.710937-3.820313 8.53125-8.53125 8.53125zm221.867188-42.664063c0-4.714843 3.820312-8.53125 8.53125-8.535156h162.132812c4.714844.003906 8.53125 3.820313 8.535157 8.535156v68.265626c-.003907 4.710937-3.820313 8.53125-8.535157 8.53125h-162.132812c-4.710938 0-8.53125-3.820313-8.53125-8.53125v-8.535157h68.265625c14.136718 0 25.601562-11.460937 25.601562-25.597656 0-14.140625-11.464844-25.601563-25.601562-25.601563h-68.265625zm-273.066407-8.535156h42.664063v17.066406h-42.664063zm0 68.265625h42.664063v17.066407h-42.664063zm42.664063 34.132813c9.421875-.011719 17.054687-7.644532 17.066406-17.066406v-17.066407h5l68.269531 68.269531h-61.203124l-34.132813-34.136718zm34.132813 51.203125h68.269531v34.132812h-68.269531zm51.203124 256h-42.667968c-9.421875-.015625-17.054688-7.648438-17.066406-17.066407h76.800781c-.015625 9.417969-7.648438 17.050782-17.066407 17.066407zm341.332032-42.667969c-.003906 4.710938-3.820313 8.53125-8.535156 8.535156h-460.796876c-4.714843-.003906-8.53125-3.824218-8.535156-8.535156v-153.601562c.003906-4.710938 3.820313-8.527344 8.535156-8.53125h460.796876c4.714843.003906 8.53125 3.820312 8.535156 8.53125zm0 0"/><path d="m435.199219 85.332031c14.140625 0 25.601562-11.460937 25.601562-25.597656 0-14.140625-11.460937-25.601563-25.601562-25.601563-14.136719 0-25.597657 11.460938-25.597657 25.601563.015626 14.132813 11.464844 25.582031 25.597657 25.597656zm0-34.132812c4.714843 0 8.535156 3.820312 8.535156 8.535156 0 4.710937-3.820313 8.53125-8.535156 8.53125-4.710938 0-8.53125-3.820313-8.53125-8.53125s3.820312-8.53125 8.53125-8.535156zm0 0"/><path d="m59.734375 238.933594h-17.066406c-4.714844 0-8.535157 3.820312-8.535157 8.53125 0 4.714844 3.820313 8.535156 8.535157 8.535156h17.066406c4.710937 0 8.53125-3.820312 8.53125-8.535156 0-4.710938-3.820313-8.53125-8.53125-8.53125zm0 0"/><path d="m247.464844 238.933594h-153.597656c-4.714844 0-8.535157 3.820312-8.535157 8.53125 0 4.714844 3.820313 8.535156 8.535157 8.535156h153.597656c4.714844 0 8.535156-3.820312 8.535156-8.535156 0-4.710938-3.820312-8.53125-8.535156-8.53125zm0 0"/></svg>