<svg height="512pt" viewBox="0 0 512 512" width="512pt" xmlns="http://www.w3.org/2000/svg"><path d="m256 0c-141.386719 0-256 114.613281-256 256s114.613281 256 256 256 256-114.613281 256-256c-.160156-141.320312-114.679688-255.839844-256-256zm0 494.933594c-131.960938 0-238.933594-106.972656-238.933594-238.933594s106.972656-238.933594 238.933594-238.933594 238.933594 106.972656 238.933594 238.933594c-.148438 131.898438-107.035156 238.785156-238.933594 238.933594zm0 0"/><path d="m312.21875 104.121094c2.265625-2.9375 3.5-6.542969 3.515625-10.253906-.03125-28.265626-22.9375-51.167969-51.199219-51.199219h-17.070312c-28.261719.03125-51.167969 22.933593-51.199219 51.199219.015625 3.710937 1.25 7.316406 3.515625 10.253906-73.65625 27.230468-117.210938 103.332031-103.378906 180.632812 13.828125 77.300782 81.070312 133.578125 159.597656 133.578125s145.769531-56.277343 159.597656-133.578125c13.832032-77.300781-29.722656-153.402344-103.378906-180.632812zm-73.285156 7.90625c11.332031-1.460938 22.800781-1.460938 34.132812 0v50.105468c-.003906 4.710938-3.820312 8.53125-8.53125 8.535157h-17.070312c-4.710938-.003907-8.527344-3.824219-8.53125-8.535157zm8.53125-52.292969h17.070312c18.84375.023437 34.117188 15.289063 34.148438 34.132813h-85.351563c.019531-18.84375 15.289063-34.117188 34.132813-34.132813zm8.535156 341.332031c-73.457031.046875-135.34375-54.855468-144.050781-127.792968-8.707031-72.941407 38.511719-140.867188 109.917969-158.117188v46.976562c.015624 14.132813 11.46875 25.585938 25.597656 25.601563h17.070312c14.128906-.015625 25.582032-11.46875 25.597656-25.601563v-46.976562c71.40625 17.25 118.625 85.175781 109.917969 158.117188-8.707031 72.9375-70.59375 127.839843-144.050781 127.792968zm0 0"/><path d="m256 426.667969c-14.136719 0-25.601562 11.460937-25.601562 25.597656 0 14.140625 11.464843 25.601563 25.601562 25.601563s25.601562-11.460938 25.601562-25.601563c-.015624-14.132813-11.46875-25.582031-25.601562-25.597656zm0 34.132812c-4.710938 0-8.535156-3.820312-8.535156-8.535156 0-4.710937 3.824218-8.53125 8.535156-8.53125s8.535156 3.820313 8.535156 8.53125c-.003906 4.710937-3.824218 8.53125-8.535156 8.535156zm0 0"/><path d="m108.203125 170.667969c7.0625-12.246094 2.863281-27.898438-9.378906-34.964844-12.242188-7.0625-27.898438-2.871094-34.964844 9.371094-7.070313 12.238281-2.882813 27.894531 9.355469 34.96875h.019531c12.246094 7.050781 27.890625 2.855469 34.96875-9.375zm-14.785156-8.535157c-2.355469 4.082032-7.574219 5.480469-11.65625 3.125-4.078125-2.359374-5.476563-7.574218-3.121094-11.65625 2.355469-4.082031 7.574219-5.480468 11.652344-3.125 1.960937 1.128907 3.390625 2.996094 3.976562 5.179688.585938 2.1875.28125 4.515625-.851562 6.476562zm0 0"/><path d="m403.796875 170.667969c7.078125 12.230469 22.71875 16.421875 34.96875 9.375h.019531c12.242188-7.074219 16.4375-22.734375 9.363282-34.980469-7.070313-12.242188-22.726563-16.4375-34.972657-9.371094-12.246093 7.070313-16.445312 22.726563-9.378906 34.976563zm17.910156-20.191407c4.078125-2.359374 9.296875-.960937 11.65625 3.121094 2.355469 4.082032.957031 9.300782-3.125 11.65625-4.078125 2.359375-9.296875.960938-11.65625-3.121094-1.140625-1.957031-1.453125-4.289062-.867187-6.480468.589844-2.1875 2.023437-4.054688 3.992187-5.175782zm0 0"/></svg>