<svg height="512pt" viewBox="0 -81 512.00289 512" width="512pt" xmlns="http://www.w3.org/2000/svg"><path d="m256 349.867188c124.101562 0 256-29.90625 256-85.332032v-42.667968c.015625-1.035157-.027344-2.070313-.125-3.097657v-.027343l-.003906-.097657-.027344-.09375c-2.621094-25.921875-35.910156-48.347656-93.882812-63.511719-.125-4.511718-.273438-9.019531-.523438-13.53125l-.085938-1.371093c-.871093-39.152344-11.144531-77.515625-29.957031-111.859375-7.957031-16.085938-23.804687-26.789063-41.699219-28.15625-.210937-.011719-.390624-.121094-.605468-.121094h-89.089844c-141.160156 0-256 99.527344-256 221.867188v42.667968c0 55.425782 131.898438 85.332032 256 85.332032zm0-17.066407c-140.808594 0-238.933594-35.972656-238.933594-68.265625v-10.671875c.332032.289063.617188.585938.957032.871094 22.835937 19.417969 67.453124 35.109375 125.644531 44.175781 21.53125 3.367188 44.660156 5.746094 69.386719 7.136719.082031 0 .148437.046875.226562.046875h.050781l.109375-.019531c.308594.042969.6875.078125.992188.09375 13.484375.683593 27.464844 1.035156 41.566406 1.035156 108.414062 0 202.507812-21.316406 238.933594-53.4375v10.769531c0 32.292969-98.125 68.265625-238.933594 68.265625zm27.152344-315.734375h21.589844c-4.199219 3.390625-8.097657 6.929688-11.585938 10.320313-2.425781 2.347656-4.675781 4.679687-7.257812 7.371093-27.324219 30.175782-48.144532 65.65625-61.15625 104.226563-13.238282 38.292969-20.121094 78.492187-20.367188 119.007813-.042969 6.65625.082031 13.3125.214844 19.976562.066406 3.480469.070312 6.96875.109375 10.453125-17.746094-1.210937-34.851563-3-51.085938-5.335937 0-1.171876 0-2.351563.007813-3.519532.027344-2.289062.0625-4.582031.117187-6.890625l.109375-4.117187c1.613282-52.179688 13.4375-103.539063 34.808594-151.171875 13.472656-30.015625 43.621094-82.707031 94.496094-100.320313zm211.746094 203.425782c.039062.457031.050781.917968.035156 1.375-.375 5.945312-3.046875 11.511718-7.449219 15.527343-28.816406 31.058594-124.007813 52.742188-231.484375 52.742188-5.0625 0-10.097656-.09375-15.132812-.183594l170.867187-118.902344c49.703125 12.75 81.46875 31.496094 83.164063 49.441407zm-122.238282-183.597657c17.421875 32.011719 26.90625 67.742188 27.65625 104.183594l.074219 1.375c.28125 5.105469.511719 10.195313.597656 15.273437l-179.285156 124.769532c-.027344-1.621094-.019531-3.242188-.050781-4.859375-.125-6.507813-.25-13.023438-.207032-19.5.234376-38.648438 6.792969-77 19.40625-113.535157 12.257813-36.367187 31.871094-69.820312 57.617188-98.28125 2.183594-2.277343 4.292969-4.46875 6.574219-6.683593 9.941406-9.667969 23.210937-20.949219 37.632812-22.433594 15.742188-1.703125 26.191407 13.207031 29.984375 19.691406zm-127.097656-19.597656c-37.617188 25.824219-60.863281 67.234375-72.46875 93.105469-22.292969 49.660156-34.628906 103.214844-36.304688 157.625l-.117187 4.234375c-.058594 2.375-.089844 4.746093-.117187 7.132812v1.039063c-49.671876-8.644532-88.53125-22.589844-107.503907-38.722656-6.585937-4.65625-10.929687-11.847657-11.984375-19.84375 0-109.921876 101.574219-199.867188 228.496094-204.570313zm0 0"/><path d="m358.398438 230.402344c0 16.808594 23.609374 25.597656 46.933593 25.597656 23.328125 0 46.933594-8.789062 46.933594-25.597656 0-33.617188-93.867187-33.617188-93.867187 0zm46.933593 8.53125c-18.742187 0-29.105469-6.308594-29.890625-8.363282.785156-2.394531 11.148438-8.703124 29.890625-8.703124 18.300781 0 28.617188 6.019531 29.816407 8.535156-1.199219 2.515625-11.515626 8.53125-29.816407 8.53125zm0 0"/></svg>