<svg height="512pt" viewBox="0 0 512 512" width="512pt" xmlns="http://www.w3.org/2000/svg"><path d="m320 0h-34.132812c-68.773438 0-131.992188 48.933594-166.230469 128h-24.234375l-.015625.003906c-52.601563.039063-95.386719 57.4375-95.386719 127.996094s42.785156 127.957031 95.386719 128h24.25c34.238281 79.066406 97.457031 128 166.230469 128h34.132812c105.871094 0 192-114.839844 192-256s-86.128906-256-192-256zm-34.132812 145.066406c1.273437 0 2.546874.074219 3.695312.152344 41.855469 2.789062 74.640625 51.457031 74.640625 110.78125s-32.785156 107.992188-74.589844 110.78125c-1.199219.078125-2.476562.152344-3.746093.152344h-91.828126c28.664063-22.113282 48.050782-63.503906 48.050782-110.933594s-19.386719-88.820312-48.050782-110.933594zm-60.84375 110.933594c0 61.167969-35.179688 110.933594-78.421876 110.933594h-3.753906c28.652344-22.113282 48.03125-63.503906 48.03125-110.933594s-19.378906-88.820312-48.03125-110.933594h3.753906c43.246094 0 78.421876 49.765625 78.421876 110.933594zm-207.957032 0c0-61.167969 35.15625-110.933594 78.371094-110.933594s78.375 49.765625 78.375 110.933594-35.15625 110.933594-78.375 110.933594-78.371094-49.765625-78.371094-110.933594zm121.21875 128h151.847656c.527344-.054688 1.050782-.160156 1.558594-.316406 50.304688-4.0625 89.578125-59.855469 89.578125-127.683594 0-67.761719-39.199219-123.503906-89.484375-127.667969-.535156-.167969-1.089844-.277343-1.652344-.332031h-151.847656c32.050782-68.734375 87.683594-110.933594 147.582032-110.933594 96.457031 0 174.933593 107.183594 174.933593 238.933594s-78.476562 238.933594-174.933593 238.933594c-59.898438 0-115.53125-42.199219-147.582032-110.933594zm236.128906 99.039062c61.410157-42.753906 103.453126-128.449218 103.453126-227.039062s-42.042969-184.285156-103.453126-227.039062c69.890626 31.328124 120.519532 121.234374 120.519532 227.039062s-50.628906 195.710938-120.519532 227.039062zm0 0"/><path d="m313.710938 438.34375c0-19.394531-12.230469-34.585938-27.84375-34.585938-15.613282 0-27.847657 15.191407-27.847657 34.585938s12.230469 34.582031 27.847657 34.582031c15.617187 0 27.84375-15.191406 27.84375-34.582031zm-38.625 0c0-10.328125 5.679687-17.519531 10.78125-17.519531 5.101562 0 10.777343 7.191406 10.777343 17.519531 0 10.324219-5.675781 17.515625-10.777343 17.515625-5.101563 0-10.78125-7.191406-10.78125-17.515625zm0 0"/><path d="m397.199219 198.683594c1.894531.488281 3.839843.738281 5.796875.742187 5.40625-.050781 10.636718-1.921875 14.847656-5.308593 12.71875-11.558594 16.613281-29.957032 9.671875-45.675782-3.222656-8.429687-10.175781-14.882812-18.820313-17.464844-7.21875-1.847656-14.882812-.15625-20.652343 4.558594-12.722657 11.550782-16.621094 29.953125-9.675781 45.671875 3.222656 8.433594 10.183593 14.890625 18.832031 17.476563zm1.324219-49.683594c1.234374-1.046875 2.789062-1.640625 4.40625-1.691406.503906 0 1.007812.066406 1.5.191406 3.480468 1.328125 6.1875 4.132812 7.390624 7.65625 3.816407 8.621094 2.050782 18.6875-4.464843 25.492188h-.003907c-1.601562 1.433593-3.800781 1.992187-5.890624 1.5-3.484376-1.320313-6.195313-4.128907-7.394532-7.65625-3.820312-8.617188-2.058594-18.683594 4.457032-25.492188zm0 0"/><path d="m74.1875 171.074219c-1.632812.527343-40.054688 13.699219-40.054688 84.925781 0 4.710938 3.820313 8.535156 8.535157 8.535156 4.710937 0 8.53125-3.824218 8.53125-8.535156 0-57.582031 26.914062-68.199219 28.324219-68.714844 4.402343-1.53125 6.765624-6.304687 5.308593-10.730468-1.457031-4.425782-6.195312-6.867188-10.644531-5.480469zm0 0"/><path d="m110.933594 170.667969c0 4.710937-3.820313 8.53125-8.535156 8.53125-4.710938 0-8.53125-3.820313-8.53125-8.53125 0-4.714844 3.820312-8.535157 8.53125-8.535157 4.714843 0 8.535156 3.820313 8.535156 8.535157zm0 0"/></svg>