<svg height="512pt" viewBox="0 0 512 512.08336" width="512pt" xmlns="http://www.w3.org/2000/svg"><path d="m474.550781 343.21875c-14.734375-11.03125-32.386719-17.488281-50.765625-18.566406-15.910156-.832032-31.777344 2.351562-46.136718 9.257812l-122.320313-73.800781 8.800781-14.582031c17.515625-29.011719 22.78125-63.796875 14.640625-96.691406-8.917969-35.9375-32.984375-66.242188-65.964843-83.066407-14.363282-7.347656-30.035157-11.78125-46.117188-13.058593l-6.894531-27.886719c-3.5625-15.421875-17.855469-25.933594-33.640625-24.730469-1.109375.078125-2.210938.253906-3.289063.523438-1.132812.28125-2.238281.648437-3.3125 1.101562-14.175781 6.378906-21.691406 22.042969-17.796875 37.089844l5.71875 23.113281c-26.5625 10.761719-48.921875 29.835937-63.746094 54.363281l-29.128906 48.257813c-5.796875 10.929687-9.738281 22.742187-11.671875 34.960937-1.304687 7.480469-4.351562 25.015625 10.035157 33.699219 14.390624 8.65625 28.480468-2.183594 34.492187-6.828125 9.910156-7.402344 18.523437-16.394531 25.492187-26.617188l17.246094-28.574218c.976563-1.621094 2.027344-3.1875 3.136719-4.703125l.148437-.207031c8.011719-10.875 19.285157-18.914063 32.179688-22.941407 7.503906-2.28125 15.371094-3.105469 23.179688-2.421875 1.507812.15625 3.007812.191406 4.511718.464844.921875.148438 1.902344.382812 2.878906.613281.390626.109375.785157.222657 1.171876.320313l1.5.410156c.941406.230469 1.835937.53125 2.808593.851562.804688.25 1.566407.558594 2.6875.992188.757813.261719 1.496094.574219 2.210938.933594.265625.140625.539062.265625.824219.375.710937.28125 1.390624.632812 1.96875.925781 1.292968.679687 2.589843 1.375 4.3125 2.40625.316406.261719.648437.496094.996093.710937 1.167969.703126 2.296875 1.464844 3.386719 2.28125.085938.066407.195312.140626.300781.214844 1.410157 1.101563 2.816407 2.203125 4.089844 3.375l.007813-.007812c.152343.144531.308593.292968.464843.429687.941407.890625 1.871094 1.78125 2.707031 2.699219.082032.085938.625.683594.703126.765625.03125.042969.585937.667969.621093.703125.582031.648438 1.109375 1.265625 1.976563 2.40625.570312.667969 1.09375 1.394531 1.886718 2.449219.648438.863281 1.238282 1.765625 1.773438 2.703125.339844.480468.621094.933594.929688 1.464844.109374.191406.214843.375.332031.550781.644531 1.15625 1.253906 2.375 1.867187 3.582031l.023438.050781c.125.265625.265625.523438.417968.777344.101563.238281.238282.554687.277344.648437.523438 1.050782.996094 2.175782 1.429688 3.273438 1.320312 3.34375 2.316406 6.808594 2.976562 10.339844.152344.820312.324219 1.707031.488282 2.886718.480468 2.882813.679687 5.804688.589843 8.726563 0 .882813 0 1.765625-.03125 2.632813-.058593 1.894531-.234375 3.785156-.527343 5.65625-.21875 1.597656-.511719 3.179687-.925782 4.957031-.457031 1.921875-1.050781 3.925781-1.753906 5.992187l-.914062 2.59375-.058594.132813-.117188.269531c-.171875.394531-.347656.742188-.519531 1.125-.398437.933594-.804687 1.855469-1.402344 2.980469-.660156 1.382812-1.425781 2.785156-2.25 4.160156l-31.679687 52.488281c-4.679688 7.738282-6.089844 17.015625-3.917969 25.792969 2.167969 8.777344 7.742187 16.328125 15.484375 20.992187l151.507812 91.425782c.550782 14.46875 4.382813 28.625 11.207032 41.394531 18.265625 33.683594 55.207031 52.84375 93.261718 48.371094 38.058594-4.46875 69.550782-31.667969 79.515626-68.667969 9.960937-37-3.621094-76.339844-34.285157-99.3125zm13.691407 106.792969c-12.0625 26.453125-38.050782 43.808593-67.105469 44.8125-29.054688 1.003906-56.179688-14.511719-70.039063-40.070313-6.25-11.695312-9.425781-24.785156-9.238281-38.042968.042969-3.03125-1.527344-5.863282-4.125-7.429688l-155.570313-93.894531c-3.871093-2.324219-6.65625-6.09375-7.738281-10.476563-1.085937-4.382812-.378906-9.015625 1.960938-12.875l31.679687-52.492187c.992188-1.636719 1.875-3.269531 2.578125-4.703125.277344-.550782.574219-1.195313.855469-1.777344.609375-1.222656 1.230469-2.460938 1.738281-3.726562l.09375-.207032c.199219-.390625.367188-.792968.5-1.210937l1.015625-2.875.007813-.023438.066406-.191406c.84375-2.492187 1.59375-5.027344 2.160156-7.425781.523438-2.183594.914063-4.332032 1.207031-6.441406.371094-2.367188.59375-4.757813.667969-7.15625l.011719-.234376.011719-.148437v-.1875c.066406-.929687.078125-1.863281.035156-2.796875.109375-3.859375-.152344-7.71875-.785156-11.527344l-.015625-.09375v-.007812c-.136719-1.1875-.335938-2.367188-.597656-3.535156-.84375-4.527344-2.128907-8.960938-3.832032-13.242188-.523437-1.351562-1.109375-2.691406-1.597656-3.703125-.074219-.152344-.128906-.3125-.203125-.464844-.144531-.382812-.476563-.976562-.746094-1.511719-.117187-.234374-.144531-.367187-.296875-.621093l-.09375-.167969c-.039062-.070312-.042968-.109375-.082031-.179688-.71875-1.417968-1.453125-2.84375-2.378906-4.457031l-.039063-.066406c-.40625-.75-.863281-1.46875-1.371094-2.152344-.777343-1.367187-1.65625-2.675781-2.625-3.917969-.773437-1.054687-1.566406-2.113281-2.019531-2.613281-.820312-1.109375-1.683593-2.144531-3.066406-3.691406-.394531-.453125-.804687-.917969-.996094-1.101563-1.15625-1.257812-2.425781-2.484374-3.710937-3.707031-.167969-.171875-.359375-.328125-.542969-.476562-1.6875-1.558594-3.542969-3.023438-5.660156-4.640625-1.390625-1.050782-2.832031-2.035156-4.378907-2.992188-.621093-.457031-1.269531-.875-1.929687-1.265625-1.515625-.917969-3.078125-1.761719-4.804687-2.667969-1.09375-.558593-2.125-1.058593-3.171876-1.492187-1.199218-.609375-2.4375-1.132813-3.710937-1.566406-1.15625-.464844-2.320313-.910157-3.289063-1.207031l-.046874-.015626-.121094-.042968c-1.117188-.363282-2.199219-.699219-3.066406-.925782-1.222657-.363281-2.421876-.703124-3.601563-.980468l-.15625-.042969c-1.402344-.351563-2.710937-.636719-3.710937-.785156l-.035157-.007813-.089843-.015625-.066407-.007812c-1.167969-.238281-2.351562-.394531-3.539062-.457031-.976563-.121094-1.976563-.121094-2.960938-.203126-27.097656-2.46875-53.484375 9.550782-69.40625 31.613282-.527343.703125-1.023437 1.425781-1.535156 2.148437-.613281.917969-1.34375 1.730469-1.917969 2.683594-.082031.132813-.078125.28125-.152344.417969-.347656.550781-.746093 1.0625-1.082031 1.621094l-17.246093 28.574218c-5.878907 8.398438-13.074219 15.800782-21.304688 21.917969-10.863281 8.375-13.621094 6.726563-15.25 5.726563-1.640625-.992188-4.390625-2.644532-2.035156-16.152344 1.574218-10.132813 4.765625-19.949219 9.457031-29.070313l29.132813-48.261719c14.105468-23.417968 36.050781-41.085937 61.941406-49.863281.40625-.191406.796875-.417969 1.164062-.671875.515625-.234375 1.003906-.515625 1.464844-.847656.410156-.367188.78125-.78125 1.109375-1.226562.359375-.386719.683594-.808594.964844-1.261719.238281-.492188.425781-1.007813.5625-1.539063.191406-.5.335937-1.019531.425781-1.546875.035156-.570312.007812-1.140625-.074219-1.707031.019531-.445312 0-.890625-.054687-1.332031l-7.519532-30.394531c-1.847656-7.144532 1.773438-14.570313 8.542969-17.507813.039063-.011719.832031-.109375.875-.117187 7.347657-.324219 13.871094 4.664062 15.488281 11.839843l8.351563 33.792969c.046875.179688.171875.304688.226563.476562.195312.558594.445312 1.089844.753906 1.59375.820312 1.351563 1.953125 2.492188 3.300781 3.320313.511719.25 1.046875.445313 1.597656.585937.511719.171876 1.042969.296876 1.578125.371094.191406.019532.351563.121094.542969.128906 15.832031.476563 31.355469 4.492188 45.433594 11.757813 27.378906 13.941406 47.730469 38.644531 56.171875 68.1875s4.214844 61.265625-11.667969 87.570313l-8.792969 14.582031c-4.851562 8.066406-2.261718 18.535156 5.789063 23.410156l126.40625 76.285156c2.609375 1.585938 5.867187 1.644531 8.535156.160157 20.753906-11.464844 45.648437-12.664063 67.40625-3.242188 21.757813 9.417969 37.921875 28.390625 43.761719 51.371094 4.363281 16.917968 2.816406 34.816406-4.378906 50.734375zm0 0"/><path d="m444.871094 374.484375c-20.878906-12.613281-47.757813-8.71875-64.203125 9.296875-16.441407 18.019531-17.867188 45.140625-3.402344 64.78125s40.792969 26.328125 62.875 15.96875c22.085937-10.355469 33.777344-34.871094 27.925781-58.550781-3.210937-13.175781-11.5625-24.519531-23.195312-31.496094zm2.730468 61.351563c-8.390624 13.914062-25.441406 19.960937-40.722656 14.445312-15.285156-5.515625-24.542968-21.058594-22.113281-37.121094 2.429687-16.066406 15.871094-28.175781 32.101563-28.925781 16.230468-.75 30.730468 10.070313 34.628906 25.84375 2.167968 8.761719.765625 18.027344-3.894532 25.757813zm0 0"/><path d="m42.75 402.074219v32.917969l-2.347656.671874c-4.089844 1.171876-6.691406 5.175782-6.101563 9.390626.589844 4.210937 4.195313 7.347656 8.449219 7.347656v16.726562l-2.347656.667969c-4.089844 1.171875-6.691406 5.175781-6.101563 9.390625.589844 4.210938 4.195313 7.347656 8.449219 7.347656.140625 0 .28125-.050781.425781-.058594 2.203125 15.488282 16.007813 26.636719 31.613281 25.53125 15.609376-1.109374 27.699219-14.09375 27.695313-29.738281v-12.457031l2.34375-.667969c4.53125-1.300781 7.152344-6.019531 5.859375-10.550781-1.070312-3.625-4.425781-6.09375-8.203125-6.039062v-16.875l2.34375-.667969c4.53125-1.300781 7.152344-6.019531 5.859375-10.550781-1.070312-3.628907-4.425781-6.097657-8.203125-6.042969v-16.34375c27.300781-16.195313 43.640625-45.945313 42.664063-77.671875 0-47.050782-32.535157-85.332032-72.53125-85.332032-39.996094 0-72.5351568 38.28125-72.5351568 85.332032-.9765622 31.726562 15.3671878 61.476562 42.6679688 77.671875zm42.667969 80.195312c0 7.066407-5.730469 12.800781-12.800781 12.800781-7.070313 0-12.800782-5.734374-12.800782-12.800781v-.265625l25.601563-7.316406zm0-25.335937-25.601563 7.3125v-16.375l25.601563-7.316406zm0-34.132813-25.601563 7.3125v-21.789062c8.429688 1.882812 17.171875 1.882812 25.601563 0zm-12.800781-166.664062c30.582031 0 55.464843 30.625 55.464843 68.265625s-24.882812 68.265625-55.464843 68.265625c-30.585938 0-55.46875-30.625-55.46875-68.265625s24.882812-68.265625 55.46875-68.265625zm0 0"/><path d="m72.617188 375.601562c21.175781 0 38.398437-22.964843 38.398437-51.199218s-17.222656-51.199219-38.398437-51.199219c-21.175782 0-38.402344 22.964844-38.402344 51.199219s17.226562 51.199218 38.402344 51.199218zm0-85.332031c10.070312 0 21.332031 14.597657 21.332031 34.132813 0 19.53125-11.261719 34.132812-21.332031 34.132812-10.070313 0-21.335938-14.601562-21.335938-34.132812 0-19.535156 11.265625-34.132813 21.335938-34.132813zm0 0"/></svg>