<svg height="512pt" viewBox="0 -10 512.12482 512" width="512pt" xmlns="http://www.w3.org/2000/svg"><path d="m486.523438 415.890625h-28.464844l-221.945313-221.941406 135.945313-135.945313c13.324218-13.328125 13.324218-34.9375 0-48.265625-13.503906-12.902343-34.765625-12.902343-48.269532 0l-313.765624 313.769531c-9.003907 8.96875-12.265626 22.203126-8.460938 34.328126s14.039062 21.128906 26.550781 23.347656l34.703125 34.707031h-13.867187c-3.023438-5.261719-8.621094-8.511719-14.691407-8.53125h-17.066406c-9.421875.007813-17.054687 7.644531-17.066406 17.066406v51.199219c.011719 9.421875 7.644531 17.054688 17.066406 17.066406h17.066406c6.070313-.019531 11.667969-3.273437 14.691407-8.53125h437.574219c14.132812-.015625 25.585937-11.46875 25.601562-25.601562v-17.066406c-.015625-14.132813-11.46875-25.585938-25.601562-25.601563zm-38.039063 14.5625.015625.011719 7.464844 7.46875c6.628906 6.660156 6.609375 17.429687-.046875 24.0625-6.664063 6.652344-17.457031 6.652344-24.117188 0l-231.863281-231.867188 24.109375-24.109375zm-315.351563 31.628906-83.941406-83.941406c3.359375-1.609375 6.433594-3.761719 9.097656-6.367187l16.382813-16.382813 75.074219 75.074219 7.550781 7.554687c3.195313 3.207031 4.976563 7.550781 4.960937 12.078125-.019531 4.523438-1.839843 8.855469-5.058593 12.035156-3.199219 3.1875-7.53125 4.972657-12.042969 4.960938-4.515625-.007812-8.839844-1.808594-12.023438-5.007812zm54.738282-219.886719 101.160156 101.164063-72.613281 72.53125h-57.109375l-72.570313-72.566406zm173.6875 173.695313h-48.601563l24.3125-24.289063zm-118.976563 46.191406c-3.207031 3.203125-7.558593 4.996094-12.09375 4.984375-4.53125-.007812-8.875-1.820312-12.070312-5.035156-6.628907-6.65625-6.609375-17.425781.042969-24.0625l82.632812-82.546875 24.113281 24.117187zm-67.957031-29.125h26.472656c-6.273437 10.511719-6.273437 23.621094-.007812 34.132813h-26.472656c6.273437-10.511719 6.277343-23.617188.007812-34.132813zm121.25 0h82.75l34.136719 34.132813h-151.050781zm-278.785156-85.316406c-.011719-4.527344 1.789062-8.871094 5-12.066406l313.769531-313.765625c6.679687-6.582032 17.417969-6.542969 24.046875.085937 6.632812 6.628907 6.671875 17.367188.09375 24.046875l-313.777344 313.765625c-3.097656 3.011719-7.230468 4.726563-11.550781 4.789063-1.476563-.609375-3.101563-.78125-4.675781-.5-2.984375-.664063-5.722656-2.152344-7.910156-4.289063-3.210938-3.191406-5.011719-7.535156-5-12.066406zm96.921875 119.449219h-62.6875v-34.132813h28.554687zm-96.820313 8.535156v-51.199219h17.066406l.011719 51.136719-.011719.0625zm477.867188-17.066406c-.003906 4.710937-3.824219 8.527344-8.535156 8.53125h-13.285157c6.300781-10.496094 6.339844-23.601563.097657-34.132813h13.1875c4.710937.003907 8.53125 3.824219 8.535156 8.535157zm0 0"/><path d="m196.390625 193.941406c0 4.710938-3.820313 8.53125-8.53125 8.53125-4.714844 0-8.535156-3.820312-8.535156-8.53125 0-4.714844 3.820312-8.535156 8.535156-8.535156 4.710937 0 8.53125 3.820312 8.53125 8.535156zm0 0"/><path d="m349.992188 40.425781c0 4.710938-3.820313 8.53125-8.535157 8.53125-4.710937 0-8.53125-3.820312-8.53125-8.53125 0-4.714843 3.820313-8.535156 8.53125-8.535156 4.714844 0 8.535157 3.820313 8.535157 8.535156zm0 0"/><path d="m341.457031 339.007812c0 4.710938-3.820312 8.53125-8.53125 8.53125-4.714843 0-8.535156-3.820312-8.535156-8.53125 0-4.714843 3.820313-8.535156 8.535156-8.535156 4.710938 0 8.53125 3.820313 8.53125 8.535156zm0 0"/><path d="m452.390625 449.941406c0 4.710938-3.820313 8.53125-8.53125 8.53125-4.714844 0-8.535156-3.820312-8.535156-8.53125 0-4.714844 3.820312-8.535156 8.535156-8.535156 4.710937 0 8.53125 3.820312 8.53125 8.535156zm0 0"/><path d="m239.058594 449.941406c0 4.710938-3.820313 8.53125-8.535156 8.53125-4.710938 0-8.53125-3.820312-8.53125-8.53125 0-4.714844 3.820312-8.535156 8.53125-8.535156 4.714843 0 8.535156 3.820312 8.535156 8.535156zm0 0"/><path d="m153.726562 449.941406c0 4.710938-3.820312 8.53125-8.535156 8.53125-4.710937 0-8.535156-3.820312-8.535156-8.53125 0-4.714844 3.824219-8.535156 8.535156-8.535156 4.714844 0 8.535156 3.820312 8.535156 8.535156zm0 0"/><path d="m51.324219 339.007812c0 4.710938-3.820313 8.53125-8.53125 8.53125-4.714844 0-8.535157-3.820312-8.535157-8.53125 0-4.714843 3.820313-8.535156 8.535157-8.535156 4.710937 0 8.53125 3.820313 8.53125 8.535156zm0 0"/></svg>