<svg height="512pt" viewBox="0 0 512.00013 512" width="512pt" xmlns="http://www.w3.org/2000/svg"><path d="m50.945312 512h410.109376c28.195312-.101562 50.984374-23.007812 50.945312-51.199219v-45.484375c.019531-17.21875-4.085938-34.191406-11.964844-49.5l-.050781-.089844c-.109375-.234374-.25-.511718-.394531-.777343-9.597656-18.445313-24.375-33.691407-42.511719-43.871094 2.511719-24.8125 3.667969-49.746094 3.464844-74.6875-.15625-26.683594 1.15625-56.125 18.800781-67.847656l.011719-.007813c7.277343-4.78125 15.710937-7.503906 24.40625-7.878906 4.59375-.152344 8.238281-3.925781 8.238281-8.523438v-34.140624c0-2.292969-.921875-4.488282-2.558594-6.089844-1.675781-1.550782-3.863281-2.421875-6.144531-2.445313-18.613281.449219-36.722656 6.148438-52.238281 16.441407-41.980469 27.792968-41.800782 81.742187-41.714844 110.714843 0 18.558594-.328125 39.566407-2.210938 60.617188-.195312 0-.414062.023437-.652343.039062-.667969-.039062-1.332031-.070312-2-.070312h-71.679688v-65.582031c-.03125-.925782-.214843-1.839844-.546875-2.707032-2.363281-11.808594-14.433594-21.835937-33.585937-27.925781v-49.5625c12.933593-3.871094 23.375-13.464844 28.328125-26.027344 13-32.75 17.125-68.355469 11.960937-103.210937-3.65625-17.542969-18.371093-30.617188-36.222656-32.183594h-93.472656c-17.894531 1.578125-32.632813 14.71875-36.246094 32.316406-5.132813 34.867188-.980469 70.46875 12.039063 103.21875 4.960937 12.503906 15.382812 22.042969 28.277343 25.886719v49.5625c-19.152343 6.089844-31.222656 16.117187-33.585937 27.925781-.332032.867188-.515625 1.78125-.546875 2.707032v65.582031h-71.679688c-.710937 0-1.394531.09375-2.082031.113281-.320312-.019531-.617188-.078125-.9375-.09375-.503906.03125-1.003906.109375-1.492188.230469-.203124.023437-.40625.003906-.613281.035156-57.417969 2.90625-102.4609372 50.339844-102.394531 107.832031v45.484375c-.0390625 28.191407 22.75 51.097657 50.945312 51.199219zm432.539063-140.722656c.039063.328125.09375.65625.171875.980468 3.84375 7.753907 3.691406 16.886719-.40625 24.507813-7.238281 11.179687-25.785156 13.691406-45.910156 6.90625 8.441406-20.503906 14.28125-41.980469 17.386718-63.933594 11.980469 8.050781 21.84375 18.867188 28.757813 31.539063zm-22.972656-221.167969c10.34375-6.863281 22.117187-11.28125 34.421875-12.917969v17.277344c-8.9375 1.527344-17.460938 4.886719-25.042969 9.863281-24.71875 16.433594-26.59375 51.03125-26.410156 82.109375.417969 28.65625-1.203125 57.300782-4.859375 85.726563-2.894532 23.277343-9.007813 46.042969-18.171875 67.640625-8.902344 22.332031-26.628907 40-48.992188 48.832031-7.761719 2.726563-15.925781 4.125-24.148437 4.132813-37.113282 0-67.484375-27.582032-81.101563-54.890626-12.230469-25.738281-18.628906-53.859374-18.742187-82.359374-.019532-2.179688.839844-4.28125 2.386718-5.824219 2.445313-2.425781 6.105469-3.160157 9.300782-1.863281 3.195312 1.292968 5.3125 4.367187 5.382812 7.8125.078125 25.824218 5.863282 51.3125 16.941406 74.640624 14.996094 29.992188 50.65625 53.976563 84.433594 42.21875 17.8125-7.46875 31.867188-21.796874 38.988282-39.75.101562-.21875.1875-.445312.285156-.660156l.023437-.054687c8.429688-19.871094 13.988281-40.84375 16.511719-62.285157.617188-4.265624 1.011719-8.558593 1.480469-12.847656.007812-.167968.097656-.316406.097656-.492187l-.027344-.136719c2.28125-23.164062 3.332031-46.433594 3.144531-69.707031-.089843-25.765625-.238281-73.730469 34.097657-96.464844zm-264.246094 181.222656v-63.441406c18.355469 9.75 38.964844 14.480469 59.734375 13.710937 20.769531.769532 41.378906-3.960937 59.734375-13.710937v63.460937c0 4.722657-10.59375 12.5625-30.515625 16.773438-2.257812-10.734375-3.472656-21.664062-3.617188-32.632812-.191406-14.085938-11.683593-25.394532-25.773437-25.359376-6.808594-.019531-13.335937 2.707032-18.113281 7.558594-4.757813 4.773438-7.394532 11.261719-7.316406 18 .128906 11.273438 1.117187 22.519532 2.957031 33.640625-24.691407-3.769531-37.089844-13.027343-37.089844-17.984375zm190.75 3.234375c4.265625-5.835937 10.902344-9.476562 18.117187-9.933594-.121093.886719-.179687 1.785157-.308593 2.667969-2 15.511719-5.472657 30.796875-10.367188 45.652344-10.421875-13.96875-13.644531-28.714844-7.441406-38.386719zm-13.570313-10.300781c-.261718.378906-.5625.722656-.8125 1.109375-11.519531 17.949219-5.570312 43.507812 14.335938 65.140625-5.382812 11.636719-14.894531 20.855469-26.691406 25.875-24.863282 8.691406-51.835938-10.332031-63.523438-33.707031-2.820312-5.835938-5.214844-11.871094-7.164062-18.054688 26.855468-5.796875 43.210937-18.113281 43.210937-33.28125v-7.082031zm-143.046874-162.132813h51.203124v68.265626h-51.203124zm-29.449219-32.824218c-11.894531-29.804688-15.730469-62.214844-11.132813-93.976563 2.234375-9.441406 9.894532-16.632812 19.457032-18.265625h93.453124c9.519532 1.617188 17.160157 8.75 19.429688 18.132813 4.632812 31.75.820312 64.160156-11.050781 93.96875-2.867188 8.019531-9.636719 14.019531-17.941407 15.898437h-74.316406c-8.265625-1.851562-15.015625-7.792968-17.898437-15.757812zm12.382812 99.726562v1.363282c.011719 9.421874 7.648438 17.058593 17.066407 17.066406h51.203124c9.417969-.007813 17.054688-7.644532 17.066407-17.066406v-1.363282c11.191406 4.4375 17.066406 10.042969 17.066406 14.164063 0 8.703125-23.273437 21.335937-59.734375 21.335937s-59.734375-12.632812-59.734375-21.335937c0-4.125 5.875-9.726563 17.066406-14.164063zm-34.132812 102.304688v.011718c0 17.867188 22.992187 31.84375 57.839843 35.660157 3.25 13.277343 7.902344 26.171875 13.882813 38.464843 15.976563 32.039063 51.976563 64.367188 96.386719 64.367188 10.136718-.003906 20.203125-1.722656 29.773437-5.082031 22.472657-8.394531 41.140625-24.648438 52.546875-45.753907 9.183594 3.476563 18.902344 5.328126 28.71875 5.480469 13.636719.707031 26.894532-4.609375 36.265625-14.535156.109375 1.789063.320313 3.570313.320313 5.367187v45.480469c.046875 18.769531-15.105469 34.039063-33.875 34.132813h-410.113282c-18.773437-.09375-33.925781-15.363282-33.878906-34.132813v-45.484375c0-1.730468.210938-3.445312.308594-5.167968 9.386719 9.847656 22.601562 15.113281 36.1875 14.421874 18.113281-.539062 35.699219-6.226562 50.695312-16.402343 34.945313-22.589844 50.285157-58.949219 34.917969-82.769531-.257812-.398438-.570312-.742188-.835937-1.125h40.859375zm-75.609375-6.824219c.386718-.015625.777344-.058594 1.160156-.125.082031-.015625.160156 0 .242188-.011719 7.84375.171875 15.167968 3.960938 19.839843 10.261719 9.84375 15.265625-3.820312 42.375-29.851562 59.199219-26.019531 16.867187-56.425781 18.207031-66.40625 2.925781-4.085938-7.601563-4.21875-16.71875-.355469-24.433594.097656-.238281.0625-.488281.132812-.730469 15.039063-27.851562 43.621094-45.734374 75.242188-47.085937zm0 0"/><path d="m256 85.332031c14.136719 0 25.601562-11.460937 25.601562-25.597656 0-14.140625-11.464843-25.601563-25.601562-25.601563s-25.601562 11.460938-25.601562 25.601563c.015624 14.132813 11.46875 25.582031 25.601562 25.597656zm0-34.132812c4.714844 0 8.535156 3.820312 8.535156 8.535156 0 4.710937-3.820312 8.53125-8.535156 8.53125-4.710938 0-8.535156-3.820313-8.535156-8.53125.007812-4.710937 3.824218-8.53125 8.535156-8.535156zm0 0"/><path d="m68.265625 460.800781h-8.53125c-4.714844 0-8.535156 3.820313-8.535156 8.53125 0 4.714844 3.820312 8.535157 8.535156 8.535157h8.53125c4.714844 0 8.535156-3.820313 8.535156-8.535157 0-4.710937-3.820312-8.53125-8.535156-8.53125zm0 0"/><path d="m93.867188 469.332031c0 4.714844 3.820312 8.535157 8.53125 8.535157h110.933593c4.714844 0 8.535157-3.820313 8.535157-8.535157 0-4.710937-3.820313-8.53125-8.535157-8.53125h-110.933593c-4.710938 0-8.53125 3.820313-8.53125 8.53125zm0 0"/></svg>