<svg height="512pt" viewBox="0 0 512.01918 512" width="512pt" xmlns="http://www.w3.org/2000/svg"><path d="m50.667969 190.523438c68.542969 9.328124 132.15625 40.828124 181.125 89.691406 48.863281 48.964844 80.363281 112.578125 89.683593 181.125 4.054688 29.0625 28.914063 50.683594 58.257813 50.667968h29.867187c14.128907-.015624 25.582032-11.46875 25.597657-25.601562l-.046875-119.894531c43.644531-4.34375 76.886718-41.074219 76.867187-84.9375-.019531-43.859375-33.289062-80.5625-76.9375-84.875l-.039062-95.144531c-.410157-13.554688-11.6875-24.230469-25.242188-23.894532l-94.476562-.421875c-4.164063-43.703125-40.8125-77.117187-84.71875-77.2265622-43.902344-.1132808-80.722657 33.1093752-85.105469 76.7968752h-119.898438c-14.132812.011718-25.585937 11.464844-25.601562 25.597656v29.867188c-.015625 29.339843 21.605469 54.199218 50.667969 58.25zm444.265625 91.082031c-.054688 34.394531-25.667969 63.386719-59.789063 67.683593l-.019531-43.679687c2.753906 1.03125 5.667969 1.570313 8.609375 1.597656 14.136719 0 25.597656-11.460937 25.597656-25.601562 0-14.136719-11.460937-25.597657-25.597656-25.597657-2.949219.027344-5.867187.566407-8.628906 1.601563l-.015625-43.691406c34.144531 4.273437 59.789062 33.273437 59.84375 67.6875zm-59.734375 0c0-4.710938 3.820312-8.53125 8.535156-8.53125 4.710937 0 8.53125 3.820312 8.53125 8.53125 0 4.714843-3.820313 8.535156-8.53125 8.535156-4.710937-.003906-8.53125-3.824219-8.535156-8.535156zm-204.800781-264.53125c34.511718.050781 63.566406 25.828125 67.730468 60.089843l-43.75-.195312c1.046875-2.78125 1.59375-5.722656 1.621094-8.695312 0-14.136719-11.460938-25.601563-25.601562-25.601563-14.136719 0-25.597657 11.464844-25.597657 25.601563.027344 2.914062.558594 5.800781 1.570313 8.535156h-43.640625c4.324219-34.097656 33.300781-59.675782 67.667969-59.734375zm-8.53125 51.199219c0-4.714844 3.820312-8.535157 8.53125-8.535157 4.714843 0 8.535156 3.820313 8.535156 8.535157 0 4.710937-3.820313 8.535156-8.535156 8.535156-4.710938-.007813-8.527344-3.824219-8.53125-8.535156zm-204.800782 34.132812c.003906-4.710938 3.824219-8.527344 8.535156-8.53125h191.960938l192.195312.851562c4.148438-.339843 7.800782 2.703126 8.21875 6.84375l.15625 384.835938c-.003906 4.710938-3.820312 8.53125-8.53125 8.535156h-29.867187c-20.796875.039063-38.433594-15.261718-41.339844-35.851562-9.820312-72.261719-43.023437-139.324219-94.535156-190.941406-51.621094-51.507813-118.679687-84.714844-190.9375-94.542969-20.59375-2.898438-35.894531-20.539063-35.855469-41.332031zm0 0"/><path d="m75.683594 153.804688c71.511718 9.722656 137.878906 42.582031 188.964844 93.558593 50.976562 51.089844 83.835937 117.457031 93.550781 188.96875.5625 4.234375 4.175781 7.402344 8.449219 7.40625.382812 0 .761718-.023437 1.140624-.074219 4.671876-.621093 7.953126-4.914062 7.332032-9.582031-10.21875-75.226562-44.777344-145.042969-98.402344-198.785156-53.738281-53.625-123.550781-88.1875-198.777344-98.40625-4.664062-.613281-8.945312 2.667969-9.566406 7.332031-.621094 4.660156 2.644531 8.949219 7.308594 9.582032zm0 0"/><path d="m238.933594 136.539062h25.601562c4.710938 0 8.53125-3.820312 8.53125-8.53125 0-4.714843-3.820312-8.535156-8.53125-8.535156h-25.601562c-4.714844 0-8.535156 3.820313-8.535156 8.535156 0 4.710938 3.820312 8.53125 8.535156 8.53125zm0 0"/><path d="m298.667969 136.539062h93.867187c4.710938 0 8.53125-3.820312 8.53125-8.53125 0-4.714843-3.820312-8.535156-8.53125-8.535156h-93.867187c-4.714844 0-8.535157 3.820313-8.535157 8.535156 0 4.710938 3.820313 8.53125 8.535157 8.53125zm0 0"/></svg>