<svg height="511pt" viewBox="0 -42 511.54774 511" width="511pt" xmlns="http://www.w3.org/2000/svg"><path d="m511.496094 127.40625c-.089844-.792969-.292969-1.5625-.601563-2.296875-.050781-.121094-.132812-.214844-.1875-.332031-.363281-.769532-.84375-1.480469-1.421875-2.105469-.179687-.199219-.351562-.382813-.550781-.566406-.667969-.632813-1.4375-1.152344-2.277344-1.535157l-.148437-.085937-252.980469-106.050781c-10.277344-4.382813-22.210937-1.578125-29.457031 6.925781l-42.015625 49.359375c-1.8125 2.140625-4.484375 3.371094-7.292969 3.355469-2.425781.042969-4.769531-.890625-6.5-2.589844l-55.636719-62.636719c-4.820312-5.414062-11.710937-8.53125-18.960937-8.574218-7.480469.035156-14.59375 3.261718-19.550782 8.871093l-51.03125 64.640625-18.453124 20.558594c-5.675782 6.289062-5.925782 15.773438-.589844 22.351562l47.691406 55.226563c3.707031 4.757813 12.441406 15.648437 22.160156 25.699219l-37.976562 44.675781c-.140625.242187-.269532.496094-.386719.753906-.480469.667969-.859375 1.402344-1.125 2.183594-.171875.863281-.347656 1.722656-.523437 2.585937v42.667969c.050781.417969.136718.832031.25 1.234375.054687.632813.183593 1.253906.375 1.859375.238281.5.523437.976563.851562 1.421875.257812.46875.554688.914063.894531 1.324219.476563.449219 1.003907.839844 1.570313 1.164063.304687.265624.628906.503906.972656.71875l273.066406 128c.046875.023437.097656.011718.144532.035156 2.160156 1 4.644531 1.03125 6.828124.085937l.015626-.007812c.085937-.035157.136718-.117188.222656-.15625.957031-.4375 1.824218-1.054688 2.558594-1.8125.65625-.929688 1.253906-1.902344 1.792968-2.90625.035156-.097657.121094-.164063.15625-.265625 17.378906-48.464844 42.792969-93.65625 75.175782-133.683594 32.804687-37.433594 69.484374-71.292969 109.417968-101.003906.1875-.136719.28125-.339844.453125-.488282 1.691407-1.476562 2.757813-3.539062 2.988281-5.773437.015626-.238281.132813-.4375.132813-.679687v-51.199219c0-.113281-.058594-.210938-.0625-.320313-.007813-.210937.035156-.417968.011719-.628906zm-446.78125 33.6875-47.640625-55.28125 12.371093-13.792969 43.320313 47.710938 1.679687 2.171875c5.484376 7.417968 11.472657 14.441406 17.925782 21.027344 3.375 3.140624 3.722656 8.367187.792968 11.925781l-8.324218 9.726562c-9.066406-9.519531-17.242188-19.8125-20.125-23.488281zm41.433594 24.84375c8.652343-10.414062 7.859374-25.730469-1.824219-35.191406-5.894531-6.046875-11.367188-12.492188-16.375-19.285156l-47.355469-52.558594 46.335938-58.730469c1.628906-1.8125 3.957031-2.839844 6.390624-2.828125h.050782c2.410156-.003906 4.703125 1.03125 6.292968 2.84375l55.914063 62.933594c5.230469 5.363281 12.476563 8.269531 19.960937 8.007812 7.484376-.261718 14.507813-3.667968 19.347657-9.382812l41.941406-49.273438c2.433594-2.839844 6.425781-3.777344 9.867187-2.320312l239.292969 100.316406c-36.449219 28.253906-70.070312 59.980469-100.382812 94.738281-42.332031 49.375-67.199219 114.660157-75.449219 138.792969l-254.207031-119.164062zm-55.402344 75.308594 256 120v23.8125l-256-119.996094zm334.859375 15.160156c-23.820313 28.625-43.835938 60.207031-59.554688 93.964844 7.589844-22.164063 31.941407-86.730469 72.503907-134.058594 29.050781-33.203125 61.167968-63.589844 95.925781-90.761719v29.675781c-39.71875 29.839844-76.210938 63.75-108.875 101.179688zm0 0"/><path d="m308.640625 196.691406c4.269531-6.324218 6.578125-13.769531 6.640625-21.402344 0-25.875-26.800781-46.933593-59.734375-46.933593s-59.734375 21.058593-59.734375 46.933593c.0625 7.632813 2.371094 15.078126 6.644531 21.40625.117188.195313.21875.386719.351563.574219 12.484375 16.386719 32.152344 25.691407 52.738281 24.953125 20.585937.734375 40.25-8.566406 52.738281-24.953125.136719-.1875.238282-.378906.355469-.578125zm-53.09375-51.269531c23.125 0 42.667969 13.671875 42.667969 29.867187 0 .394532-.152344.765626-.171875 1.160157-25.269531-18.617188-59.714844-18.617188-84.984375 0-.023438-.394531-.171875-.769531-.171875-1.160157-.003907-16.195312 19.535156-29.867187 42.660156-29.867187zm-34.699219 46.910156c9.507813-8.539062 21.925782-13.113281 34.699219-12.777343 12.773437-.335938 25.191406 4.238281 34.699219 12.777343-19.972656 17.097657-49.421875 17.097657-69.398438 0zm0 0"/></svg>