<svg height="512pt" viewBox="0 -21 512.00408 512" width="512pt" xmlns="http://www.w3.org/2000/svg"><path d="m486.402344.00390625h-460.796875c-10.601563-.04296875-20.125 6.47656275-23.917969 16.37890575-3.792969 9.898438-1.066406 21.109376 6.851562 28.164063v399.1875c0 14.140625 11.460938 25.601563 25.597657 25.601563 14.140625 0 25.601562-11.460938 25.601562-25.601563v-18.554687c10.789063-3.429688 20.972657-8.527344 30.183594-15.109376 17.265625-11.875 33.367187-25.363281 48.082031-40.285156 6.199219-5.90625 12.410156-11.832031 18.859375-17.578125 23.492188-22.167969 49.597657-41.390625 77.738281-57.242187l18.109376-10.207032c33.34375-18.765624 71.144531-40.039062 100.5-58.121093 9.5-5.851563 19.144531-11.375 28.785156-16.910157 8.035156-4.601562 16.066406-9.207031 24.035156-14.007812 34.773438-20.917969 58.121094-41.542969 73.488281-64.902344 17.800781-27.082031 22.164063-61.835937 23.824219-86.167968 7.980469-7.019532 10.773438-18.257813 7-28.195313-3.769531-9.9375-13.308594-16.4921875-23.941406-16.44921875zm-460.796875 17.06640575h460.796875c4.714844 0 8.535156 3.820313 8.535156 8.53125 0 4.714844-3.820312 8.535157-8.535156 8.535157h-460.796875c-4.714844 0-8.535157-3.820313-8.535157-8.535157 0-4.710937 3.820313-8.53125 8.535157-8.53125zm371.429687 34.132813h54.273438c-7.15625 58.570313-32.292969 76.984375-47.304688 82.722656 5.234375-27.695312 2.824219-56.292969-6.96875-82.722656zm-79.488281 20.136719c3.953125 17.328125 20.808594 28.503906 38.308594 25.402344 1.382812-.226563 2.644531-.453126 3.816406-.667969 1.800781 14.9375-2.230469 29.996093-11.25 42.035156-8.425781 11.007813-22.761719 20.933594-37.675781 15.660156-9.320313-4.851562-17.101563-12.210937-22.46875-21.246093-7.007813-9.644532-13.519532-19.640626-19.507813-29.949219-8.378906-14.863281-18.128906-28.90625-29.125-41.953125-3.199219-3.488282-6.75-6.644532-10.589843-9.417969h90.226562c-2.78125 6.335937-3.390625 13.417969-1.734375 20.136719zm-207.566406 161.328125c6.660156 23.277343 27.910156 35.003906 48.296875 41.695312-15.800782 11.894531-32.160156 24.519531-48.265625 37.878907-6.132813 5.09375-12.125 10.660156-17.917969 16.042968-9.964844 9.78125-20.792969 18.636719-32.355469 26.460938v-131.773438c10.207031-27.589844 24.769531-53.363281 43.132813-76.34375 23.210937-28.394531 44.925781-43.585937 66.359375-46.433594 28.316406-3.671874 49.191406 18.480469 57.28125 42.183594 5.011719 13.816406 6.136719 28.746094 3.25 43.15625-5.773438 25.875-28.667969 35.617188-49.582031 36.5.332031-8.046875-2.070313-15.964844-6.808594-22.476562-7.003906-8.234375-17.519532-12.628906-28.300782-11.824219-11.511718.074219-22.332031 5.503906-29.269531 14.691406-6.609375 8.59375-8.769531 19.808594-5.820312 30.242188zm-50.242188-181.464844h58.566407c-23.832032 14.277344-43.910157 34.035156-58.566407 57.632813zm-17.066406 392.53125c0 4.714844-3.820313 8.535156-8.535156 8.535156-4.710938 0-8.53125-3.820312-8.53125-8.535156v-392.53125h17.066406zm422.582031-322.296875c-13.898437 21.148438-35.515625 40.105469-68.023437 59.664062-7.867188 4.726563-15.800781 9.277344-23.722657 13.824219-9.792968 5.617188-19.585937 11.234375-29.242187 17.175781-29.074219 17.90625-66.71875 39.089844-99.925781 57.785157l-18.132813 10.214843c-29.207031 16.433594-56.304687 36.367188-80.691406 59.359376-6.59375 5.875-12.949219 11.921874-19.285156 17.972656-13.941407 14.1875-29.203125 27.011718-45.574219 38.300781-6.566406 4.546875-13.574219 8.414063-20.917969 11.546875v-32.847656c.777344-.363282 1.515625-.667969 2.339844-1.097656 15.203125-9.039063 29.195313-19.976563 41.632813-32.550782 5.890624-5.460937 11.4375-10.617187 17.199218-15.40625 20.59375-17.09375 41.734375-33.058594 61.511719-47.761718l.074219-.082032c.832031-.640625 1.539062-1.429687 2.085937-2.324218.144531-.292969.273438-.59375.378907-.902344.285156-.511719.515624-1.054688.683593-1.617188.027344-.117187-.011719-.234375.011719-.351562.078125-.589844.09375-1.1875.046875-1.78125.023437-.511719 0-1.023438-.070313-1.527344-.136718-.484375-.316406-.957031-.539062-1.410156-.195312-.570313-.453125-1.117188-.769531-1.628906-.066407-.101563-.074219-.21875-.148438-.316407-.273437-.285156-.570312-.550781-.882812-.792969-.402344-.449218-.847657-.851562-1.335938-1.203124-.503906-.296876-1.039062-.539063-1.597656-.726563-.355469-.195313-.726563-.363281-1.109375-.503906-21.441406-4.957031-46.824219-13.355469-52.859375-34.457031-1.480469-5.28125-.359375-10.949219 3.027344-15.265626 3.695312-4.9375 9.484375-7.867187 15.652343-7.925781 5.480469-.617187 10.9375 1.308594 14.816407 5.226563 3.1875 5.542968 4.085937 12.113281 2.507812 18.308594-.605469 2.4375-.109375 5.023437 1.363281 7.058593 1.46875 2.039063 3.765626 3.324219 6.269532 3.515625 31.925781 2.460938 67.976562-11.992187 76.394531-49.675781 3.570313-17.472656 2.269531-35.59375-3.757813-52.382813-10.34375-30.265624-37.710937-58.597656-75.675781-53.574218-25.953125 3.449218-51.242187 20.640625-77.332031 52.550781-11.460938 14.179687-21.484375 29.464844-29.917969 45.628906v-34.679687c23.984375-62.355469 79.644531-95.574219 110.933594-95.574219 17.140625 0 40.816406 3.617187 56.273437 20.820313 10.28125 12.253906 19.394532 25.4375 27.226563 39.382812 6.433594 11.042969 13.4375 21.742188 20.980469 32.058594 7.160156 11.558594 17.574218 20.746094 29.933594 26.398437 4.5625 1.625 9.367187 2.460938 14.210937 2.46875 17.117187-1.03125 32.828125-9.816406 42.675781-23.859375 13.601563-18.554687 18.484375-42.097656 13.382813-64.53125v-.007812c-.457031-2.710938-2.183594-5.035156-4.648438-6.25-2.464843-1.214844-5.359375-1.171875-7.785156.117187-2.21875.605469-8.210937 1.824219-9.777344 2.089844-8.695312 1.632813-17.113281-3.933594-19.015625-12.574219-1.882812-6.902344 2.074219-14.046875 8.921875-16.113281h35.441407c12.132812 28.871094 14.226562 60.980469 5.945312 91.183594-.855469 2.597656-.414062 5.453125 1.191406 7.671875 1.601563 2.21875 4.171875 3.539062 6.910156 3.542968 2.6875 0 64.496094-1.238281 75.964844-102.398437h17.21875c-1.152344 24.703125-8.167968 48.777344-20.46875 70.234375zm0 0"/><path d="m324.269531 187.734375c-.289062 0-29.730469-.25-44.097656-21.800781-2.34375-3.476563-6.878906-4.722656-10.667969-2.921875-3.816406 1.816406-5.753906 6.128906-4.582031 10.191406.066406.222656 6.058594 22.683594-24.117187 60.398437-2.515626 3.128907-2.507813 7.589844.015624 10.710938 2.523438 3.121094 6.878907 4.0625 10.46875 2.261719 2.105469-1.058594 51.964844-26.035157 77.714844-43.203125 3.132813-2.082032 4.53125-5.972656 3.441406-9.574219-1.089843-3.601563-4.410156-6.0625-8.175781-6.0625zm-51.855469 28.640625c4.148438-7.953125 7.171876-16.445312 8.980469-25.230469 5.953125 4.128907 12.488281 7.34375 19.390625 9.542969-9.273437 5.375-19.324218 10.863281-28.371094 15.6875zm0 0"/></svg>