<svg height="512pt" viewBox="0 -60 512 512" width="512pt" xmlns="http://www.w3.org/2000/svg"><path d="m307.507812.0117188c-1.054687-.0507813-2.109374.078125-3.125.3710932l-298.410156 93.867188c-.15625.050781-.28125.15625-.433594.214844-.285156.117187-.566406.253906-.835937.402344-.625.316406-1.210937.710937-1.738281 1.171874-.238282.199219-.46875.40625-.683594.628907-.597656.644531-1.089844 1.375-1.460938 2.167969-.046874.101562-.125.179687-.171874.28125-.328126.789062-.539063 1.625-.617188 2.476562-.015625.160156.03125.308594.0234375.46875.0078125.117188-.0546875.214844-.0546875.332031v162.132813c.046875.375.125.746094.222656 1.109375.054688.589843.171875 1.171875.351563 1.738281.199219.507812.453125.992188.75 1.453125.253906.46875.550781.910156.890625 1.320313.417968.433593.882812.824218 1.382812 1.160156.269532.257812.554688.496094.855469.714844 58.609375 31.960937 171.332031 58.710937 280.820313 58.710937 7.332031 0 14.636718-.125 21.925781-.371094v36.5625c0 16.8125 23.609375 25.601563 46.933593 25.601563 23.324219 0 46.933594-8.789063 46.933594-25.601563v-48.054687c17.085938-3.730469 33.859375-8.773438 50.167969-15.089844 40.890625-16.230469 60.765625-34.3125 60.765625-55.296875v-39.851563c0-22.6875-24.050781-40.597656-45.984375-52.238281 11.429687-4.910156 21.945313-11.722656 31.101563-20.144531 8.671874-7.148438 14.046874-17.53125 14.882812-28.738281v-36.265625c0-54.785156-170.339844-68.949219-204.492188-71.2343752zm.457032 17.1406252c76.011718 5.265625 186.96875 25.917968 186.96875 54.09375-.605469 5.152344-3.015625 9.925781-6.808594 13.464844-.910156 1.066406-1.878906 2.078124-2.902344 3.035156-54.742187 53.265625-287.144531 59.714844-420.648437 25.667968-.203125-.050781-.410157-.101562-.617188-.132812-6.425781-1.59375-12.714843-3.367188-18.714843-5.277344-4.476563-1.414062-8.652344-2.839844-12.527344-4.265625zm76.035156 349.617187c-.867188 2.433594-11.230469 8.691407-29.867188 8.691407-18.714843 0-29.097656-6.316407-29.867187-8.535157v-37.445312c20.035156-1.207031 39.980469-3.589844 59.734375-7.140625zm110.933594-158.136719c-.355469 5.238282-2.660156 10.152344-6.457032 13.777344-12.539062 11.527344-27.375 20.269532-43.535156 25.648438-121.726562 48.210937-289.550781 26.207031-382.117187-6.863282l162.351562-54.132812c11.972657.414062 23.804688.640625 35.433594.640625 73.511719 0 138.859375-8.066406 183.691406-22.855469 23.992188 10.621094 50.632813 27.929688 50.632813 43.785156zm-315.976563-24.148437-127.757812 42.605469v-63.28125c41.855469 10.839844 84.625 17.761718 127.757812 20.675781zm306.261719-60.464844c-12.574219 10.859375-27.3125 18.917969-43.242188 23.640625-50.210937 17.308594-129.578124 25.398438-217.84375 22.324219-69.699218-2.441406-134.898437-11.816406-178.890624-25.714844-.425782-.085937-.859376-.132812-1.292969-.144531-.421875-.121094-.847657-.207031-1.28125-.261719-.136719 0-.246094.074219-.378907.078125-.625.054688-1.238281.175782-1.835937.367188-.472656.097656-.9375.234375-1.386719.414062-.492187.265625-.957031.578125-1.390625.9375-.441406.289063-.851562.617188-1.234375.984375-.320312.394531-.601562.8125-.847656 1.257813-.347656.496094-.640625 1.023437-.871094 1.582031-.046875.125-.148437.210937-.1875.34375-.054687.867187-.191406 1.726563-.402344 2.570313v90.210937c.003907 1.121094.226563 2.234375.660157 3.269531.257812.492188.566406.957032.917969 1.390625.257812.472657.558593.921875.902343 1.335938.785157.792969 1.722657 1.425781 2.753907 1.859375l.023437.015625c62.046875 25.773437 149.757813 42.375 236.242187 42.375 62.582032 0 124.539063-8.707031 175.589844-28.929688 15.777344-5.65625 30.539063-13.820312 43.710938-24.183593v8.742187c0 12.628906-17.757813 26.632813-49.992188 39.421875-118.832031 47.042969-328.75 22.863281-427.875-28.570312v-143.503907c6.785156 2.890625 14.335938 5.691407 23.007813 8.4375 6.492187 2.066407 13.3125 3.980469 20.257812 5.691407.171875.039062.335938.074218.511719.105468 65.234375 14.742188 131.960938 21.851563 198.835938 21.183594 99.628906 0 196.894531-14.722656 235.253906-49.394531v5.65625c-1.03125 6.535156-4.503906 12.4375-9.71875 16.507812zm0 0"/><path d="m307.199219 221.859375c0 16.8125 23.609375 25.601563 46.933593 25.601563 23.324219 0 46.933594-8.789063 46.933594-25.601563 0-33.617187-93.867187-33.617187-93.867187 0zm46.933593 8.535156c-18.742187 0-29.109374-6.308593-29.890624-8.363281.78125-2.394531 11.148437-8.703125 29.890624-8.703125 18.300782 0 28.617188 6.015625 29.816407 8.53125-1.199219 2.515625-11.515625 8.535156-29.816407 8.535156zm0 0"/></svg>