<svg height="506pt" viewBox="-1 0 506 506.82539" width="506pt" xmlns="http://www.w3.org/2000/svg"><path d="m6.761719 489.601562 36.382812 16.46875c1.101563.5 2.300781.757813 3.507813.753907 2.019531 0 3.972656-.710938 5.519531-2.007813l276.839844-164.664062c8.863281-3.996094 14.074219-13.308594 12.84375-22.953125-.035157-23.414063-.0625-46.828125-.085938-70.242188 2.757813 11.863281 4.699219 21.492188 6.109375 30.285157.425782 2.632812.664063 5.367187.921875 8.105468.222657 8.84375 2.417969 17.523438 6.425781 25.410156 6.164063 9.730469 16.585938 15.949219 28.074219 16.75 2.945313.242188 5.902344.230469 8.839844-.042968.269531.023437.535156.160156.804687.160156.96875-.019531 1.925782-.199219 2.832032-.539062 5.699218-.878907 11.285156-2.359376 16.667968-4.421876 38.894532-15.191406 69.179688-46.660156 82.875-86.105468 13.121094-39.039063 11.367188-81.550782-4.921874-119.375-16.371094-37.222656-43.59375-68.636719-78.109376-90.132813-26.140624-17.53125-56.878906-26.941406-88.351562-27.050781-25.742188.726562-52.425781 9.277344-83.96875 26.925781l-11.730469 6.523438c-22.925781 12.109375-45.035156 25.691406-66.199219 40.664062-.324218.203125-.683593.417969-.992187.613281-.210937.132813-.324219.339844-.519531.492188-8.148438 6.03125-15.886719 12.597656-23.164063 19.65625-29.191406 28.691406-42.742187 65.191406-55.851562 100.484375-1.816407 4.898437-3.640625 9.8125-5.515625 14.75-6.792969 19.878906-15.894532 38.894531-27.125 56.648437-12.210938 17.855469-25.988282 34.582032-41.175782 49.984376-4.664062 4.761718-7.277343 11.160156-7.28125 17.824218v146.890625c-.007812 3.851563 2.613282 7.210938 6.347657 8.144531zm317.476562-166.992187c-1.152343 1.164063-2.484375 2.132813-3.941406 2.875l-265.132813 157.691406-3.320312-109.082031c-.675781-8.078125-.113281-16.210938 1.667969-24.117188 4.71875-11.613281 12.054687-21.976562 21.433593-30.289062l1.199219-1.265625c16.789063-19.320313 29.925781-41.535156 38.769531-65.558594 5.191407-12.039062 9.589844-24.921875 13.847657-37.390625 7.066406-24.882812 17.890625-48.539062 32.101562-70.148437 13.195313-17.960938 34.328125-28.351563 56.609375-27.828125 10.085938.082031 20.097656 1.796875 29.636719 5.082031.53125 16.792969 7.777344 32.667969 20.121094 44.070313 10.464843 8.15625 23.484375 12.324218 36.738281 11.765624 3.675781-.035156 7.339844-.28125 10.984375-.726562 3.671875 5.554688 6.925781 11.375 9.726563 17.414062 0 40.710938.035156 81.421876.109374 122.132813.132813 1.8125-.054687 3.628906-.550781 5.375zm-58.679687-191.761719c1.71875.980469 3.425781 1.980469 5.078125 3.054688 11.710937 7.613281 22.339843 16.769531 31.601562 27.226562-8.679687.21875-17.179687-2.46875-24.152343-7.636718-6.578126-5.945313-10.988282-13.914063-12.527344-22.644532zm-29.054688-82.464844 11.800782-6.558593c22.96875-14.347657 49.105468-22.847657 76.117187-24.757813 28.089844.125 55.5 8.621094 78.734375 24.402344 31.585938 19.632812 56.515625 48.339844 71.527344 82.367188 14.648437 33.902343 16.265625 72.019531 4.535156 107.039062-11.984375 34.6875-38.5625 62.386719-72.726562 75.792969-.597657.222656-1.121094.359375-1.707032.5625 4.570313-26.027344 5.546875-84.097657-47.414062-163.539063-47.472656-71.222656-96.089844-88.9375-133.871094-88.070312 4.339844-2.429688 8.675781-4.84375 13.003906-7.238282zm-219.023437 356.042969v-69.859375c.011719-2.222656.894531-4.351562 2.457031-5.933594 15.894531-16.121093 30.3125-33.636718 43.082031-52.332031 11.988281-18.828125 21.699219-39.011719 28.929688-60.125 1.890625-4.96875 3.734375-9.933593 5.566406-14.875 13.03125-35.082031 25.332031-68.226562 51.816406-94.257812 6.851563-6.652344 14.144531-12.832031 21.828125-18.503907 28.277344-17.441406 99.53125-44.117187 172.023438 64.621094 55.214844 82.828125 47.570312 140.351563 43.417968 157.398438-.53125-.023438-1.101562.015625-1.621093-.03125-6.042969-.316406-11.597657-3.421875-15.03125-8.402344-2.652344-5.761719-4.066407-12.015625-4.148438-18.359375-.292969-3.125-.585937-6.226563-1.070312-9.222656-1.488281-9.324219-3.550781-19.5-6.464844-32.007813-3.710937-15.046875-8.332031-29.851562-13.84375-44.335937-4.480469-11.996094-10.503906-23.359375-17.917969-33.804688-.253906-.398437-.539062-.777343-.859375-1.128906-12.398437-17.269531-27.898437-32.082031-45.714843-43.683594-6.515626-4.183593-13.429688-7.710937-20.640626-10.53125-.550781-.296875-1.132812-.53125-1.734374-.703125-37.398438-14.136718-83.050782-10.011718-110.390626 26.796875-15.328124 22.996094-26.980468 48.238281-34.550781 74.816407-4.34375 12.714843-8.441406 24.722656-13.367187 36.15625-10.753906 24.941406-19.582032 43.882812-35.449219 60.542968l-1.195313 1.25c-11.351562 10.203125-20.089843 22.984375-25.476562 37.265625-2.328125 9.625-3.121094 19.554688-2.347656 29.425781l3.367187 110.464844-25.683593-11.617187c-1.050782-.472657-2.1875-.71875-3.339844-.71875-1.707032.007812-3.375.511719-4.800782 1.441406-1.347656.882813-2.421874 2.128906-3.09375 3.59375zm0 0"/><path d="m107.078125 336.160156c-17.023437 0-29.867187 20.175782-29.867187 46.933594s12.84375 46.929688 29.867187 46.929688c17.027344 0 29.867187-20.171876 29.867187-46.929688s-12.839843-46.933594-29.867187-46.933594zm0 76.796875c-5.097656 0-12.796875-11.90625-12.796875-29.863281 0-17.960938 7.699219-29.867188 12.796875-29.867188 5.101563 0 12.800781 11.90625 12.800781 29.867188 0 17.957031-7.699218 29.863281-12.800781 29.863281zm0 0"/><path d="m277.746094 233.757812c-17.023438 0-29.867188 20.175782-29.867188 46.933594 0 26.757813 12.84375 46.933594 29.867188 46.933594 17.023437 0 29.867187-20.175781 29.867187-46.933594 0-26.757812-12.84375-46.933594-29.867187-46.933594zm0 76.800782c-5.101563 0-12.800782-11.90625-12.800782-29.867188 0-17.957031 7.699219-29.867187 12.800782-29.867187 5.101562 0 12.800781 11.910156 12.800781 29.867187 0 17.960938-7.699219 29.867188-12.800781 29.867188zm0 0"/></svg>