<svg height="512pt" viewBox="0 -24 512.06013 512" width="512pt" xmlns="http://www.w3.org/2000/svg"><path d="m360.015625 218.300781c-22.644531-4.566406-45.542969 6.601563-55.890625 27.257813-10.34375 20.65625-5.570312 45.683594 11.648438 61.082031v55.742187c.015624 14.132813 11.46875 25.585938 25.601562 25.601563h17.066406c14.132813-.015625 25.585938-11.46875 25.601563-25.601563l.300781-55.976562c13.429688-12.175781 19.410156-30.546875 15.722656-48.292969v-.007812c-4.164062-20.097657-19.925781-35.765625-40.050781-39.804688zm12.828125 75.492188c-3.699219 3.253906-5.832031 7.933593-5.867188 12.859375v55.730468c-.003906 4.710938-3.824218 8.53125-8.535156 8.535157h-17.066406c-4.710938-.003907-8.53125-3.824219-8.53125-8.535157v-55.742187c-.042969-4.921875-2.175781-9.59375-5.867188-12.847656-7.34375-6.65625-11.429687-16.179688-11.191406-26.085938.238282-9.910156 4.769532-19.226562 12.421875-25.523437 6.070313-5.0625 13.730469-7.824219 21.636719-7.800782 2.328125 0 4.652344.226563 6.941406.667969 12.597656 2.585938 22.675782 12.03125 26.066406 24.4375 3.390626 12.40625-.476562 25.667969-10.007812 34.304688zm0 0"/><path d="m443.773438 345.316406c18.851562 0 34.136718-15.28125 34.136718-34.132812 0-18.851563-15.285156-34.132813-34.136718-34.132813-18.847657 0-34.132813 15.28125-34.132813 34.132813.019531 18.84375 15.289063 34.113281 34.132813 34.132812zm0-51.199218c9.425781 0 17.070312 7.640624 17.070312 17.066406 0 9.425781-7.644531 17.066406-17.070312 17.066406-9.425782 0-17.066407-7.640625-17.066407-17.066406.015625-9.421875 7.648438-17.054688 17.066407-17.066406zm0 0"/><path d="m402.773438 96.589844c-7.628907-28.367188-36.71875-45.261719-65.140626-37.832032l-43.859374 11.613282c-31.074219-45.683594-83.433594-72.207032-138.648438-70.238282s-105.550781 32.152344-133.292969 79.933594c-21.539062 36.816406-27.4375 80.730469-16.375 121.925782 18.863281 70.4375 82.632813 119.460937 155.550781 119.582031 10.199219-.003907 20.371094-.988281 30.378907-2.9375 7.285156 79.554687 71.914062 141.675781 151.695312 145.800781s150.476563-50.996094 165.925781-129.375c15.449219-78.378906-29.035156-156.207031-104.414062-182.664062v-42.054688c.027344-4.648438-.582031-9.273438-1.820312-13.753906zm-380.816407 101.015625c-9.761719-36.839844-4.488281-76.050781 14.660157-109.003907 19.144531-32.953124 50.601562-56.949218 87.441406-66.710937 61-16.441406 125.5625 9.082031 158.824218 62.792969.078126.125.207032.1875.292969.308594.363281.480468.78125.921874 1.242188 1.3125.347656.363281.726562.695312 1.132812.992187 1.320313.925781 2.921875 1.367187 4.527344 1.25.609375.03125 1.214844-.003906 1.816406-.105469.140625-.03125.273438.011719.414063-.023437l49.691406-13.160157c19.355469-5.019531 39.140625 6.507813 44.316406 25.824219.824219 3.019531 1.230469 6.132813 1.207032 9.261719.074218 16.457031-11.023438 30.867188-26.957032 34.996094l-49.699218 13.167968c-.050782.015626-.085938.050782-.132813.066407-1 .265625-1.933594.726562-2.753906 1.355469-.058594.046874-.132813.074218-.191407.121093-.648437.546875-1.207031 1.1875-1.660156 1.898438-.195312.242187-.375.496093-.539062.753906-.25.535156-.445313 1.097656-.582032 1.671875-.183593.53125-.3125 1.074219-.382812 1.632812-.015625.144532-.09375.269532-.101562.417969-1.640626 40.640625-20.359376 78.703125-51.554688 104.808594-9.195312 7.664063-19.332031 14.121094-30.167969 19.214844-8.273437 3.972656-16.910156 7.132812-25.792969 9.441406-76.527343 19.679687-154.625-25.953125-175.050781-102.285156zm234.085938 96.511719c9.425781 0 17.066406 7.640624 17.066406 17.066406 0 9.425781-7.640625 17.066406-17.066406 17.066406s-17.066407-7.640625-17.066407-17.066406c.011719-9.421875 7.644532-17.054688 17.066407-17.066406zm238.933593 9.90625c.054688 77.347656-61.160156 140.835937-138.457031 143.601562s-142.890625-56.195312-148.359375-133.34375c4.863282-1.503906 9.507813-3.167969 13.941406-5-.035156.640625-.191406 1.25-.191406 1.902344-.019531 17.152344 12.695313 31.652344 29.703125 33.878906 17.003907 2.226562 33.023438-8.515625 37.421875-25.09375 4.398438-16.578125-4.191406-33.847656-20.066406-40.339844 30.160156-27.515625 48.746094-65.453125 52.011719-106.144531l43.992187-11.652344c8.449219-2.347656 16.195313-6.738281 22.550782-12.78125v9.386719c0 .148438.078124.269531.085937.414062.054687.597657.171875 1.1875.355469 1.757813.101562.5.25.992187.445312 1.46875.253906.464844.554688.910156.890625 1.324219.300781.457031.648438.886718 1.035157 1.277344.886718.65625 1.835937 1.230468 2.832031 1.707031.140625.054687.238281.164062.382812.210937 60.449219 18.382813 101.675781 74.246094 101.425781 137.425782zm0 0"/><path d="m288.183594 160.757812c-.003906-69-55.9375-124.933593-124.9375-124.933593-69 .003906-124.9375 55.9375-124.9375 124.9375s55.933594 124.9375 124.933594 124.9375c68.96875-.078125 124.863281-55.96875 124.941406-124.941407zm-124.941406 107.875c-59.578126 0-107.875-48.296874-107.875-107.875 0-59.578124 48.296874-107.875 107.875-107.875 59.578124 0 107.875 48.296876 107.875 107.875-.066407 59.550782-48.324219 107.808594-107.875 107.875zm0 0"/><path d="m162.175781 80.785156c0 4.710938-3.820312 8.53125-8.535156 8.53125-4.710937 0-8.53125-3.820312-8.53125-8.53125 0-4.714844 3.820313-8.535156 8.53125-8.535156 4.714844 0 8.535156 3.820312 8.535156 8.535156zm0 0"/><path d="m124.089844 84.214844c-27.1875 11.640625-46.164063 36.832031-49.847656 66.175781-.375 2.234375.15625 4.523437 1.46875 6.363281 1.3125 1.84375 3.308593 3.089844 5.539062 3.460938.46875.082031.941406.121094 1.417969.117187 4.164062-.003906 7.71875-3.015625 8.40625-7.125 2.808593-23.550781 17.917969-43.839843 39.679687-53.273437 4.339844-1.839844 6.367188-6.851563 4.527344-11.191406-1.84375-4.339844-6.851562-6.367188-11.191406-4.527344zm0 0"/><path d="m332.84375 140.515625c14.136719 0 25.597656-11.460937 25.597656-25.597656 0-14.140625-11.460937-25.601563-25.597656-25.601563-14.140625 0-25.601562 11.460938-25.601562 25.601563.015624 14.128906 11.46875 25.582031 25.601562 25.597656zm0-34.132813c4.710938 0 8.53125 3.820313 8.53125 8.535157 0 4.710937-3.820312 8.53125-8.53125 8.53125-4.714844 0-8.535156-3.820313-8.535156-8.53125.003906-4.714844 3.820312-8.53125 8.535156-8.535157zm0 0"/></svg>