<svg height="504pt" viewBox="0 0 504 504.19922" width="504pt" xmlns="http://www.w3.org/2000/svg"><path d="m109.988281 394.164062c-9.765625-9.320312-21.871093-15.820312-35.035156-18.808593-10.609375-3.152344-22.09375-.578125-30.351563 6.792969-6.738281 8.785156-8.441406 20.433593-4.5 30.777343 3.964844 12.902344 11.355469 24.488281 21.382813 33.527344 9.765625 9.320313 21.871094 15.820313 35.035156 18.808594 3.167969.652343 6.394531.988281 9.628907 1 7.691406.417969 15.210937-2.410157 20.71875-7.792969 6.742187-8.785156 8.445312-20.433594 4.5-30.78125-3.964844-12.898438-11.351563-24.484375-21.378907-33.523438zm4.574219 52.886719c-4.390625 2.78125-9.804688 3.425781-14.726562 1.753907-10.136719-2.371094-19.445313-7.4375-26.9375-14.664063-7.769532-6.929687-13.515626-15.832031-16.636719-25.761719-2.035157-4.78125-1.796875-10.226562.648437-14.8125 2.398438-1.851562 5.410156-2.71875 8.425782-2.425781 2.117187.015625 4.222656.242187 6.296874.671875 10.136719 2.367188 19.449219 7.433594 26.941407 14.664062 7.769531 6.925782 13.519531 15.828126 16.640625 25.761719 2.035156 4.78125 1.796875 10.226563-.652344 14.8125zm0 0"/><path d="m484.628906 95.527344c-3.78125-3.519532-8.597656-5.726563-13.730468-6.296875-9.175782-.785157-17.992188-3.925781-25.601563-9.113281l26.433594-28.492188c9.105469-9.851562 8.527343-25.210938-1.292969-34.34375l-11.652344-10.8125c-9.847656-9.105469-25.207031-8.527344-34.34375 1.292969l-92.671875 99.902343c-9.464843-3.949218-20.390625-1.53125-27.304687 6.042969-6.9375 7.40625-8.417969 18.394531-3.6875 27.371094l-192.621094 207.644531c-33.925781-17.855468-71.488281-16.484375-92.703125 6.394532-27.003906 29.105468-17.449219 82.03125 21.304687 117.988281 19.59375 19.027343 45.554688 30.09375 72.851563 31.058593 17.40625.59375 34.257813-6.179687 46.40625-18.65625 13.78125-15.820312 18.964844-37.371093 13.894531-57.730468-2.605468-12.53125-7.496094-24.480469-14.429687-35.242188l192.554687-207.574218c2.957032 1.273437 6.144532 1.9375 9.363282 1.949218.308593 0 .617187 0 .925781-.015625 6.535156-.257812 12.6875-3.152343 17.050781-8.023437 6.933594-7.40625 8.410156-18.386719 3.6875-27.363282l10.929688-11.78125c5.742187 7.199219 9.53125 15.757813 10.996093 24.847657.957031 5.078125 3.523438 9.71875 7.320313 13.226562l11.003906 10.199219c4.742188 4.417969 10.984375 6.882812 17.46875 6.890625 13.023438.101563 23.683594-10.339844 23.851562-23.363281 5.847657-.550782 11.292969-3.226563 15.304688-7.519532 4.042969-4.335937 6.3125-10.035156 6.351562-15.960937 5.113282-.398437 9.957032-2.460937 13.785157-5.875 5.015625-4.589844 7.894531-11.066406 7.933593-17.867187.039063-6.800782-2.757812-13.3125-7.722656-17.960938zm-47.875-76.355469c1.355469-1.457031 3.238282-2.3125 5.226563-2.375 1.992187-.109375 3.945312.609375 5.394531 1.984375l11.652344 10.800781c3.039062 2.832031 3.21875 7.582031.402344 10.632813l-32.4375 34.964844-.011719.007812-43.273438 46.640625v.007813l-15.921875 17.160156-22.675781-21.035156zm-293.042968 454.917969c-20.703126 22.3125-63.554688 16.363281-95.535157-13.292969-31.964843-29.65625-41.125-71.941406-20.421875-94.269531 8.980469-9.125 21.394532-14.027344 34.1875-13.511719 23.050782 1.082031 44.894532 10.625 61.355469 26.804687 15.148437 13.5 25.6875 31.40625 30.144531 51.199219 3.949219 15.085938.316406 31.148438-9.730468 43.070313zm-9-106.578125c-3.808594-3.496094-7.832032-6.757813-12.039063-9.765625l189.386719-204.15625 22.679687 21.042968-189.367187 204.128907c-3.324219-3.960938-6.886719-7.714844-10.660156-11.25zm228.050781-199.710938c-1.308594 1.417969-3.132813 2.257813-5.0625 2.328125-1.925781.039063-3.792969-.65625-5.222657-1.945312l-35.324218-32.769532c-1.417969-1.304687-2.257813-3.128906-2.324219-5.054687-.050781-2.089844.765625-4.105469 2.253906-5.566406 2.742188-2.9375 7.335938-3.109375 10.289063-.386719l.148437.140625.019531.023437.023438.015626 35.132812 32.585937c1.417969 1.308594 2.253907 3.132813 2.316407 5.058594.050781 2.085937-.765625 4.101562-2.253907 5.566406zm122.023437-38.035156c-3.257812 2.515625-7.871094 2.214844-10.773437-.699219l-16.84375-15.621094c-.621094-.523437-1.320313-.949218-2.070313-1.265624-2.113281-1.078126-4.585937-1.199219-6.792968-.324219-2.207032.871093-3.933594 2.648437-4.738282 4.878906-1.148437 3.171875-.289062 6.726563 2.183594 9.019531l6.777344 6.285156 10.0625 9.332032.035156.027344.613281.570312c1.492188 1.382812 2.34375 3.320312 2.359375 5.351562.09375 1.949219-.617187 3.855469-1.960937 5.269532-1.351563 1.460937-3.234375 2.316406-5.222657 2.378906-2.003906.175781-3.976562-.550781-5.386718-1.984375l-17.492188-16.222656c-3.398437-3.152344-8.710937-2.949219-11.863281.449219-3.152344 3.402343-2.953125 8.710937.449219 11.863281l17.492187 16.214843c1.488281 1.382813 2.34375 3.316407 2.355469 5.351563.101562 2.191406-.800781 4.3125-2.449219 5.761719-3.261719 2.507812-7.875 2.207031-10.78125-.703125l-11.003906-10.207031c-1.164063-1.078126-1.953125-2.503907-2.246094-4.066407-2.027343-12.648437-7.535156-24.484375-15.902343-34.1875l5.355468-5.773437 26.769532-28.855469c10.304687 7.613281 22.519531 12.214844 35.285156 13.292969 1.574218.175781 3.054687.851562 4.21875 1.929687l11.664062 10.8125c1.488282 1.378907 2.34375 3.3125 2.359375 5.34375.101563 2.199219-.800781 4.324219-2.453125 5.773438zm0 0"/></svg>