<svg height="496pt" viewBox="-1 0 496 496.67036" width="496pt" xmlns="http://www.w3.org/2000/svg"><path d="m239.414062 301.757812c-1.191406-2.183593-2.429687-4.3125-3.777343-6.453124-3.945313-6.214844-8.507813-12.015626-13.617188-17.3125-3.375-3.503907-6.988281-6.769532-10.8125-9.773438-7.925781-6.402344-16.75-11.601562-26.191406-15.429688-49.074219-20.214843-105.574219-2.171874-133.847656 42.746094-28.273438 44.914063-20.113281 103.660156 19.332031 139.167969s98.722656 37.46875 140.429688 4.644531c41.703124-32.824218 53.730468-90.902344 28.484374-137.585937zm-31.84375 119.203126c-33.46875 32.226562-85.589843 34.804687-122.082031 6.042968-36.488281-28.765625-46.152343-80.046875-22.636719-120.117187 23.515626-40.074219 73-56.644531 115.90625-38.8125 7.988282 3.238281 15.453126 7.636719 22.15625 13.054687 3.253907 2.5625 6.328126 5.339844 9.203126 8.316406 4.335937 4.488282 8.203124 9.40625 11.546874 14.675782 1.15625 1.839844 2.230469 3.664062 3.238282 5.515625 19.847656 36.796875 12.761718 82.304687-17.332032 111.324219zm0 0"/><path d="m495.257812 57.96875c.011719-.429688-.011718-.859375-.070312-1.285156l-9.003906-49.894532c-.539063-2.996093-2.6875-5.449218-5.582032-6.386718-2.898437-.9375-6.074218-.207032-8.269531 1.90625l-21.800781 20.972656-19.316406-7.84375c-9.066406-3.691406-19.453125-1.695312-26.507813 5.089844l-168.78125 162.359375-17.675781-18.371094c-5.660156-5.886719-13.828125-8.65625-21.902344-7.417969-8.074218 1.234375-15.039062 6.324219-18.675781 13.636719l-16.34375 32.695313c-1.414063 3.007812-4.496094 4.871093-7.816406 4.726562-40.160157-1.949219-79.324219 12.878906-108.125 40.933594-57.824219 54.890625-60.3125 146.226562-5.566407 204.183594 26.855469 27.871093 63.9375 43.550781 102.640626 43.394531 37.910156-.003907 74.335937-14.722657 101.605468-41.054688 33.199219-31.492187 49.535156-76.835937 44.050782-122.265625-.453126-3.699218 1.554687-7.261718 4.953124-8.789062l22.664063-10.242188c7.460937-3.339844 12.832031-10.101562 14.390625-18.125 1.558594-8.027344-.890625-16.304687-6.558594-22.195312l-.113281-.121094 37.550781-36.007812c1.621094-1.558594 2.539063-3.714844 2.539063-5.964844.015625-13.675782 11.097656-24.757813 24.773437-24.773438 2.082032 0 4.089844-.789062 5.617188-2.203125l32.921875-30.554687c1.644531-1.523438 2.597656-3.652344 2.644531-5.894532l.855469-44.3125 62.433593-60.058593c.691407-.691407 1.253907-1.507813 1.660157-2.398438.089843-.191406.1875-.371093.261719-.566406.339843-.851563.535156-1.753906.574218-2.671875.003906-.171875-.027344-.332031-.027344-.5zm-22.589843-33.066406 5.480469 30.359375-2.347657 2.261719-59.363281 57.101562v.007812l-157.503906 151.515626c-3.484375-4.507813-7.195313-8.835938-11.125-12.964844-1.976563-2.054688-4.015625-4.0625-6.148438-6.046875l216.457032-208.234375zm-59.617188 139.742187-28.125 26.105469c-20.007812 1.675781-35.921875 17.480469-37.738281 37.476562l-41.136719 39.449219-.011719.007813c-.621093.640625-1.132812 1.382812-1.511718 2.191406-.09375.175781-.269532.3125-.347656.492188-.246094.683593-.398438 1.394531-.457032 2.117187-.308594.820313-.289062 1.726563.054688 2.535156.042968.527344.132812 1.054688.277344 1.566407.191406.355468.40625.699218.648437 1.023437.289063.628906.660156 1.210937 1.101563 1.742187l.007812.003907v.003906l5.851562 6.082031c1.941407 2.015625 2.78125 4.851563 2.246094 7.601563s-2.378906 5.0625-4.9375 6.203125l-22.707031 10.257812c-9.980469 4.480469-15.882813 14.945313-14.550781 25.808594 8.84375 60.09375-25.726563 118.140625-82.777344 138.984375-57.054688 20.847656-120.90625-1.238281-152.886719-52.878906s-23.300781-118.640625 20.785157-160.429688c25.546874-24.898437 60.289062-38.058593 95.917968-36.335937 9.839844.425781 19-5.003906 23.347656-13.839844l16.363282-32.734375c1.242187-2.5 3.628906-4.238281 6.390625-4.660156 2.761719-.417969 5.554687.53125 7.488281 2.550781l23.402344 24.320312c1.519531 1.582032 3.601562 2.492188 5.792968 2.535157 2.191407.042969 4.308594-.789063 5.886719-2.308594l174.730469-168.089844c2.347656-2.269531 5.816406-2.933593 8.835938-1.691406l12.511718 5.082031-213.742187 205.621094c-.113281.105469-.148438.253906-.253907.367188-.105468.113281-.242187.152343-.339843.269531-.214844.328125-.40625.675781-.566407 1.035156-1.335937 2.316406-1.554687 5.105469-.597656 7.597656.25.496094.546875.964844.890625 1.398438.1875.351562.402344.691406.640625 1.011719.105469.105468.246094.140624.355469.242187s.164063.246094.28125.351563c10.28125 8.589843 19.355469 18.527343 26.984375 29.542968.113281.164063.300781.21875.421875.371094.128906.226562.269531.445312.421875.660156.457031.398438.960938.746094 1.5 1.027344.308594.242188.632812.464844.96875.660156 1.085938.535156 2.273438.820313 3.480469.839844h.011719c.9375-.015625 1.867187-.191406 2.742187-.519531.273437-.113281.539063-.242188.796875-.386719.398438-.152344.777344-.339844 1.144531-.550781.191407-.132813.285157-.335938.460938-.480469s.402343-.203125.570312-.367188l149.84375-144.152343zm0 0"/><path d="m84.734375 356.824219c-9.714844 9.34375-12.84375 23.625-7.925781 36.175781 4.917968 12.550781 16.910156 20.90625 30.390625 21.164062 13.476562.261719 25.785156-7.625 31.183593-19.976562 5.398438-12.355469 2.820313-26.742188-6.523437-36.457031-12.773437-13.242188-33.851563-13.648438-47.125-.90625zm34.765625 36.136719c-6.691406 6.425781-17.324219 6.214843-23.753906-.472657-6.429688-6.683593-6.222656-17.316406.460937-23.75 6.683594-6.433593 17.316407-6.234375 23.75.445313 6.433594 6.699218 6.226563 17.335937-.460937 23.777344zm0 0"/></svg>