<svg height="512pt" viewBox="0 0 512.00636 512" width="512pt" xmlns="http://www.w3.org/2000/svg"><path d="m185.671875 241.378906c-2.984375-2.992187-7.710937-3.34375-11.105469-.824218l-127.285156 94.082031c-1.707031 1.253906-2.882812 3.105469-3.296875 5.183593l-7.898437 39.515626c-.5625 2.796874.3125 5.691406 2.332031 7.707031l86.550781 86.550781c1.597656 1.601562 3.769531 2.5 6.03125 2.5.5625-.003906 1.125-.058594 1.675781-.171875l39.511719-7.90625c2.074219-.417969 3.925781-1.589844 5.1875-3.292969l94.085938-127.277344c2.511718-3.398437 2.15625-8.121093-.832032-11.109374zm-20.066406 210.550782-31.800781 6.363281-80.089844-80.09375 6.355468-31.808594 118.730469-87.742187 74.566407 74.558593zm0 0"/><path d="m108.328125 355.695312c-13.25 13.25-13.246094 34.734376.003906 47.984376s34.734375 13.25 47.984375 0 13.25-34.734376 0-47.984376c-13.421875-12.828124-34.5625-12.828124-47.988281 0zm35.925781 35.914063c-6.59375 6.527344-17.222656 6.496094-23.785156-.0625s-6.589844-17.1875-.066406-23.785156c6.59375-6.527344 17.222656-6.496094 23.785156.0625 6.5625 6.5625 6.589844 17.1875.066406 23.785156zm0 0"/><path d="m489.035156 5.976562-.085937-.085937-3.390625-3.386719c-2.691406-2.695312-6.847656-3.277344-10.179688-1.425781-.957031.089844-1.90625.261719-2.835937.515625l-47.046875 12.832031c-5.84375 1.597657-10.398438 6.183594-11.949219 12.039063-1.554687 5.859375.128906 12.097656 4.414063 16.382812l1.65625 1.558594-32.652344 32.695312-21.039063-4.207031c-5.574219-1.117187-11.339843.628907-15.359375 4.648438l-41.484375 41.484375c-4.023437 4.015625-5.765625 9.777344-4.644531 15.351562l4.21875 20.984375-5.492188 5.542969-21.039062-4.207031c-5.578125-1.132813-11.355469.613281-15.367188 4.652343l-14.660156 14.75c-6.640625-6.632812-17.402344-6.632812-24.042968 0l-29.882813 29.882813-3.132813-3.132813c-6.476562-6.414062-16.65625-7.175781-24.011718-1.789062l-151.304688 111.839844c-3.695312 2.714844-6.234375 6.714844-7.125 11.207031l-12.234375 61.152344c-1.21875 6.050781.675781 12.308593 5.046875 16.667969l104.664063 104.65625c3.453125 3.46875 8.144531 5.417968 13.035156 5.417968 1.21875 0 2.4375-.121094 3.632813-.359375l61.15625-12.234375c4.492187-.894531 8.492187-3.433594 11.214843-7.117187l111.832031-151.308594c5.476563-7.332031 4.714844-17.578125-1.789062-24.015625l-3.136719-3.136719 29.890625-29.878906c3.179688-3.175781 4.964844-7.484375 4.964844-11.976563 0-4.492187-1.785156-8.800781-4.964844-11.972656l14.753906-14.75c4.027344-4.019531 5.773438-9.785156 4.648438-15.363281l-4.226562-20.980469 5.503906-5.546875 21.0625 4.214844c5.566406 1.125 11.328125-.621094 15.335937-4.648437l41.484375-41.484376c4.027344-4.015624 5.773438-9.785156 4.644532-15.359374l-4.226563-20.984376 32.632813-32.691406 1.636718 1.632813c4.285156 4.289062 10.527344 5.972656 16.386719 4.417969 5.859375-1.558594 10.449219-6.117188 12.039063-11.96875l12.828124-47.03125c.253907-.929688.425782-1.875.519532-2.832032 1.847656-3.335937 1.265625-7.488281-1.429688-10.183594zm-191.8125 324.863282-111.828125 151.304687c-.207031.277344-.507812.46875-.847656.535157l-61.148437 12.230468c-.453126.082032-.917969-.0625-1.246094-.382812l-104.679688-104.675782c-.324218-.324218-.46875-.789062-.375-1.242187l12.230469-61.148437c.066406-.332032.25-.625.519531-.824219l.015625-.015625 151.304688-111.84375c.238281-.171875.527343-.265625.820312-.265625.367188-.003907.722657.144531.980469.40625l114.117188 114.117187c.492187.480469.550781 1.253906.136718 1.804688zm183.996094-248.875-1.640625-1.636719c-6.730469-6.417969-17.3125-6.417969-24.042969 0l-32.707031 32.699219c-4.03125 4.019531-5.777344 9.789062-4.652344 15.367187l4.226563 20.984375-41.417969 41.464844-21.066406-4.21875c-5.570313-1.136719-11.335938.613281-15.335938 4.652344l-5.570312 5.566406c-4.023438 4.015625-5.769531 9.785156-4.648438 15.359375l4.230469 20.984375-14.753906 14.75c-3.183594 3.171875-4.972656 7.480469-4.972656 11.972656 0 4.496094 1.789062 8.804688 4.972656 11.976563l-29.886719 29.878906-83.722656-83.722656 29.796875-29.875c6.726562 6.417969 17.3125 6.417969 24.039062 0l14.699219-14.730469 21.0625 4.207031c5.566406 1.121094 11.328125-.625 15.339844-4.648437l5.554687-5.558594c4.027344-4.015625 5.773438-9.785156 4.652344-15.363281l-4.226562-20.980469 41.417968-41.46875 21.042969 4.210938c5.574219 1.117187 11.339844-.628907 15.359375-4.652344l32.707031-32.707032c3.191407-3.1875 4.984375-7.511718 4.984375-12.019531 0-4.511719-1.789062-8.835937-4.976562-12.023437l-1.683594-1.546875 46.96875-12.84375 2.464844 2.46875-17.910156 17.90625c-2.21875 2.144531-3.109376 5.316406-2.328126 8.300781s3.109376 5.3125 6.09375 6.09375c2.984376.78125 6.15625-.109375 8.300782-2.328125l17.914062-17.910156 2.433594 2.4375zm0 0"/><path d="m389.683594 110.253906-41.902344 41.910156c-2.21875 2.140626-3.109375 5.3125-2.328125 8.296876.78125 2.984374 3.109375 5.3125 6.09375 6.09375s6.15625-.109376 8.300781-2.328126l41.90625-41.90625c3.332032-3.335937 3.332032-8.738281 0-12.070312-3.335937-3.332031-8.738281-3.328125-12.070312.003906zm0 0"/><path d="m311.863281 188.078125-41.902343 41.898437c-2.210938 2.144532-3.09375 5.3125-2.3125 8.292969.78125 2.976563 3.105468 5.304688 6.085937 6.085938 2.976563.78125 6.148437-.101563 8.292969-2.3125l41.902344-41.898438c3.261718-3.34375 3.226562-8.6875-.074219-11.992187-3.304688-3.300782-8.648438-3.335938-11.992188-.074219zm0 0"/></svg>