<svg height="495pt" viewBox="0 0 495.72943 495" width="495pt" xmlns="http://www.w3.org/2000/svg"><path d="m487.472656.363281h-51.574218c-2.191407 0-4.289063.871094-5.839844 2.421875l-19.707032 19.707032-2.105468-1.402344c-3.648438-2.472656-8.597656-1.621094-11.207032 1.933594-2.609374 3.550781-1.941406 8.53125 1.507813 11.269531l-13.984375 13.988281-2.101562-1.40625c-3.648438-2.46875-8.597657-1.617188-11.207032 1.933594-2.605468 3.550781-1.941406 8.527344 1.507813 11.269531l-13.988281 13.988281-2.105469-1.402344c-3.648438-2.46875-8.589844-1.613281-11.199219 1.9375-2.605469 3.550782-1.941406 8.523438 1.503906 11.265626l-13.988281 13.988281-2.101563-1.40625c-3.648437-2.472657-8.597656-1.617188-11.207031 1.933593-2.605469 3.550782-1.941406 8.53125 1.507813 11.269532l-7.773438 7.777344-15.886718-15.886719c-5.277344-5.207031-12.78125-7.480469-20.058594-6.082031-8.308594 1.496093-15.367188 6.945312-18.917969 14.605468l-22.261719 47.425782c-4.335937 8.792968-2.664062 19.363281 4.171875 26.390624l7.15625 7.15625c-28.429687 36.28125-35.496093 84.914063-18.570312 127.785157 10.117187 24.308593 4.613281 52.320312-13.949219 70.992187-28.683594 28.976563-74.636719 31.550782-106.375 5.957032-17.113281-14.050782-27.410156-34.746094-28.300781-56.871094-.972657-21.96875 7.324219-43.339844 22.863281-58.902344 7.921875-7.964844 17.480469-14.109375 28.015625-18.007812 9.996094-3.691407 18.113281-11.199219 22.5625-20.878907 4.453125-9.679687 4.875-20.730469 1.171875-30.71875-7.699219-20.777343-30.75-31.414062-51.554688-23.796875-21.433593 7.910156-40.886718 20.398438-57 36.597656-29.792968 29.792969-46.5117182 70.210938-46.476562 112.34375.0351562 42.132813 16.824219 82.523438 46.664062 112.265626 3.371094 3.398437 6.914063 6.625 10.609376 9.664062 63.984374 52.894531 157.875 47.71875 215.65625-11.886719h.003906c40.375-40.992187 52.617187-102.011719 31.179687-155.402343-5.351562-13.34375-4.855469-28.316407 1.367188-41.273438l4.730469 4.722656c4.21875 4.210938 9.949218 6.558594 15.910156 6.515625 3.636718-.011719 7.230468-.820312 10.523437-2.359375l47.359375-22.230468c7.671875-3.542969 13.132813-10.605469 14.628906-18.917969 1.414063-7.28125-.863281-14.789063-6.085937-20.058594l-15.886719-15.886719 20.324219-20.324218 2.101563 1.402343c3.648437 2.480469 8.605468 1.628907 11.214843-1.925781s1.941407-8.539062-1.515625-11.277344l13.988282-13.988281 2.101562 1.40625c3.648438 2.46875 8.59375 1.617187 11.203125-1.933594s1.945313-8.527343-1.503906-11.269531l13.980469-13.988281 2.101562 1.402343c3.648438 2.476563 8.597656 1.621094 11.207031-1.929687s1.941407-8.53125-1.507812-11.273437l13.988281-13.988282 2.105469 1.402344c3.644531 2.476562 8.597656 1.621094 11.207031-1.929688 2.609375-3.554687 1.941406-8.535156-1.511719-11.273437l7.167969-7.167969c1.546875-1.546875 2.417969-3.648437 2.417969-5.839844v-51.574218c0-4.558594-3.699219-8.257813-8.257813-8.257813zm-48.152344 16.515625h39.894532v39.898438l-6.976563 6.972656-47.875-31.914062zm-178.273437 419.234375c-51.785156 53.398438-135.917969 58.027344-193.25 10.628907-3.292969-2.707032-6.445313-5.582032-9.449219-8.609376-26.746094-26.648437-41.792968-62.835937-41.828125-100.589843-.035156-37.753907 14.945313-73.972657 41.636719-100.667969 14.429688-14.503906 31.84375-25.691406 51.035156-32.777344 8.988282-3.289062 19.074219-.84375 25.558594 6.195313 6.488281 7.042969 8.097656 17.292969 4.082031 25.984375-2.601562 5.679687-7.371093 10.078125-13.238281 12.226562-12.78125 4.710938-24.382812 12.160156-33.992188 21.820313-18.816406 18.84375-28.859374 44.71875-27.683593 71.324219 1.074219 26.765624 13.523437 51.804687 34.222656 68.8125 38.425781 31.003906 94.082031 27.910156 128.832031-7.167969 23.148438-23.210938 30.054688-58.074219 17.5-88.359375-14.574218-36.804688-8.933594-78.539063 14.886719-110.15625l33.90625 33.910156c-10.710937 17.988281-12.40625 39.949219-4.589844 59.371094 19.070313 47.417968 8.21875 101.628906-27.628906 138.054687zm121.320313-220.351562c-.5625 3.011719-2.5625 5.5625-5.355469 6.828125l-47.339844 22.226562c-2.519531 1.367188-5.621094 1.023438-7.78125-.863281l-12.035156-12.03125-.019531-.023437-57.695313-57.695313c-1.886719-2.140625-2.238281-5.230469-.886719-7.742187l22.25-47.402344c1.273438-2.78125 3.820313-4.769532 6.828125-5.328125 1.96875-.4375 4.03125.121093 5.511719 1.492187l73.292969 73.296875v.007813l.007812.003906 21.71875 21.71875c1.375 1.480469 1.9375 3.539062 1.503907 5.511719zm-17.382813-44.753907-39.898437-39.898437 10.003906-10.003906 47.878906 31.917969zm29.894531-29.894531-47.878906-31.917969 13.882812-13.878906 47.875 31.917969zm25.789063-25.789062-47.878907-31.914063 13.875-13.875 47.875 31.917969zm25.78125-25.78125-47.875-31.917969 13.878906-13.878906 47.878906 31.914062zm0 0"/></svg>