<svg height="512pt" viewBox="0 -47 512.04097 512" width="512pt" xmlns="http://www.w3.org/2000/svg"><path d="m489.5625 84.257812c-15.140625-2.207031-29.761719-7.128906-43.152344-14.53125-10.683594-6.109374-21.042968-12.769531-31.03125-19.960937-17.035156-12.710937-35.46875-23.429687-54.941406-31.949219-33.449219-12.421875-68.933594-18.441406-104.605469-17.7421872-35.550781-.6679688-70.910156 5.3476562-104.238281 17.7421872-19.535156 8.554688-38.027344 19.320313-55.117188 32.085938-9.925781 7.136718-20.21875 13.753906-30.835937 19.824218-13.398437 7.398438-28.019531 12.320313-43.164063 14.53125-10.089843 1.261719-18.480468 8.363282-21.398437 18.101563-2.914063 9.742187.195313 20.285156 7.929687 26.882813 5.410157 4.664062 12.558594 6.796874 19.644532 5.859374 4.980468-.683593 9.921875-1.625 14.828125-2.734374l15.347656 261.742187c.804687 13.527344 12.003906 24.085937 25.554687 24.097656h343.28125c13.546876-.007812 24.746094-10.570312 25.546876-24.097656l15.351562-261.746094c4.90625 1.109375 9.847656 2.054688 14.832031 2.738281 1.101563.148438 2.207031.222657 3.316407.222657 5.996093-.015625 11.785156-2.171875 16.328124-6.082031 7.730469-6.601563 10.839844-17.144532 7.921876-26.882813-2.917969-9.742187-11.308594-16.839844-21.398438-18.101563zm-53.382812 308.863282c-.273438 4.503906-4.003907 8.019531-8.515626 8.019531h-343.28125c-4.519531-.003906-8.25-3.523437-8.519531-8.03125l-15.5625-265.402344c10.335938-3.453125 20.339844-7.824219 29.898438-13.054687 12.308593-6.988282 24.234375-14.621094 35.734375-22.871094 13.878906-10.433594 28.867187-19.296875 44.695312-26.433594 27.257813-10.03125 56.167969-14.804687 85.203125-14.074218 29.160157-.753907 58.195313 4.023437 85.574219 14.078124 15.878906 7.15625 30.914062 16.046876 44.835938 26.515626 11.457031 8.222656 23.34375 15.828124 35.613281 22.785156 9.550781 5.234375 19.554687 9.601562 29.890625 13.054687zm55.742187-276.820313c-1.707031 1.492188-3.972656 2.179688-6.21875 1.890625-19.53125-2.710937-38.398437-8.980468-55.667969-18.5-11.773437-6.699218-23.183594-14.019531-34.1875-21.925781-14.917968-11.199219-31.050781-20.679687-48.09375-28.265625-29.394531-10.875-60.589844-16.0625-91.921875-15.292969-31.207031-.746093-62.273437 4.441407-91.546875 15.292969-17.074218 7.601562-33.238281 17.105469-48.1875 28.332031-10.96875 7.875-22.34375 15.167969-34.082031 21.84375-17.269531 9.519531-36.136719 15.792969-55.671875 18.507813-2.246094.292968-4.511719-.394532-6.214844-1.890625-2.652344-2.234375-3.699218-5.84375-2.660156-9.152344 1.042969-3.308594 3.96875-5.667969 7.421875-5.980469 17.167969-2.503906 33.742187-8.078125 48.933594-16.453125 11.210937-6.390625 22.078125-13.371093 32.558593-20.90625 15.996094-11.953125 33.289063-22.0625 51.558594-30.132812 31.308594-11.582031 64.515625-17.191407 97.890625-16.527344 33.5-.691406 66.828125 4.914063 98.257813 16.527344 18.324218 8.09375 35.671875 18.238281 51.714844 30.230469 10.433593 7.503906 21.257812 14.445312 32.425781 20.800781 15.183593 8.386719 31.757812 13.964843 48.925781 16.460937 3.453125.3125 6.378906 2.671875 7.417969 5.976563 1.042969 3.308593-.003907 6.917969-2.652344 9.15625zm0 0"/><path d="m418.152344 145.140625c-.011719-9.417969-7.644532-17.054687-17.066406-17.066406h-290.132813c-9.421875.011719-17.054687 7.644531-17.066406 17.066406v33.292969l-5.71875 28.585937c-1.265625 6.09375.234375 12.429688 4.097656 17.308594.503906.570313 1.046875 1.105469 1.621094 1.601563v141.078124c.011719 9.421876 7.644531 17.054688 17.066406 17.066407h290.132813c9.421874-.011719 17.054687-7.644531 17.066406-17.066407v-141.078124c.574218-.496094 1.117187-1.03125 1.621094-1.597657 3.867187-4.878906 5.367187-11.222656 4.097656-17.316406l-5.71875-28.585937zm-312.699219 68.269531c-.609375-.890625-.808594-1.996094-.550781-3.042968l4.515625-22.558594h293.210937l4.507813 22.550781c.238281 1.039063.0625 2.132813-.484375 3.050781zm5.5-68.269531h290.132813v25.601563h-290.132813zm0 221.867187v-136.53125h290.132813l.019531 136.53125zm0 0"/><path d="m256.019531 239.007812c-18.851562 0-34.132812 15.28125-34.132812 34.132813s15.28125 34.132813 34.132812 34.132813c18.851563 0 34.132813-15.28125 34.132813-34.132813-.019532-18.84375-15.289063-34.113281-34.132813-34.132813zm8.535157 48.828126v-14.695313c0-4.710937-3.820313-8.53125-8.535157-8.53125-4.710937 0-8.53125 3.820313-8.53125 8.53125v14.695313c-6.691406-3.863282-9.953125-11.738282-7.953125-19.199219 2-7.460938 8.761719-12.648438 16.484375-12.648438 7.726563 0 14.488281 5.1875 16.484375 12.648438 2 7.460937-1.261718 15.335937-7.949218 19.199219zm0 0"/><path d="m162.152344 111.007812c2.265625.003907 4.4375-.898437 6.035156-2.5 14.585938-13.847656 33.636719-22.035156 53.71875-23.097656 4.714844-.007812 8.53125-3.832031 8.523438-8.546875-.003907-4.710937-3.828126-8.527343-8.542969-8.523437-24.625.988281-48.03125 10.988281-65.765625 28.101562-2.441406 2.441406-3.171875 6.109375-1.847656 9.300782 1.320312 3.1875 4.429687 5.265624 7.878906 5.265624zm0 0"/><path d="m264.554688 76.875c0 4.714844-3.820313 8.535156-8.535157 8.535156-4.710937 0-8.53125-3.820312-8.53125-8.535156 0-4.710938 3.820313-8.535156 8.53125-8.535156 4.714844 0 8.535157 3.824218 8.535157 8.535156zm0 0"/></svg>