<svg height="505pt" viewBox="0 0 505.48631 505" width="505pt" xmlns="http://www.w3.org/2000/svg"><path d="m346.003906 186.773438c-9.304687.023437-18.59375.863281-27.75 2.507812 12.515625-69.027344-21.273437-138.183594-83.421875-170.726562-62.148437-32.546876-138.238281-20.929688-187.84375 28.675781-49.609375 49.605469-61.222656 125.695312-28.679687 187.84375 32.546875 62.148437 101.703125 95.941406 170.730468 83.421875-11.648437 66.011718 19.234376 132.257812 77.285157 165.777344 58.046875 33.519531 130.863281 27.148437 182.210937-15.941407 51.34375-43.089843 70.253906-113.695312 47.320313-176.679687-22.9375-62.984375-82.820313-104.898438-149.851563-104.878906zm-95.464844 106.953124c16.914063-11.457031 31.488282-26.03125 42.941407-42.941406 47.785156-26.390625 107.703125-13.578125 140.519531 30.039063 32.8125 43.617187 28.515625 104.738281-10.078125 143.335937-38.597656 38.597656-99.71875 42.898438-143.339844 10.082032-43.617187-32.816407-56.429687-92.730469-30.042969-140.515626zm-231.878906-132.132812c0-78.808594 63.882813-142.691406 142.6875-142.691406 78.804688 0 142.6875 63.882812 142.6875 142.691406 0 78.804688-63.882812 142.6875-142.6875 142.6875-78.769531-.089844-142.601562-63.921875-142.6875-142.6875zm327.34375 327.34375c-43.488281.105469-84.636718-19.671875-111.71875-53.695312-27.082031-34.027344-37.125-78.566407-27.261718-120.921876 6.613281-1.996093 13.09375-4.425781 19.386718-7.273437-18.230468 55.457031 3.988282 116.179687 53.710938 146.769531 49.71875 30.585938 113.9375 23.042969 155.21875-18.234375 41.277344-41.28125 48.824218-105.496093 18.234375-155.21875-30.589844-49.722656-91.3125-71.945312-146.769531-53.710937 2.847656-6.296875 5.277343-12.773438 7.277343-19.386719 53.429688-12.28125 109.175781 7.144531 143.398438 49.976563 34.222656 42.832031 40.871093 101.488281 17.097656 150.890624-23.769531 49.40625-73.75 80.816407-128.574219 80.804688zm0 0"/><path d="m202.894531 203.140625c-9.601562 9.601563-12.476562 24.042969-7.28125 36.589844 5.195313 12.542969 17.441407 20.726562 31.019531 20.726562 13.578126 0 25.824219-8.183593 31.019532-20.726562 5.195312-12.546875 2.320312-26.988281-7.28125-36.589844-13.28125-12.691406-34.195313-12.691406-47.476563 0zm35.609375 35.605469c-6.644531 6.34375-17.097656 6.34375-23.738281 0-4.804687-4.800782-6.238281-12.019532-3.640625-18.292969s8.71875-10.367187 15.507812-10.367187c6.789063 0 12.910157 4.09375 15.511719 10.367187 2.597657 6.273437 1.160157 13.492187-3.640625 18.292969zm0 0"/><path d="m72.324219 72.566406c-9.605469 9.601563-12.476563 24.042969-7.28125 36.589844 5.195312 12.546875 17.4375 20.726562 31.019531 20.726562 13.578125 0 25.820312-8.179687 31.015625-20.726562 5.199219-12.546875 2.324219-26.988281-7.28125-36.589844-13.28125-12.6875-34.191406-12.6875-47.472656 0zm35.605469 35.605469c-6.640626 6.347656-17.097657 6.347656-23.738282 0-4.800781-4.800781-6.238281-12.019531-3.640625-18.292969 2.597657-6.273437 8.71875-10.363281 15.511719-10.363281 6.789062 0 12.910156 4.089844 15.507812 10.363281 2.597657 6.273438 1.160157 13.492188-3.640624 18.292969zm0 0"/><path d="m346.003906 438.574219c50.992188 0 92.328125-41.335938 92.328125-92.328125 0-50.988282-41.335937-92.328125-92.328125-92.328125-50.992187 0-92.328125 41.339843-92.328125 92.328125.058594 50.96875 41.359375 92.273437 92.328125 92.328125zm0-167.867188c41.71875 0 75.539063 33.820313 75.539063 75.539063 0 41.722656-33.820313 75.542968-75.539063 75.542968s-75.542968-33.820312-75.542968-75.542968c.046874-41.699219 33.839843-75.492188 75.542968-75.539063zm0 0"/><path d="m293.375 363.027344c4.632812-.25 8.1875-4.199219 7.945312-8.828125-.929687-12.90625 4.960938-25.359375 15.527344-32.828125 3.863282-2.460938 5.042969-7.5625 2.648438-11.46875-2.390625-3.902344-7.472656-5.167969-11.417969-2.84375-15.816406 10.695312-24.769531 28.976562-23.527344 48.023437.234375 4.453125 3.910157 7.945313 8.371094 7.953125.148437 0 .304687 0 .453125-.007812zm0 0"/><path d="m343.546875 303.378906c2.398437-2.398437 3.117187-6.007812 1.816406-9.144531-1.296875-3.136719-4.359375-5.183594-7.753906-5.183594s-6.453125 2.046875-7.753906 5.183594-.582031 6.746094 1.820312 9.144531c3.277344 3.28125 8.589844 3.28125 11.871094 0zm0 0"/></svg>