<svg height="512pt" viewBox="0 -63 512 511" width="512pt" xmlns="http://www.w3.org/2000/svg"><path d="m457.324219 128.503906c-.304688 0-.589844.03125-.894531.035156-3.558594-7.933593-7.996094-15.445312-13.230469-22.394531-45.011719-88.554687-158.523438-61.566406-159.648438-61.277343l-.09375.046874c-9.828125 2.296876-19.066406 6.609376-27.136719 12.664063-16.117187-26.589844-41.695312-46.097656-71.601562-54.601563-.164062-.050781-.277344-.039062-.433594-.085937-.546875-.152344-1.105468-.261719-1.671875-.324219-.085937-.007812-.210937-.046875-.289062-.054687-6.101563-1.371094-12.34375-2.042969-18.597657-2.007813-.734374-.015625-1.464843.015625-2.191406.085938-.683594-.03125-1.367187-.085938-2-.085938-101.382812 0-159.535156 69.984375-159.535156 192s58.152344 192 159.535156 192c.777344.015625 1.558594-.011718 2.335938-.074218.625.039062 1.261718.074218 1.855468.074218 6.253907.035156 12.496094-.640625 18.601563-2.007812.078125-.007813.203125-.050782.289063-.058594.5625-.058594 1.125-.167969 1.671874-.324219.15625-.042969.265626-.03125.429688-.085937 29.90625-8.503906 55.488281-28.011719 71.605469-54.601563 8.074219 6.09375 17.335937 10.421875 27.191406 12.703125 1.433594.359375 2.933594.652344 4.375.917969v-.011719c12.316406 2.605469 24.875 3.875 37.460937 3.785156 36.246094 0 89.535157-10.511718 117.714844-65.738281 5.304688-7.019531 9.796875-14.617187 13.390625-22.652343.300781.007812.570313.074218.871094.074218 30.148437 0 54.671875-28.710937 54.671875-64 0-35.292968-24.523438-64-54.675781-64zm-54.527344 93.867188h1.445313c-2.960938 5.277344-6.527344 8.53125-9.828126 8.53125-4.4375 0-10.734374-6.625-14.175781-19.332032-3.28125-12.515624-3.277343-25.664062.007813-38.175781 3.4375-12.667969 9.726562-19.292969 14.171875-19.292969 3.300781 0 6.871093 3.253907 9.828125 8.535157h-1.445313c-9.378906.054687-16.945312 7.6875-16.917969 17.066406v25.601563c-.027343 9.378906 7.539063 17.011718 16.917969 17.066406zm13.628906-72.292969c-4.722656-7.722656-12.964843-12.605469-22.007812-13.042969-13.574219 0-25.316407 12.226563-30.625 31.867188-4.097657 15.453125-4.101563 31.707031-.007813 47.160156 5.316406 19.683594 17.058594 31.90625 30.632813 31.90625 9.039062-.433594 17.277343-5.316406 22.003906-13.035156 5.835937 7.941406 13.734375 14.136718 22.839844 17.914062-2.730469 5.589844-5.988281 10.910156-9.734375 15.878906-.207032.238282-.398438.484376-.574219.746094-9.0625 12.535156-23.296875 20.308594-38.738281 21.160156-34.609375 0-62.769532-44.023437-62.769532-98.132812 0-54.105469 28.160157-98.132812 62.769532-98.132812 15.375.835937 29.554687 8.554687 38.605468 21.011718.367188.714844.839844 1.371094 1.394532 1.953125 3.453125 4.667969 6.480468 9.636719 9.046875 14.847657-9.097657 3.777343-16.992188 9.964843-22.835938 17.898437zm-399.359375 42.425781c0-80.355468 25.792969-134.828125 73.769532-159.613281-34.722657 34.246094-57.277344 92.550781-57.277344 159.613281 0 67.160156 22.640625 125.523438 57.550781 159.753906-48.148437-24.722656-74.042969-79.246093-74.042969-159.753906zm163.371094 172.996094h-.019531c-.277344.027344-.558594.066406-.84375.117188-5.835938 1.066406-11.753907 1.644531-17.683594 1.734374-61.355469-1.445312-111.265625-79.875-111.265625-174.847656 0-94.976562 49.898438-173.390625 111.210938-174.847656 5.953124.054688 11.886718.632812 17.738281 1.726562.222656.039063.480469.070313.742187.09375l.035156.007813c23.808594 5.480469 45.972657 23.058594 63.074219 49.554687-7.414062 7.871094-13.789062 16.660157-18.96875 26.152344-4.292969 7.957032-7.929687 16.253906-10.871093 24.808594-29.929688.339844-54.203126 32.71875-54.203126 72.5 0 39.761719 24.25 72.125 54.160157 72.5 2.960937 8.554688 6.609375 16.855469 10.914062 24.816406 5.179688 9.488282 11.554688 18.277344 18.96875 26.144532-17.082031 26.464843-39.214843 44.039062-62.988281 49.539062zm27.652344-118.296875c-17.902344-4.238281-31.640625-27.117187-31.640625-54.699219 0-27.582031 13.738281-50.460937 31.640625-54.699218-9.019532 35.90625-9.019532 73.488281 0 109.398437zm83.695312 77.214844c-.269531-.0625-.53125.007812-.796875-.03125l.019531-.125c-1.082031-.199219-2.222656-.410157-3.566406-.742188-10.304687-2.496093-19.753906-7.695312-27.382812-15.058593-8.3125-7.777344-15.296875-16.863282-20.667969-26.898438-4.902344-8.929688-8.894531-18.332031-11.914063-28.058594-11.996093-39.40625-12.113281-81.472656-.335937-120.941406.171875-.355469.3125-.71875.429687-1.09375 2.992188-9.710938 6.953126-19.097656 11.824219-28.015625 5.378907-10.054687 12.375-19.160156 20.707031-26.949219 7.621094-7.347656 17.054688-12.53125 27.34375-15.019531l.101563-.046875c.039063-.007812.085937.007812.121094-.003906.804687-.195313 63.558593-15.144532 109.109375 16.289062-2.175782-.269531-4.367188-.410156-6.5625-.417968-44.015625 0-79.832032 51.671874-79.832032 115.199218 0 63.523438 35.816407 115.199219 79.832032 115.199219 2.511718-.007813 5.023437-.179687 7.511718-.519531-15.109374 10.636718-32.648437 17.3125-51.007812 19.417968-18.300781 2.378907-36.878906 1.640626-54.933594-2.183593zm165.539063-84.980469c-1.589844.003906-3.179688-.132812-4.75-.410156-13.199219-2.726563-24.019531-12.144532-28.539063-24.839844-.078125-.234375-.164062-.464844-.265625-.6875l-.046875-.128906-.0625-.167969c-.316406-.65625-.589844-1.324219-.828125-2.011719-.039062-.117187-.132812-.199218-.179687-.316406-.238282-.558594-.535156-1.085938-.890625-1.574219-.242188-.441406-.523438-.859375-.839844-1.246093-1.035156-1.226563-2.472656-2.046876-4.054687-2.320313-.585938-.191406-1.195313-.3125-1.808594-.363281-.121094-.007813-.222656-.070313-.34375-.070313h-11.765625l-.148438-25.597656h11.917969c.132812 0 .238281-.070313.367188-.074219.605468-.054687 1.199218-.175781 1.773437-.359375.492187-.09375.976563-.234375 1.441406-.414062 1.503907-.617188 2.738281-1.746094 3.488281-3.1875.34375-.476563.632813-.992188.867188-1.535157.046875-.117187.140625-.199218.179688-.320312.238281-.683594.511718-1.355469.824218-2.007812.148438-.320313.273438-.648438.375-.984376 4.5625-12.757812 15.46875-22.195312 28.75-24.875 1.5-.257812 3.019532-.382812 4.539063-.375 20.734375 0 37.609375 21.058594 37.609375 46.933594s-16.875 46.933594-37.609375 46.933594zm0 0"/><path d="m469.910156 171.167969c-2.265625 0-4.4375.898437-6.039062 2.5-1.597656 1.601562-2.496094 3.769531-2.496094 6.035156v25.601563c0 4.710937 3.820312 8.53125 8.535156 8.53125 4.710938 0 8.53125-3.820313 8.53125-8.53125v-25.601563c0-4.714844-3.820312-8.535156-8.53125-8.535156zm0 0"/><path d="m129.574219 53.167969c-1.117188.757812-27.550781 19.066406-45.097657 63.675781-1.726562 4.386719.429688 9.339844 4.816407 11.066406 4.382812 1.726563 9.339843-.429687 11.066406-4.816406 7.644531-21.777344 21.066406-41.070312 38.824219-55.816406 3.898437-2.652344 4.90625-7.960938 2.25-11.855469-2.652344-3.898437-7.960938-4.90625-11.855469-2.253906zm0 0"/><path d="m167.917969 43.167969c-.078125-4.613281-3.867188-8.296875-8.484375-8.246094-4.613282.054687-8.320313 3.824219-8.292969 8.4375.027344 4.617187 3.773437 8.34375 8.390625 8.34375 4.671875-.039063 8.425781-3.859375 8.386719-8.535156zm0 0"/></svg>