<svg height="511pt" viewBox="-3 1 511 511.99995" width="511pt" xmlns="http://www.w3.org/2000/svg"><path d="m94.367188 332.800781c-14.359376 0-25.601563 14.992188-25.601563 34.132813s11.242187 34.132812 25.601563 34.132812c14.359374 0 25.597656-14.992187 25.597656-34.132812s-11.238282-34.132813-25.597656-34.132813zm0 51.199219c-3.484376 0-8.535157-6.648438-8.535157-17.066406 0-10.417969 5.050781-17.066406 8.535157-17.066406 3.484374 0 8.53125 6.648437 8.53125 17.066406 0 10.417968-5.046876 17.066406-8.53125 17.066406zm0 0"/><path d="m453.023438 296.265625c-3.476563-3.875-7.125-7.574219-10.777344-11.261719-10.511719-9.132812-18.917969-20.441406-24.632813-33.144531-1.410156-2.433594-1.6875-5.363281-.757812-8.019531.929687-2.65625 2.972656-4.777344 5.59375-5.800782.335937-.226562.65625-.476562.957031-.75.523438-.324218 1.007812-.703124 1.449219-1.136718.640625-.871094 1.214843-1.792969 1.707031-2.757813.1875-.582031.308594-1.183593.363281-1.792969.109375-.394531.191407-.796874.242188-1.203124v-17.066407c-.015625-14.128906-11.46875-25.582031-25.601563-25.597656h-8.53125v-35.707031c11.75-4.132813 18.804688-16.140625 16.695313-28.417969-2.113281-12.277344-12.773438-21.238281-25.230469-21.210937h-8.535156v-26.847657c2.808594-2.121093 5.355468-4.566406 7.589844-7.285156h52.144531c14.132812-.015625 25.585937-11.46875 25.601562-25.597656-.066406-14.113281-11.488281-25.535157-25.601562-25.601563h-52.144531c-9.425782-10.839844-23.089844-17.066406-37.453126-17.066406-14.367187 0-28.03125 6.226562-37.457031 17.066406h-52.144531c-6.757812-.054687-13.246094 2.632813-17.984375 7.449219-4.902344 4.761719-7.65625 11.316406-7.617187 18.152344.015624 14.128906 11.46875 25.582031 25.601562 25.597656h52.144531c2.238281 2.71875 4.785157 5.164063 7.589844 7.285156v26.847657h-8.535156c-12.457031-.027344-23.117188 8.933593-25.226563 21.210937-2.113281 12.277344 4.941406 24.285156 16.695313 28.417969v35.707031h-8.535157c-14.132812.015625-25.585937 11.46875-25.597656 25.597656v17.066407c0 .140624.070313.257812.078125.390624.042969.785157.199219 1.5625.464844 2.304688.085937.25.105469.511719.210937.753906.410157.9375.988282 1.796875 1.707032 2.53125.148437.152344.347656.234375.511718.375.523438.5 1.109376.929688 1.742188 1.277344 7.027344 3.355469 11.734375 10.203125 12.351562 17.96875.875 10.0625-2.785156 19.992188-9.984374 27.074219-.828126.640625-1.695313 1.226562-2.59375 1.757812-20.710938-53.957031-63.796876-88.566406-111.15625-88.566406h-34.132813c-68.226563 0-123.734375 70.816406-123.734375 157.867187 0 87.050782 55.507812 157.867188 123.734375 157.867188h34.132813c46.40625 0 89.078124-33.554688 110.058593-85.867188 26.289063-2.464843 68.171875-11.574218 98.585938-42.746093 12.011719 24.914062 17.980469 52.308593 17.429687 79.964843.09375 7.523438 5.109375 14.097657 12.347656 16.171876 14.875 4.03125 30.230469 6.011718 45.640626 5.894531 16.414062-.023438 32.761718-2.070313 48.675781-6.09375 7.585937-1.910157 12.894531-8.75 12.859375-16.574219l-.015625-18.441406c5.457031-54.417969-13.148438-108.496094-50.925781-148.042969zm-17.324219-262.132813c2.300781-.003906 4.503906.941407 6.085937 2.617188 1.585938 1.558594 2.46875 3.695312 2.449219 5.917969-.003906 4.710937-3.824219 8.527343-8.535156 8.53125h-43.613281c1.261718-5.617188 1.261718-11.445313 0-17.066407zm-89.597657-17.066406c15.277344-1.066406 28.582032 10.335938 29.863282 25.601563-1.28125 15.261719-14.585938 26.664062-29.863282 25.597656-15.28125 1.066406-28.585937-10.335937-29.867187-25.597656 1.28125-15.265625 14.585937-26.667969 29.867187-25.601563zm-89.601562 34.132813c-4.710938-.003907-8.53125-3.820313-8.535156-8.53125-.003906-2.304688.945312-4.503907 2.617187-6.085938 1.558594-1.585937 3.695313-2.46875 5.917969-2.449219h43.613281c-1.261719 5.621094-1.261719 11.449219 0 17.066407zm76.800781 32.480469c8.390625 2.203124 17.207031 2.203124 25.597657 0v18.71875h-25.597657zm-25.601562 35.785156h76.800781c4.710938 0 8.535156 3.824218 8.535156 8.535156s-3.824218 8.535156-8.535156 8.535156h-76.800781c-4.710938 0-8.53125-3.824218-8.53125-8.535156s3.820312-8.535156 8.53125-8.535156zm8.535156 34.136718h59.730469v34.132813h-59.730469zm-34.132813 59.730469c0-4.710937 3.820313-8.527343 8.53125-8.53125h110.933594c4.710938.003907 8.53125 3.820313 8.535156 8.53125v8.535157h-128zm-264.535156 140.800781c0-64.1875 32.746094-118.371093 77.320313-135.253906-36.019531 27.628906-60.253907 77.835938-60.253907 135.253906 0 57.421876 24.234376 107.625 60.253907 135.253907-44.574219-16.882813-77.320313-71.066407-77.320313-135.253907zm140.800782 140.800782c-58.816407 0-106.667969-63.167969-106.667969-140.800782 0-77.632812 47.851562-140.800781 106.667969-140.800781 39.996093 0 76.742187 30.046875 94.988281 76.964844-4.164063.449219-8.363281.433594-12.523438-.046875-.25-.046875-.480469.042969-.726562.019531-.234375-.019531-.433594-.136719-.671875-.136719-11.71875.636719-22.363282 7.027344-28.4375 17.066407h-44.097656c-21.53125 0-38.398438 22.492187-38.398438 51.199219 0 28.710937 16.867188 51.203124 38.398438 51.203124h44.097656c5.945312 9.722657 16.164062 16.03125 27.515625 16.992188l.128906.039062c.257813.015626 4.265625.382813 10.847656.390626-19.1875 41.621093-53.886719 67.910156-91.121093 67.910156zm8.53125-102.398438c-11.566407 0-21.332032-15.636718-21.332032-34.136718s9.765625-34.132813 21.332032-34.132813h35.449218c-7.441406 22.148437-7.441406 46.121094 0 68.269531zm320.058593 70.238282c-27.980469 7.488281-57.425781 7.570312-85.449219.242187-1.65625-83.617187-36.023437-110.347656-37.488281-111.441406-3.769531-2.828125-9.117187-2.066407-11.945312 1.707031-2.828125 3.769531-2.066407 9.117188 1.707031 11.945312 1.257812 1.117188 2.433594 2.320313 3.519531 3.609376-28.734375 31.589843-71.632812 39.109374-95.402343 40.699218-7.214844.546875-14.460938.578125-21.683594.101563-.140625-.015625-.265625.046875-.40625.039062-.144532-.003906-.242188-.074219-.375-.074219-12.109375 0-25.601563-21.027343-25.601563-51.203124 0-29.90625 13.253907-50.796876 25.28125-51.164063 2.730469.335937 5.484375.5 8.238281.492187 12.890626.40625 25.523438-3.683593 35.730469-11.566406 11.1875-10.246094 17.105469-25.023437 16.085938-40.160156-.253907-5.980469-1.886719-11.820312-4.769531-17.066406h106.242187c-1.738281 6.191406-1.410156 12.785156.9375 18.773437 6.480469 15.046875 16.222656 28.464844 28.523437 39.28125 3.460938 3.5 6.925782 7 10.21875 10.675781 34.917969 36.214844 51.976563 86.050782 46.578126 136.070313zm0 0"/></svg>