<svg height="512pt" viewBox="0 -124 512 512" width="512pt" xmlns="http://www.w3.org/2000/svg"><path d="m494.933594 61.304688v-35.703126c-.015625-14.132812-11.46875-25.585937-25.601563-25.601562h-307.199219c-14.132812.015625-25.582031 11.46875-25.597656 25.601562v35.703126c-10.199218 3.59375-17.035156 13.214843-17.070312 24.027343v8.535157h-17.066406v-8.535157c-.019532-6.066406-3.269532-11.664062-8.53125-14.691406v-45.039063c-.015626-14.132812-11.46875-25.585937-25.601563-25.601562h-34.132813c-14.132812.015625-25.582031 11.46875-25.597656 25.601562v45.039063c-5.261718 3.027344-8.5156248 8.625-8.535156 14.691406v93.867188c.0195312 6.070312 3.273438 11.667969 8.535156 14.691406v45.042969c.015625 14.132812 11.464844 25.585937 25.597656 25.601562h34.132813c14.132813-.015625 25.585937-11.46875 25.601563-25.601562v-45.042969c5.261718-3.023437 8.511718-8.621094 8.53125-14.691406v-8.53125h17.066406v8.53125c.035156 10.8125 6.871094 20.4375 17.070312 24.027343v35.707032c.015625 14.132812 11.464844 25.585937 25.597656 25.601562h307.199219c14.132813-.015625 25.585938-11.46875 25.601563-25.601562v-35.707032c10.199218-3.589843 17.035156-13.214843 17.066406-24.027343v-93.867188c-.03125-10.8125-6.867188-20.433593-17.066406-24.027343zm-341.332032-35.703126c0-4.714843 3.820313-8.53125 8.53125-8.535156h307.199219c4.714844.003906 8.53125 3.820313 8.535157 8.535156v34.132813h-324.265626zm-136.535156 59.730469h68.265625v76.800781l.015625.066407v17h-68.28125zm8.535156-59.730469c0-4.714843 3.820313-8.53125 8.53125-8.535156h34.132813c4.710937.003906 8.53125 3.820313 8.535156 8.535156v42.664063h-51.199219zm51.199219 213.332032c-.003906 4.710937-3.824219 8.53125-8.535156 8.53125h-34.132813c-4.710937 0-8.53125-3.820313-8.53125-8.53125v-42.667969h51.199219zm25.597657-85.332032v-42.667968h17.066406v42.667968zm375.46875 85.332032c-.003907 4.710937-3.820313 8.53125-8.535157 8.53125h-307.199219c-4.710937 0-8.53125-3.820313-8.53125-8.53125v-34.132813h324.265626zm17.066406-59.734375c-.003906 4.710937-3.820313 8.53125-8.535156 8.535156h-341.332032c-4.710937-.003906-8.53125-3.824219-8.53125-8.535156v-93.867188c0-4.710937 3.820313-8.527343 8.53125-8.53125h341.332032c4.714843.003907 8.53125 3.820313 8.535156 8.53125zm0 0"/><path d="m401.066406 102.398438h-134.65625c-4.800781-5.425782-11.699218-8.535157-18.945312-8.535157s-14.140625 3.109375-18.941406 8.535157h-23.722657c-9.421875.015624-17.054687 7.648437-17.066406 17.066406v25.601562c.011719 9.421875 7.644531 17.054688 17.066406 17.066406h23.722657c4.800781 5.429688 11.695312 8.535157 18.941406 8.535157s14.144531-3.105469 18.945312-8.535157h134.65625c9.421875-.011718 17.054688-7.644531 17.066406-17.066406v-25.601562c-.011718-9.417969-7.644531-17.050782-17.066406-17.066406zm-196.265625 42.667968v-25.601562h17.066407v25.601562zm42.664063 8.535156c-4.710938-.003906-8.527344-3.824218-8.53125-8.535156v-25.601562c0-4.710938 3.820312-8.53125 8.53125-8.53125 4.714844 0 8.535156 3.820312 8.535156 8.53125v25.601562c-.003906 4.710938-3.820312 8.53125-8.535156 8.535156zm153.601562-8.535156h-128v-25.601562h128zm0 0"/><path d="m59.734375 42.667969c0 4.710937-3.820313 8.53125-8.535156 8.53125-4.710938 0-8.53125-3.820313-8.53125-8.53125 0-4.714844 3.820312-8.535157 8.53125-8.535157 4.714843 0 8.535156 3.820313 8.535156 8.535157zm0 0"/><path d="m59.734375 221.867188c0 4.710937-3.820313 8.53125-8.535156 8.53125-4.710938 0-8.53125-3.820313-8.53125-8.53125 0-4.714844 3.820312-8.535157 8.53125-8.535157 4.714843 0 8.535156 3.820313 8.535156 8.535157zm0 0"/><path d="m187.734375 42.667969c0 4.710937-3.820313 8.53125-8.535156 8.53125-4.710938 0-8.53125-3.820313-8.53125-8.53125 0-4.714844 3.820312-8.535157 8.53125-8.535157 4.714843 0 8.535156 3.820313 8.535156 8.535157zm0 0"/><path d="m187.734375 221.867188c0 4.710937-3.820313 8.53125-8.535156 8.53125-4.710938 0-8.53125-3.820313-8.53125-8.53125 0-4.714844 3.820312-8.535157 8.53125-8.535157 4.714843 0 8.535156 3.820313 8.535156 8.535157zm0 0"/><path d="m460.800781 42.667969c0 4.710937-3.820312 8.53125-8.535156 8.53125-4.710937 0-8.53125-3.820313-8.53125-8.53125 0-4.714844 3.820313-8.535157 8.53125-8.535157 4.714844 0 8.535156 3.820313 8.535156 8.535157zm0 0"/><path d="m460.800781 221.867188c0 4.710937-3.820312 8.53125-8.535156 8.53125-4.710937 0-8.53125-3.820313-8.53125-8.53125 0-4.714844 3.820313-8.535157 8.53125-8.535157 4.714844 0 8.535156 3.820313 8.535156 8.535157zm0 0"/></svg>