<svg height="505pt" viewBox="0 -94 505.78162 505" width="505pt" xmlns="http://www.w3.org/2000/svg"><path d="m488.824219 100.148438c-6.359375-23.757813-20.957031-44.480469-41.183594-58.46875-.3125-.234376-.636719-.445313-.976563-.632813l-32.292968-18.097656-.992188-.605469-4.03125-2.261719-.035156-.011719-.316406-.179687c-4.289063-2.207031-8.78125-3.992187-13.414063-5.335937-21.851562-5.902344-45.160156-2.757813-64.664062 8.726562-8.082031-8.25-17.925781-14.566406-28.789063-18.480469-49.976562-17.773437-109.472656 19.75-135.921875 84.175781-4.058593-14.9375-16.082031-26.382812-31.199219-29.707031l-28.832031-6.402343c-7.453125-1.652344-15.257812.164062-21.214843 4.945312-5.953126 4.777344-9.417969 12-9.421876 19.636719v74.90625l-51.546874 14.085937c-13.984376 3.765625-23.992188 21.960938-23.992188 45.359375 0 26.320313 12.632812 46.164063 29.378906 46.164063.578125 0 1.113282-.203125 1.683594-.25.179688.011718.34375.082031.527344.082031.75.003906 1.492187-.09375 2.214844-.292969l1.617187-.441406.042969-.011719 40.074218-10.925781v27.269531c-.011718 14.453125 9.242188 27.289063 22.960938 31.84375l36.222656 12.070313c2.59375.871094 5.3125 1.320312 8.046875 1.328125 13.871094-.078125 25.082031-11.332031 25.097657-25.203125v-56.730469l12.121093-3.09375c14.628907 17.175781 36.082031 27.027344 58.644531 26.921875 7.804688-.027344 15.570313-1.125 23.082032-3.253906 10.246094 20.550781 28.34375 36.105468 50.203125 43.144531 4.648437 1.386719 9.433593 2.277344 14.269531 2.652344 2.199219.242187 4.410156.363281 6.621094.371093 1.320312 0 2.566406-.050781 3.679687-.148437l34.15625.335937h.09375c24.386719-.722656 47.71875-10.128906 65.78125-26.53125 27.824219-11.613281 52.5625-40.1875 63.570313-77.820312 10.910156-37.324219 5.585937-74.359375-11.265625-99.132812zm-96.734375 180.195312c1.808594.527344 3.640625.824219 5.46875 1.179688-8.523438 3.433593-17.617188 5.238281-26.808594 5.320312h-.027344c-5.628906.03125-11.238281-.710938-16.664062-2.203125-.199219-.058594-.402344-.109375-.617188-.148437-.230468-.066407-.523437-.15625-.585937-.171876-18.4375-5.828124-33.730469-18.871093-42.394531-36.15625-15.738282-28.714843-18.492188-68.53125-7.367188-106.523437 18.574219-63.582031 70.984375-105.796875 117.261719-93.925781.511719.101562 1.015625.234375 1.511719.394531 3.125.9375 6.179687 2.101563 9.136718 3.484375l6.882813 3.785156.078125.042969.011718.003906h.003907l.207031.132813c7.824219 5.089844 14.609375 11.621094 19.988281 19.25-1.777343-.710938-3.546875-1.445313-5.410156-1.988282-42.726563-12.507812-91.261719 23.835938-108 81.058594-16.726563 57.210938 4.503906 113.949219 47.324219 126.464844zm-95.582032-259.722656c7.328126 2.621094 14.070313 6.648437 19.847657 11.859375-20.140625 15.535156-36.507813 35.425781-47.878907 58.179687l-93.074218 22.929688c1.039062-3.75 2.183594-7.46875 3.484375-11.105469 21.554687-60.558594 74.34375-97.265625 117.621093-81.863281zm-176.789062 137.070312h.058594l1.460937-.410156c5.121094-.585938 13.058594 11.128906 13.058594 29.339844 0 17.328125-6.847656 27.683594-10.976563 29.074218l-1.59375.425782-.0625.03125-66.550781 18.144531c2.445313-7.246094 3.675781-14.847656 3.640625-22.496094.402344-12.324219-3.027344-24.472656-9.820312-34.769531zm-90.339844 24.734375c5.015625 0 12.589844 11.710938 12.589844 29.375 0 17.664063-7.574219 29.378907-12.589844 29.378907-5.019531 0-12.59375-11.714844-12.59375-29.378907 0-17.664062 7.574219-29.375 12.59375-29.375zm121.703125 4.195313v106.8125c0 2.699218-1.300781 5.230468-3.488281 6.808594-2.1875 1.574218-5 2.003906-7.5625 1.148437l-36.21875-12.078125c-6.859375-2.277344-11.492188-8.691406-11.484375-15.917969v-31.84375l35.386719-9.652343.066406-.035157.359375-.097656c13.71875-4.570313 22.941406-22.707031 22.941406-45.144531 0-26.320313-12.632812-46.164063-29.378906-46.164063-1.003906.015625-2.007813.089844-3.007813.214844-.097656.007813-.195312.042969-.296874.054687-.128907.03125-.257813-.007812-.390626.027344l-.628906.171875-.042968.007813-.410157.117187-24.59375 6.714844v-70.316406c0-2.542969 1.15625-4.949219 3.140625-6.542969 1.988282-1.589844 4.585938-2.195312 7.070313-1.644531l28.828125 6.402343c11.550781 2.511719 19.769531 12.761719 19.710937 24.582032zm16.785157-53.863282 91.722656-22.621093c-2.324219 5.910156-4.414063 11.90625-6.1875 17.976562-6.859375 23.132813-9.492188 47.3125-7.773438 71.378907l-64.332031 16.484374c-.1875.03125-.375.070313-.554687.121094l-12.875 3.285156zm50.230468 107.480469c-7.074218-2.570312-13.601562-6.449219-19.238281-11.4375l48.90625-12.527343c1.480469 8.683593 3.765625 17.207031 6.820313 25.46875-12.046876 3.070312-24.734376 2.546874-36.488282-1.503907zm55.402344 3.335938c-5.5625-12.269531-9.113281-25.355469-10.515625-38.753907-2.683594-24.195312-.464844-48.683593 6.527344-72 3.125-10.679687 7.164062-21.070312 12.074219-31.054687 11.453124-24.710937 29.519531-45.773437 52.199218-60.855469 16.125-11.050781 36.117188-14.910156 55.199219-10.664062-43.890625 7.691406-85.066406 48.667968-102.011719 106.679687-12.53125 42.808594-9.335937 86.285157 8.761719 119.3125 5.863281 10.941407 13.765625 20.664063 23.277344 28.640625-.777344-.195312-1.578125-.335937-2.34375-.566406-19.703125-6.53125-35.507813-21.445312-43.167969-40.738281zm210.476562-49c-9.644531 32.980469-30.917968 57.96875-54.246093 67.382812-.269531.097657-.535157.207031-.792969.332031-10.199219 4.203126-21.511719 4.886719-32.140625 1.941407-33.9375-9.917969-50.050781-57.3125-35.921875-105.648438 12.371094-42.28125 43.855469-71.484375 74.265625-71.484375 4.371094-.007812 8.71875.609375 12.917969 1.835938 10.371094 3.1875 19.40625 9.703125 25.707031 18.539062.21875.34375.46875.671875.738281.980469 14.640625 20.492187 19.132813 53.078125 9.472656 86.121094zm0 0"/><path d="m447.222656 131.664062c-11.734375-3.691406-24.527344-1.390624-34.238281 6.152344-21.730469 16.558594-31.402344 44.535156-24.542969 70.976563 2.980469 11.933593 11.625 21.644531 23.132813 25.984375 3.511719 1.210937 7.203125 1.832031 10.917969 1.828125 8.414062-.179688 16.5625-2.964844 23.328124-7.972657 21.730469-16.554687 31.402344-44.535156 24.539063-70.976562-2.972656-11.9375-11.625-21.65625-23.136719-25.992188zm5.71875 59.695313c-1.863281 5.398437-4.597656 10.453125-8.089844 14.972656v-23.90625c0-4.636719-3.757812-8.394531-8.390624-8.394531-4.636719 0-8.394532 3.757812-8.394532 8.394531v36.367188c-3.566406 1.191406-7.417968 1.230469-11.007812.117187-6.359375-2.65625-11.035156-8.230468-12.542969-14.953125-4.773437-19.511719 2.316406-40.011719 18.125-52.410156 3.96875-3.007813 8.765625-4.71875 13.746094-4.898437 1.820312-.007813 3.632812.292968 5.359375.882812 6.359375 2.65625 11.035156 8.234375 12.539062 14.960938 2.554688 9.527343 2.085938 19.617187-1.34375 28.867187zm0 0"/><path d="m125.902344 266.359375c0 4.636719-3.757813 8.394531-8.394532 8.394531-4.636718 0-8.394531-3.757812-8.394531-8.394531s3.757813-8.394531 8.394531-8.394531c4.636719 0 8.394532 3.757812 8.394532 8.394531zm0 0"/><path d="m125.902344 106.882812c0 4.636719-3.757813 8.394532-8.394532 8.394532-4.636718 0-8.394531-3.757813-8.394531-8.394532 0-4.632812 3.757813-8.390624 8.394531-8.390624 4.636719 0 8.394532 3.757812 8.394532 8.390624zm0 0"/></svg>